<?xml version="1.0" encoding="utf-8"?>
<!-- Generator: Adobe Illustrator 27.3.1, SVG Export Plug-In . SVG Version: 6.00 Build 0)  -->
<svg version="1.1" id="レイヤー_1" xmlns="http://www.w3.org/2000/svg" xmlns:xlink="http://www.w3.org/1999/xlink" x="0px"
	 y="0px" viewBox="0 0 2203.5 441.1" style="enable-background:new 0 0 2203.5 441.1;" xml:space="preserve">
<style type="text/css">
	.st0{fill:none;stroke:#808080;stroke-width:3.4548;}
	.st1{fill:#7F8080;}
	.st2{fill:#E95520;}
	.st3{fill:#FFFFFF;}
</style>
<g>
	<g>
		<circle class="st0" cx="229.4" cy="220.5" r="216.6"/>
		<g>
			<g>
				<path class="st1" d="M95.1,210.2c-1.2,0-2.1,0.1-3.1,0.2V208c-1.2,1.1-1.6,1.4-2.8,2.3c-0.9-2.6-1.2-3.1-2.5-5
					c4.6-3.1,7.1-6.2,9.2-10.8h5.6c2,3.7,3.8,5.7,7.7,8.4c-1.3,1.5-1.9,2.5-2.8,4.6c-0.5-0.4-0.5-0.4-1.1-1v3.9
					c-1-0.1-1.7-0.1-3.1-0.1h-1.4v3.8h2.2c1.9,0,3.1-0.1,4.2-0.2v5.1c-1.1-0.1-2.3-0.2-4.2-0.2h-2.2v12.9c2.3-0.6,3.4-0.9,6.5-1.8
					l0,3.7c5-3,8.2-7.5,9.5-13.6h-3.2c-2.2,0-3.9,0.1-5.2,0.3v-5.5c1.3,0.2,3.1,0.3,5,0.3h4.1c0.2-2.2,0.2-3.9,0.3-7.2h-4.7
					c-0.8,2.3-1.2,3.4-2.5,6.2c-1.7-1.4-3-2.1-4.6-2.7c2.9-4.8,4.6-10.4,4.6-15l4.9,0.9c-0.2,1.1-0.2,1.1-0.6,3.2
					c-0.2,0.8-0.3,1.5-0.6,2.6h3.4c0-7.4,0-7.4-0.2-8.8h5.7c-0.3,1.5-0.3,1.5-0.3,8.8h3.5c2.5,0,3.9-0.1,5.4-0.3v5.4
					c-1.6-0.2-3.4-0.3-5.3-0.3h-3.7c0,0.9,0,0.9-0.1,3.4c-0.1,0.9-0.1,1.8-0.2,3.8h4.8c2.4,0,4.1-0.1,5.4-0.3v5.4
					c-1.5-0.2-3.2-0.3-5.3-0.3h-4.4c1,3.2,2.4,6.1,4.1,8.5c1.6,2.4,3.6,4.1,7,6.3c-1.8,2.3-2.2,3-3.3,5.3c-5.3-4.2-8.3-8-10.6-13.6
					c-1.2,2.8-2.7,5.2-4.8,7.7c-1.9,2.2-4.3,4.2-7.4,6.1c-1.2-2.4-1.5-2.8-3-4.7c-3.2,1-6.2,1.8-14.1,3.6c-1.1,0.2-1.1,0.2-1.9,0.5
					c-0.5,0.1-0.5,0.1-0.8,0.2l-1-5.8c1.8,0,4.1-0.4,8.5-1.2v-13.9h-3.1c-2.1,0-3.3,0.1-4.8,0.2v-5.1c1.4,0.1,2.8,0.2,4.9,0.2h3
					v-3.8H95.1z M90.8,231.7c-0.6-4.2-1.1-6.4-2.3-10l4-1.3c1.2,3.5,1.7,5.4,2.5,9.8L90.8,231.7z M95.1,205.9h7.4c1,0,1.5,0,2.2,0
					c-2.8-2.5-3.7-3.6-5.6-6.8c-1.6,2.8-2.5,4.2-4.9,6.9H95.1z M101.9,228.4c1.2-3,1.7-5,2.1-8.2l3.9,1.3c-1,4-1.4,5.5-2.6,8.2
					L101.9,228.4z"/>
				<path class="st1" d="M144.5,209.7c-1,0-1.8,0.1-2.7,0.2v-2.4c-0.9,0.9-1.3,1.3-2.6,2.5c-0.9-2.5-1.3-3.5-2.3-4.9
					c2.7-2.2,4.1-3.6,5.8-6c1.4-2,2.2-3.4,2.8-5.1h5.4c0.9,2.4,2.9,5.1,5.7,7.6v-1.7c0-2.6,0-3.4-0.1-5c1.4,0.2,3,0.2,5.1,0.2h16
					c2.9,0,4.3-0.1,5.5-0.2c-0.2,1.6-0.2,3.1-0.2,5.9v33.9c0,3.6-1.1,4.5-5.5,4.5c-1.7,0-2.3,0-5.2-0.1c0-2.2-0.2-3.1-0.9-5
					c2.1,0.3,3.9,0.5,5.2,0.5c1.4,0,1.6-0.2,1.6-1.1v-20h-6.7v13.9h1.8V220c0-2.3-0.1-3.2-0.2-4.3h3.7c-0.1,1.1-0.1,1.9-0.1,4.3v9.9
					c0,1.6,0.1,2.7,0.1,3.3h-3.5v-1.7h-7v2.4h-3.7c0.2-1.4,0.2-2.3,0.2-4.3v-9.6c0-2-0.1-3.1-0.2-4.2h3.7c-0.1,1-0.1,1.9-0.1,4.2
					v7.5h1.7v-13.9h-6.7v20.4c0,3.1,0.1,4.6,0.3,6h-5c0.2-1.6,0.2-3.1,0.2-6v-29.8c-0.9,1.3-1.1,1.8-1.7,3.2
					c-0.4-0.4-0.5-0.5-0.9-0.9v3.5c-0.9-0.1-1.4-0.2-2.7-0.2h-1.2v3.8h1.6c1.7,0,2.6-0.1,3.6-0.3v5c-1.1-0.2-2-0.2-3.6-0.2h-1.6
					v13.2c2-0.6,2.8-0.8,5.4-1.6v4.7c-4.1,1.4-10,3.1-13.9,3.9c-1.1,0.3-2,0.5-2.6,0.7l-1.1-5.2c1.9-0.1,3.8-0.4,7.5-1.3V218h-2.7
					c-2,0-3.2,0.1-4.4,0.3v-5.1c1.2,0.3,2.4,0.4,4.5,0.4h2.7v-3.8H144.5z M140.7,231.1c-0.6-4.1-1.1-6.2-2.4-9.9l3.9-1.3
					c1.1,3,1.7,5.6,2.5,9.9L140.7,231.1z M144.6,205.6h6.9c1,0,1.3,0,1.8,0c-2.3-2.5-3.7-4.6-4.9-7c-1.4,2.8-2.6,4.5-4.8,7.1H144.6z
					 M150.9,228.1c0.8-3.1,1.2-5.2,1.5-8.2l3.6,1c-0.6,3.4-1,5.4-1.9,8.2L150.9,228.1z M169.3,209.5c1.4-2.7,2.4-5.6,3.1-8.8
					l4.4,1.4c-1.4,3.7-2.3,5.8-3.2,7.4h4.6v-9.7h-17v9.7H169.3z M166,200.8c1.5,2.5,1.8,3.2,3,6.4l-3.9,1.4
					c-0.9-2.6-1.6-4.2-2.9-6.4L166,200.8z"/>
				<path class="st1" d="M225.3,198c-0.6,1-0.8,1.4-1.8,3.6c-3.2,7.5-5.1,11.3-7.1,14.2c4.2,3.6,6.8,6,11.2,10.6l-4.8,5.2
					c-2.6-3.4-5.6-6.5-10.2-10.6c-2.2,2.9-4.8,5.7-7.8,8.4c-3.6,3.2-6.8,5.4-11.9,8.3c-1.4-2.4-2.2-3.3-4.4-5.2
					c5.6-2.8,9-5.1,13-8.7c2.4-2.2,4.4-4.3,6.4-6.8c-4-3.3-8.8-6.6-13.3-9l4.4-4.4c3.7,2.2,5.8,3.6,8.3,5.3c3.8,2.7,3.8,2.7,4.2,3
					c3.2-5.3,6.4-12.5,7.1-16.1L225.3,198z"/>
				<path class="st1" d="M232.5,213.1c2.2,0.3,3.2,0.4,8.1,0.4h26.7c5,0,5.9-0.1,8.1-0.4v7c-2-0.2-2.6-0.2-8.2-0.2h-26.6
					c-5.6,0-6.2,0-8.2,0.2V213.1z"/>
				<path class="st1" d="M319.5,206.2c-0.4,0.9-0.5,1.6-0.6,3.4c-0.2,5.7-0.7,13.4-1.2,16.7c-1.3,8.7-3.1,10.7-9.1,10.7
					c-1.9,0-3.6-0.2-6.2-0.6c-0.1-3.2-0.2-4.1-1.2-6.4c3,0.8,5,1.2,6.6,1.2c2.2,0,2.9-1.1,3.7-5.5c0.6-3.5,1.1-10.3,1.1-16
					l-11.7,0.1c-0.7,6.3-1.8,10-4,14.3c-2.8,5.3-7.2,9.9-13.5,13.9c-1.7-2.7-2.4-3.5-4.5-5.3c6.3-3.3,10.4-7.3,13-12.6
					c1.4-2.8,2.1-5.2,2.6-8.7c0.1-0.7,0.2-1.2,0.3-1.6l-8.3,0.1c-3.1,0-3.8,0.1-5.4,0.3l-0.1-6.2c1.7,0.3,3.1,0.4,5.6,0.4l8.8-0.1
					c0.2-1.9,0.3-4.8,0.3-6.3v-1.3c0-0.7,0-1.1-0.2-2l6.7,0.2c-0.1,0.7-0.2,0.9-0.2,1.6c0,0.3-0.1,0.6-0.1,1
					c-0.1,1.1-0.1,1.1-0.2,3.7c-0.1,1.1-0.1,1.6-0.2,3.2l11.1-0.1c2.3,0,2.7-0.1,4-0.5L319.5,206.2z"/>
				<path class="st1" d="M327.1,213.1c2.2,0.3,3.2,0.4,8.1,0.4h26.7c5,0,5.9-0.1,8.1-0.4v7c-2-0.2-2.6-0.2-8.2-0.2h-26.6
					c-5.6,0-6.2,0-8.2,0.2V213.1z"/>
			</g>
		</g>
	</g>
	<g>
		<circle class="st0" cx="1974" cy="220.5" r="216.6"/>
		<g>
			<g>
				<path class="st1" d="M1916,208.2c-0.6,1.2-0.8,2.3-1.1,4.2c-1.2,8.9-1.8,12.4-3.1,20h5.9c3.5,0,4.6-0.1,6.5-0.4v6.3
					c-1.8-0.2-3-0.2-6.4-0.2h-30.3c-3.5,0-4.7,0.1-6.5,0.2V232c1.9,0.3,3,0.4,6.6,0.4h17.5c1.4-6.6,2.5-13.7,3.2-20.6h-15.6
					c-2.8,0-3.9,0.1-5.6,0.3v-6.4c1.8,0.3,2.9,0.4,5.6,0.4h14.6c3,0,4-0.1,5.6-0.5L1916,208.2z"/>
				<path class="st1" d="M1927.2,218.4c2.2,0.3,3.2,0.3,8.1,0.3h26.7c5,0,5.9-0.1,8.1-0.3v7c-2-0.2-2.6-0.2-8.2-0.2h-26.6
					c-5.6,0-6.2,0-8.2,0.2V218.4z"/>
				<path class="st1" d="M2003.2,210.6l0.1-2.3v-1.6c0-3.3-0.1-4.4-0.2-5.6h6.5c-0.1,1.2-0.2,1.4-0.2,3.4c0,3.1,0,3.1-0.1,6.1h3.2
					c3.6,0,4.6-0.1,6.5-0.3v6.1c-1.8-0.2-3.1-0.3-6.4-0.3h-3.4c-0.1,6-0.1,6.3-0.4,8.2c-0.7,6.4-2.9,10.7-7.2,14.4
					c-2.7,2.3-5.2,3.6-9.8,5.3c-1-2.2-1.6-3.1-3.8-5.3c4.8-1.5,7.2-2.7,9.6-4.8c3.4-3,4.9-6.3,5.3-12c0.1-1.1,0.1-2.3,0.2-5.8h-13
					v7.5c0,2.1,0,2.9,0.2,4.2h-6.5c0.2-1.1,0.2-2.4,0.2-4.3v-7.4h-3.1c-3.3,0-4.7,0.1-6.4,0.3v-6.1c2,0.3,3,0.3,6.5,0.3h3v-5
					c0-2.1-0.1-3.2-0.3-4.5h6.6c-0.2,1.7-0.2,1.8-0.2,4.3v5.2H2003.2z M2013.3,200.9c1.6,2.4,2.3,4.1,3.3,7l-3.7,1.4
					c-0.9-2.7-1.9-4.9-3.2-7.1L2013.3,200.9z M2018.3,207.3c-0.9-2.5-1.9-4.7-3.1-6.8l3.5-1.3c1.5,2.3,2.4,4.2,3.2,6.6L2018.3,207.3
					z"/>
				<path class="st1" d="M2023.8,218.4c2.2,0.3,3.2,0.3,8.1,0.3h26.7c5,0,5.9-0.1,8.1-0.3v7c-2-0.2-2.6-0.2-8.2-0.2h-26.6
					c-5.6,0-6.2,0-8.2,0.2V218.4z"/>
			</g>
		</g>
	</g>
	<g>
		<circle class="st0" cx="1299.2" cy="220.5" r="216.6"/>
		<g>
			<g>
				<path class="st1" d="M1199.1,211.5c-0.4,0.9-0.5,1.6-0.6,3.4c-0.2,5.7-0.7,13.4-1.2,16.7c-1.3,8.7-3.1,10.7-9.1,10.7
					c-1.9,0-3.6-0.2-6.2-0.6c-0.1-3.2-0.3-4.1-1.2-6.4c3,0.8,5,1.2,6.6,1.2c2.2,0,2.9-1.1,3.7-5.5c0.6-3.5,1.1-10.3,1.1-16
					l-11.7,0.1c-0.7,6.3-1.8,10-4,14.3c-2.8,5.3-7.2,9.9-13.5,13.9c-1.7-2.7-2.4-3.5-4.5-5.3c6.3-3.3,10.4-7.3,13-12.6
					c1.4-2.8,2.1-5.2,2.6-8.7c0.1-0.7,0.2-1.2,0.3-1.6l-8.3,0.1c-3.1,0-3.8,0.1-5.4,0.2l-0.1-6.2c1.7,0.3,3.1,0.4,5.6,0.4l8.8-0.1
					c0.2-1.9,0.3-4.8,0.3-6.3V202c0-0.7,0-1.1-0.2-2l6.7,0.2c-0.1,0.7-0.1,0.9-0.2,1.6c0,0.3-0.1,0.6-0.1,1
					c-0.1,1.1-0.1,1.1-0.2,3.7c-0.1,1.1-0.1,1.6-0.2,3.2l11.1-0.1c2.3,0,2.7-0.1,4-0.5L1199.1,211.5z"/>
				<path class="st1" d="M1206.2,235.1c4.3-0.2,10.3-1.7,14.8-3.7c6.3-2.7,10.9-6.6,14.9-12.3c2.2-3.2,3.6-6,5.1-10
					c2,2.4,2.8,3.1,5.3,4.9c-4.3,9.2-9,15.1-15.9,19.7c-5.1,3.4-11.3,5.9-19.1,7.5c-2,0.4-2.2,0.5-3.3,0.9L1206.2,235.1z
					 M1210.4,204c6,3.7,9.1,6,12.9,9.7l-4.3,5.5c-4-4.3-8.1-7.6-12.8-10.2L1210.4,204z"/>
				<path class="st1" d="M1277.4,220.7c-0.3,5.8-1.4,9.9-3.5,13.5c-2.7,4.4-6.3,7.2-13.1,9.9c-1.3-2.6-1.9-3.4-4.1-5.5
					c6-1.9,9.8-4.5,11.9-8.4c1.3-2.3,2.1-5.6,2.2-9.5h-12.2c-3.4,0-4.6,0.1-6.4,0.3v-6c1.9,0.3,3,0.3,6.5,0.3h29.3
					c3.4,0,4.6,0,6.5-0.3v6c-1.8-0.2-3-0.3-6.4-0.3H1277.4z M1257.3,202.3c1.9,0.3,2.9,0.3,6.5,0.3h19.3c3.6,0,4.6-0.1,6.5-0.3v6.1
					c-1.7-0.2-2.9-0.3-6.4-0.3h-19.5c-3.5,0-4.7,0.1-6.4,0.3V202.3z"/>
				<path class="st1" d="M1304.8,205.1c2.6,4.6,4.2,8.5,6.1,14.7l-6.2,1.9c-1.4-5.6-3.4-10.8-5.7-14.9L1304.8,205.1z M1340.4,205.4
					c-0.5,1.1-0.6,1.5-1.3,4.9c-3.6,16.1-11.5,26.2-26.6,33.5c-1.4-2.4-2-3.3-4.4-5.6c5.6-2.1,10-4.8,14.1-8.7
					c4.1-3.8,6.7-8,8.8-13.8c1.6-4.3,2.4-8.4,2.5-11.8L1340.4,205.4z M1317.9,202.7c2.4,4.1,4.3,8.6,6,14.2l-6.1,2
					c-1.5-5.6-3-9.4-5.6-14.5L1317.9,202.7z"/>
				<path class="st1" d="M1344.9,218.2c1.4,0.2,2.2,0.3,4,0.3h3.7c1.5,0,2.6-0.1,3.8-0.3c-0.2,1.6-0.2,2.8-0.2,5.5v11.2
					c1.3,2.2,2.6,3.2,5.1,3.9c1.9,0.6,4.9,0.8,11.6,0.8c8.2,0,14.1-0.2,18.9-0.8c-0.9,2.2-1.2,3.3-1.5,5.3c-6.8,0.3-11,0.4-16.8,0.4
					c-3,0-7.3-0.2-9.3-0.3c-4.9-0.4-7.9-1.8-10.7-5.3c-2.5,2.3-3.6,3.2-5.8,4.8c-0.4,0.3-0.9,0.7-1.5,1.2l-2.5-5.7
					c1.9-0.8,4.2-2.4,7.2-4.9v-10.8h-2.7c-1.4,0-2.1,0.1-3.4,0.3V218.2z M1349.1,199.6c4,4,4.8,5,7.5,8.8l-4,4.3
					c-2.7-4.3-4.6-6.6-7.6-9.4L1349.1,199.6z M1364.3,211.6c-1.6,0-2.6,0.1-3.7,0.2V210h-3.4c0.2-1.1,0.2-1.9,0.2-3.1v-3.1
					c0-1.3-0.1-2.3-0.2-3.3c1.5,0.2,2.7,0.2,4.9,0.2h23.4c2,0,3.2-0.1,4.8-0.2c-0.2,1-0.2,1.9-0.2,3.2v3c0,1.4,0.1,2.3,0.3,3.3h-3.6
					v1.8c-1.2-0.2-1.9-0.2-3.7-0.2h-7.1v2.2h7.7c2.1,0,3,0,4.1-0.1c-0.2,1.2-0.2,2.1-0.2,3.7v7.6c0,1.7,0.1,2.5,0.2,3.7
					c-1.7-0.1-2.6-0.1-4.1-0.1h-7.6v2.3h10.1c2.1,0,2.9-0.1,4-0.3v4.7c-1.3-0.2-2.1-0.2-4.2-0.2h-9.9c0.1,1.7,0.1,2.5,0.3,3.7h-5.6
					c0.2-1.4,0.3-2,0.3-3.7h-9.3c-1.8,0-2.8,0-4,0.2v-4.8c1.2,0.2,2.6,0.3,4,0.3h9.4v-2.3h-7.2c-1.9,0-2.5,0-4,0.1
					c0.2-1.2,0.2-1.7,0.2-3.7v-7.6c0-2.2,0-2.6-0.2-3.7c1.2,0.1,2.1,0.1,4,0.1h7.1v-2.2H1364.3z M1370.9,205h-8.4v2.4
					c0.6,0.1,0.9,0.1,1.6,0.1h6.9V205z M1364.8,217.2v2.2h6.1v-2.2H1364.8z M1364.8,222.7v2.1h6.1v-2.1H1364.8z M1383.5,207.5
					c0.4,0,0.4,0,1.4,0V205h-9v2.5H1383.5z M1375.9,219.4h6.6v-2.2h-6.6V219.4z M1375.9,224.8h6.6v-2.1h-6.6V224.8z"/>
				<path class="st1" d="M1403,202.6c0-1.3-0.1-2.4-0.3-3.7h5.2c-0.2,1.2-0.3,2.4-0.3,3.7v1.1h2.2c2.2,0,3.1-0.1,4.4-0.3v4.9
					c-1.4-0.1-2.1-0.2-4.4-0.2h-2.2v3.2h2.8c1.2,0,1.7,0,2.8-0.1l-0.7-0.7c5.9-3.2,9.7-6.8,11.8-11.1h5.5c1.6,2.6,3.1,4.2,5.5,6.1
					c2.3,1.8,4.2,2.9,7.3,4.2c-1.2,1.6-1.6,2.4-2.9,4.8c-2.2-1.2-2.7-1.5-4.7-3v3c-1.2-0.2-2.2-0.2-3.9-0.2h-7.1
					c-1.7,0-2.8,0.1-3.9,0.2v-2.9c-1.6,1.4-2.6,2.1-4.5,3.2c-0.8-1.4-1.1-1.9-2-3.1c-0.1,1.3-0.1,1.8-0.1,4.2v9c0,2.9,0.1,4,0.2,5.3
					c-0.5-0.1-0.5-0.1-1.5-0.1c-0.2,0-0.2,0-3.2-0.1h-1.4v3.3h2.3c2,0,3-0.1,4.2-0.2v5c-1.3-0.2-2.5-0.2-4.2-0.2h-2.3v2.9
					c0,1.8,0.1,3.2,0.3,4.5h-5.2c0.2-1.4,0.3-2.6,0.3-4.7V238h-3c-2,0-3.2,0.1-4.5,0.2v-5c1.3,0.2,2.4,0.2,4.5,0.2h3v-3.3h-1
					c-2.3,0-3.5,0.1-5.3,0.2c0.2-1.6,0.2-3.3,0.2-5.6v-8.3c0-2.4-0.1-3.8-0.2-5.2c0.5,0,1.7,0.1,3.6,0.2h2.7v-3.2h-2.8
					c-2,0-3.1,0.1-4.4,0.2v-4.9c1.4,0.2,2.4,0.3,4.4,0.3h2.8V202.6z M1401,215.4v3.4h2.3v-3.4H1401z M1401,222.5v3.6h2.3v-3.6H1401z
					 M1409.7,218.8v-3.4h-2.2v3.4H1409.7z M1409.7,226v-3.6h-2.2v3.6H1409.7z M1419.5,240.8c0,1.6,0.1,3.3,0.3,4.5h-4.6
					c0.2-1.4,0.3-2.9,0.3-4.5v-19.3c0-1.9-0.1-3-0.2-4.5c0.9,0.1,2,0.2,3.6,0.2h5.1c1.7,0,2.7-0.1,3.6-0.2c-0.1,1.2-0.1,2.5-0.1,4.5
					v19.3c0,3.3-1,4.1-5.1,4.1c-0.3,0-0.6,0-1.1-0.1c-0.1-1.9-0.3-3-0.9-4.7c0.7,0.2,1.6,0.3,2.1,0.3c0.6,0,0.8-0.2,0.8-0.9v-4.4
					h-3.8V240.8z M1423.3,224.2v-3h-3.8v3H1423.3z M1423.3,231.2v-3.2h-3.8v3.2H1423.3z M1431.1,210c0.6,0,1.1,0,1.9-0.1
					c-2.5-2.1-4.1-3.6-5.9-6c-1.6,2.4-2.8,3.8-5.1,6c0.9,0.1,1.3,0.1,2,0.1H1431.1z M1433.9,217.8c-0.2,1.2-0.2,2.3-0.2,4v10.1
					c0,1.8,0.1,3.1,0.2,4.3h-4.5c0.2-1.3,0.2-2.8,0.2-4.3v-10c0-1.7-0.1-2.7-0.2-4H1433.9z M1440.3,239.7c0,4.3-1.1,5.2-5.9,5.2
					c-0.9,0-1.6-0.1-2.9-0.2c-0.1-2-0.3-3.2-1.1-5c1.8,0.3,2.7,0.5,3.8,0.5c1.4,0,1.7-0.3,1.7-1.5v-17c0-2.4-0.1-3.9-0.3-5.4h4.9
					c-0.2,1.6-0.3,3.2-0.3,5.6V239.7z"/>
			</g>
		</g>
	</g>
	<g>
		<circle class="st2" cx="904.3" cy="220.5" r="216.6"/>
		<g>
			<path class="st3" d="M782.2,174.2c2-2.9,5.6-5.9,9.6-6.9c14-3.8,33,13.9,43.1,42c10.1,28.1,7.1,54.9-6.6,59.8
				c-13.7,4.9-33-13.9-43.1-42l-3.1-8.1c0,0,5.7-16.2,8.6-24.3c2.1,4.8,4.8,11.2,8.3,19.9c8.5,21.4,13.8,31.8,20.8,30.3
				c4.2-0.9,5.4-16.3-2.7-36.5c-8.2-20.2-17.9-25.5-21.5-23.9c-3.1,1.4-4.5,3.6-4.9,4.7c-5,11.5-13.7,37.9-13.7,37.9
				c-10.1,28.1-29.4,47-43.1,42c-13.7-4.9-16.6-31.7-6.6-59.8c10.1-28.1,29-45.9,43.1-42c4,1.1,7,3.6,9.1,7.1c0,0-5,7.3-7.9,14.7
				c-0.4-1.2-1.8-3.4-4.9-4.7c-3.7-1.6-13.4,3.7-21.5,23.9s-6.9,35.6-2.7,36.5c7,1.6,12.2-8.9,20.8-30.3s12.4-29.3,14.2-32.4
				C780.5,176.4,782.2,174.2,782.2,174.2z"/>
			<polygon class="st3" points="1087.4,235.7 1072.4,235.7 1064.6,244.7 1056.9,235.7 1041.9,235.7 1057.2,253.4 1041.9,271 
				1056.9,271 1064.6,262 1072.4,271 1087.4,271 1072.1,253.4 			"/>
			<path class="st3" d="M976.3,234.4v-3.4h-12.8v30.6c0,0-0.2,4.5,2.6,7.1c2.9,2.6,6,2.4,6,2.4h1.4v0h22.2v-8.9h-17.9
				c0,0-0.7,0.1-1.1-0.3c-0.5-0.4-0.3-1.2-0.3-1.2v-14.3c0,0,0-0.6,0.4-1c0.4-0.4,1-0.3,1-0.3h18v-9.4h-18c0,0-0.8,0.1-1.1-0.2
				C976.2,235.1,976.3,234.4,976.3,234.4z"/>
			<path class="st3" d="M951.1,235.7h-1.8v-0.1h-32.1v9.4h29.2c0,0,0.8,0.2,1,0.5c0.2,0.3,0.4,1,0.4,1v1.2c0,0,0,0.5-0.5,0.9
				c-0.4,0.4-0.9,0.6-0.9,0.6l-14.3,0l-4.6,0c-0.7,0-1.6,0-3.7,0c-4.6,0-8.1,5.2-8.1,11.2c0,5.9,3.3,10.6,8.1,10.6
				c3.7,0,6.4-0.1,7.6,0h16.5l-0.1,0h12.8v-26.5c0,0,0-3.3-3-6.2C954.9,235.6,951.1,235.7,951.1,235.7z M945.5,263.1h-13.6v0
				c-4.4,0-4.1-6.1,0-6.1c0,0,0.1,0,0.1,0h13.4c0,0,1,0.2,1.5,0.7c0.6,0.5,0.8,1.4,0.8,1.4v2.2c0,0-0.3,0.9-0.7,1.4
				C946.6,263,945.5,263.1,945.5,263.1z"/>
			<path class="st3" d="M905.1,235.7h-0.3v-0.1h-50.2v0.1h-4V271h12.8v-24.7c0,0,0-0.5,0.3-0.8c0.3-0.3,0.8-0.3,0.8-0.3h9.6
				c0,0,0.8,0,1.2,0.3c0.4,0.3,0.3,1.1,0.3,1.1V271h12.8v-24.8c0,0,0-0.5,0.2-0.7c0.2-0.3,0.8-0.3,0.8-0.3h9.9c0,0,0.7-0.1,1,0.3
				c0.3,0.3,0.3,0.8,0.3,0.8V271h12.8v-26.2c0,0,0.2-2.6-2.1-5.9C908.7,235.3,905.1,235.7,905.1,235.7z"/>
			<path class="st3" d="M1011.1,258.2h16.6v0c1.4,0,1.3,0,5.7,0c3.9,0,7.9-4.2,7.9-11.4c0-6.9-4-11.1-7.9-11.1c-2.1,0-3.4,0-4.1,0v0
				h-19.6h-0.6h-1c0,0-5.5-0.3-8.3,2.5c-3,3.1-2.8,7.2-2.8,7.2v16.2c0,0-0.2,4.5,2.6,7.1c2.9,2.6,6,2.4,6,2.4h2.6v0.1h32.1v-9.4
				H1011c0,0-0.6-0.1-0.9-0.3c-0.4-0.3-0.4-0.9-0.4-0.9v-1.1c0,0,0.1-0.6,0.4-0.8C1010.5,258.2,1011.1,258.2,1011.1,258.2z
				 M1011.8,244h14.1c3.6,0.4,3.4,5.8-0.4,5.8l0,0h-13.7c0,0-0.9,0-1.5-0.4c-0.6-0.4-0.7-1.2-0.7-1.2v-2.4c0,0,0.1-1.1,0.7-1.5
				C1011.1,243.9,1011.8,244,1011.8,244z"/>
		</g>
	</g>
	<rect x="475.1" y="193.2" class="st2" width="155" height="54.7"/>
	<polygon class="st2" points="622.5,268.9 622.5,172.2 670.9,220.5 	"/>
	<rect x="1540.4" y="193.2" class="st2" width="155" height="54.7"/>
	<polygon class="st2" points="1687.8,268.9 1687.8,172.2 1736.1,220.5 	"/>
</g>
</svg>
