<?xml version="1.0" encoding="utf-8"?>
<!-- Generator: Adobe Illustrator 27.3.1, SVG Export Plug-In . SVG Version: 6.00 Build 0)  -->
<svg version="1.1" id="レイヤー_1" xmlns="http://www.w3.org/2000/svg" xmlns:xlink="http://www.w3.org/1999/xlink" x="0px"
	 y="0px" viewBox="0 0 1010.9 1694.3" style="enable-background:new 0 0 1010.9 1694.3;" xml:space="preserve">
<style type="text/css">
	.st0{fill:#FBEADE;}
	.st1{fill:none;}
	.st2{fill:none;stroke:#E95520;stroke-width:0.4177;stroke-dasharray:1.5324;}
	.st3{fill:none;stroke:#231815;stroke-width:0.4177;stroke-dasharray:1.5324;}
	.st4{fill:none;stroke:#E95520;stroke-width:0.4177;stroke-dasharray:1.5454;}
	.st5{fill:none;stroke:#00903F;stroke-width:4.5973;}
	.st6{fill:#00903F;}
	.st7{fill:#231815;}
	.st8{fill:#E95520;}
</style>
<path class="st0" d="M329.5,837.1c4.1-1.7,14.3-14.2,18.5-9c6.3,7.9-12.7,11.9-13.2,16.7c-1.5,12.3-16.2,27.6-11.4,28.4
	c20.3,3.7,50-22.7,60.7-37c7.3-9.7,12.2-24.1,10.8-30.8c-7.8-0.8-11.9-1.7-17.9,2.7c-6,4.5-14.4-3.1-9.5-12
	c3.8-6.9,11.8-20.9,12.1-32.3c0.1-3.7-4.4-11.9-8.5-9.7c-7.1,3.8-36,38.6-42.1,45.3C316.4,813.5,325.5,838.8,329.5,837.1z"/>
<path class="st0" d="M0,1675.6l17.2,6.9c10.9,2.8,38,6.3,42.6,11.7c5.6-6.6,15.8-52.3,20.2-56.3c-26.8-4.8-53.4-21.2-62.6-26.6
	c-0.6-0.4-1.2-0.7-1.6-0.9c-5.8-3.3-4.9-35-4.8-40.7c0-2.4,2.9-5.1,6.3-7.6c4.6-3.5,10.3-6.9,11.5-9.7c3-7,1.7-37.6,6.4-37
	c1.1,0.1,9.5-3.3,18.1-6.9c9.3-3.9,18.7-8.1,21-8.8c0.3,3.5-4.2,11.6-6.7,14.6c-15.9,18.5-3.2,62.3-0.3,64.6
	c3.2,2.5,10.2,8.1,18.4,11.1c7.2-11.1-1.4-21.1-7-31.2c-3.1-5.7,9-10.3,11-18.4c4.6,2.8,5.1,6.4,3.8,18.7
	c-0.6,5.8,30.5,7.9,36.4,4.2c5.9-3.7,18.9,2.2,22.3,12.2c0.8,2.5-14.7,18.6-46.2,19.1c-4.6,0.1-4.6,18.8-2.5,19.9
	c6.4-2.6,53.6-13.2,81.8-19.1c8.8-1.8,15.8-3.2,19-3.7c-8.4-6.3-8.7-14.1-3.9-15.6c1.2-0.4,15.3-7.1,17.4-1.2
	c2.6,7.3-1,13.2-3.8,16.4c11.1,3.3,93.7,13.5,118.7,19.5c-5.3-49.1,55.5-102.7,62.5-109.3c19.6-18.7,41.8-9.2,52.2,0
	c5.2,4.6-12.4,10.7-19.9,15c1.4,8.8-16.9,74.2,18.7,93.2c2.8-3.4,27.8-12.1,29.4-17.3c1.5-5.1,36.1-58.7,30.7-68.7
	c-2.7-5-8.7-7.4-8.7-17.8c0-3.5,1.7-7.3,3-12.1c3.8-14.5,11.3-33,19.9-38.9c14.7-10,45.1-8.8,54.7-4c11.5,5.7,14.6,16.2,12.3,21.3
	c-3.9,8.5,5.1,13.4,12,16.5c13.4-8,11.1-18.9,18-29.1c-3.3-0.9-24-15.6-15.7-36c2.9-7,6.9-21.5,22.2-22.3c6.5-13-12.3-29.1-0.7-32.9
	c7.9-2.6,15.3-3.4,21.8-3.9c14-1.1,24.1,2.1,28.9,12.3c7,14.8-35.7,60.4-53,67.3c17.7,11.7,14.5,18.5,3.5,28.7
	c8.6,27.6,8.6,40.2-11.2,52.3c6.4,5.3,27.9,16.9,30.9,16c25.7-7.5,13-18.4,20-28.7c16.6-11,51.2-28.3,71.4-43
	c10.1-7.3,6.5-67.6,12.5-77.1c9.6-15.2,32.2-41.9,74.9-39.9c5.2-6.5,8.1-13.5,5.3-14.6c-8.3-3.5-70.1-95-61.8-109.8
	c7.4-13.2,29.4-111.3,34.6-139.7c0.7-3.6,1-6.2,1.1-7.2c0.1-1.3,24.7-15.9,32.7-21.7c8.3-22.2,15.1-128.1,8.2-157.4
	c-3.1-13.1-8.7-31.1-13.7-47.2c-4.2-13.4-8-25.3-9.3-32.3c-2.6-14.7,9.2-47.6,19-64.9c9-16,20.2-31.3,52.1-30.2
	c3.1,0.1,8.5,25.8,26.8,39.2c1.9-2.1,3.9-24.2,5.2-46l1.5-12.3c3-2.6,1.6-32.6-0.7-32.9c-2.2-0.3-9.9-8.2-11-11
	c26.7-10.3,17.4-29.4,17.3-32.8c0-16.1,10.8-9.2,17-9.4c3.2-0.1,0.8-12.3,0.6-20.3c-0.1-2.4,0-4.5,0.5-5.8
	c7.3-17.4,19.6-13.1,26.2-13.3c0.5-11.8,13.3-23.3,13-26.4c-0.3-3.1,11.3-49.2,12.3-53.7c0.8-3.3,5.9-32.6,11.2-40.3
	c-2.3-10.1-11.9-30.7-10.4-42.8c1.4-12.2-10.6-42.8-11.5-57.8c-3.5-5.4-11.5-6.6-15-14c-10-21.1-3-32.3-3.8-37.6
	c-1.5-10.4-17.5-38.5-32.4-59.7c-10.6-15.1-20.6-26.7-24.3-26.1c-18.8,3-29.9-40.8-32.3-50.1c-3.9-14.8-6.9-72.5-3.2-98.9
	c1.7-12.5,11-46,7.6-47.1c-7.3-2.4-15.7,15.6-39,10.2c-5.3-1.2-22.2-25.6-26.8-25.1C815,13.1,787.9,0.2,784.5,0
	c-3,8-1.4,17.2-6.9,23.3c-8.2,9.1-17,67.8-10,78.7c1.4,2.1,15.5-6.9,21.1-8.4c5.6-1.5,15.7-5.6,25.8-4.6
	c3.4,0.3,16.9-15.8,18.1-25.2c0.3-2.7,9.3-4,11.6,0.6c2.4,4.6,8.1,21,3.4,35.5c-1.1,3.6,0.5,24.1-6.5,42.4
	c-3.2,8.4-15.3,10-18.8,5.8c-3.2-3.7-16.8-12.6-18.5-16.9c-4.9-12.8-15.1-10.1-18-8.6c-2.9,1.5-3.9,30.7-7.4,32.9
	c-3.1,1.9-9.4,9.3-14.3,6.6c-5-2.7-21.9-80.7-28.7-87.5c-3.8-3.8-14.1,0.5-18.9,1.2c-5.1,0.8-13.5-10.4-22.3-10.6
	c-4.8-0.1-5.6,26.3-8.2,30.3c-2,3.1-6.1,5.3-12.8,7.6c3.2,4.3,12.7,2.9,12.7,6.6c0.2,9.2-0.6,68.7-11,69.1c-3.8,0.1-12.8,7.5-33.8,8
	c-8,9.8-32.7,34.6-30.7,39.2c2,4.5,5.4,5.5,12,5.5c1.5,10.7,1.2,23.4,2.1,31.3c0.2,2,0.4,3.8,0.9,5c1.6,4.8,8.9,12.3,11,14.2
	c0,9.3-3.5,55.1-6.4,61.3c-2.8,6.1-12.3,17.8-17.1,21.1c-5.5,3.8-28.2-5-34.7-5.3c-3.8,8.3,15.5,41.7,19.6,42.3
	c4.1,0.6,11.3-1.2,14.8-7.2c3.6-6,16.7-3.7,21.3-2c8.7,3.2,17.7,37.5,16.1,43c-1.6,5.5-10.3,75.6-14.4,83.7
	c-2.2,4.3-12.5,11.9-11.5,20.6c0.3,2.6-2.8,16.4-7.1,33.4c-8,31.4-20.4,73.9-23.4,76.7c-10.5,9.5-26.1,34.7-36.1,56.3
	c-1.5,3.1-2.8,6.2-4,9.1l-2.2,4.8c-3.1,8.1-4.8,14.8-4.3,18.6c3.2,25-8.8,71.3-29.5,82c-20.7,10.7-77.7,34.3-87.1,58.3
	c-9.7,24.8-42.8,79.3-73.1,109.3c-22.1,21.8-32.5,32.7-53.5,26.5c-10,11.2-47.8,28.1-78.2,40.4c-21,8.5-38.6,14.8-40.9,15.4
	c-5.6,1.5-15.4,28.3-19.9,30.7c-17.3,9.3-48.9,7.5-60.5-15.2c-0.9-1.8,3.2-11,6.4-20.3c4.6-13.4,7.3-27.6-7.6-26.1
	c-12.6,1.3-14.2-27-7.8-31.1c5.3-3.5,16.2-1.5,19.8-0.5c5.9,1.6,42.3-49.8,49-48c6.6,1.7,14.1-25.7,0.7-24
	c-27.4,3.5-118.5,36-118.6,46.7c0,10.7-16.6,41.9-9,47.1c16.2,11.1,16.5,50.5,14.7,62.5c-0.8,5.6-16.8,28.4-34.5,51.8L0,1157.8
	C0,1157.8,4.6,1675.6,0,1675.6z"/>
<g>
	<g>
		<path class="st1" d="M331.8,837.3c4-1.7,14.2-14,18.3-8.8c6.2,7.8-12.5,11.8-13.1,16.5c-1.5,12.1-16,27.2-11.3,28.1
			c20,3.7,49.3-22.4,59.9-36.6c7.2-9.6,12.1-23.8,10.7-30.4c-7.7-0.8-11.8-1.7-17.7,2.7c-6,4.4-14.3-3-9.4-11.8
			c3.8-6.8,11.7-20.6,12-31.9c0.1-3.7-4.4-11.7-8.4-9.6c-7,3.7-35.5,38.1-41.6,44.8C318.8,813.9,327.8,838.9,331.8,837.3z"/>
		<path class="st1" d="M6.5,1665l17,6.9c10.7,2.7,37.5,6.2,42.1,11.5c5.5-6.5,15.6-51.7,19.9-55.6c-26.5-4.7-52.7-20.9-61.8-26.3
			c-0.6-0.4-1.1-0.7-1.6-0.9c-5.7-3.2-4.8-34.6-4.7-40.2c0-2.4,2.8-5,6.2-7.5c4.6-3.5,10.2-6.9,11.4-9.6c3-6.9,1.6-37.1,6.3-36.5
			c1,0.1,9.4-3.2,17.8-6.8c9.1-3.9,18.4-8,20.8-8.7c0.2,3.4-4.1,11.5-6.6,14.4c-15.7,18.3-3.2,61.5-0.3,63.8c3.2,2.4,10,8,18.1,11
			c7.1-11-1.4-20.8-7-30.8c-3.1-5.6,8.9-10.2,10.8-18.2c4.5,2.8,5,6.3,3.8,18.4c-0.6,5.8,30.1,7.8,35.9,4.2
			c5.8-3.7,18.7,2.2,22,12.1c0.8,2.5-14.5,18.4-45.6,18.8c-4.6,0.1-4.5,18.5-2.4,19.6c6.3-2.6,52.9-13,80.8-18.8
			c8.6-1.8,15.6-3.2,18.8-3.7c-8.3-6.2-8.6-13.9-3.9-15.4c1.2-0.4,15.1-7,17.2-1.1c2.5,7.2-1,13-3.8,16.2
			c11,3.3,92.5,13.4,117.2,19.2c-5.3-48.5,54.8-101.3,61.7-107.9c19.4-18.5,41.3-9.1,51.5,0c5.1,4.5-12.2,10.6-19.6,14.8
			c1.3,8.7-16.7,73.2,18.5,92c2.8-3.4,27.5-12,29-17.1c1.5-5.1,35.7-58,30.3-67.8c-2.7-5-8.5-7.3-8.5-17.6c0-3.4,1.7-7.2,3-11.9
			c3.7-14.3,11.1-32.6,19.6-38.4c14.5-9.9,44.5-8.7,54-3.9c11.4,5.7,14.4,16,12.2,21c-3.8,8.4,5,13.2,11.9,16.3
			c13.2-7.9,11-18.6,17.8-28.7c-3.2-0.8-23.7-15.4-15.5-35.5c2.8-6.9,6.8-21.2,21.9-22c6.4-12.9-12.1-28.7-0.7-32.4
			c7.8-2.6,15.1-3.4,21.5-3.9c13.8-1.1,23.8,2.1,28.5,12.1c6.9,14.6-35.3,59.7-52.3,66.4c17.5,11.6,14.3,18.3,3.4,28.4
			c8.5,27.2,8.5,39.7-11.1,51.6c6.3,5.3,27.5,16.7,30.5,15.8c25.4-7.4,12.9-18.2,19.7-28.3c16.4-10.8,50.6-28,70.5-42.4
			c9.9-7.2,6.4-66.7,12.3-76.1c9.4-15,31.8-41.4,73.9-39.4c5.2-6.4,8-13.3,5.3-14.4c-8.2-3.5-69.2-93.8-61-108.4
			c7.3-13,29-109.9,34.1-137.9c0.7-3.6,1-6.1,1.1-7.2c0.1-1.3,24.4-15.7,32.2-21.4c8.2-22,14.9-126.4,8.1-155.3
			c-3-12.9-8.6-30.7-13.6-46.6c-4.1-13.2-7.9-25-9.2-31.9c-2.6-14.5,9.1-47,18.7-64.1c8.9-15.8,20-30.9,51.5-29.8
			c3,0.1,8.4,25.5,26.5,38.7c1.9-2.1,3.9-23.9,5.1-45.4l1.5-12.2c3-2.5,1.5-32.2-0.7-32.5c-2.2-0.3-9.7-8.1-10.8-10.9
			c26.3-10.2,17.1-29,17.1-32.4c0-15.9,10.7-9.1,16.7-9.3c3.2-0.1,0.8-12.1,0.6-20.1c-0.1-2.4,0-4.5,0.5-5.7
			c7.2-17.1,19.4-12.9,25.8-13.1c0.5-11.6,13.1-23,12.8-26.1c-0.3-3.1,11.1-48.6,12.2-53c0.8-3.3,5.8-32.2,11.1-39.8
			c-2.3-9.9-11.7-30.3-10.3-42.3c1.4-12.1-10.4-42.3-11.4-57.1c-3.5-5.3-11.3-6.5-14.8-13.9c-9.9-20.8-3-31.8-3.7-37.1
			c-1.5-10.3-17.3-38-32-58.9c-10.4-14.9-20.3-26.3-24-25.8c-18.6,2.9-29.5-40.3-31.9-49.5c-3.8-14.6-6.8-71.6-3.1-97.6
			c1.7-12.4,10.8-45.4,7.5-46.5c-7.2-2.4-15.5,15.4-38.5,10c-5.2-1.2-21.9-25.2-26.5-24.8c-4.6,0.4-31.4-12.2-34.8-12.5
			c-2.9,7.9-1.4,17-6.8,23c-8.1,9-16.8,67-9.9,77.7c1.4,2.1,15.3-6.8,20.8-8.3c5.5-1.5,15.5-5.5,25.4-4.5
			c3.3,0.3,16.7-15.6,17.8-24.9c0.3-2.6,9.1-3.9,11.5,0.6c2.3,4.5,8,20.7,3.4,35c-1.1,3.5,0.5,23.8-6.4,41.9
			c-3.2,8.3-15.1,9.8-18.6,5.8c-3.1-3.7-16.6-12.4-18.2-16.7c-4.9-12.6-14.9-9.9-17.8-8.5c-2.9,1.5-3.8,30.3-7.3,32.5
			c-3,1.9-9.3,9.2-14.2,6.5c-4.9-2.6-21.6-79.7-28.3-86.4c-3.7-3.8-13.9,0.5-18.7,1.2c-5,0.8-13.3-10.3-22-10.4
			c-4.7-0.1-5.5,25.9-8.1,29.9c-2,3-6,5.2-12.6,7.5c3.1,4.3,12.5,2.8,12.6,6.5c0.2,9.1-0.6,67.8-10.9,68.2
			c-3.7,0.1-12.7,7.4-33.3,7.9c-7.9,9.7-32.3,34.2-30.3,38.7c2,4.5,5.3,5.4,11.9,5.4c1.5,10.6,1.2,23.1,2.1,30.9
			c0.2,2,0.4,3.7,0.8,5c1.6,4.8,8.8,12.2,10.9,14c0,9.2-3.5,54.4-6.3,60.5c-2.8,6-12.2,17.5-16.9,20.8c-5.5,3.7-27.9-5-34.3-5.2
			c-3.8,8.1,15.3,41.2,19.4,41.8c4.1,0.6,11.1-1.2,14.6-7.1c3.5-5.9,16.5-3.7,21.1-2c8.6,3.2,17.5,37,15.9,42.5
			c-1.6,5.5-10.1,74.6-14.2,82.6c-2.1,4.2-12.3,11.8-11.3,20.3c0.3,2.6-2.7,16.2-7,32.9c-7.9,31-20.1,72.9-23.2,75.7
			c-10.4,9.4-25.7,34.3-35.6,55.6c-1.4,3.1-2.8,6.1-3.9,9l-2.2,4.8c-3,8-4.7,14.6-4.2,18.4c3.2,24.7-8.7,70.4-29.1,81
			c-20.5,10.6-76.7,33.9-86,57.6c-9.6,24.5-42.2,78.3-72.2,107.9c-21.8,21.5-32.1,32.3-52.8,26.1c-9.9,11-47.2,27.7-77.2,39.9
			c-20.7,8.4-38.1,14.6-40.3,15.2c-5.5,1.5-15.2,27.9-19.6,30.3c-17,9.2-48.3,7.4-59.7-15c-0.9-1.8,3.2-10.9,6.3-20
			c4.5-13.2,7.3-27.3-7.5-25.8c-12.4,1.3-14-26.6-7.7-30.8c5.2-3.4,16-1.5,19.6-0.5c5.8,1.6,41.8-49.2,48.3-47.4
			c6.6,1.7,13.9-25.4,0.7-23.7c-27.1,3.4-117,35.6-117,46.1c0,10.6-16.4,41.4-8.9,46.5c16,11,16.3,49.9,14.5,61.7
			c-0.8,5.5-16.6,28-34.1,51.1l-17.1,13.8"/>
	</g>
	<path class="st2" d="M700.7,846.2c0,0,37-4.5,58,6.8c5.8,3.1,10.2,21.4,20.9,22.1c24.2,1.5,35.3-22.3,45.4-20.9"/>
	<path class="st2" d="M526.9,1070.5c0,0-1.7-50.2-16-65.7c0.8-6,8-20.2,3.7-40.4c7.1-4.3,56.2-22.6,67.1-25.1
		c-25.4-26.2,28.9-66,28.9-66l-6.2-5.4"/>
	<path class="st2" d="M824,1331.1c0,0-43.2-8.8-62.5-28.9c-2.2,0.6-52.5,14-60.6,14.1c-5.4,0.1-66.7-48.7-76.8-51.9"/>
	<path class="st2" d="M247.2,1110.8c0,0,15.4-14.2,20.3-26c20.2-1.1,27.4,5.1,35.5,21.6c7.9-11.1,34.6-25.3,45.4-21.3
		c1.1-6.9,1.7-14.9,8.3-18.1c10.4-5.1,28.4-10,39.3-7.5c4.3,18,17,44.1,14.2,62.5"/>
	<path class="st2" d="M637.6,1328.5c0,0-32.1-1-45.7,3.2c-1.8,2.2-5,6.2-7.7,6.2c-4.8-1.7-7-4.4-7.2-8.7c-4.4,0.1-21.3,5.2-27.1,6.6
		c-3.1,0-12.5-5.5-15.4-9.3c-7.1-3.4-44.1-15.1-59.8-16.1c-2.9,1.7-7.1,3.5-11.8,7.3"/>
	<path class="st2" d="M622.3,1393.8c0,0-20.9-11.4-28.4-17c-10.8-8-24.7-6.5-28.4-3.1c-1.7,1.6,3.9,7.2,4.1,10.3
		c0.2,3-4.5,13.7-5.3,19.2c-1.9-6.4-7.9-12.4-10.8-19.9c-18.5-0.5-41.6-9.8-46.4-9.7"/>
	<path class="st2" d="M500.5,1485.2c0,0-8.6,0.6-11.3-1.9c-15.8-14.8,6.5-44.3-3.7-50.9c-7.6-4.9-16.8-2.6-27.1-1.2"/>
	<path class="st2" d="M115.6,1062.8c0,0-23.8,5.2-27.1,13.8c-5,13.1-12.1,64-18,70.4c3.5,8.2-2.5,46.6,9.8,66.7"/>
	<path class="st2" d="M7.5,1244.6c15,4.1,54.1,16.5,61.4,15.8"/>
	<path class="st2" d="M258.6,1468.5c0,0,38.9-31.3,55.1-38.2c0.7-21.6,7.2-44,22.8-56"/>
	<path class="st2" d="M48.4,1480.8c0,0-15.2-12.6-25-19.9l-15.9-4.5"/>
	<path class="st2" d="M797.1,1084.8c0,0-20.1-8.8-28.2-10.7c0,0-20.2,17.4-26.3,21.1c-3.3-1-29.6-15.1-33.5-19.2"/>
	<path class="st2" d="M709.1,1076c-1.6-4.6-2.4-16.2-2.8-20.8c-11.6-3.6-36.6-34-63.9-34.6c-13.7,8.6-96.6,54.4-96.6,54.4"/>
	<path class="st2" d="M428.3,1292c0,0-29.9-36-29.4-57.4c6.5-8,13.6-23.1,9.9-40.7c-7.1-4.2-31.1-1.1-43.5-13.4
		c-0.2-8.2,17.2-43,20-49.7c4.9-3.5,15.4-5.1,24.7-8.8"/>
	<path class="st2" d="M410.1,1121.9c16.9-10.5,41-20.3,51.4-26.9c8.4-5.3-1-25.7,4.4-25.7c12,0.1,24.5-5.3,27-19.3
		c11.8,5.1,22.4,21.2,34.1,20.5"/>
	<path class="st2" d="M526.9,1070.5c4.4-0.4,11,0.9,18.9,4.6"/>
	<path class="st2" d="M545.8,1075.1c-4.6,21.1-4.3,61.9,1.3,65.9c7.7,5.4,15.3,2.7,17.8,9.4c-0.2,9.9-8.4,32-12.3,38
		c2.7,6.6,54.7,28.4,59.9,47.7"/>
	<path class="st2" d="M229,1052.3c0,0,4.5,5.2,11,9.6c0.2,11.7,5.1,36.7,7.2,48.9"/>
	<path class="st2" d="M247.2,1110.8c-1.1,6.4,4.6,20.3,0.5,29.6c-9.1,9.3-22.1,39-31,47.7"/>
	<path class="st2" d="M48.4,1480.8c3.4,5.7,5.7,12.7,10.6,19.2"/>
	<path class="st2" d="M189.3,1585.7l8.5-28.2c15.7-6.7,33.6-16.6,46.4-35c4.9-14.4,14-40.4,14.5-53.9"/>
	<path class="st2" d="M258.6,1468.5c-10.3-8-21.9-2.7-33.5,3.2c-5.5-3-5.5-9.7-8.3-14.1"/>
	<path class="st2" d="M216.9,1457.6c-5.7,3.9-20.5,7.5-31.1,7.4c-9.6-9-32-8.1-53.9-2.3c-9.4-11.1-34.4-28-49.2-34.4
		c-2.9,3.5-29.7,34.9-34.2,52.5"/>
	<path class="st2" d="M216.9,1457.6c0,0,1-52.4,7.4-57.4c-9.9-12.8-18-45.8-17-55.4c-9.3-8.2-18.1-9.5-27.6-16.8
		c0.3-8.4,6.2-21,25.5-24.2c7.7-1.3,17-25.7,19.4-39.9c-6.6-9.5-4.9-36.4-1.7-43.3c6.6-14.3,7-24.2-6.2-32.4"/>
	<path class="st2" d="M216.7,1188.1c-12.4-3.1-53.1-1.8-60.9-8.5c-12.7,3.1-17.1,0.4-24.9,8.1c-9.1,9-20.9,23.7-26.1,27.4
		c-7.3-7.4-15.3-9.2-24.5-1.5"/>
	<path class="st2" d="M80.3,1213.7c-0.7,3.9,1.1,8.1,2.8,12.8c2.7,7.5-11.5,29-14.3,34"/>
	<path class="st2" d="M68.9,1260.4c-10.6,19.7,15.2,53.7,7,69.2c-6.1,1.4-41.8,11.3-49.2,18.4c-0.9-0.5-1.9-1-3.2-1.5l-16-2.1"/>
	<path class="st2" d="M458.4,1431.3c-27,4.2-43.9-1.2-56.8-7.8c-7.8-4-7.9,21.7-6.1,26.9c1.8,5.2,0.5,24.8-16.7,24.8
		c-6.8,0-14.6-26.3-21.1-26c-4.8,0.2-14.4-1-15.3-10.4c-1-9.5,3.2-48-6-64.5"/>
	<path class="st2" d="M336.5,1374.3c-2.2-8.4-6.5-22.2-3.9-27.2c5.1-9.8,6.9-30.4,8.5-33.3c9.1,0.3,21.6-10.5,29.1-20.4
		c6.1,3.9,5.4,14.2,11.8,12.6c6.4-1.5,36-5.3,49.4,3.1"/>
	<path class="st2" d="M431.4,1309.1c5.1,2.4,19.2,7.2,31.5,8.4"/>
	<path class="st2" d="M462.9,1317.5c2.2,3.4,42.4,52.5,44.2,56"/>
	<path class="st2" d="M507.1,1373.5c-0.9,4-4.4,22.3-6.2,26.1c-1,2-22.8,11-27.4,12.2c-7.2,1.9-12.4,13.9-15.1,19.4"/>
	<path class="st2" d="M643.1,1357.5c0,0-1.9-16.7-5.5-29.1"/>
	<path class="st2" d="M637.6,1328.5c1.2-8,1.6-20.5,1.1-27.1c-3.7-4.7-12.3-33.5-14.6-36.9"/>
	<path class="st2" d="M624,1264.4c-5.4-7.8-13.3-24.9-17.9-26.1"/>
	<path class="st2" d="M431.4,1309.1c0,0-4.6-11.4-3.1-17.1"/>
	<path class="st2" d="M428.3,1292c11.2-16.4,39.7-28.8,61.8-39.8c0-5.7,3.6-22.4,7.5-27.1c4.4-2.6,36.1-1.8,42,0.5
		c5.9,2.3,19.7,14.4,25.4,16c2.9,0.3,32.7-2.5,41.2-3.4"/>
	<path class="st3" d="M606.1,1238.3c3.3-0.3,3.4-1.2,6.4-2.2"/>
	<path class="st2" d="M612.6,1236c5.9-2,13.9-3.1,18.8-7.1c10.8-17.6,24.2-40.8,60-45.5c2.9-0.4,8.3-40.8,13.6-56
		c4.1-11.6,2.1-43.1,4.1-51.4"/>
	<path class="st2" d="M700.7,846.2c-1,8.4,1.5,22.9-0.6,34c-7.4,10-21.9,15.8-30.3,15.5c-8.4-0.3-41.9-37-65.3-27.7"/>
	<path class="st4" d="M749.1,629c0,0-7-2.7-18.6-6.6c-11.6-3.9-7.9-16.2-16.6-21.4c-8.9-5.3-26.3-3.1-35.3-7.8
		c-4.7-2.4-15-15.6-28.7-13.8c-8.1,1.1-34.4-2.8-34.4-2.8"/>
	<path class="st4" d="M622.8,270.4c0,0,21.1-2.9,32-8.5c3-1.5,30.6,3,39,1.2c4.2-0.9,19.6-8.7,25.9-5.3c6.3,3.5,14.6,8.6,22.6,8.7
		c3.8,0,21.5-8.5,26.2-10.4c6.3-2.6,6.3-6.5,12.3-5.3c7.9,6.6,23.3,6,26.2,10.2c8.4,11.9-7.7,38.8-12.1,55.6"/>
	<path class="st4" d="M794.9,316.6c0,0,6.3,4.6,17.8-1c5.7-2.8,24.1-13.8,31.8-23.7c4.2-5.4,24.5-14.4,36.8-11.1
		c8.1,2.2,29.5-1.3,31.8-7.9c3-8.6,19.1-15.5,19.1-15.5"/>
	<path class="st4" d="M794.9,316.6c-10.3,14.2,1.9,84.3-7.1,89.2c-10.3,5.6-11.3,14.1-4,22.9c7.3,8.8-7.3,56.5-11.9,61.1
		c-11,11.1-8.2,30.5-1.5,35.9c6.8,5.4,0.6,47.3,11.7,50.1c8,2,2.6,28.6-0.3,36.5"/>
	<path class="st4" d="M781.9,612.3c14.2-0.1,29.2,12.1,35,17.4c4.8,4.3,10.5-3.5,19.6-2.7c14.1,1.3,9.5,29.3,23,29.4
		c6.3,0,10.6-7.1,12.5-14.1c1.9-7,13.2,0.1,21.8,6.6c4.2-7.2,10.8-38.3,13-42.7c10.2-20.3,35.2-1.8,35.2-1.8"/>
	<path class="st4" d="M749.1,629c7.9-4.5,25.8-13.9,32.8-16.7"/>
	<path class="st4" d="M556.8,707.8c0,0,31.1,7.2,37.4,10.4l0,3.5c0.2,6.9-2.7,16.9,4.6,23.6c23.3-3.5,31.3,13,34.7,18.1
		c-3.7,16.3-20.6,30.1-34.9,28.7c-6.1-0.6-10.3,50.8-11.7,58.9c4.9,11,8.4,13,17.8,17"/>
	<path class="st4" d="M749.1,629c-6.8,16.1,14.7,37.4,9.3,42.7c-5.4,5.3-15.7,11.5-15.2,20.3c0.4,7.4,1.8,20,4.2,29.7l0.7,4.6
		c-8.3,16.4-18.1,53-15.4,66c-0.3,6.9-8.4,23.5-25.7,22.1c-2.2,8.3-5.3,23.3-6.3,31.8"/>
	<path class="st5" d="M634.1,1321.5c-22-14.5-43.4-5.6-48.4,13.2"/>
	<path class="st5" d="M627.1,1329.5c6.8-14.1,30-47.9,45.1-54.9c17.7-8.3,25.8-22.4,27.7-35.2c2.8-18.9,24-58.8,48.3-73.6
		c12.9-7.9,24.4-39.1,23-49.7c0-6.4,0.9-11,5.5-17.5c6-9.7,12-43.2,13.1-52.7c1.7-13.3,7.6-15.7,16.8-22.2"/>
	<path class="st5" d="M608.4,1328.6c-2.3-15.9-14.8-67.6-22.7-76.4c-7.9-8.9-21.6-40.3,10.2-59.4c2.3-1.4,5.6-6.8,5.1-10
		c-2.3-13.8,13.3-22.1,19.8-37.2c5.5-12.9,15.6-23,14.1-43.8c-3.5-28.4,24.6-64.9,49.2-80.6c24.6-15.7,23.5-32.9,22.7-44.3
		c-8.1-19.2,2.4-46.5,10.1-65.3c2.6-6.3,3.8-19.1,4.6-28.1c1-11.8,4-32.6,16.3-39.4c0,0,5.5-7.9,12.4-8.9
		c14.6-2.1,18.8-5.9,9.9-18.8c-12.1-17.5,27.9-41.9,38.4-61.4c9.8-18,15.5-26.2,20.2-60.7c4.2-30.3,6.5-41.6,18.1-59.4
		c4.2-6.5,16.3-38.3,4.5-57c-13.3-21.1,1.4-104.2-4.6-128.1C828,414.9,796,396,809,371.3c13.1-24.7-17.5-30.5-42.2-30.5
		s-34.9-46.5-34.9-71.3c0-24.7-6-42.6,2.9-55.3"/>
	<path class="st5" d="M592.5,1340c-18-12-48.5-31.8-51.5-48.5c-2.2-12.3-3.8-22.1-11.3-23.5c-12.2-2.3-25.9-23.1-35.7-35.9
		c-9.8-12.8-32.8-37.2-15.4-69.3c9.8-18.1-19-45.5-27.2-55.1c-32.5-38.1-16.8-62.8,0.6-81.6c9.5-10.2,3.8-29.3-12.8-27.5
		c-18.4,2-21.6-4.9-15.7-44.3"/>
	<path class="st5" d="M588.4,1357.3c-36.7,5.1-154.7,22.3-159.8,15.4c-5.5-5.5-16.1-6.4-21.8,0.5c-6.2,10.1-18.2,1.8-25.6-14.7
		c-6-13.3-47.8-56.1-60-60c-13.2-4.2-20.7-9.5-23.6-15.4c-23.6,13.8-29.2,67.6-30.3,78.6c-1.4,13.8-30.9,76.3-62.1,60.7
		c-20.2-10.1-25.6-7.2-29.5-3c-2.7,2.9-7.3,5.3-10.8,5.3c-28.4,0.1-34.8,21.8-67.5,26"/>
	<path class="st5" d="M595.3,1373.2c-19.5,30-75.2,63.7-95.1,57c-21-7-39.3,14.7-40.3,29.5c-1,14.7-5.9,24.4-34.4,12.8
		c-18-7.3-24.1,8.3-36.9,17.2c-9.6,6.6-40.4,43.9-45.6,53.2c-5.5,9.7-13.6,17.8-19.5,21c-19.2,10.6-91,16.3-117.9-15.1
		c-8.9-10.3-13.2-10.7-28.9-4.4c-35.8,14.3-76.8-54.5-81.8-61.7"/>
	<path class="st5" d="M795.5,1033.1c-3.2-11.1-36.3-22.3-38.2-45.1c-3.2-38.7-37.7-40.3-41.9-42.5c-5.5-2.8-8.5-4.2-12.2-8.5
		c-11.6-13.2-39.3-15.4-54.1-9.6c-14.5,5.7-45.1,8-50.4,0.5c-5.3-7.4-11.1-8-17-7.4c-15.4,1.6-29.7-11.7-35.6-15.4
		c-5.7-3.6-20.2-10.1-24.4-11.2"/>
	<polygon class="st6" points="79.8,1453.5 92.1,1457.6 90,1445.4 	"/>
	<polygon class="st6" points="84.3,1469.3 86.4,1482.2 96.2,1474.5 	"/>
	<polygon class="st6" points="425.5,938 418,948.7 430.4,950.1 	"/>
	<polygon class="st6" points="744.5,199.7 732.9,205.5 743.2,212.6 	"/>
	<polygon class="st6" points="896.1,255.1 891.9,267.4 904.2,265.3 	"/>
	<polygon class="st6" points="635.9,693.4 646,701.7 648.3,689.4 	"/>
	<polygon class="st6" points="633,570.9 622.6,578.7 633.9,583.8 	"/>
	<polygon class="st6" points="785.4,542.8 794.4,552.2 798.2,540.3 	"/>
	<polygon class="st6" points="506.1,890.7 516,899.2 518.6,887 	"/>
	<path class="st5" d="M812,362.5c20.4-11.6,5.2-18.1,27.6-39.3c20.2-19.1,31.4-11.6,37.8-16c8.7-5.9,23.3-10.2,23.3-24.7l-1.6-11.9"
		/>
	<path class="st5" d="M835.3,556.9c-10.5-1.5-29.4-7.3-34.5-9"/>
	<path class="st5" d="M782.7,771.7c-7.9-4.7-18.9-3.2-23.7-1.6c-4.7,1.6-17.4-0.8-21.3-7.1c-3.9-6.3-17.4-10.3-22.1-9.5
		c-12.5,2.1-24.5-11.8-27.6-30.8c-3.3-19.7-22.9-25.3-36.3-26"/>
	<path class="st5" d="M632.8,667.5c-13.4-18.9-19.7-37.1-13.4-48.9c8.3-15.6,0.8-20.5,7.1-33.9"/>
	<path class="st5" d="M481.4,1214.4c-13.3,6.7-36,5.3-42.7-1.3c-6.7-6.7-22.7-12-38.7-6.7c-16,5.3-58,4.4-76-25.3
		c-7.1-11.7-10.7-24-10.7-24c34.9-19.8,38.3-43.1,13.3-44c-18.7-1.3-14.4-17-5.3-44c2.5-7.3,2.5-22.1,2.5-22.1"/>
	<polygon class="st6" points="324,1031.1 317.8,1042.6 330.3,1042.4 	"/>
	<g>
		<path class="st6" d="M592.8,885.2c-0.1,0-0.6,0.1-0.7,0.1v3.5c0,1.1,0,1.5-2.7,1.4l-0.5-1.5c0.5,0.1,0.9,0.1,1.2,0.1
			c0.7,0,0.7-0.3,0.7-0.6v-2.8c-0.2,0-0.9,0.1-1.2,0.1v2.7h-1.3v-2.6c-0.2,0-0.7,0.1-1.1,0.1c-0.2,1.7-0.3,3.2-1.5,5l-1.4-0.6
			c1.1-1.7,1.4-2.3,1.6-4.2c-0.2,0-0.3,0-0.9,0.1c-0.1,0.2-0.2,0.5-0.4,0.5c-0.1,0-0.2-0.1-0.3-0.4l-0.2-1.5c0.4,0,0.6,0,1.9-0.1
			c0-0.3,0-0.5,0-1.4c0-1-0.1-2.4-0.1-3.2h1.3c0.6-0.6,1-1.1,1.5-2l1.2,0.6c0.1,0,0.2,0.2,0.2,0.3c0,0.2-0.4,0.2-0.6,0.2
			c-0.5,0.5-0.5,0.6-0.8,0.9h3.4v4.1c0.3,0,0.4,0,0.8-0.1L592.8,885.2z M584.3,896.1v-1.3h2.5v-4h13.5v4h2.4v1.3H584.3z
			 M590.8,881.1h-3.5c0,0.7,0,2.8,0,3.3c1.4-0.1,2.6-0.2,3.5-0.3V881.1z M589,883.8c-0.4-0.7-0.6-1-1.1-1.6l0.9-0.7
			c0.6,0.6,0.8,1,1.1,1.5L589,883.8z M590.8,892.1h-2.6v2.7h2.6V892.1z M594.8,892.1h-2.6v2.7h2.6V892.1z M600.5,883.5h-1.8
			c-1.1,0-1.1-0.5-1.1-1.3v-2.1h-1.7c0,0.9-0.1,2.6-1.9,4l-1.1-1c1.6-1.1,1.7-2.2,1.7-3.3c0-0.5,0-0.8,0-1.1h4.4v2.8
			c0,0.4,0.2,0.6,0.6,0.6h0.6c0.5,0,0.8,0,1.1-1.9l1.2,0.6C601.9,883.1,601.6,883.5,600.5,883.5z M601.7,890.4
			c-1.8-0.4-2.8-0.8-4-1.6c-1.4,0.9-2.5,1.3-4.2,1.9l-0.6-1.3c1.4-0.4,2.5-0.8,3.8-1.4c-0.7-0.6-1.1-1.1-1.5-1.9l1-0.6h-2.8v-1.2
			h7.6l0.5,0.6c-0.8,1.3-1.2,1.9-2.5,3c1.1,0.6,1.7,0.8,3.5,1.2L601.7,890.4z M598.9,892.1h-2.7v2.7h2.7V892.1z M596.3,885.5
			c0.5,0.7,0.8,1.1,1.5,1.7c0.8-0.6,1.2-1.1,1.6-1.7H596.3z"/>
		<path class="st6" d="M604.4,895.8c1.2-2.1,1.8-4.3,1.7-7.7l1.6,0.2c0.2,0,0.4,0,0.4,0.2c0,0.2-0.3,0.4-0.5,0.4
			c0,1.3-0.1,1.9-0.3,3.1c0.4,0.8,0.8,1.3,1.6,1.8v-7h-3.8v-1.2h3.8v-2.8h-3.1v-1.2h3.1v-3.4l1.6,0.2c0.1,0,0.3,0,0.3,0.2
			c0,0.2-0.3,0.3-0.4,0.4v2.7h2.4v1.2h-2.4v2.8h2.8v1.2h-2.8v2.5h2.2v1.2h-2.2v3.9c1.1,0.3,2,0.5,5.4,0.5c2.5,0,5.4-0.2,8.1-0.4
			l-0.8,1.8c-1,0-2.1,0.1-3.6,0.1c-1.3,0-6-0.1-7.7-0.2c-1.4-0.1-3-0.6-3.9-1.5c-0.4-0.4-0.7-0.8-1-1.2c-0.3,1.1-0.6,1.9-1.2,3
			L604.4,895.8z M616,892.6c0.8-0.6,1.6-1.3,2.6-2.8c-0.3-0.9-0.9-3.1-1.3-6.6h-1.6v6.8c0.5-0.3,1.1-0.6,1.9-1.1v1.4
			c-1.5,1.1-2.4,1.6-3.5,2.4c0,0.1-0.1,0.6-0.4,0.6c-0.1,0-0.2-0.1-0.2-0.3l-0.3-1.5c0.4-0.2,0.7-0.3,1.3-0.7v-8.6h2.9
			c0-0.9-0.1-2.4-0.1-3.8l1.4,0.2c0.1,0,0.3,0,0.3,0.2c0,0.2-0.2,0.3-0.4,0.4c0,2.1,0,2.6,0,3h3.8v1.2h-3.7c0.1,1.2,0.3,3.1,0.9,5.1
			c0.8-1.6,1.2-3.1,1.4-3.7l1.3,0.6c0.1,0.1,0.2,0.1,0.2,0.2c0,0.2-0.4,0.3-0.6,0.3c-0.4,1.2-1,2.9-1.8,4.3c0.6,1.4,1.1,1.5,1.1,1.5
			c0.5,0,0.8-1.3,1-2.2l1,1c-0.2,0.6-0.8,3-1.9,3c-1,0-1.8-1.6-2-2.1c-0.7,0.9-1.3,1.5-2.2,2.4L616,892.6z M620.8,878.9
			c0.9,1,1.1,1.6,1.3,2l-1.1,0.7c-0.3-0.6-0.6-1.3-1.2-2L620.8,878.9z"/>
		<path class="st6" d="M630.4,880.7c0.8-1.1,1.4-1.9,1.9-2.9l1.5,0.3c0.3,0.1,0.4,0.2,0.4,0.3c0,0.2-0.3,0.3-0.6,0.5
			c-0.6,0.9-1.2,1.6-1.4,1.9h7.6v15.9h-1.5v-1.3h-9.8v1.3H627v-16H630.4z M638.3,882.2h-9.8v3h9.8V882.2z M638.3,886.5h-9.8v3h9.8
			V886.5z M638.3,890.8h-9.8v3.2h9.8V890.8z"/>
		<path class="st6" d="M649.5,883v1.2h3.9v5.8h-3.9v1.1h3.9v1.3h-3.9v1.6c0.7-0.1,1.5-0.2,4.1-0.5l-0.3,1.2
			c-3.5,0.6-5.5,0.8-8.7,1.2c-0.2,0.3-0.3,0.4-0.5,0.4c-0.2,0-0.2-0.2-0.3-0.3l-0.3-1.4c2-0.1,2.5-0.2,4.6-0.4v-1.8h-3.9v-1.3h3.9
			V890h-3.9v-5.8h3.9V883h-4.5v-1.3h4.5v-1.5c-1.5,0.2-2,0.2-3.3,0.3l-0.8-1.3c3.4-0.1,6.3-0.6,7.9-1.1l0.8,1.1c0,0,0.1,0.2,0.1,0.3
			c0,0.1-0.1,0.2-0.2,0.2c-0.2,0-0.4-0.1-0.7-0.2c-0.2,0-2.1,0.4-2.5,0.4v1.7h4.2v1.3H649.5z M648.1,885.2h-2.5v1.3h2.5V885.2z
			 M648.1,887.6h-2.5v1.3h2.5V887.6z M652,885.2h-2.5v1.3h2.5V885.2z M652,887.6h-2.5v1.3h2.5V887.6z M661,893.6
			c-0.5,2.8-1.9,2.8-3.3,2.8h-0.8l-0.4-1.9c0.9,0.2,1.3,0.3,1.7,0.3c1,0,1.2-1,1.4-2c0.5-2.7,0.5-6.3,0.5-8.1h-1.8
			c-0.2,6.1-1.9,9.5-3.9,12l-1.5-0.8c3.3-3.5,3.8-7.2,3.9-11.3H654v-1.4h2.7v-5.2l1.6,0.1c0.1,0,0.4,0,0.4,0.3
			c0,0.2-0.3,0.4-0.5,0.4v4.5h3.3C661.6,885.6,661.5,890.4,661,893.6z"/>
		<path class="st6" d="M672.5,878l1.5,0.1c0.2,0,0.6,0.1,0.6,0.3c0,0.2-0.1,0.2-0.6,0.4v1.5h7.8v1.3H674v1.6h5.7v6.9H674v1.7h8.3
			v1.4H674v3.5h-1.5v-3.5h-8.3v-1.4h8.3v-1.7h-5.6v-6.9h5.6v-1.6h-7.9v-1.3h7.9V878z M672.5,886v-1.5h-4.1v1.5H672.5z M672.5,888.8
			v-1.6h-4.1v1.6H672.5z M678.3,886v-1.5H674v1.5H678.3z M678.3,888.8v-1.6H674v1.6H678.3z"/>
		<path class="st6" d="M703,896.2h-8c-3.6,0-5.7-0.2-6.8-2.2c-1.1,1.1-1.6,1.5-2.2,2c-0.1,0.3-0.1,0.5-0.3,0.5
			c-0.1,0-0.2-0.1-0.3-0.2l-0.9-1.3c0.8-0.4,1.7-0.8,3-1.9v-4.8h-2.7v-1.4h4.2v5.4c0,0.9,0.5,1.7,1.3,2.1c1,0.5,3.1,0.6,5,0.6
			c2.8,0,5.5-0.1,8.3-0.4L703,896.2z M687.4,883.8c-0.6-1.5-1.4-3.1-2.5-4.7l1.2-0.7c1.3,1.6,2.3,3.9,2.6,4.7L687.4,883.8z
			 M697.4,882.5c-0.5,0.8-0.8,1.3-1.1,1.7h5.3v9.7h-1.5v-0.7h-6.9v0.7h-1.5v-9.7h2.9c0.4-0.6,0.7-1,1.1-1.7h-6.1v-1.3h13.7v1.3
			H697.4z M694,881.1c-0.6-0.9-1.1-1.6-1.9-2.3l1.1-1c1.1,1,1.6,1.7,2,2.4L694,881.1z M700.1,885.4h-6.9v1.4h6.9V885.4z
			 M700.1,887.9h-6.9v1.5h6.9V887.9z M700.1,890.5h-6.9v1.5h6.9V890.5z M700.4,879.2c-0.6,0.9-0.9,1.4-1.4,1.9l-1.1-0.8
			c0.7-0.9,1.2-1.7,1.6-2.4l1.3,0.8c0,0,0.2,0.1,0.2,0.2C701,879.2,700.8,879.2,700.4,879.2z"/>
	</g>
	<g>
		<path class="st6" d="M626,755.8l-0.7,2l-1.5-0.5l5-14l1.4,0.7c0.1,0.1,0.4,0.2,0.3,0.4s-0.2,0.2-0.6,0.2l-3.5,9.9l5.3,1.9l5-13.9
			l1.6,0.7c0.2,0.1,0.4,0.2,0.3,0.4c-0.1,0.2-0.3,0.2-0.7,0.2l-4.7,13.2l5.4,1.9l3.9-11l1.5,0.8c0.1,0.1,0.4,0.2,0.3,0.4
			c-0.1,0.2-0.3,0.2-0.7,0.3l-4.7,13.3l-1.5-0.5l0.7-1.9L626,755.8z"/>
		<path class="st6" d="M653.4,757.3l-3.3,9.3l-1.4-0.5l3.3-9.3l-2.4-0.9c-0.6,1.5-1.6,3.8-3.1,5.7c-0.8,1-1.8,1.9-2.9,2.7l-0.8-1.3
			c1.1-0.6,3.4-2.1,5.5-7.5l-2.5-0.9l0.5-1.3l2.5,0.9l1.7-4.7l-2.2-0.8l0.5-1.3l9.5,3.4l-0.5,1.3l-2-0.7l-1.7,4.7l2,0.7l-0.5,1.3
			L653.4,757.3z M654.1,750.8l-2.4-0.9l-1.7,4.7l2.4,0.9L654.1,750.8z M661.5,763.4c-3.5,3.2-6.2,4-8.8,4.2L652,766
			c3.5,0,5.8-1.2,9.1-4.4l0.9,1.3c0,0,0.2,0.2,0.1,0.3C662.1,763.5,661.9,763.5,661.5,763.4z M662.6,758.6c-2.3,1.6-4.9,2.8-7.6,3.3
			l-0.9-1.5c0.8-0.1,2.4-0.3,4.4-1.2c2-0.8,3.2-1.9,3.7-2.3l0.9,1.4c0.1,0.1,0.2,0.3,0.1,0.4C663.2,758.9,662.7,758.6,662.6,758.6z
			 M663.9,753.5c-2.1,1.3-4.3,2.4-6.6,2.9l-0.8-1.4c2.7-0.5,4.9-1.5,7.1-3.2l1,1.3c0.1,0.1,0.1,0.2,0.1,0.3
			C664.6,753.7,664.3,753.6,663.9,753.5z"/>
		<path class="st6" d="M671.4,757.5c1.2-0.7,2-1.3,2.8-2.1l1.3,0.8c0.3,0.2,0.3,0.3,0.3,0.4c-0.1,0.2-0.4,0.2-0.7,0.2
			c-0.9,0.6-1.6,1.1-2,1.3l7.2,2.6l-5.4,15l-1.5-0.5l0.4-1.2l-9.2-3.3l-0.5,1.3l-1.4-0.5l5.4-15.1L671.4,757.5z M675.4,769.6
			l-9.2-3.3l-1.1,3l9.2,3.3L675.4,769.6z M676.9,765.5l-9.2-3.3l-1,2.8l9.2,3.3L676.9,765.5z M678.3,761.5l-9.2-3.3l-1,2.8l9.2,3.3
			L678.3,761.5z"/>
		<path class="st6" d="M688.6,766l-0.4,1.1l3.7,1.3l-2,5.5l-3.7-1.3l-0.4,1.1l3.7,1.3l-0.4,1.2l-3.7-1.3l-0.5,1.5
			c0.7,0.2,1.5,0.4,4,0.9l-0.7,1.1c-3.5-0.7-5.4-1.1-8.6-1.8c-0.3,0.2-0.4,0.3-0.6,0.2c-0.2-0.1-0.2-0.3-0.2-0.4l0.2-1.5
			c1.9,0.6,2.4,0.7,4.5,1.1l0.6-1.7l-3.6-1.3l0.4-1.2l3.6,1.3l0.4-1.1l-3.6-1.3l2-5.5l3.6,1.3l0.4-1.1L683,764l0.4-1.2l4.2,1.5
			l0.5-1.4c-1.5-0.3-1.9-0.4-3.2-0.8l-0.3-1.5c3.2,1.1,6.2,1.6,7.8,1.7l0.4,1.3c0,0,0.1,0.2,0,0.3c-0.1,0.1-0.1,0.1-0.2,0.1
			c-0.2-0.1-0.3-0.2-0.6-0.4c-0.2,0-2.1-0.3-2.5-0.4l-0.6,1.6l3.9,1.4l-0.4,1.2L688.6,766z M685.7,769.9l-2.3-0.8l-0.4,1.2l2.3,0.8
			L685.7,769.9z M686.5,767.7l-2.3-0.8l-0.4,1.2l2.3,0.8L686.5,767.7z M689.4,771.2l-2.4-0.8l-0.4,1.2l2.4,0.8L689.4,771.2z
			 M695.9,780c-1.4,2.5-2.7,2-4.1,1.5l-0.7-0.3l0.2-1.9c0.7,0.5,1.1,0.7,1.5,0.9c1,0.3,1.5-0.5,2-1.4c1.4-2.4,2.6-5.7,3.2-7.4
			l-1.7-0.6c-2.2,5.7-5,8.3-7.8,10l-1.1-1.2c4.2-2.2,6-5.5,7.5-9.3l-2.6-0.9l0.5-1.4l2.6,0.9l1.8-4.9l1.5,0.6c0.1,0,0.4,0.2,0.3,0.4
			c-0.1,0.2-0.4,0.2-0.6,0.2l-1.5,4.2l3.1,1.1C699.1,772.6,697.5,777.1,695.9,780z M690.2,769l-2.4-0.8l-0.4,1.2l2.4,0.8L690.2,769z
			"/>
		<path class="st6" d="M712,769.1l1.4,0.7c0.2,0.1,0.5,0.3,0.4,0.4c-0.1,0.2-0.2,0.2-0.7,0.2l-0.5,1.4l7.4,2.6l-0.5,1.3l-7.4-2.6
			l-0.5,1.5l5.4,1.9l-2.3,6.5l-5.4-1.9l-0.6,1.6l7.8,2.8l-0.5,1.3l-7.8-2.8l-1.2,3.3l-1.4-0.5l1.2-3.3l-7.8-2.8l0.5-1.3l7.8,2.8
			l0.6-1.6l-5.3-1.9l2.3-6.5l5.3,1.9l0.5-1.5l-7.4-2.7l0.5-1.3l7.4,2.7L712,769.1z M708.3,779.3l0.5-1.5l-3.9-1.4l-0.5,1.5
			L708.3,779.3z M709.3,776.7l0.5-1.4l-3.9-1.4l-0.5,1.4L709.3,776.7z M713.8,781.3l0.5-1.5l-4-1.4l-0.5,1.5L713.8,781.3z
			 M714.7,778.6l0.5-1.4l-4-1.4l-0.5,1.4L714.7,778.6z"/>
		<path class="st6" d="M734.5,796.5l-7.5-2.7c-3.4-1.2-5.3-2.1-5.6-4.4c-1.4,0.6-2,0.9-2.7,1.2c-0.2,0.3-0.3,0.5-0.5,0.4
			c-0.1,0-0.2-0.2-0.2-0.3l-0.4-1.6c0.9-0.1,1.9-0.2,3.5-0.8l1.6-4.5l-2.6-0.9l0.5-1.3l3.9,1.4l-1.8,5c-0.3,0.9-0.1,1.8,0.5,2.4
			c0.7,0.8,2.7,1.6,4.5,2.2c2.6,0.9,5.2,1.8,7.9,2.4L734.5,796.5z M724.1,779.6c-0.1-1.6-0.3-3.4-0.8-5.3l1.4-0.3
			c0.6,2,0.8,4.5,0.9,5.3L724.1,779.6z M733.9,781.7c-0.7,0.6-1.1,0.9-1.6,1.3l5,1.8l-3.3,9.2l-1.4-0.5l0.3-0.7l-6.5-2.3l-0.3,0.7
			l-1.4-0.5l3.3-9.2l2.7,1c0.6-0.4,1-0.7,1.7-1.2l-5.8-2.1l0.4-1.2l12.9,4.6l-0.4,1.2L733.9,781.7z M733.8,790.2l-6.5-2.3l-0.5,1.4
			l6.5,2.3L733.8,790.2z M734.7,787.7l-6.5-2.3l-0.5,1.4l6.5,2.3L734.7,787.7z M735.5,785.4L729,783l-0.5,1.3l6.5,2.3L735.5,785.4z
			 M731.2,779.3c-0.2-1-0.5-1.9-1-2.8l1.3-0.6c0.7,1.3,0.9,2.1,1,3L731.2,779.3z M737.9,779.7c-0.9,0.7-1.3,1-1.9,1.3l-0.8-1.1
			c0.9-0.6,1.7-1.1,2.3-1.7l0.9,1.2c0,0,0.1,0.2,0.1,0.3C738.4,779.8,738.2,779.8,737.9,779.7z"/>
	</g>
	<g>
		<path class="st7" d="M781,171.2l1.3,0.1c0.1,0,0.3,0.1,0.3,0.2c0,0.1,0,0.1-0.4,0.3v0.6h6.6v1h-6.6v1.2h5.7v1h-5.7v1.3h7.2v1
			h-15.6v-1h7.2v-1.3h-5.6v-1h5.6v-1.2h-6.5v-1h6.5V171.2z M777.8,187h-1.3v-7.9h10.2v6.4c0,1.5-1,1.5-3.1,1.4l-0.4-1.3
			c0.8,0.1,1.3,0.1,1.5,0.1c0.4,0,0.7-0.1,0.7-0.5v-0.9h-7.7V187z M785.5,180.2h-7.7v1.1h7.7V180.2z M785.5,182.3h-7.7v1.1h7.7
			V182.3z"/>
		<path class="st7" d="M796.8,181c0.3,0.3,0.8,0.9,2.1,1.8l-0.8,0.9c-0.4-0.2-1.2-0.9-1.7-1.7v5h-1.2v-4.6c-0.8,1.4-1.9,2.5-3.2,3.4
			l-1-0.8c1.6-1,2.9-2.3,3.9-3.9h-3.3v-1.1h3.7v-1.8l1.4,0.1c0.1,0,0.3,0,0.3,0.2c0,0.2-0.2,0.3-0.4,0.3v1.2h2.1v1.1H796.8z
			 M800.5,174.2c1.9,1.5,3.5,2.1,6.2,2.7l-0.8,1.2c-1.9-0.5-4.1-1.3-6.2-3.2v3.4h-1.2v-3.4c-2,2-4.2,2.9-6,3.5l-0.9-1.1
			c1.4-0.3,2.4-0.6,3.6-1.2c1.3-0.7,2-1.4,2.4-1.7h-5.5v-1.1h6.5v-1.8l1.3,0.1c0.1,0,0.3,0,0.3,0.2c0,0.2-0.2,0.3-0.4,0.4v1.2h6.5
			v1.1H800.5z M803.3,181c0.7,1.4,2,2.6,3.8,3.7l-1,0.8c-1.2-0.8-2.3-1.7-3.2-3.2v4.7h-1.2v-4.7c-0.3,0.6-1.2,2-3.1,3.6l-1-0.7
			c1.5-1.1,2.7-2.2,3.7-4.1h-1.9v-1.1h2.2v-2l1.3,0.1c0.1,0,0.3,0,0.3,0.2c0,0.2-0.3,0.3-0.4,0.3v1.4h3.7v1.1H803.3z"/>
	</g>
	<g>
		<path class="st6" d="M136.6,1388.9v-1.2h-5.9v6.7h-1.5v-6.7h-5.7v1.1h-1.6v-8.6h7.3v-4.5l1.4,0.1c0.3,0,0.5,0,0.5,0.2
			c0,0.1-0.2,0.2-0.4,0.3v3.8h7.4v8.7H136.6z M129.2,1381.6h-5.7v4.7h5.7V1381.6z M136.6,1381.6h-5.9v4.7h5.9V1381.6z"/>
		<path class="st6" d="M157,1379.3v5.8h2.8v1.5h-8.3c0.3,0.8,1,2.4,2.9,3.9c1.5,1.2,3.1,1.9,5,2.4l-0.9,1.5
			c-1.9-0.6-3.7-1.6-5.2-2.9c-1.7-1.6-2.5-3.2-3.1-4.3c-0.3,0.8-1.1,2.7-3.3,4.6c-0.8,0.7-2.3,1.8-4.6,2.8l-1.1-1.3
			c0.9-0.3,2.9-1.1,4.8-2.7c1.8-1.5,2.4-2.8,2.8-3.9h-7.5v-1.5h2.7v-5.8h5.6c-0.1-1.7-0.1-3.4-0.2-3.5l1.8,0.1c0.2,0,0.4,0,0.4,0.2
			c0,0.2-0.2,0.2-0.5,0.4v2.8H157z M149.4,1385.1c0.3-1.3,0.3-2.3,0.4-4.4h-4.1v4.4H149.4z M151.2,1380.7c0,1.6-0.1,2.8-0.4,4.4h4.6
			v-4.4H151.2z"/>
		<path class="st6" d="M166.9,1378.4c0.8-1.1,1.4-1.9,1.9-2.9l1.5,0.3c0.3,0.1,0.4,0.2,0.4,0.3c0,0.2-0.3,0.3-0.6,0.5
			c-0.6,0.9-1.2,1.6-1.4,1.9h7.6v15.9h-1.5v-1.3H165v1.3h-1.5v-16H166.9z M174.7,1379.8H165v3h9.8V1379.8z M174.7,1384.2H165v3h9.8
			V1384.2z M174.7,1388.5H165v3.2h9.8V1388.5z"/>
		<path class="st6" d="M185.9,1380.7v1.2h3.9v5.8h-3.9v1.1h3.9v1.3h-3.9v1.6c0.7-0.1,1.5-0.2,4.1-0.5l-0.3,1.2
			c-3.5,0.6-5.5,0.8-8.7,1.2c-0.2,0.3-0.3,0.4-0.5,0.4c-0.2,0-0.2-0.2-0.3-0.4l-0.3-1.4c2-0.1,2.5-0.2,4.6-0.4v-1.8h-3.9v-1.3h3.9
			v-1.1h-3.9v-5.8h3.9v-1.2H180v-1.3h4.5v-1.5c-1.5,0.2-2,0.2-3.3,0.3l-0.8-1.3c3.4-0.1,6.3-0.6,7.9-1.1l0.8,1.1
			c0,0,0.1,0.2,0.1,0.3c0,0.1-0.1,0.2-0.2,0.2c-0.2,0-0.4-0.1-0.7-0.2c-0.2,0-2.1,0.4-2.5,0.4v1.7h4.2v1.3H185.9z M184.5,1382.9
			h-2.5v1.3h2.5V1382.9z M184.5,1385.3h-2.5v1.3h2.5V1385.3z M188.5,1382.9h-2.5v1.3h2.5V1382.9z M188.5,1385.3h-2.5v1.3h2.5V1385.3
			z M197.5,1391.3c-0.5,2.8-1.9,2.8-3.3,2.8h-0.8l-0.4-1.9c0.9,0.2,1.3,0.3,1.7,0.3c1,0,1.2-1,1.4-2c0.5-2.7,0.5-6.3,0.5-8.1h-1.8
			c-0.2,6.1-1.9,9.5-3.9,12l-1.5-0.8c3.3-3.5,3.8-7.2,3.9-11.3h-2.7v-1.4h2.7v-5.2l1.6,0.1c0.1,0,0.4,0,0.4,0.3
			c0,0.2-0.3,0.4-0.5,0.4v4.5h3.3C198,1383.3,198,1388.1,197.5,1391.3z"/>
		<path class="st6" d="M209,1375.7l1.5,0.1c0.2,0,0.6,0.1,0.6,0.3c0,0.2-0.1,0.2-0.6,0.4v1.5h7.8v1.3h-7.8v1.6h5.7v6.9h-5.7v1.7h8.3
			v1.4h-8.3v3.5H209v-3.5h-8.3v-1.4h8.3v-1.7h-5.6v-6.9h5.6v-1.6h-7.9v-1.3h7.9V1375.7z M209,1383.7v-1.5h-4.1v1.5H209z M209,1386.5
			v-1.6h-4.1v1.6H209z M214.8,1383.7v-1.5h-4.2v1.5H214.8z M214.8,1386.5v-1.6h-4.2v1.6H214.8z"/>
		<path class="st6" d="M239.5,1393.9h-8c-3.6,0-5.7-0.2-6.8-2.2c-1.1,1.1-1.6,1.5-2.2,2c-0.1,0.3-0.1,0.5-0.3,0.5
			c-0.1,0-0.2-0.1-0.3-0.2l-0.9-1.3c0.8-0.4,1.7-0.8,3-1.9v-4.8h-2.7v-1.4h4.2v5.4c0,0.9,0.5,1.7,1.3,2.1c1,0.5,3.1,0.6,5,0.6
			c2.8,0,5.5-0.1,8.3-0.4L239.5,1393.9z M223.9,1381.5c-0.6-1.5-1.4-3.1-2.5-4.7l1.2-0.7c1.3,1.7,2.3,3.9,2.6,4.7L223.9,1381.5z
			 M233.9,1380.1c-0.5,0.8-0.8,1.3-1.1,1.7h5.3v9.7h-1.5v-0.7h-6.9v0.7h-1.5v-9.7h2.9c0.4-0.6,0.7-1,1.1-1.7h-6.1v-1.3h13.7v1.3
			H233.9z M230.5,1378.8c-0.6-0.9-1.1-1.6-1.9-2.3l1.1-1c1.1,1,1.6,1.7,2,2.4L230.5,1378.8z M236.6,1383h-6.9v1.4h6.9V1383z
			 M236.6,1385.6h-6.9v1.5h6.9V1385.6z M236.6,1388.2h-6.9v1.5h6.9V1388.2z M236.9,1376.9c-0.6,0.9-0.9,1.4-1.4,1.9l-1.1-0.8
			c0.7-0.9,1.2-1.6,1.6-2.4l1.3,0.8c0,0,0.2,0.1,0.2,0.2C237.5,1376.9,237.3,1376.9,236.9,1376.9z"/>
	</g>
	<g>
		<path class="st6" d="M307.2,1232.6l0.2-1.4l7.8,1.1l2.1-15.8l1.5,0.3c0.1,0,0.4,0.1,0.4,0.3c0,0.2-0.2,0.2-0.4,0.3l-0.8,6.1
			l6.9,0.9l-0.2,1.4l-6.9-0.9l-1,7.5l8.9,1.2l-0.2,1.4L307.2,1232.6z"/>
		<path class="st6" d="M328.4,1225.2c2.9-2.5,4.4-4.5,5.8-7.1l1.3,0.9c0.1,0.1,0.3,0.2,0.3,0.3c0,0.2-0.3,0.3-0.7,0.3
			c-0.8,1.2-1.4,1.9-1.9,2.7c0.2,0.1,0.4,0.2,0.4,0.3c0,0.2-0.4,0.5-0.5,0.6l-1.8,13.6l-1.5-0.2l1.7-12.2c-0.3,0.4-0.9,1.1-1.9,1.9
			L328.4,1225.2z M334.3,1237.2l0.8-6.2l10,1.4l-0.8,6.1l-1.5-0.2l0.1-0.8l-7-1l-0.1,0.9L334.3,1237.2z M334.7,1223.6l0.2-1.3
			l13.1,1.8l-0.2,1.3L334.7,1223.6z M336,1229.6l0.2-1.3l8.7,1.2l-0.2,1.3L336,1229.6z M343.5,1233.5l-7-1l-0.4,2.6l7,1
			L343.5,1233.5z M336.4,1226.7l0.2-1.3l8.7,1.2l-0.2,1.3L336.4,1226.7z M337.2,1221.1l0.2-1.3l8.6,1.2l-0.2,1.3L337.2,1221.1z"/>
		<path class="st6" d="M347.6,1238.1c1.5-1.9,2.4-4,2.8-7.4l1.5,0.4c0.2,0,0.3,0.1,0.3,0.2c0,0.2-0.4,0.3-0.5,0.3
			c-0.2,1.3-0.3,1.9-0.7,3c0.3,0.9,0.6,1.3,1.4,2l0.9-6.9l-3.8-0.5l0.2-1.2l3.8,0.5l0.4-2.8l-3-0.4l0.2-1.2l3,0.4l0.5-3.4l1.5,0.4
			c0.1,0,0.3,0.1,0.2,0.2c0,0.2-0.3,0.3-0.5,0.3l-0.4,2.6l2.3,0.3l-0.2,1.2l-2.3-0.3l-0.4,2.8l2.8,0.4l-0.2,1.2l-2.8-0.4l-0.3,2.5
			l2.2,0.3l-0.2,1.2l-2.2-0.3l-0.5,3.8c1,0.4,1.9,0.7,5.3,1.2c2.5,0.3,5.4,0.5,8.1,0.7l-1,1.6c-1-0.1-2.1-0.2-3.6-0.4
			c-1.3-0.2-6-0.9-7.6-1.3c-1.4-0.3-2.9-1-3.7-2c-0.4-0.4-0.6-0.9-0.8-1.3c-0.5,1-0.9,1.8-1.6,2.8L347.6,1238.1z M359.4,1236.5
			c0.9-0.5,1.7-1,2.9-2.4c-0.2-1-0.5-3.1-0.4-6.7l-1.6-0.2l-0.9,6.7c0.6-0.2,1.2-0.5,2-0.9l-0.2,1.4c-1.7,0.9-2.6,1.3-3.8,1.9
			c-0.1,0.1-0.2,0.5-0.5,0.5c-0.1,0-0.2-0.1-0.2-0.3l-0.1-1.6c0.5-0.1,0.7-0.2,1.4-0.5l1.2-8.6l2.9,0.4c0.1-0.9,0.2-2.4,0.4-3.8
			l1.4,0.4c0.1,0,0.3,0.1,0.3,0.2c0,0.2-0.3,0.3-0.5,0.3c-0.3,2-0.3,2.6-0.4,3l3.7,0.5l-0.2,1.2l-3.7-0.5c-0.1,1.2-0.1,3.1,0.2,5.2
			c1-1.5,1.6-2.9,1.8-3.5l1.2,0.7c0.1,0.1,0.2,0.2,0.2,0.3c0,0.2-0.4,0.2-0.6,0.2c-0.6,1.1-1.4,2.7-2.4,4c0.4,1.5,0.8,1.7,0.9,1.7
			c0.4,0.1,0.9-1.1,1.3-2l0.9,1.1c-0.2,0.6-1.2,2.9-2.3,2.7c-1-0.1-1.5-1.8-1.7-2.3c-0.8,0.8-1.4,1.3-2.5,2.1L359.4,1236.5z
			 M366,1223.5c0.7,1.1,0.9,1.7,1.1,2.2l-1.2,0.5c-0.2-0.7-0.4-1.3-0.9-2.2L366,1223.5z"/>
		<path class="st6" d="M375.3,1226.7c1-1,1.6-1.7,2.3-2.7l1.5,0.5c0.3,0.1,0.4,0.2,0.3,0.3c0,0.2-0.3,0.3-0.6,0.4
			c-0.7,0.8-1.4,1.4-1.7,1.7l7.6,1l-2.1,15.8l-1.5-0.2l0.2-1.3l-9.7-1.3l-0.2,1.3l-1.5-0.2l2.2-15.8L375.3,1226.7z M381.8,1237.7
			l-9.7-1.3l-0.4,3.1l9.7,1.3L381.8,1237.7z M382.3,1233.4l-9.7-1.3l-0.4,3l9.7,1.3L382.3,1233.4z M382.9,1229.1l-9.7-1.3l-0.4,3
			l9.7,1.3L382.9,1229.1z"/>
		<path class="st6" d="M393.9,1231.4l-0.2,1.2l3.9,0.5l-0.8,5.7l-3.9-0.5l-0.2,1.1l3.9,0.5l-0.2,1.3l-3.9-0.5l-0.2,1.6
			c0.7,0,1.5,0,4.1,0.1l-0.4,1.2c-3.6,0.1-5.5,0.1-8.8,0c-0.2,0.2-0.4,0.4-0.5,0.3c-0.2,0-0.2-0.2-0.2-0.4l-0.2-1.5
			c2,0.2,2.5,0.2,4.6,0.2l0.2-1.7l-3.8-0.5l0.2-1.3l3.8,0.5l0.2-1.1l-3.8-0.5l0.8-5.7l3.8,0.5l0.2-1.2l-4.5-0.6l0.2-1.3l4.5,0.6
			l0.2-1.5c-1.5,0-2,0-3.3-0.1l-0.6-1.4c3.4,0.4,6.4,0.2,8,0l0.6,1.2c0,0,0.1,0.2,0.1,0.3c0,0.1-0.1,0.2-0.2,0.2
			c-0.2,0-0.4-0.1-0.7-0.3c-0.2,0-2.2,0.1-2.5,0.1l-0.2,1.7l4.1,0.6l-0.2,1.3L393.9,1231.4z M391.9,1235.8l-2.5-0.3l-0.2,1.3
			l2.5,0.3L391.9,1235.8z M392.2,1233.5l-2.5-0.3l-0.2,1.3l2.5,0.3L392.2,1233.5z M395.8,1236.4l-2.5-0.3l-0.2,1.3l2.5,0.3
			L395.8,1236.4z M396.1,1234l-2.5-0.3l-0.2,1.3l2.5,0.3L396.1,1234z M403.9,1243.6c-0.8,2.7-2.2,2.5-3.7,2.3l-0.8-0.1l-0.2-1.9
			c0.8,0.4,1.2,0.5,1.6,0.6c1,0.1,1.4-0.8,1.7-1.8c0.8-2.6,1.3-6.1,1.6-7.9l-1.8-0.2c-1,6-3.1,9.2-5.5,11.4l-1.4-1
			c3.7-3,4.7-6.6,5.4-10.6l-2.7-0.4l0.2-1.4l2.7,0.4l0.7-5.2l1.6,0.3c0.1,0,0.4,0.1,0.4,0.3c0,0.2-0.4,0.3-0.6,0.3l-0.6,4.4l3.3,0.4
			C405.6,1235.6,404.9,1240.4,403.9,1243.6z"/>
		<path class="st6" d="M417.4,1229.6l1.5,0.4c0.2,0,0.5,0.2,0.5,0.3c0,0.2-0.2,0.2-0.6,0.3l-0.2,1.5l7.7,1.1l-0.2,1.3l-7.7-1.1
			l-0.2,1.6l5.7,0.8l-0.9,6.9l-5.7-0.8l-0.2,1.7l8.2,1.1l-0.2,1.4l-8.2-1.1l-0.5,3.4l-1.5-0.2l0.5-3.4l-8.2-1.1l0.2-1.4l8.2,1.1
			l0.2-1.7l-5.6-0.8l0.9-6.9l5.6,0.8l0.2-1.6l-7.8-1.1l0.2-1.3l7.8,1.1L417.4,1229.6z M416,1240.4l0.2-1.6l-4.1-0.6l-0.2,1.6
			L416,1240.4z M416.4,1237.6l0.2-1.5l-4.1-0.6l-0.2,1.5L416.4,1237.6z M421.7,1241.1l0.2-1.6l-4.2-0.6l-0.2,1.6L421.7,1241.1z
			 M422.1,1238.3l0.2-1.5l-4.2-0.6l-0.2,1.5L422.1,1238.3z"/>
		<path class="st6" d="M445.2,1251.7l-7.9-1.1c-3.6-0.5-5.6-1-6.4-3.1c-1.2,0.9-1.8,1.3-2.4,1.7c-0.1,0.3-0.2,0.5-0.4,0.5
			c-0.1,0-0.2-0.1-0.3-0.3l-0.7-1.5c0.8-0.3,1.8-0.6,3.2-1.5l0.6-4.7l-2.7-0.4l0.2-1.4l4.1,0.6l-0.7,5.3c-0.1,0.9,0.3,1.8,1,2.3
			c0.9,0.6,3,1,4.9,1.2c2.7,0.4,5.5,0.6,8.3,0.7L445.2,1251.7z M431.4,1237.4c-0.4-1.6-1-3.2-1.9-5l1.3-0.6c1,1.8,1.7,4.2,2,5
			L431.4,1237.4z M441.5,1237.4c-0.6,0.7-0.9,1.1-1.3,1.6l5.3,0.7l-1.3,9.7l-1.5-0.2l0.1-0.7l-6.9-0.9l-0.1,0.7l-1.5-0.2l1.3-9.7
			l2.9,0.4c0.5-0.5,0.9-0.9,1.4-1.6l-6.1-0.8l0.2-1.3l13.6,1.8l-0.2,1.3L441.5,1237.4z M443.1,1245.7l-6.9-0.9l-0.2,1.5l6.9,0.9
			L443.1,1245.7z M443.5,1243.1l-6.9-0.9l-0.2,1.4l6.9,0.9L443.5,1243.1z M443.8,1240.6l-6.9-0.9l-0.2,1.4l6.9,0.9L443.8,1240.6z
			 M438.3,1235.6c-0.5-1-0.9-1.7-1.5-2.5l1.2-0.8c0.9,1.1,1.3,1.9,1.6,2.7L438.3,1235.6z M444.9,1234.6c-0.7,0.9-1.1,1.2-1.6,1.7
			l-1-0.9c0.8-0.8,1.4-1.5,1.9-2.2l1.1,1c0,0,0.1,0.2,0.1,0.3C445.5,1234.6,445.3,1234.6,444.9,1234.6z"/>
	</g>
	<g>
		<path class="st6" d="M225.2,1536.3c-3.3-1.3-5.9-3.2-7.3-5.3v5.7h-1.5v-5.7c-1.9,2.4-4.5,4.1-7.2,5.3l-1-1.2
			c3.1-1.2,5.5-2.9,7.1-5h-4.5v-6.9h5.7v-1.7h-8.1v-1.4h8.1v-2.2l1.5,0.1c0.1,0,0.4,0,0.4,0.2c0,0.1-0.1,0.2-0.4,0.3v1.5h8.2v1.4
			h-8.2v1.7h5.7v6.9h-4.9c1.3,1.7,3.6,3.6,7.4,4.9L225.2,1536.3z M216.4,1524.5h-4.2v1.6h4.2V1524.5z M216.4,1527.3h-4.2v1.7h4.2
			V1527.3z M222.1,1524.5h-4.2v1.6h4.2V1524.5z M222.1,1527.3h-4.2v1.7h4.2V1527.3z"/>
		<path class="st6" d="M244.3,1536.6v-0.9h-8.9v1H234v-6.5c-1.4,0.7-2.7,1.2-4.3,1.6l-1.1-1.5c3.3-0.7,5.3-1.6,7.9-3.1
			c-0.8-1.1-2-2.3-2.9-3.3l1.1-0.9c1,0.8,2.1,2.1,3.1,3.4c1.9-1.2,3.5-2.8,4.9-4.4h-7.5c-1.6,1.2-2.7,1.9-4.6,2.8l-1.2-1.3
			c1.6-0.6,5-1.9,7.8-5.8l1.4,0.7c0.1,0.1,0.2,0.2,0.2,0.3c0,0.2-0.4,0.3-0.5,0.3c-1,1.1-1.3,1.4-1.6,1.7h7.9l0.5,0.7
			c-2.1,2.8-4.6,5.3-7.6,7h8.4v8.3H244.3z M244.3,1529.7h-8.9v4.6h8.9V1529.7z"/>
		<path class="st6" d="M249.4,1521.3v-1.3h8.2v-2.1l1.7,0.2c0.1,0,0.4,0.1,0.4,0.3c0,0.2-0.1,0.3-0.6,0.5v1.1h8.4v1.3H249.4z
			 M266.3,1536.3c-0.5,0.2-1.2,0.2-2.4,0.2l-0.4-1.6c0.5,0,1.1,0.1,1.3,0.1c0.7,0,0.7-0.1,0.7-0.8v-4.6h-13.9v7H250v-8.4h16.9v6.3
			C266.9,1535.4,266.9,1536,266.3,1536.3z M252.8,1526.8v-4.1h11.2v4.1H252.8z M262.6,1524h-8.4v1.6h8.4V1524z M255.7,1535.2v0.7
			h-1.4v-4.7h8.4v4.1H255.7z M261.2,1532.3h-5.6v1.6h5.6V1532.3z"/>
		<path class="st6" d="M288.2,1536.1h-8.1c-3.1,0-4.3-0.1-5.5-0.8c-0.7-0.4-1-0.8-1.5-1.4c-0.4,0.5-0.9,0.9-2.1,1.9c0,0,0,0.4,0,0.4
			c0,0.2-0.1,0.3-0.2,0.3c-0.1,0-0.1,0-0.3-0.2l-0.9-1.1c0.8-0.5,1.6-1.1,2.7-2.2v-5.3h-2.4v-1.4h3.8v5.4c0,2.6,2,3.1,5.6,3.1
			c3.1,0,6.3-0.1,9.4-0.4L288.2,1536.1z M272.7,1523.3c-0.7-1.4-1.4-2.5-2.6-3.9l1.1-0.8c0.9,1,1.7,2.2,2.7,3.9L272.7,1523.3z
			 M282.2,1521.5v1.6h4.7v5h-4.1c0.7,0.9,2,2.5,5.1,4.2l-1,1.1c-2.2-1.3-3.5-2.6-4.7-4v4.7h-1.4v-4.7c-1.2,1.5-2.4,2.7-4.3,4l-1.1-1
			c1.6-1,3.3-2.2,4.8-4.4h-3.9v-5h4.6v-1.6h-6v-1.3h6v-2.3l1.4,0.1c0.3,0,0.4,0.1,0.4,0.2c0,0.1-0.1,0.2-0.4,0.4v1.6h6v1.3H282.2z
			 M280.8,1524.4h-3.2v2.4h3.2V1524.4z M285.5,1524.4h-3.3v2.4h3.3V1524.4z"/>
		<path class="st6" d="M308.7,1536.2h-8c-3.6,0-5.7-0.2-6.8-2.2c-1.1,1.1-1.6,1.5-2.2,2c-0.1,0.3-0.1,0.5-0.3,0.5
			c-0.1,0-0.2-0.1-0.3-0.2l-0.9-1.3c0.8-0.4,1.7-0.8,3-1.9v-4.8h-2.7v-1.4h4.2v5.4c0,0.9,0.5,1.7,1.3,2.1c1,0.5,3.1,0.6,5,0.6
			c2.8,0,5.5-0.1,8.3-0.4L308.7,1536.2z M293.2,1523.8c-0.6-1.5-1.4-3.1-2.5-4.7l1.2-0.7c1.3,1.6,2.3,3.9,2.6,4.7L293.2,1523.8z
			 M303.2,1522.4c-0.5,0.8-0.8,1.3-1.1,1.7h5.3v9.7h-1.5v-0.7H299v0.7h-1.5v-9.7h2.9c0.4-0.6,0.7-1,1.1-1.7h-6.1v-1.3h13.7v1.3
			H303.2z M299.8,1521.1c-0.6-0.9-1.1-1.6-1.9-2.3l1.1-1c1.1,1,1.6,1.7,2,2.4L299.8,1521.1z M305.9,1525.3H299v1.4h6.9V1525.3z
			 M305.9,1527.8H299v1.5h6.9V1527.8z M305.9,1530.5H299v1.5h6.9V1530.5z M306.2,1519.2c-0.6,0.9-0.9,1.4-1.4,1.9l-1.1-0.8
			c0.7-0.9,1.2-1.6,1.6-2.4l1.3,0.8c0,0,0.2,0.1,0.2,0.2C306.7,1519.1,306.6,1519.1,306.2,1519.2z"/>
		<path class="st6" d="M318.4,1534.2c-2.7,0.8-4.4,1.3-6.4,1.8c0,0.1-0.2,0.5-0.4,0.5c-0.1,0-0.2-0.1-0.3-0.3l-0.5-1.4
			c0.3,0,0.9-0.2,1.1-0.2v-7.5l1.4,0.1c0.2,0,0.4,0,0.4,0.2c0,0.2-0.3,0.4-0.5,0.5v6.4c1.1-0.2,1.2-0.3,1.3-0.3v-8.8h-2.8v-6.2h6.2
			v6.2H316v2.9h1.9v1.3H316v4.1c1.3-0.3,1.8-0.5,2.5-0.8L318.4,1534.2z M316.7,1520.2h-3.5v3.7h3.5V1520.2z M328.9,1529.8
			c-2.8-1.5-3.6-2.2-4.6-3.1c-1.7,1.5-3,2.2-4.8,3l-1.1-1.1c1.3-0.5,3.4-1.4,4.9-2.9c-0.9-1.1-1.3-2-1.7-3.2
			c-0.9,1.7-1.5,2.5-1.8,2.8l-1.3-0.7c1.1-1.3,2.2-2.7,3.4-6.8l1.5,0.5c0.2,0.1,0.3,0.1,0.3,0.2c0,0.2-0.3,0.3-0.6,0.3
			c-0.1,0.2-0.5,1.2-0.6,1.3h4.7l0.6,0.5c-1.1,2.5-1.6,3.4-2.7,4.8c1.2,1.1,2.3,1.8,4.7,2.8L328.9,1529.8z M326.8,1536.5v-1h-5.2
			v1.1h-1.4v-6.9h8v6.8H326.8z M326.8,1530.9h-5.2v3.3h5.2V1530.9z M322.8,1521.7c0.4,1.4,0.8,2.1,1.5,3.1c1-1.2,1.4-1.9,1.8-3.1
			H322.8z"/>
	</g>
	<g>
		<path class="st6" d="M497,1149.1l-1.4,0.4l-4.5-17.4l7.1-1.8l1.6,6.1l-5.7,1.5L497,1149.1z M497.6,1133.1l-0.4-1.4l-4.3,1.1
			l0.4,1.4L497.6,1133.1z M498.2,1135.6l-0.4-1.4l-4.3,1.1l0.4,1.4L498.2,1135.6z M503.7,1142.2c1.3,1.1,3.1,1.5,4.8,1.6l-0.5,1.3
			c-1.3-0.2-2.8-0.4-5-1.9c-0.5,2-1.8,3.3-3.2,4.4l-1.4-0.7c1.2-0.7,2.9-2.1,3.3-4.1l-4.2,1.1l-0.3-1.1l4.5-1.2
			c-0.1-0.6-0.2-0.9-0.3-1.3l-0.1-0.4l-3.7,1l-0.3-1.1l1.8-0.5c-0.3-0.4-0.6-0.7-1.3-1.1l0.8-0.9c0.5,0.3,1,0.6,1.7,1.3l-0.5,0.6
			l3.4-0.9l-0.6-0.3c0.4-0.8,0.6-1.3,0.8-1.9l1.1,0.4c0.2,0,0.3,0.1,0.3,0.2c0,0.2-0.3,0.3-0.4,0.4c-0.1,0.2-0.2,0.6-0.5,1.1
			l1.8-0.5l0.3,1.1l-3.4,0.9l0.1,0.5c0.1,0.6,0.2,0.8,0.2,1.2l4.3-1.1l0.3,1.1L503.7,1142.2z M508.4,1144.5c0.4-0.1,1.2-0.1,1.5-0.2
			c0.6-0.1,0.5-0.5,0.3-1l-2.3-9l-5.8,1.5l-1.6-6.1l7.2-1.8l3.9,15.1c0.4,1.5,0.6,2.4-2,2.9L508.4,1144.5z M506.6,1129.3l-4.4,1.1
			l0.4,1.4l4.4-1.1L506.6,1129.3z M507.2,1131.7l-4.4,1.1l0.4,1.4l4.4-1.1L507.2,1131.7z"/>
		<path class="st6" d="M499.4,1168.8c0.7-2.3,0.7-4.6-0.3-7.9l1.6-0.2c0.2,0,0.4,0,0.4,0.1c0.1,0.2-0.2,0.4-0.4,0.5
			c0.3,1.3,0.4,1.9,0.5,3.1c0.6,0.7,1.1,1,2.1,1.4l-1.7-6.8l-3.7,1l-0.3-1.2l3.7-1l-0.7-2.8l-3,0.8l-0.3-1.2l3-0.8l-0.9-3.3l1.6-0.2
			c0.1,0,0.3,0,0.3,0.1c0,0.2-0.2,0.4-0.3,0.4l0.7,2.6l2.3-0.6l0.3,1.2l-2.3,0.6l0.7,2.8l2.8-0.7l0.3,1.2l-2.8,0.7l0.6,2.4l2.1-0.6
			l0.3,1.2l-2.1,0.5l1,3.7c1.1,0,2.1,0,5.4-0.9c2.4-0.6,5.2-1.5,7.8-2.4l-0.3,1.9c-1,0.3-2,0.6-3.5,1c-1.3,0.3-5.8,1.4-7.5,1.7
			c-1.4,0.2-3.1,0.1-4.2-0.4c-0.5-0.3-0.9-0.6-1.3-0.9c0,1.1-0.1,2-0.4,3.2L499.4,1168.8z M509.8,1162.8c0.6-0.8,1.2-1.6,1.8-3.3
			c-0.6-0.8-1.7-2.7-2.9-6l-1.6,0.4l1.7,6.6c0.4-0.4,0.9-0.9,1.5-1.6l0.4,1.4c-1.2,1.4-1.9,2.2-2.8,3.2c0,0.1,0,0.6-0.3,0.6
			c-0.1,0-0.2-0.1-0.3-0.2l-0.7-1.4c0.4-0.3,0.6-0.5,1.1-1l-2.2-8.4l2.8-0.7c-0.3-0.9-0.7-2.3-1.1-3.7l1.4-0.2c0.1,0,0.3,0,0.4,0.1
			c0,0.2-0.1,0.4-0.3,0.5c0.5,2,0.7,2.5,0.8,2.9l3.7-0.9l0.3,1.1l-3.6,0.9c0.4,1.1,1.1,2.9,2.1,4.7c0.4-1.8,0.4-3.3,0.4-3.9l1.4,0.2
			c0.1,0,0.3,0.1,0.3,0.2c0.1,0.2-0.3,0.4-0.5,0.4c-0.1,1.3-0.2,3.1-0.7,4.6c0.9,1.2,1.4,1.2,1.5,1.2c0.4-0.1,0.4-1.4,0.4-2.3
			l1.2,0.7c0,0.6,0,3.1-1.1,3.4c-1,0.2-2.1-1.1-2.5-1.5c-0.4,1-0.8,1.8-1.6,2.9L509.8,1162.8z M511,1148.3c1.1,0.7,1.5,1.2,1.8,1.6
			l-0.9,0.9c-0.4-0.5-0.9-1.1-1.6-1.7L511,1148.3z"/>
		<path class="st6" d="M507.3,1172.5c0.5-1.3,0.9-2.2,1.1-3.3l1.5-0.1c0.3,0,0.4,0.1,0.5,0.2c0.1,0.2-0.2,0.4-0.4,0.6
			c-0.4,1-0.7,1.8-0.9,2.2l7.4-1.9l4,15.4l-1.5,0.4l-0.3-1.2l-9.5,2.4l0.3,1.3l-1.5,0.4l-4-15.5L507.3,1172.5z M515.3,1171.9
			l-9.5,2.4l0.7,2.9l9.5-2.4L515.3,1171.9z M516.3,1176.1l-9.5,2.4l0.8,2.9l9.5-2.4L516.3,1176.1z M517.4,1180.2l-9.5,2.4l0.8,3.1
			l9.5-2.4L517.4,1180.2z"/>
		<path class="st6" d="M512.8,1194.7l0.3,1.1l3.8-1l1.4,5.6l-3.8,1l0.3,1.1l3.8-1l0.3,1.3l-3.8,1l0.4,1.6c0.7-0.3,1.4-0.5,3.8-1.5
			l0.1,1.3c-3.3,1.4-5.1,2.2-8.1,3.3c-0.1,0.3-0.2,0.5-0.4,0.5c-0.2,0-0.3-0.1-0.4-0.3l-0.7-1.3c1.9-0.6,2.4-0.8,4.4-1.6l-0.4-1.7
			l-3.8,1l-0.3-1.3l3.8-1l-0.3-1.1l-3.8,1l-1.4-5.6l3.8-1l-0.3-1.1l-4.4,1.1l-0.3-1.3l4.4-1.1l-0.4-1.5c-1.4,0.6-1.8,0.7-3.1,1.1
			l-1.1-1.1c3.3-0.9,6-2.2,7.4-3l1,0.9c0,0,0.2,0.2,0.2,0.3c0,0.1,0,0.2-0.1,0.2c-0.2,0-0.4,0-0.7,0c-0.2,0.1-2,0.9-2.3,1l0.4,1.6
			l4-1l0.3,1.3L512.8,1194.7z M512,1197.2l-2.4,0.6l0.3,1.3l2.4-0.6L512,1197.2z M512.6,1199.5l-2.4,0.6l0.3,1.2l2.4-0.6
			L512.6,1199.5z M515.8,1196.2l-2.4,0.6l0.3,1.3l2.4-0.6L515.8,1196.2z M516.4,1198.5l-2.4,0.6l0.3,1.2l2.4-0.6L516.4,1198.5z
			 M526.6,1202.1c0.2,2.8-1.1,3.2-2.5,3.5l-0.7,0.2l-0.9-1.7c0.9,0,1.3,0,1.7-0.1c1-0.3,1-1.3,0.9-2.3c-0.2-2.7-1.1-6.2-1.6-7.9
			l-1.8,0.5c1.4,6,0.6,9.7-0.8,12.6l-1.6-0.4c2.3-4.2,1.9-7.9,1-11.9l-2.7,0.7l-0.4-1.4l2.7-0.7l-1.3-5l1.6-0.3
			c0.1,0,0.4-0.1,0.5,0.2c0.1,0.2-0.3,0.4-0.4,0.5l1.1,4.3l3.2-0.8C525.2,1194.2,526.3,1198.8,526.6,1202.1z"/>
		<path class="st6" d="M519.1,1209.2l1.5-0.2c0.2,0,0.6-0.1,0.6,0.1c0.1,0.2-0.1,0.3-0.5,0.5l0.4,1.5l7.6-2l0.3,1.3l-7.6,2l0.4,1.5
			l5.5-1.4l1.7,6.7l-5.5,1.4l0.4,1.7l8-2.1l0.3,1.3l-8,2.1l0.9,3.4l-1.5,0.4l-0.9-3.4l-8,2.1l-0.3-1.3l8-2.1l-0.4-1.7l-5.4,1.4
			l-1.7-6.7l5.4-1.4l-0.4-1.5l-7.6,2l-0.3-1.3l7.6-2L519.1,1209.2z M521.1,1216.9l-0.4-1.4l-4,1l0.4,1.4L521.1,1216.9z
			 M521.8,1219.7l-0.4-1.5l-4,1l0.4,1.5L521.8,1219.7z M526.7,1215.5l-0.4-1.4l-4.1,1.1l0.4,1.4L526.7,1215.5z M527.4,1218.2
			l-0.4-1.5l-4.1,1.1l0.4,1.5L527.4,1218.2z"/>
		<path class="st6" d="M520.1,1236.2c-1-1.3-2.1-2.6-3.6-4l1-1c1.6,1.3,3.2,3.2,3.7,3.9L520.1,1236.2z M538.3,1244.3l-7.7,2
			c-3.5,0.9-5.6,1.2-7.1-0.5c-0.8,1.3-1.2,1.9-1.6,2.5c0,0.3,0,0.5-0.1,0.6c-0.1,0-0.2,0-0.4-0.2l-1.2-1.1c0.7-0.6,1.4-1.2,2.4-2.6
			l-1.2-4.6l-2.7,0.7l-0.4-1.4l4.1-1l1.3,5.2c0.2,0.9,0.9,1.5,1.8,1.7c1.1,0.2,3.1-0.2,5-0.7c2.7-0.7,5.3-1.5,7.9-2.5L538.3,1244.3z
			 M529.5,1232.4c-0.2,0.9-0.4,1.4-0.6,2l5.1-1.3l2.4,9.4l-1.5,0.4l-0.2-0.7l-6.7,1.7l0.2,0.7l-1.5,0.4l-2.4-9.4l2.8-0.7
			c0.3-0.6,0.4-1.2,0.7-2l-5.9,1.5l-0.3-1.2l13.2-3.4l0.3,1.2L529.5,1232.4z M525.8,1232c-0.8-0.7-1.5-1.2-2.4-1.7l0.8-1.2
			c1.3,0.7,2,1.3,2.5,1.9L525.8,1232z M532.8,1234.5l-6.7,1.7l0.4,1.4l6.7-1.7L532.8,1234.5z M533.5,1237l-6.7,1.7l0.4,1.4l6.7-1.7
			L533.5,1237z M534.1,1239.5l-6.7,1.7l0.4,1.5l6.7-1.7L534.1,1239.5z M531.6,1228.5c-0.3,1.1-0.5,1.6-0.8,2.2l-1.3-0.5
			c0.4-1,0.8-1.9,1-2.7l1.4,0.5c0,0,0.2,0.1,0.2,0.2C532.1,1228.3,531.9,1228.4,531.6,1228.5z"/>
	</g>
	<g>
		<path class="st6" d="M675.9,1084.5c-2.8-2.3-4.6-4.9-5.3-7.2l-1.7,5.4l-1.4-0.5l1.8-5.4c-2.5,1.7-5.5,2.5-8.5,2.8l-0.6-1.4
			c3.4-0.2,6.2-1.1,8.3-2.6l-4.3-1.4l2.1-6.6l5.4,1.7l0.5-1.6l-7.7-2.5l0.4-1.3l7.7,2.5l0.7-2.1l1.3,0.6c0.1,0,0.4,0.2,0.3,0.3
			c0,0.1-0.2,0.2-0.5,0.2l-0.5,1.5l7.8,2.5l-0.4,1.3l-7.8-2.5l-0.5,1.6l5.4,1.8l-2.1,6.6l-4.6-1.5c0.7,2,2.4,4.5,5.5,7L675.9,1084.5
			z M670.4,1073.2l-4-1.3l-0.5,1.6l4,1.3L670.4,1073.2z M671.3,1070.5l-4-1.3l-0.5,1.5l4,1.3L671.3,1070.5z M675.8,1074.9l-4-1.3
			l-0.5,1.6l4,1.3L675.8,1074.9z M676.7,1072.2l-4-1.3l-0.5,1.5l4,1.3L676.7,1072.2z"/>
		<path class="st6" d="M665.7,1084.8l-5.3,16.5l-1.4-0.5l1.7-5.3c-1.8,0.3-3.2,0.5-5.1,0.7c-0.2,0.2-0.3,0.4-0.5,0.4
			c-0.2-0.1-0.2-0.2-0.1-0.5l0-1.7c2.3,0,4.1,0,6.2-0.4l1.5-4.6l-5.4-1.7l0.4-1.4l5.4,1.7l1.4-4.4l1.3,0.6c0.2,0.1,0.5,0.2,0.4,0.4
			C666.2,1084.6,666.2,1084.7,665.7,1084.8z M674.6,1092.3c-0.1,0-0.2-0.1-0.4-0.2c-2.7,0.9-4.9,1.3-6.3,1.5l-2,6.3
			c-0.2,0.7-0.2,1,0.7,1.3l1.6,0.5c1.2,0.4,1.6,0.1,2.4-1.8l1.1,1.2c-1.3,2.6-2.2,2.5-3.6,2l-2.5-0.8c-1.3-0.4-1.8-0.8-1.3-2.3
			l4.8-14.9l1.4,0.6c0.1,0,0.4,0.2,0.3,0.3c0,0.1-0.2,0.2-0.5,0.2l-1.9,5.8c2.3-0.4,4-1,5.5-1.6l0.8,1.4c0.1,0.2,0.1,0.4,0.1,0.4
			C674.8,1092.3,674.7,1092.4,674.6,1092.3z"/>
		<path class="st6" d="M657.6,1105.5c1.1-0.8,1.9-1.4,2.7-2.2l1.4,0.7c0.3,0.1,0.3,0.3,0.3,0.4c-0.1,0.2-0.4,0.2-0.7,0.3
			c-0.8,0.6-1.6,1.2-2,1.4l7.3,2.3l-4.9,15.2l-1.5-0.5l0.4-1.2l-9.3-3l-0.4,1.3l-1.4-0.5l4.9-15.2L657.6,1105.5z M662,1117.4l-9.3-3
			l-1,3l9.3,3L662,1117.4z M663.4,1113.3l-9.3-3l-0.9,2.9l9.3,3L663.4,1113.3z M664.7,1109.2l-9.3-3l-0.9,2.8l9.3,3L664.7,1109.2z"
			/>
		<path class="st6" d="M650.4,1127.2l-0.4,1.1l3.7,1.2l-1.8,5.5l-3.7-1.2l-0.3,1.1l3.7,1.2l-0.4,1.2l-3.7-1.2l-0.5,1.5
			c0.7,0.1,1.5,0.3,4,0.8l-0.6,1.1c-3.5-0.5-5.5-0.9-8.6-1.5c-0.3,0.2-0.4,0.3-0.6,0.2c-0.2-0.1-0.2-0.3-0.2-0.4l0.1-1.5
			c2,0.5,2.4,0.6,4.5,1l0.5-1.7l-3.7-1.2l0.4-1.2l3.7,1.2l0.3-1.1l-3.7-1.2l1.8-5.5l3.7,1.2l0.4-1.1l-4.3-1.4l0.4-1.2l4.3,1.4
			l0.5-1.4c-1.5-0.3-1.9-0.4-3.2-0.7l-0.3-1.5c3.3,1,6.2,1.4,7.8,1.4l0.4,1.3c0,0,0.1,0.2,0,0.3c0,0.1-0.1,0.2-0.2,0.1
			c-0.2-0.1-0.3-0.2-0.6-0.4c-0.2,0-2.1-0.3-2.5-0.3l-0.5,1.6l4,1.3l-0.4,1.2L650.4,1127.2z M647.7,1131.1l-2.4-0.8l-0.4,1.2
			l2.4,0.8L647.7,1131.1z M648.4,1128.9l-2.4-0.8l-0.4,1.2l2.4,0.8L648.4,1128.9z M651.4,1132.3l-2.4-0.8l-0.4,1.2l2.4,0.8
			L651.4,1132.3z M652.1,1130.1l-2.4-0.8l-0.4,1.2l2.4,0.8L652.1,1130.1z M658.1,1140.9c-1.3,2.5-2.6,2.1-4,1.6l-0.7-0.2l0.2-1.9
			c0.7,0.5,1.1,0.7,1.5,0.8c1,0.3,1.5-0.6,2-1.5c1.3-2.4,2.4-5.8,2.9-7.5l-1.7-0.6c-2.1,5.8-4.7,8.5-7.4,10.2l-1.2-1.2
			c4.2-2.3,5.8-5.7,7.2-9.5l-2.6-0.8l0.4-1.4l2.6,0.8l1.6-5l1.5,0.6c0.1,0,0.4,0.1,0.3,0.4c-0.1,0.2-0.4,0.2-0.6,0.2l-1.4,4.2l3.2,1
			C661.1,1133.4,659.6,1137.9,658.1,1140.9z"/>
		<path class="st6" d="M648,1142.8l1.4,0.6c0.2,0.1,0.5,0.3,0.4,0.4c-0.1,0.2-0.2,0.2-0.7,0.2l-0.5,1.4l7.4,2.4l-0.4,1.3l-7.4-2.4
			l-0.5,1.5l5.5,1.8l-2.1,6.6l-5.5-1.8l-0.5,1.6l7.9,2.5l-0.4,1.3l-7.9-2.5l-1.1,3.3l-1.4-0.5l1.1-3.3l-7.9-2.5l0.4-1.3l7.9,2.5
			l0.5-1.6l-5.3-1.7l2.1-6.6l5.3,1.7l0.5-1.5l-7.5-2.4l0.4-1.3l7.5,2.4L648,1142.8z M644.6,1153.1l0.5-1.5l-3.9-1.3l-0.5,1.5
			L644.6,1153.1z M645.5,1150.4l0.5-1.4l-3.9-1.3l-0.5,1.4L645.5,1150.4z M650.1,1154.9l0.5-1.5l-4-1.3l-0.5,1.5L650.1,1154.9z
			 M651,1152.2l0.5-1.4l-4-1.3l-0.5,1.4L651,1152.2z"/>
		<path class="st6" d="M645.4,1182.8l-7.6-2.4c-3.4-1.1-5.4-2-5.8-4.2c-1.4,0.7-2,1-2.7,1.3c-0.2,0.3-0.3,0.5-0.4,0.4
			c-0.1,0-0.2-0.1-0.2-0.3l-0.5-1.6c0.9-0.1,1.9-0.3,3.4-0.9l1.5-4.5l-2.6-0.8l0.4-1.3l4,1.3l-1.6,5.1c-0.3,0.9-0.1,1.8,0.6,2.4
			c0.8,0.8,2.7,1.5,4.6,2.1c2.6,0.8,5.3,1.6,8,2.2L645.4,1182.8z M634.4,1166.2c-0.2-1.6-0.4-3.3-0.9-5.3l1.4-0.3
			c0.7,2,1,4.4,1.1,5.2L634.4,1166.2z M644.3,1168c-0.7,0.6-1.1,1-1.6,1.3l5.1,1.6l-3,9.3l-1.4-0.5l0.2-0.7l-6.6-2.1l-0.2,0.7
			l-1.4-0.5l3-9.3l2.8,0.9c0.6-0.4,1-0.7,1.6-1.3l-5.8-1.9l0.4-1.2l13,4.2l-0.4,1.2L644.3,1168z M644.4,1176.5l-6.6-2.1l-0.5,1.4
			l6.6,2.1L644.4,1176.5z M645.2,1174l-6.6-2.1l-0.4,1.4l6.6,2.1L645.2,1174z M646,1171.6l-6.6-2.1l-0.4,1.3l6.6,2.1L646,1171.6z
			 M641.5,1165.7c-0.3-1-0.6-1.8-1.1-2.7l1.3-0.6c0.7,1.3,1,2.1,1.1,2.9L641.5,1165.7z M648.2,1165.8c-0.8,0.7-1.3,1-1.9,1.4
			l-0.8-1.1c0.9-0.6,1.7-1.2,2.3-1.8l0.9,1.2c0,0,0.1,0.2,0.1,0.3C648.7,1165.9,648.5,1165.9,648.2,1165.8z"/>
	</g>
	<g>
		<path class="st8" d="M618.1,1329.3c0.4,0,0.7,0.3,1,1l5.3,13.3c0.2,0.5,0.5,0.7,1.1,0.8l14,0.9c0.8,0.1,1.2,0.4,1.2,0.8
			c0,0.3-0.2,0.7-0.6,1l-10.8,8.9c-0.4,0.3-0.6,0.7-0.4,1.3l3.8,14.4c0,0.2,0.1,0.4,0.1,0.5c0,0.6-0.3,0.9-0.8,0.9
			c-0.2,0-0.5-0.1-0.9-0.3l-12.2-7.9c-0.2-0.1-0.4-0.2-0.7-0.2c-0.2,0-0.4,0.1-0.7,0.2l-12.2,7.9c-0.3,0.2-0.6,0.3-0.9,0.3
			c-0.5,0-0.8-0.3-0.8-0.9c0-0.2,0-0.4,0.1-0.6l3.8-14.4c0.1-0.1,0.1-0.2,0.1-0.3c0-0.4-0.2-0.7-0.5-0.9l-10.8-8.9
			c-0.4-0.3-0.6-0.7-0.6-1c0-0.4,0.4-0.7,1.2-0.8l14-0.9c0.5,0,0.9-0.2,1.1-0.8l5.3-13.3C617.4,1329.6,617.7,1329.3,618.1,1329.3z"
			/>
	</g>
	<g>
		<path class="st8" d="M522.6,1097.5v-2.5h2.6v-3.8h2.5v3.8h2.2v2.5h-2.2v0.8c0.6,1.5,1.4,2.6,2.5,3.8l-1.2,2.4
			c-0.6-0.7-1-1.3-1.4-2.1v9.2h-2.5v-8.2c-0.5,1.6-1.2,2.9-2.1,4.2l-0.9-3.6c1.5-2.1,2.4-4,2.9-6.6H522.6z M542.5,1100.8
			c0,2.3-0.1,4.6-0.3,6.9c-0.1,1-0.2,2.1-0.6,2.9c-0.4,0.7-1.3,1-2.1,1h-2.4l-0.4-2.6h2.1c0.5,0,0.8-0.3,0.8-0.8
			c0.2-1.4,0.3-3.3,0.3-4.9h-2.4c-0.4,3.5-1.2,5.8-3.7,8.3l-1.9-1.9c1.1-1.1,2-2.2,2.5-3.7c0.5-1.7,0.8-3.7,0.8-5.5v-1.7h-1.9v2.3
			c0,1.9-0.3,4.2-0.8,6.1c-0.4,1.6-1.1,3-2,4.4l-2-2c0.7-1.2,1.3-2.3,1.6-3.6c0.4-1.6,0.6-3.4,0.6-5v-9.1c0.7,0,1.3,0,2,0
			c3,0,6.2-0.2,9.1-0.9l1.2,2.4c-2.9,0.7-6.6,0.9-9.7,0.9v1.9h9.8v2.5h-5.5v1.9H542.5z"/>
		<path class="st8" d="M544.4,1097.6v-2.6h8.8v-3.8h2.7v3.8h8.8v2.6h-8.1c2.2,3.9,4.7,6.4,8.4,8.9l-1.8,2.7c-3.2-2.2-5.6-5-7.5-8.4
			v10.9h-2.7v-10.8c-1.7,3.2-4.5,6.3-7.5,8.4l-1.7-2.6c3.5-2.2,6.4-5.5,8.5-9H544.4z"/>
		<path class="st8" d="M585.6,1092.4v2.7h-7.8v12.7h8.7v2.7h-20.4v-2.7h8.8v-12.7H567v-2.7H585.6z"/>
		<path class="st8" d="M594,1106.7l-0.4-0.6c-2,0.8-3.8,1.6-5.9,2.2l-0.3-2.8c0.7-0.2,1.5-0.3,2.2-0.6v-6.6h-2v-2.6h2v-4.5h2.6v4.5
			h1.4v2.6h-1.4v5.7c0.5-0.2,1-0.4,1.4-0.6l0.1,1c1.4-0.6,2.3-1.4,3.3-2.6h-3.4v-2h14.6v2h-8.8c-0.2,0.4-0.4,0.7-0.7,1h8.9
			c0,1.5-0.2,6.2-0.7,7.4c-0.4,1-1.1,1.3-2.1,1.3h-3.1l-0.4-2.4h2.6c0.7,0,0.8-0.3,0.9-0.9c0.2-0.7,0.2-2.5,0.3-3.4h-0.9
			c-1.3,3.3-3.7,5.5-6.9,6.9l-1.6-1.8c2.5-1,4.9-2.7,6.2-5.1h-1.3c-2,2.8-4.1,4.1-7.4,5.1l-1-1.9c2.4-0.6,4.1-1.5,5.9-3.2h-1.4
			C595.9,1105.7,595.1,1106.2,594,1106.7z M607,1091.8v7.1h-12.3v-7.1H607z M597.2,1093.6v1.2h7.3v-1.2H597.2z M597.2,1096.1v1.2
			h7.3v-1.2H597.2z"/>
		<path class="st8" d="M531.8,1119.7c-0.4-0.7-0.8-1.5-1.2-2.2l2.6-0.9c0.7,1.2,1,1.8,1.6,3.1h2.4c0.6-1,1-1.9,1.4-3l2.8,0.8
			c-0.3,0.7-0.8,1.5-1.2,2.2h2.4v5.3H540v-3h-14.2v3h-2.7v-5.3h2.5c-0.4-0.7-0.8-1.3-1.3-2l2.6-1c0.7,1,1.3,1.9,1.8,2.9H531.8z
			 M539.5,1128.8h-5.3c-0.2,0.4-0.3,0.8-0.4,1.2h7.8v6.8h-17.5v-6.8h6.8c0.2-0.4,0.3-0.8,0.5-1.2h-5.2v-5.7h13.3V1128.8z
			 M526.8,1132.2v2.4h12v-2.4H526.8z M528.9,1125.1v1.7h8.1v-1.7H528.9z"/>
		<path class="st8" d="M564.9,1134.6l-1.4,2.4c-3-1-5.2-2-7.6-4.1v4.3h-2.7v-4.3c-2.2,2.1-4.7,3.1-7.6,4l-1.3-2.4
			c2.4-0.7,4.9-1.5,7-2.9h-6.9v-2.1h8.8v-1.1h-7.3v-1.8h7.3v-1.1h-7.9v-2.1h4.4c-0.1-0.3-0.3-1.1-0.5-1.4h-4.8v-2.2h3.1
			c-0.3-0.8-0.7-1.6-1.1-2.4l2.6-0.6c0.5,1.1,0.8,1.9,1.1,3h1.2v-2.9h2.5v2.9h1.6v-2.9h2.5v2.9h1.2c0.4-0.8,0.8-2.1,1.1-3l2.7,0.6
			c-0.3,0.8-0.7,1.6-1.1,2.4h3v2.2h-4.8c-0.2,0.5-0.3,0.9-0.5,1.4h4.5v2.1h-8v1.1h7.5v1.8h-7.5v1.1h8.8v2.1h-6.9
			C559.9,1133.2,562.4,1134,564.9,1134.6z M552,1122c0.3,0.7,0.3,1,0.5,1.4h4.2c0.2-0.5,0.3-0.9,0.5-1.4H552z"/>
		<path class="st8" d="M575.4,1121.6v8.5h-5.7c-0.1,2.4-0.5,5-1.8,7.1l-2.1-2.1c1.2-2,1.4-4.1,1.4-6.3v-7.3H575.4z M566.2,1120v-2.5
			h9.9v2.5H566.2z M569.8,1124v3.6h3.1v-3.6H569.8z M579.4,1120.6v2.7h7.1v2.6h-2.1v11.3h-2.6V1126h-2.4c0,2.1-0.1,4.2-0.7,6.3
			c-0.5,2-1.2,3.4-2.5,5l-2.3-1.8c2.1-2.5,2.8-5,2.8-8.2v-8.9c2.7-0.1,5.7-0.5,8.3-1.6l1.4,2.5
			C583.9,1120.1,582.1,1120.4,579.4,1120.6z"/>
	</g>
	<g>
		<path class="st8" d="M785.4,919.9h-2.6v-7.7c-0.7,0.7-1.2,1.1-2.1,1.7l-0.9-3c2.2-1.3,3.9-3.4,5-5.7h-4.6v-2.4h2.5v-3.3h2.6v3.3
			h2.1v2.4c-0.5,1.3-0.9,2-1.6,3.1c0.6,0.7,1.3,1.4,2,2v-0.9H800v10h-12.1v-7.9l-0.9,1.7c-0.7-0.9-1-1.3-1.7-2.3V919.9z
			 M800.6,902.3h-13.3V900h13.3V902.3z M799.3,908.5h-10.7v-5.3h10.7V908.5z M790.4,911.4v2.1h2.5v-2.1H790.4z M790.4,915.3v2.1h2.5
			v-2.1H790.4z M791.1,905.1v1.6h5.8v-1.6H791.1z M795,911.4v2.1h2.5v-2.1H795z M795,915.3v2.1h2.5v-2.1H795z"/>
		<path class="st8" d="M812.8,916.8v-2.3h2.6v4.5h-13.2v-4.5h2.6v2.3h2.7v-3h-3.8v-13h6.3c0.2-0.4,0.3-0.9,0.4-1.4l3,0.1
			c-0.1,0.4-0.3,0.9-0.5,1.3h7.4v7.2h-14v0.9h15.9v1.9h-15.9v1h15.4c-0.1,1.8-0.2,4.9-0.8,6.5c-0.4,1.2-1.3,1.5-2.5,1.5h-2.4
			l-0.5-2.5h2c0.8,0,1-0.2,1.2-0.9c0.2-0.8,0.2-1.9,0.2-2.7h-8.9v3H812.8z M806.4,902.6v1.1h11.3v-1.1H806.4z M806.4,905.2v1.1h11.3
			v-1.1H806.4z"/>
		<path class="st8" d="M843.1,900.7v2.7h-7.8v12.8h8.7v2.7h-20.4v-2.7h8.8v-12.8h-7.9v-2.7H843.1z"/>
		<path class="st8" d="M851.5,915l-0.4-0.6c-2,0.8-3.8,1.6-5.9,2.2l-0.3-2.8c0.7-0.2,1.5-0.3,2.2-0.6v-6.6h-2V904h2v-4.5h2.6v4.5
			h1.4v2.6h-1.4v5.7c0.5-0.2,1-0.4,1.4-0.6l0.1,1c1.4-0.6,2.3-1.4,3.3-2.6h-3.4v-2h14.6v2H857c-0.2,0.4-0.4,0.7-0.7,1h8.9
			c0,1.5-0.2,6.2-0.7,7.4c-0.4,1-1.1,1.3-2.1,1.3h-3.1l-0.4-2.4h2.6c0.7,0,0.8-0.3,0.9-0.9c0.2-0.7,0.2-2.5,0.3-3.4h-0.9
			c-1.3,3.3-3.7,5.5-6.9,6.9l-1.6-1.8c2.5-1,4.9-2.7,6.2-5.1h-1.3c-2,2.8-4.1,4.1-7.4,5.1l-1-1.9c2.4-0.6,4.1-1.5,5.9-3.2h-1.4
			C853.5,914,852.6,914.5,851.5,915z M864.5,900.1v7.1h-12.3v-7.1H864.5z M854.7,901.9v1.2h7.3v-1.2H854.7z M854.7,904.4v1.2h7.3
			v-1.2H854.7z"/>
		<path class="st8" d="M789.4,928c-0.4-0.7-0.8-1.5-1.2-2.2l2.6-0.9c0.7,1.2,1,1.8,1.6,3.1h2.4c0.6-1,1-1.9,1.4-3l2.8,0.8
			c-0.3,0.7-0.8,1.5-1.2,2.2h2.4v5.3h-2.6v-3h-14.2v3h-2.7V928h2.5c-0.4-0.7-0.8-1.3-1.3-2l2.6-1c0.7,1,1.3,1.9,1.8,2.9H789.4z
			 M797.1,937.1h-5.3c-0.2,0.4-0.3,0.8-0.4,1.2h7.8v6.8h-17.5v-6.8h6.8c0.2-0.4,0.3-0.8,0.5-1.2h-5.2v-5.7h13.3V937.1z M784.4,940.5
			v2.4h12v-2.4H784.4z M786.4,933.4v1.7h8.1v-1.7H786.4z"/>
		<path class="st8" d="M822.4,942.9l-1.4,2.4c-3-1-5.2-2-7.6-4.1v4.3h-2.7v-4.3c-2.2,2.1-4.7,3.1-7.6,4l-1.3-2.4
			c2.4-0.7,4.9-1.5,7-2.9h-7v-2.1h8.8v-1.1h-7.3v-1.8h7.3v-1.1h-7.9v-2.1h4.4c-0.1-0.3-0.3-1.1-0.5-1.4h-4.8v-2.2h3.1
			c-0.3-0.8-0.7-1.6-1.1-2.4l2.6-0.6c0.5,1.1,0.8,1.9,1.1,3h1.2v-2.9h2.5v2.9h1.6v-2.9h2.5v2.9h1.2c0.4-0.8,0.8-2.1,1.1-3l2.7,0.6
			c-0.3,0.8-0.7,1.6-1.1,2.4h3v2.2h-4.8c-0.2,0.5-0.3,0.9-0.5,1.4h4.5v2.1h-8v1.1h7.5v1.8h-7.5v1.1h8.8v2.1h-6.9
			C817.5,941.5,819.9,942.3,822.4,942.9z M809.5,930.3c0.3,0.7,0.3,1,0.5,1.4h4.2c0.2-0.5,0.3-0.9,0.5-1.4H809.5z"/>
		<path class="st8" d="M832.9,929.9v8.5h-5.7c-0.1,2.4-0.5,5-1.8,7.1l-2.1-2.1c1.2-2,1.4-4.1,1.4-6.3v-7.3H832.9z M823.7,928.3v-2.5
			h9.9v2.5H823.7z M827.3,932.4v3.6h3.1v-3.6H827.3z M836.9,928.9v2.7h7.1v2.6H842v11.3h-2.6v-11.3h-2.4c0,2.1-0.1,4.2-0.7,6.3
			c-0.5,2-1.2,3.4-2.5,5l-2.3-1.8c2.1-2.5,2.8-5,2.8-8.2v-9c2.7-0.1,5.7-0.5,8.3-1.6l1.4,2.5C841.4,928.4,839.6,928.7,836.9,928.9z"
			/>
	</g>
	<g>
		<path class="st8" d="M356.1,1122h5.4v7.9h-7.8v-4.5c-0.2,0.2-0.5,0.5-0.7,0.7l-1.1-2.5c1-0.9,1.7-1.8,2.2-3h-1.5v-2.2h2.1
			c0.1-0.5,0.2-1.1,0.2-1.7H352v-2.2h3v-1.7h-2.4v-2.2h8.9v3.9h0.8v2.2h-0.8v3.8h-4.8C356.5,1121.1,356.4,1121.4,356.1,1122z
			 M356.2,1124.2v3.3h2.9v-3.3H356.2z M359.1,1118.3v-1.7h-1.8c0,0.6-0.1,1.1-0.2,1.7H359.1z M359.1,1114.5v-1.7h-1.7v1.7H359.1z
			 M364,1113.4c-0.2-1.1-0.6-2.2-1-3.3l2.7-0.3c0.4,1.2,0.7,2.4,1,3.6h1.5c0.4-1.2,0.7-2.5,1-3.7l2.7,0.4c-0.3,1-0.7,2.4-1.1,3.3
			h1.5v2.5h-3.6v2.4h3.3v2.4h-3.3v2.4h3.8v2.6h-3.8v4.6h-2.6v-4.6h-3.8v-2.6h3.8v-2.4H363v-2.4h3.1v-2.4h-3.3v-2.5H364z"/>
		<path class="st8" d="M375.8,1130.4l-2.2-1.9c0.9-1.5,1.3-3.3,1.5-5.1l2.5,0.4C377.4,1125.9,377,1128.6,375.8,1130.4z
			 M385.9,1112.9v1.3h6.4v1.8h-6.4v1.3h6.4v1.8h-6.4v1.3h7.9c0,1.7-0.3,6.7-1,8.1c-0.4,0.8-1,1.6-2.1,1.6h-3.6l-0.5-2.6l3.1,0.1
			c0.5,0,0.6-0.3,0.8-0.7c0.3-0.7,0.4-3.4,0.5-4.3h-15.6v-12.1h18v2.3H385.9z M378,1112.9v1.3h5.4v-1.3H378z M378,1116v1.3h5.4v-1.3
			H378z M378,1119.2v1.3h5.4v-1.3H378z M381.3,1129.4l-2.6,0.2c0-0.6,0.1-1.2,0.1-1.9c0-1.2-0.1-2.4-0.3-3.6h2.3
			C381.3,1125.8,381.3,1127.8,381.3,1129.4z M385.6,1128.4l-2.4,0.5c-0.2-1.7-0.4-3.2-1-4.8l2.3-0.2
			C385,1125.1,385.4,1127.1,385.6,1128.4z M389.5,1126.4l-2.3,0.5c-0.3-1.1-0.6-2.1-1.1-3.1l2.3-0.3
			C388.9,1124.4,389.3,1125.5,389.5,1126.4z"/>
		<path class="st8" d="M415,1111v2.7h-7.8v12.8h8.7v2.7h-20.4v-2.7h8.8v-12.8h-7.9v-2.7H415z"/>
		<path class="st8" d="M423.4,1125.3l-0.4-0.6c-2,0.8-3.8,1.6-5.9,2.2l-0.3-2.8c0.7-0.2,1.5-0.3,2.2-0.6v-6.6h-2v-2.6h2v-4.5h2.6
			v4.5h1.4v2.6h-1.4v5.7c0.5-0.2,1-0.4,1.4-0.6l0.1,1c1.4-0.6,2.3-1.4,3.3-2.6h-3.4v-2h14.6v2h-8.8c-0.2,0.4-0.4,0.7-0.7,1h8.9
			c0,1.5-0.2,6.2-0.7,7.4c-0.4,1-1.1,1.3-2.1,1.3h-3.1l-0.4-2.4h2.6c0.7,0,0.8-0.3,0.9-0.9c0.2-0.7,0.2-2.5,0.3-3.4h-0.9
			c-1.3,3.3-3.7,5.5-6.9,6.9l-1.6-1.8c2.5-1,4.9-2.7,6.2-5.1h-1.3c-2,2.8-4.1,4.1-7.4,5.1l-1-1.9c2.4-0.6,4.1-1.5,5.9-3.2h-1.4
			C425.4,1124.4,424.5,1124.8,423.4,1125.3z M436.4,1110.5v7.1h-12.3v-7.1H436.4z M426.6,1112.2v1.2h7.3v-1.2H426.6z M426.6,1114.8
			v1.2h7.3v-1.2H426.6z"/>
		<path class="st8" d="M383,1138.4c-0.4-0.7-0.8-1.5-1.2-2.2l2.6-0.9c0.7,1.2,1,1.8,1.6,3.1h2.4c0.6-1,1-1.9,1.4-3l2.8,0.8
			c-0.3,0.7-0.8,1.5-1.2,2.2h2.4v5.3h-2.6v-3h-14.2v3h-2.7v-5.3h2.5c-0.4-0.7-0.8-1.3-1.3-2l2.6-1c0.7,1,1.3,1.9,1.8,2.9H383z
			 M390.7,1147.5h-5.3c-0.2,0.4-0.3,0.8-0.4,1.2h7.8v6.8h-17.5v-6.8h6.8c0.2-0.4,0.3-0.8,0.5-1.2h-5.2v-5.7h13.3V1147.5z
			 M378,1150.9v2.4h12v-2.4H378z M380,1143.8v1.7h8.1v-1.7H380z"/>
		<path class="st8" d="M416,1153.2l-1.4,2.4c-3-1-5.2-2-7.6-4.1v4.3h-2.7v-4.3c-2.2,2.1-4.7,3.1-7.6,4l-1.3-2.4
			c2.4-0.7,4.9-1.5,7-2.9h-7v-2.1h8.8v-1.1H397v-1.8h7.3v-1.1h-7.9v-2.1h4.4c-0.1-0.3-0.3-1.1-0.5-1.4h-4.8v-2.2h3.1
			c-0.3-0.8-0.7-1.6-1.1-2.4l2.6-0.6c0.5,1.1,0.8,1.9,1.1,3h1.2v-2.9h2.5v2.9h1.6v-2.9h2.5v2.9h1.2c0.4-0.8,0.8-2.1,1.1-3l2.7,0.6
			c-0.3,0.8-0.7,1.6-1.1,2.4h3v2.2h-4.8c-0.2,0.5-0.3,0.9-0.5,1.4h4.5v2.1h-8v1.1h7.5v1.8H407v1.1h8.8v2.1H409
			C411.1,1151.9,413.5,1152.7,416,1153.2z M403.1,1140.7c0.3,0.7,0.3,1,0.5,1.4h4.2c0.2-0.5,0.3-0.9,0.5-1.4H403.1z"/>
		<path class="st8" d="M426.6,1140.3v8.5h-5.7c-0.1,2.4-0.5,5-1.8,7.1l-2.1-2.1c1.2-2,1.4-4.1,1.4-6.3v-7.3H426.6z M417.3,1138.7
			v-2.5h9.9v2.5H417.3z M420.9,1142.7v3.6h3.1v-3.6H420.9z M430.6,1139.3v2.7h7.1v2.7h-2.1v11.3h-2.6v-11.3h-2.4
			c0,2.1-0.1,4.2-0.7,6.3c-0.5,2-1.2,3.4-2.5,5l-2.3-1.8c2.1-2.5,2.8-5,2.8-8.2v-8.9c2.7-0.1,5.7-0.5,8.3-1.6l1.4,2.5
			C435.1,1138.8,433.2,1139.1,430.6,1139.3z"/>
	</g>
	<g>
		<path class="st8" d="M401.7,1286.9h-2.2v-2.6h2.2v-5.1h2.6v5.1h1.7v2.6h-1.7v6.2c0.6-0.2,1.1-0.4,1.7-0.6l0.1,2.5
			c-1.6,0.7-5,1.8-6.7,2.1l-0.3-2.8c0.9-0.2,1.7-0.3,2.6-0.6V1286.9z M406.3,1285.4c1.4-0.4,3.2-1,4.1-2.2h-4v-2.3h4.9
			c0.1-0.6,0.2-1.2,0.2-1.8h2.8c0,0.6-0.1,1.2-0.2,1.8h5.6v2.3h-3.9c1.2,1.2,2.9,1.8,4.6,2.1l-1.2,2.4h0.9v2.3h-1.2v7.7
			c0,0.5-0.2,1.2-0.6,1.5c-0.5,0.4-1.3,0.5-1.9,0.5h-3.3l-0.6-2.6h-5.4v-6h7.7v6h0.3c1,0,1.1-0.1,1.1-1v-6.2h-10.1v-2.3h1.4
			L406.3,1285.4z M418.8,1287.7c-1.2-0.4-2.3-0.9-3.4-1.6c-1.1-0.7-1.7-1.4-2.4-2.5c-1.2,2.1-3.2,3.4-5.4,4.1H418.8z M409.2,1293.1
			v1.9h3v-1.9H409.2z"/>
		<path class="st8" d="M440.9,1279.9v2.6h-8.2v5h7.2v2.5h-7.2v6.3h8.9v2.6h-20.3v-2.6h8.7v-6.3h-7v-2.5h7v-5H422v-2.6H440.9z
			 M439.5,1294.8l-2.4,1.4c-0.8-1.6-1.7-3.1-2.8-4.5l2.2-1.3C437.5,1291.5,438.9,1293.4,439.5,1294.8z"/>
		<path class="st8" d="M462.4,1280.5v2.7h-7.8v12.8h8.7v2.7h-20.4v-2.7h8.8v-12.8h-7.9v-2.7H462.4z"/>
		<path class="st8" d="M470.8,1294.8l-0.4-0.6c-2,0.8-3.8,1.6-5.9,2.2l-0.3-2.8c0.7-0.2,1.5-0.3,2.2-0.6v-6.6h-2v-2.6h2v-4.5h2.6
			v4.5h1.4v2.6h-1.4v5.7c0.5-0.2,1-0.4,1.4-0.6l0.1,1c1.4-0.6,2.3-1.4,3.3-2.6h-3.4v-2h14.6v2h-8.8c-0.2,0.4-0.4,0.7-0.7,1h8.9
			c0,1.5-0.2,6.2-0.7,7.4c-0.4,1-1.1,1.3-2.1,1.3h-3.1l-0.4-2.4h2.6c0.7,0,0.8-0.3,0.9-0.9c0.2-0.7,0.2-2.5,0.3-3.4h-0.9
			c-1.3,3.3-3.7,5.5-6.9,6.9l-1.6-1.8c2.5-1,4.9-2.7,6.2-5.1h-1.3c-2,2.8-4.1,4.1-7.4,5.1l-1-1.9c2.4-0.6,4.1-1.5,5.9-3.2h-1.4
			C472.8,1293.8,471.9,1294.3,470.8,1294.8z M483.8,1279.9v7.1h-12.3v-7.1H483.8z M474,1281.7v1.2h7.3v-1.2H474z M474,1284.2v1.2
			h7.3v-1.2H474z"/>
		<path class="st8" d="M430.4,1307.8c-0.4-0.7-0.8-1.5-1.2-2.2l2.6-0.9c0.7,1.2,1,1.8,1.6,3.1h2.4c0.6-1,1-1.9,1.4-3l2.8,0.8
			c-0.3,0.7-0.8,1.5-1.2,2.2h2.4v5.3h-2.6v-3h-14.2v3h-2.7v-5.3h2.5c-0.4-0.7-0.8-1.3-1.3-2l2.6-1c0.7,1,1.3,1.9,1.8,2.9H430.4z
			 M438.1,1316.9h-5.3c-0.2,0.4-0.3,0.8-0.4,1.2h7.8v6.8h-17.5v-6.8h6.8c0.2-0.4,0.3-0.8,0.5-1.2h-5.2v-5.7h13.3V1316.9z
			 M425.4,1320.3v2.4h12v-2.4H425.4z M427.4,1313.2v1.7h8.1v-1.7H427.4z"/>
		<path class="st8" d="M463.4,1322.7l-1.4,2.4c-3-1-5.2-2-7.6-4.1v4.3h-2.7v-4.3c-2.2,2.1-4.7,3.1-7.6,4l-1.3-2.4
			c2.4-0.7,4.9-1.5,7-2.9H443v-2.1h8.8v-1.1h-7.3v-1.8h7.3v-1.1h-7.9v-2.1h4.4c-0.1-0.3-0.3-1.1-0.5-1.4H443v-2.2h3.1
			c-0.3-0.8-0.7-1.6-1.1-2.4l2.6-0.6c0.5,1.1,0.8,1.9,1.1,3h1.2v-2.9h2.5v2.9h1.6v-2.9h2.5v2.9h1.2c0.4-0.8,0.8-2.1,1.1-3l2.7,0.6
			c-0.3,0.8-0.7,1.6-1.1,2.4h3v2.2h-4.8c-0.2,0.5-0.3,0.9-0.5,1.4h4.5v2.1h-8v1.1h7.5v1.8h-7.5v1.1h8.8v2.1h-6.9
			C458.5,1321.3,460.9,1322.1,463.4,1322.7z M450.5,1310.1c0.3,0.7,0.3,1,0.5,1.4h4.2c0.2-0.5,0.3-0.9,0.5-1.4H450.5z"/>
		<path class="st8" d="M474,1309.7v8.5h-5.7c-0.1,2.4-0.5,5-1.8,7.1l-2.1-2.1c1.2-2,1.4-4.1,1.4-6.3v-7.3H474z M464.7,1308.1v-2.5
			h9.9v2.5H464.7z M468.3,1312.2v3.6h3.1v-3.6H468.3z M477.9,1308.7v2.7h7.1v2.7H483v11.3h-2.6v-11.3h-2.4c0,2.1-0.1,4.2-0.7,6.3
			c-0.5,2-1.2,3.4-2.5,5l-2.3-1.8c2.1-2.5,2.8-5,2.8-8.2v-9c2.7-0.1,5.7-0.5,8.3-1.6l1.4,2.5
			C482.4,1308.2,480.6,1308.5,477.9,1308.7z"/>
	</g>
	<g>
		<path class="st8" d="M662.9,1393.5h-5.2v5h-4.2v-5h-4.9v-3.5c-1.7,2.2-3.1,3.8-5.2,5.4c-1.1-1.5-2.8-2.3-3.6-2.7
			c6.2-4,10.5-11.7,11.8-14.6h-11.1v-3.7h13v-6.2l4,0.3c0.2,0,0.9,0.1,0.9,0.5c0,0.3-0.3,0.5-0.7,0.6v4.8h13v3.7h-11.4
			c2.2,4.6,7.3,11,12.2,13.9c-1.8,1.4-2.4,2-3.1,3.2c-2.1-1.6-4.1-3.7-5.5-5.3V1393.5z M653.5,1382.2c-1.7,3.2-2.9,5.1-4.7,7.5h4.7
			V1382.2z M662.8,1389.7c-2-2.4-3.6-4.5-5.1-7.3v7.3H662.8z"/>
		<path class="st8" d="M682.3,1398.4h-4.1v-9.5c-1.4,1.2-2.4,2-3.3,2.7c-0.8-1.9-2-2.9-2.6-3.4c3.5-2.1,8-6.3,9.4-9.6h-8.1v-3.8h4.6
			v-6.4l4.1,0.1c0.5,0,0.6,0.3,0.6,0.5c0,0.2-0.2,0.3-0.6,0.6v5.2h3.4l1.8,1.7c-1.9,3.8-2.2,4.4-3.6,6.2c1.8,2,4.1,3.5,5,4.2
			c-0.8,0.7-2,2-2.6,3.1c-1.9-1.4-2.9-2.3-4.1-3.6V1398.4z M687,1382v-4h5.8v-9.7l4.5,0.2c0.3,0,0.5,0.1,0.5,0.4
			c0,0.3-0.2,0.4-0.7,0.5v8.6h5.8v4H697v11.5h6.6v3.8h-18.7v-3.8h7.9V1382H687z"/>
	</g>
	<g>
		<path class="st8" d="M574.3,1141.9c0.4,0,0.7,0.3,1,1l5.3,13.3c0.2,0.5,0.5,0.7,1.1,0.8l14,0.9c0.8,0,1.2,0.4,1.2,0.8
			c0,0.3-0.2,0.7-0.6,1l-10.8,8.9c-0.4,0.3-0.6,0.7-0.4,1.3l3.8,14.4c0,0.2,0.1,0.4,0.1,0.5c0,0.6-0.3,0.9-0.8,0.9
			c-0.2,0-0.5-0.1-0.9-0.3l-12.2-7.9c-0.2-0.1-0.4-0.2-0.7-0.2c-0.2,0-0.4,0.1-0.7,0.2l-12.2,7.9c-0.3,0.2-0.6,0.3-0.9,0.3
			c-0.5,0-0.8-0.3-0.8-0.9c0-0.2,0-0.4,0.1-0.6l3.8-14.4c0.1-0.1,0.1-0.2,0.1-0.3c0-0.4-0.2-0.7-0.5-0.9l-10.8-8.9
			c-0.4-0.3-0.6-0.7-0.6-1c0-0.4,0.4-0.7,1.2-0.8l14-0.9c0.5,0,0.9-0.2,1.1-0.8l5.3-13.3C573.6,1142.3,573.9,1141.9,574.3,1141.9z"
			/>
	</g>
	<g>
		<path class="st8" d="M752,894.8c0.4,0,0.7,0.3,1,1l5.3,13.3c0.2,0.5,0.5,0.7,1.1,0.8l14,0.9c0.8,0.1,1.2,0.4,1.2,0.8
			c0,0.3-0.2,0.7-0.6,1l-10.8,8.9c-0.4,0.3-0.6,0.7-0.4,1.3l3.8,14.4c0,0.2,0.1,0.4,0.1,0.5c0,0.6-0.3,0.9-0.8,0.9
			c-0.2,0-0.5-0.1-0.9-0.3l-12.2-7.9c-0.2-0.1-0.4-0.2-0.7-0.2c-0.2,0-0.4,0.1-0.7,0.2l-12.2,7.9c-0.3,0.2-0.6,0.3-0.9,0.3
			c-0.5,0-0.8-0.3-0.8-0.9c0-0.2,0-0.4,0.1-0.6l3.8-14.4c0.1-0.1,0.1-0.2,0.1-0.3c0-0.4-0.2-0.7-0.5-0.9l-10.8-8.9
			c-0.4-0.3-0.6-0.7-0.6-1c0-0.4,0.4-0.7,1.2-0.8l14-0.9c0.5,0,0.9-0.2,1.1-0.8l5.3-13.3C751.3,895.2,751.7,894.8,752,894.8z"/>
	</g>
	<g>
		<path class="st8" d="M512.5,1278.1c0.4,0,0.7,0.3,1,1l5.3,13.3c0.2,0.5,0.5,0.7,1.1,0.8l14,0.9c0.8,0,1.2,0.4,1.2,0.8
			c0,0.3-0.2,0.7-0.6,1l-10.8,8.9c-0.4,0.3-0.6,0.7-0.4,1.3l3.8,14.4c0,0.2,0.1,0.4,0.1,0.5c0,0.6-0.3,0.9-0.8,0.9
			c-0.2,0-0.5-0.1-0.9-0.3l-12.2-7.9c-0.2-0.1-0.4-0.2-0.7-0.2c-0.2,0-0.4,0.1-0.7,0.2l-12.2,7.9c-0.3,0.2-0.6,0.3-0.9,0.3
			c-0.5,0-0.8-0.3-0.8-0.9c0-0.2,0-0.4,0.1-0.6l3.8-14.4c0.1-0.1,0.1-0.2,0.1-0.3c0-0.4-0.2-0.7-0.5-0.9l-10.8-8.9
			c-0.4-0.3-0.6-0.7-0.6-1c0-0.4,0.4-0.7,1.2-0.8l14-0.9c0.5-0.1,0.9-0.2,1.1-0.8l5.3-13.3C511.8,1278.4,512.2,1278.1,512.5,1278.1z
			"/>
	</g>
	<g>
		<path class="st8" d="M441.5,1150.6c0.4,0,0.7,0.3,1,1l5.3,13.3c0.2,0.5,0.5,0.7,1.1,0.8l14,0.9c0.8,0,1.2,0.4,1.2,0.8
			c0,0.3-0.2,0.7-0.6,1l-10.8,8.9c-0.4,0.3-0.6,0.7-0.4,1.3l3.8,14.4c0,0.2,0.1,0.4,0.1,0.5c0,0.6-0.3,0.9-0.8,0.9
			c-0.2,0-0.5-0.1-0.9-0.3l-12.2-7.9c-0.2-0.1-0.4-0.2-0.7-0.2c-0.2,0-0.4,0.1-0.7,0.2l-12.2,7.9c-0.3,0.2-0.6,0.3-0.9,0.3
			c-0.5,0-0.8-0.3-0.8-0.9c0-0.2,0-0.4,0.1-0.6l3.8-14.4c0.1-0.1,0.1-0.2,0.1-0.3c0-0.4-0.2-0.7-0.5-0.9l-10.8-8.9
			c-0.4-0.3-0.6-0.7-0.6-1c0-0.4,0.4-0.7,1.2-0.8l14-0.9c0.5,0,0.9-0.2,1.1-0.8l5.3-13.3C440.8,1150.9,441.2,1150.6,441.5,1150.6z"
			/>
	</g>
	<path class="st7" d="M769.1,180.3c0,3.1-2.5,5.7-5.7,5.7c-3.1,0-5.7-2.5-5.7-5.7c0-3.1,2.5-5.7,5.7-5.7
		C766.6,174.6,769.1,177.1,769.1,180.3z"/>
	<g>
		<path class="st7" d="M674.3,426.7c-0.8,0.1-1.3,0.2-2,0.2l-0.5-1.2c2.5,0,3.8-0.3,5.5-0.9l0.8,0.8c0,0,0.1,0.1,0.1,0.2
			c0,0.1-0.1,0.1-0.2,0.1c-0.1,0-0.3,0-0.4-0.1c-0.8,0.3-1.2,0.4-2,0.5v2.8h2.2v1.2h-1.8c0.5,1.4,1.6,2.6,2.1,2.9l-1,0.9
			c-0.8-0.8-1.1-1.6-1.4-2.3v8.4h-1.2v-7.9c-0.9,2.2-1.7,3.8-2.2,4.4l-1.2-0.7c0.1-0.1,2-2.4,2.8-5.7h-2.5v-1.2h3V426.7z
			 M676.8,439.3c1.1-0.7,2.8-2,3.9-4.7c0.4-1,0.8-2.4,0.8-5.7c0-1.9-0.1-3.4-0.2-4.1l1.5,0.1c0.1,0,0.3,0,0.3,0.2
			c0,0.2-0.3,0.3-0.5,0.5c0,5.2,0.1,6.9,0.5,8.6c0.7,2.6,2.9,4.4,3.8,5l-1,1c-1.9-1.6-3.4-3.6-4-6.1c-0.6,2.6-1.6,4.2-4.2,6.2
			L676.8,439.3z M677.5,432.2c0.6-1.3,1.1-2.4,1.4-4l1.3,0.3c0.2,0,0.3,0.1,0.3,0.2c0,0.2-0.2,0.3-0.5,0.3c-0.3,1.2-0.7,2.5-1.3,3.6
			L677.5,432.2z M683.6,432c0.4-0.8,1.2-2.4,1.6-4.1l1.2,0.5c0.2,0.1,0.3,0.2,0.3,0.2c0,0.2-0.2,0.2-0.5,0.3
			c-0.5,1.5-0.9,2.4-1.4,3.5L683.6,432z"/>
		<path class="st7" d="M689.7,439.9v-13.7h13.4v13.5h-1.3v-0.9H691v1.1H689.7z M695.7,431.8v-4.4H691v4.4H695.7z M695.7,437.6V433
			H691v4.5H695.7z M701.7,431.8v-4.4H697v4.4H701.7z M701.7,437.6V433H697v4.5H701.7z"/>
	</g>
	<path class="st7" d="M666.5,433.7c0,3.1-2.5,5.7-5.7,5.7c-3.1,0-5.7-2.5-5.7-5.7c0-3.1,2.5-5.7,5.7-5.7
		C664,428.1,666.5,430.6,666.5,433.7z"/>
	<g>
		<path class="st7" d="M870,436.8c0,1.1,0,3.4-0.5,4.2c-0.4,0.7-1.2,0.7-2.9,0.7l-0.2-1.2c0.6,0.1,0.8,0.1,1.2,0.1
			c0.7,0,1.2,0,1.2-2.7h-3.1c-0.2,1.6-0.4,3.4-1.7,5.4l-1-0.6c1.4-2.1,1.6-4.7,1.6-6.7c0-0.6,0-1.3-0.1-1.9h6.9
			c-0.1-0.6-0.3-1.6-0.3-2.1l1.4,0.1c0.1,0,0.3,0,0.3,0.2c0,0.2-0.1,0.2-0.4,0.4c0.1,0.3,0.1,1,0.2,1.4h5.8v1h-5.5
			c0.3,1,0.5,1.6,1.3,3.1c0.6-0.7,1.1-1.4,1.7-2.6l1.1,0.7c0.1,0.1,0.2,0.2,0.2,0.3c0,0.2-0.4,0.2-0.6,0.2c-0.5,0.8-0.9,1.4-1.8,2.5
			c0.3,0.5,0.6,0.9,1.1,1.2c0.5,0.4,0.9,0.7,1.2,0.7c0.3,0,0.5-0.5,0.7-1.1c0-0.2,0.2-0.6,0.2-0.9l1,0.7c-0.6,2.3-0.9,2.7-1.8,2.7
			c-0.2,0-0.3,0-0.5-0.1v3.8h1.8v1.1H863v-1.1h2.1v-3.9h11.3c-1.1-0.7-1.8-1.4-2.5-2.4c-0.9,0.8-1.5,1.2-3,1.9l-0.8-1
			c1-0.4,1.9-0.8,3.2-1.9c-1-1.7-1.3-2.5-1.6-3.9h-5.8c0,0.9,0,1.2-0.1,1.7H870z M868.5,443.5h-2.2v2.9h2.2V443.5z M871.9,443.5
			h-2.2v2.9h2.2V443.5z M875.3,443.5h-2.2v2.9h2.2V443.5z M874.2,431.9c0.6,0.3,1.5,0.7,2,1.1l-0.6,0.9c-0.7-0.5-1.6-0.9-2.1-1.1
			L874.2,431.9z"/>
		<path class="st7" d="M893.4,447.6c-0.5,0-0.8,0-1.1-0.1l-0.4-1.4c0.9,0.1,1.1,0.1,1.4,0.1c0.4,0,0.6-0.2,0.6-0.6v-11.8h-11.6v13.8
			h-1.3v-15h14.1V446C895.2,447.1,895,447.6,893.4,447.6z M888.8,438.8v4.7h2.3v-3.6l1.3,0.2c0.1,0,0.3,0,0.3,0.2
			c0,0.1,0,0.1-0.4,0.4v3.9h-7v1.2H884v-5.7l1.2,0.1c0.2,0,0.3,0.2,0.3,0.2c0,0.1,0,0.1-0.3,0.3v2.8h2.4v-4.7h-4.4v-1.1h3
			c-0.6-1.1-1.1-1.7-1.8-2.5l0.9-0.8c0.8,0.8,1.4,1.8,2,2.7l-0.9,0.6h3.3l-0.7-0.5c0.7-0.9,1.1-1.5,1.9-2.8l0.9,0.7
			c0.1,0.1,0.2,0.1,0.2,0.3c0,0.2-0.2,0.2-0.4,0.2c-0.7,1-0.7,1.2-1.5,2.2h3.1v1.1H888.8z"/>
	</g>
	<path class="st7" d="M858.2,441c0,3.1-2.5,5.7-5.7,5.7c-3.1,0-5.7-2.5-5.7-5.7c0-3.1,2.5-5.7,5.7-5.7
		C855.7,435.3,858.2,437.9,858.2,441z"/>
	<g>
		<path class="st7" d="M822.2,753.2c2.2-2.1,3.7-4.8,4.8-7.6l1.2,0.6c0.1,0,0.2,0.1,0.2,0.3c0,0.1-0.2,0.2-0.5,0.2
			c-0.4,1-0.8,1.9-1.4,2.8c0.2,0.1,0.3,0.1,0.3,0.3c0,0.2-0.3,0.3-0.4,0.3v11.3h-1.2v-9.9c-0.2,0.3-1,1.5-2,2.4L822.2,753.2z
			 M830,761.4h-1.3V750l1.3,0.2c0.4,0.1,0.4,0.2,0.4,0.2c0,0.1-0.1,0.2-0.4,0.3v8.2h2.8v-13.2l1.4,0.2c0.1,0,0.3,0.1,0.3,0.2
			c0,0.1-0.2,0.2-0.5,0.3V759h2.8v-9.1l1.3,0.1c0.1,0,0.4,0,0.4,0.2c0,0.1-0.2,0.2-0.4,0.3v10.8h-1.2v-1.2H830V761.4z"/>
		<path class="st7" d="M854.9,753.8c-0.4-0.6-0.8-1.1-1.6-2c-4,0.3-7.8,0.7-11.7,1c-0.1,0.1-0.2,0.3-0.3,0.3c-0.2,0-0.3-0.3-0.3-0.4
			l-0.2-1.2c0.5,0,1.6,0,2.5-0.1c1.8-2.2,2.9-4.1,3.9-5.8l1.2,0.8c0.1,0.1,0.2,0.2,0.2,0.3c0,0.2-0.3,0.3-0.6,0.3
			c-0.7,1.2-1.6,2.5-3.1,4.4c4.1-0.2,5.9-0.4,7.5-0.6c-0.8-0.7-1.2-1-2.4-2l0.9-0.9c2,1.4,3.5,2.9,5.1,5L854.9,753.8z M852,761.4
			v-1.1h-7.8v1.1H843v-7.1h10.3v7H852z M852,755.6h-7.8v3.5h7.8V755.6z"/>
	</g>
	<path class="st7" d="M818.2,754.8c0,3.1-2.5,5.7-5.7,5.7c-3.1,0-5.7-2.5-5.7-5.7c0-3.1,2.5-5.7,5.7-5.7
		C815.6,749.1,818.2,751.7,818.2,754.8z"/>
	<g>
		<path class="st7" d="M280,1141.6c0.3,0.5,0.9,1.7,1.9,2.7c0.5-0.2,1.6-0.6,3.2-1.9l1,0.8c0.1,0.1,0.2,0.2,0.2,0.2
			c0,0.1-0.1,0.2-0.2,0.2c-0.1,0-0.2-0.1-0.3-0.1c-0.9,0.5-1.8,0.9-3,1.5c1.6,1.1,3.2,1.4,4.5,1.7l-0.7,1.2
			c-2.8-0.7-5.9-1.9-7.8-6.3h-2.2v4.3c1.2-0.3,2.2-0.5,3.6-1l0,1.2c-3.1,0.9-4.9,1.3-6.5,1.7c-0.1,0.3-0.1,0.5-0.3,0.5
			c-0.2,0-0.3-0.2-0.3-0.3l-0.5-1.4c0.8-0.1,1.3-0.2,2.8-0.5v-4.6h-3v-1.1h3.2v-7.5h10.2v1.1h-8.9v1.3h8.4v1.1h-8.4v1.3h8.4v1.1
			h-8.4v1.4h10.8v1.1H280z"/>
		<path class="st7" d="M297.8,1146c-3.2,0.7-4.9,1-7.2,1.3c-0.1,0.1-0.1,0.4-0.3,0.4c-0.2,0-0.3-0.2-0.3-0.3l-0.5-1.2
			c1.5-0.2,2.5-0.3,3.7-0.5v-2.4h-3.3v-1.1h3.3v-1.9h-3.1v-7.2h7.4v7.2h-3.1v1.9h3.2v1.1h-3.2v2.2c1.5-0.2,2.3-0.4,3.4-0.7
			L297.8,1146z M293.2,1134.2h-1.9v1.9h1.9V1134.2z M293.2,1137.1h-1.9v2h1.9V1137.1z M296.4,1134.2h-2v1.9h2V1134.2z M296.4,1137.1
			h-2v2h2V1137.1z M303.1,1141.8l-0.9-0.6c0.7-0.8,0.9-1,1.1-1.4h-1.4v6.6c0,1.5-0.4,1.7-2.7,1.7l-0.5-1.4c0.2,0,0.7,0.1,1,0.1
			c0.9,0,0.9-0.4,0.9-0.9v-6.1h-2.8v-1.1h4.4c-0.8-0.8-1.5-1.5-2.8-2.4l0.8-0.9c0.4,0.3,0.5,0.4,1,0.7c0.3-0.3,0.9-0.9,1.5-2h-4.5
			v-1.1h6.3l0.4,0.6c-1.1,1.6-2,2.5-2.8,3.4c0.7,0.6,0.8,0.7,1,1l-0.7,0.8h2.2l0.5,0.5C304.3,1140.4,303.7,1141.2,303.1,1141.8z"/>
	</g>
	<path class="st7" d="M320.2,1141.4c0,3.1-2.5,5.7-5.7,5.7c-3.1,0-5.7-2.5-5.7-5.7c0-3.1,2.5-5.7,5.7-5.7
		C317.7,1135.7,320.2,1138.3,320.2,1141.4z"/>
</g>
<g>
	<path class="st6" d="M775.1,1199.1l-2.3,3.7c-0.8,1.3-1.5,0.9-4.4-0.8c0.1-0.4,0.2-0.9,0.2-1.3c0.7,0.4,1.3,0.8,1.7,1.1
		c0.9,0.6,1.1,0.6,1.2,0.3l1.6-2.6l-4.7-2.9l-2.9,4.8l-1.2-0.7l2.9-4.8l-4.4-2.7l-2.4,4l-1.2-0.7l3.1-5.1l5.6,3.4l0.9-1.5l-4-2.4
		l2.4-4l9.5,5.8l-2.4,4l-4.1-2.5c-0.1,0-0.2,0-0.3-0.1l-0.9,1.4L775.1,1199.1z M781,1189c-0.2,0.1-0.3,0-0.5-0.1
		c-0.7,0.3-1.8,0.7-2.6,1l3.2,2l-2.3,3.7l-1.2-0.7l1.6-2.6l-12.7-7.7l-1.6,2.6l-1.1-0.7l2.3-3.7l2.9,1.8c0.1-0.8,0-2.1-0.1-3
		l1.3,0.2c0.2,1.1,0.3,2.4,0.3,3.2l-0.9-0.1l3.3,2l1.7-2.8l1.5,1.1c-0.1,0.1-0.2,0.2-0.5,0l-1.5,2.4l3.2,2l-0.4-0.6
		c0.9-0.3,2.2-0.9,3-1.4L781,1189z M768,1188.5l-1.3,2.1l7.2,4.4l1.3-2.1L768,1188.5z"/>
	<path class="st6" d="M749.6,1208.8l0.6-0.9l15.7,9.6l-0.6,0.9l-10-6.1c-0.5,0.2-1.1,0.4-1.6,0.5l8.9,5.4l-2.5,4.1l-1.3-0.8l0.3-0.6
		l-7.7-4.7l-0.4,0.7l-1.2-0.8l1.9-3.1c-1.4,0.1-2.9,0.1-4.2-0.1c0-0.3-0.1-0.9-0.2-1.2c2.1,0.4,4.6,0.3,6.7-0.3L749.6,1208.8z
		 M752.9,1203.7c-0.1,0.1-0.3,0.1-0.4,0.1l0.4-1.3l1.9,1l2.1-3.5l1.9,1.1c0.5-0.4,1.1-0.9,1.5-1.3l1.2,1.1c-0.1,0.1-0.3,0.1-0.5,0
		c-0.3,0.3-0.7,0.6-1.2,0.9l2.6,1.6l-1.9,3.2l0.7,0.4l-0.5,0.8l-0.7-0.4l-1.9,3c-0.7,1.1-1.3,0.8-2.8-0.1c0.1-0.3,0.2-0.8,0.2-1.2
		c0.6,0.4,1.1,0.7,1.2,0.8c0.2,0.1,0.2,0,0.3-0.1l1.8-2.9c-1.3-0.6-2.5-1.3-3.6-1.8c-1,1.3-2.3,2.6-4.4,2.7c0-0.3-0.2-0.8-0.3-1.1
		c1.8-0.1,2.9-1.1,3.7-2.2L752.9,1203.7z M759.7,1220l1-1.7l-7.7-4.7l-1,1.7L759.7,1220z M756.2,1206l1.1,0.8
		c-0.1,0.1-0.2,0.1-0.4,0l-1.4,2.2l-0.9-0.5L756.2,1206z M757.3,1201.5l-1.6,2.6c1.1,0.6,2.3,1.2,3.6,1.9l1.4-2.3L757.3,1201.5z
		 M757.5,1204.6c0.2-0.5,0.3-1.3,0.3-1.9l0.9,0.2c0,0.6-0.1,1.5-0.3,2L757.5,1204.6z M767.7,1211l0.5,0.6c-0.1,0.1-0.1,0.1-0.2,0.1
		c-1.2,0.8-2.5,1.2-3.8,1.3c0.7,1.2,1.7,2.3,3,3.3c-0.4,0.1-0.9,0.3-1.2,0.5c-1.3-1.1-2.3-2.4-3-3.8c-1.5-0.1-3.1-0.4-4.6-1
		c0.1-0.3,0.1-0.8,0-1.2c1.3,0.5,2.7,0.9,4,1c-0.4-1-0.5-2-0.5-2.9l0.8,0.2l-1.4-0.9l0.6-0.9l5.7,3.5L767.7,1211z M765.7,1205.2
		c-0.6,1-1.4,2.3-3.8,2.1c0-0.3-0.1-0.9-0.3-1.1c1.7,0.2,2.4-0.4,2.8-1.1l0.8-1.3l4.6,2.8l-1.5,2.4c-0.2,0.3-0.2,0.4,0.1,0.5
		l0.8,0.5c0.3,0.2,0.4,0.1,1.3-1.2c0.1,0.3,0.4,0.7,0.7,0.9c-1,1.5-1.6,1.7-2.3,1.3l-1.1-0.7c-0.9-0.6-1-1-0.4-2l0.9-1.5
		L765.7,1205.2z M762.9,1209.3c0,0.8,0.2,1.7,0.7,2.6c0.9,0,1.8-0.2,2.7-0.6L762.9,1209.3z"/>
	<path class="st6" d="M754.3,1221c-0.1,0.1-0.3,0.1-0.5,0c-0.5,0.5-1.3,1-2,1.5l6.5,3.9l-8.5,14l-1.2-0.8l0.6-0.9l-9.7-5.9l-0.6,1.1
		l-1.2-0.7l8.6-14.1l4.4,2.7c0.8-0.6,1.7-1.4,2.3-2L754.3,1221z M740,1231.7l9.7,5.9l1.7-2.8l-9.7-5.9L740,1231.7z M753.8,1230.8
		l-9.7-5.9l-1.7,2.8l9.7,5.9L753.8,1230.8z M756.3,1226.8l-9.7-5.9l-1.7,2.9l9.7,5.9L756.3,1226.8z"/>
	<path class="st6" d="M747.5,1246.8l0.6,0.4c-0.1,0.1-0.2,0.3-0.3,0.4c-5,7.7-6.7,10.1-7.8,10.5c-0.9,0.4-1.5,0-2.3-0.5
		c-0.4-0.3-0.9-0.6-1.4-0.9c0.2-0.4,0.3-0.9,0.4-1.3c0.9,0.6,1.7,1.1,2,1.3c0.2,0.1,0.4,0.2,0.7,0.1c0.8-0.3,2.5-2.6,6.8-9.2
		l-2.7-1.6c-2.2,3.7-5.3,7.8-10.7,8.9c-0.1-0.3-0.3-1-0.5-1.3c0.5-0.1,1-0.2,1.5-0.4c-3.2-1.4-6.5-2.9-8.6-3.9
		c-0.1,0.1-0.3,0.1-0.4,0.1l0.4-1.5c1.1,0.6,2.6,1.3,4.2,2l1-1.7l-3.5-2.1l0.6-0.9l3.5,2.1l0.7-1.2l-3.4-2l3.2-5.3l3.4,2l0.8-1.3
		l-4-2.4l0.6-0.9l4,2.4l0.8-1.3c-1.2-0.6-2.5-1.2-3.6-1.8c0.1-0.3,0.2-0.7,0.2-1.1c2.8,1.5,6.2,3.1,8.3,3.7l0.3,1.5
		c-0.1,0-0.1,0-0.2-0.1c-0.1,0-0.1-0.1-0.2-0.1c-0.9-0.3-2.1-0.7-3.4-1.3c-0.1,0-0.2,0-0.4-0.1l-0.8,1.3l4,2.4l-0.6,0.9l-4-2.4
		l-0.8,1.3l3.5,2.2l-3.2,5.3l-3.5-2.2l-0.7,1.2l3.7,2.2l-0.6,0.9l-3.7-2.2l-1,1.6c1.3,0.6,2.6,1.3,3.9,1.9l-0.4,0.8
		c4-1.5,6.4-4.9,8.2-7.8l-2.2-1.4l0.7-1.1l2.2,1.4l2.5-4.1l1.4,1c-0.1,0.1-0.2,0.1-0.5,0l-2.3,3.8L747.5,1246.8z M730.1,1243.7
		l2.3,1.4l0.8-1.4l-2.3-1.4L730.1,1243.7z M732.3,1240.2l-0.8,1.3l2.3,1.4l0.8-1.3L732.3,1240.2z M736,1247.3l0.8-1.4l-2.5-1.5
		l-0.8,1.4L736,1247.3z M738.1,1243.8l-2.5-1.5l-0.8,1.3l2.5,1.5L738.1,1243.8z"/>
	<path class="st6" d="M732.1,1273.5l-0.7,1.1l-7.6-4.6l-1.6,2.6l-1.2-0.7l1.6-2.6l-7.4-4.5l0.7-1.1l7.4,4.5l0.9-1.5l-5.5-3.4l4.3-7
		l5.5,3.4l0.9-1.4l-6.9-4.2l0.7-1.1l6.9,4.2l1-1.7l1.5,1.1c-0.1,0.1-0.2,0.1-0.5,0l-0.8,1.3l7,4.3l-0.7,1.1l-7-4.3l-0.9,1.4l5.7,3.5
		l-4.3,7l-5.7-3.5l-0.9,1.5L732.1,1273.5z M720.6,1263l4.4,2.7l1.2-2l-4.4-2.6L720.6,1263z M723.6,1258l-1.2,2l4.4,2.6l1.2-2
		L723.6,1258z M730.6,1269.1l1.2-2l-4.5-2.7l-1.2,2L730.6,1269.1z M733.7,1264.2l-4.5-2.7l-1.2,2l4.5,2.7L733.7,1264.2z"/>
	<path class="st6" d="M712.2,1278.1l-3.6,5.8c0.1,3,2.6,4.5,5.9,6.5c1.9,1.2,4.2,2.5,5.7,3.3c-0.3,0.2-0.9,0.6-1.1,1
		c-1.3-0.7-3.2-1.9-5-2.9c-3.7-2.2-6.1-3.7-6.6-7c-1.4,0.3-2.8,0.5-3.9,0.6c-0.1,0.2-0.2,0.2-0.3,0.2l0.1-1.7
		c1.2-0.1,2.8-0.2,4.1-0.5l2.9-4.7l-2.6-1.6l0.7-1.1L712.2,1278.1z M715.9,1277.7l3.1,1.9c0.4-0.4,0.9-0.9,1.3-1.4l-4.9-3l0.6-1
		l3.2,2c0.1-0.8,0.1-1.9,0-2.8l1.2,0.2c0.2,1,0.3,2.3,0.1,3l-0.9-0.1l3.8,2.3l-0.4-0.5c0.8-0.4,2-1,2.8-1.5l1.2,1.3
		c-0.1,0.1-0.3,0.1-0.5,0c-0.7,0.3-1.7,0.8-2.5,1.1l3.5,2.2l-0.6,1l-5.3-3.2c-0.4,0.4-1,0.9-1.5,1.3l4.2,2.6l-5.4,8.8l-1.2-0.7
		l0.4-0.6l-6-3.7l-0.4,0.6l-1.2-0.7L715.9,1277.7z M713.6,1269.8c0.7,1.5,1.4,3.5,1.5,4.8l-1.4,0.2c0-1.2-0.7-3.3-1.4-4.8
		L713.6,1269.8z M712.6,1285.6l6,3.7l0.9-1.5l-6-3.7L712.6,1285.6z M715,1281.7l-0.9,1.5l6,3.7l0.9-1.5L715,1281.7z M721.6,1284.5
		l0.9-1.5l-6-3.7l-0.9,1.5L721.6,1284.5z"/>
</g>
</svg>
