<?xml version="1.0" encoding="utf-8"?>
<!-- Generator: Adobe Illustrator 25.0.0, SVG Export Plug-In . SVG Version: 6.00 Build 0)  -->
<svg version="1.1" id="レイヤー_1" xmlns="http://www.w3.org/2000/svg" xmlns:xlink="http://www.w3.org/1999/xlink" x="0px"
	 y="0px" viewBox="0 0 26.7 20" style="enable-background:new 0 0 26.7 20;" xml:space="preserve">
<style type="text/css">
	.st0{fill:#FFFFFF;}
</style>
<path class="st0" d="M2.5,0C1.1,0,0,1.1,0,2.5c0,0.8,0.4,1.5,1,2L12.3,13c0.6,0.4,1.4,0.4,2,0l11.3-8.5c0.6-0.5,1-1.2,1-2
	c0-1.4-1.1-2.5-2.5-2.5L2.5,0z M0,5.8v10.8C0,18.5,1.5,20,3.3,20h20c1.8,0,3.3-1.5,3.3-3.3V5.8l-11.3,8.5c-1.2,0.9-2.8,0.9-4,0
	L0,5.8z"/>
</svg>
