<?xml version="1.0" encoding="utf-8"?>
<!-- Generator: Adobe Illustrator 25.0.0, SVG Export Plug-In . SVG Version: 6.00 Build 0)  -->
<svg version="1.1" id="レイヤー_1" xmlns="http://www.w3.org/2000/svg" xmlns:xlink="http://www.w3.org/1999/xlink" x="0px"
	 y="0px" viewBox="0 0 175.6 50" style="enable-background:new 0 0 175.6 50;" xml:space="preserve">
<style type="text/css">
	.st0{fill:#E95520;}
</style>
<g>
	<path class="st0" d="M29.2,3.6c1-1.4,2.7-2.8,4.6-3.3c6.7-1.8,15.8,6.7,20.7,20.2c4.8,13.5,3.4,26.3-3.1,28.7
		c-6.6,2.4-15.8-6.7-20.7-20.2L29.2,25c0,0,2.7-7.8,4.1-11.7c1,2.3,2.3,5.4,4,9.5c4.1,10.2,6.6,15.3,10,14.5c2-0.4,2.6-7.8-1.3-17.5
		C42,10.2,37.4,7.7,35.6,8.5c-1.5,0.7-2.2,1.7-2.4,2.3c-2.4,5.5-6.6,18.2-6.6,18.2C21.8,42.4,12.6,51.5,6,49.1
		c-6.6-2.4-8-15.2-3.1-28.7C7.7,6.9,16.8-1.6,23.5,0.2c1.9,0.5,3.3,1.7,4.4,3.4c0,0-2.4,3.5-3.8,7.1c-0.2-0.6-0.9-1.6-2.4-2.3
		c-1.8-0.8-6.4,1.8-10.3,11.4C7.5,29.6,8.1,37,10.1,37.4c3.4,0.7,5.9-4.3,10-14.5c4.1-10.2,6-14.1,6.8-15.5
		C28.4,4.6,29.2,3.6,29.2,3.6z"/>
	<polygon class="st0" points="175.6,33.1 168.4,33.1 164.7,37.4 161,33.1 153.8,33.1 161.1,41.5 153.8,50 161,50 164.7,45.7 
		168.4,50 175.6,50 168.3,41.5 	"/>
	<path class="st0" d="M122.3,32.4v-1.6h-6.1v14.7c0,0-0.1,2.2,1.2,3.4c1.4,1.2,2.9,1.1,2.9,1.1h0.7v0h10.7v-4.3H123
		c0,0-0.3,0.1-0.5-0.1c-0.2-0.2-0.2-0.6-0.2-0.6v-6.9c0,0,0-0.3,0.2-0.5c0.2-0.2,0.5-0.2,0.5-0.2h8.6V33H123c0,0-0.4,0-0.5-0.1
		C122.3,32.8,122.3,32.4,122.3,32.4z"/>
	<path class="st0" d="M110.3,33.1h-0.9v0H94v4.5h14c0,0,0.4,0.1,0.5,0.2c0.1,0.2,0.2,0.5,0.2,0.5v0.6c0,0,0,0.2-0.2,0.4
		c-0.2,0.2-0.4,0.3-0.4,0.3l-6.9,0l-2.2,0c-0.3,0-0.8,0-1.8,0c-2.2,0-3.9,2.5-3.9,5.4c0,2.8,1.6,5.1,3.9,5.1c1.8,0,3.1,0,3.7,0h7.9
		l-0.1,0h6.1V37.2c0,0,0-1.6-1.4-3C112.1,33,110.3,33.1,110.3,33.1z M107.6,46.2H101v0c-2.1,0-2-2.9,0-2.9c0,0,0,0,0.1,0h6.4
		c0,0,0.5,0.1,0.7,0.3c0.3,0.2,0.4,0.7,0.4,0.7v1c0,0-0.1,0.4-0.4,0.7C108.1,46.2,107.6,46.2,107.6,46.2z"/>
	<path class="st0" d="M88.2,33.1H88v0H64v0H62V50h6.1V38.1c0,0,0-0.3,0.2-0.4c0.2-0.2,0.4-0.2,0.4-0.2h4.6c0,0,0.4,0,0.6,0.2
		c0.2,0.2,0.1,0.5,0.1,0.5V50h6.1V38.1c0,0,0-0.2,0.1-0.4c0.1-0.1,0.4-0.2,0.4-0.2h4.7c0,0,0.3,0,0.5,0.1c0.2,0.2,0.1,0.4,0.1,0.4
		V50h6.1V37.4c0,0,0.1-1.2-1-2.8C89.9,32.9,88.2,33.1,88.2,33.1z"/>
	<path class="st0" d="M139,43.8h8v0c0.7,0,0.6,0,2.7,0c1.9,0,3.8-2,3.8-5.5c0-3.3-1.9-5.3-3.8-5.3c-1,0-1.6,0-2,0v0h-9.4h-0.3h-0.5
		c0,0-2.6-0.2-4,1.2c-1.4,1.5-1.4,3.5-1.4,3.5v7.8c0,0-0.1,2.2,1.2,3.4c1.4,1.2,2.9,1.1,2.9,1.1h1.2v0H153v-4.5h-14
		c0,0-0.3,0-0.4-0.2c-0.2-0.1-0.2-0.4-0.2-0.4v-0.5c0,0,0.1-0.3,0.2-0.4C138.8,43.8,139,43.8,139,43.8z M139.4,37h6.8
		c1.7,0.2,1.6,2.8-0.2,2.8l0,0h-6.6c0,0-0.4,0-0.7-0.2c-0.3-0.2-0.3-0.6-0.3-0.6v-1.2c0,0,0-0.5,0.4-0.7C139,37,139.4,37,139.4,37z"
		/>
</g>
</svg>
