<?xml version="1.0" encoding="utf-8"?>
<!-- Generator: Adobe Illustrator 27.3.1, SVG Export Plug-In . SVG Version: 6.00 Build 0)  -->
<svg version="1.1" id="レイヤー_1" xmlns="http://www.w3.org/2000/svg" xmlns:xlink="http://www.w3.org/1999/xlink" x="0px"
	 y="0px" viewBox="0 0 327.9 357.8" style="enable-background:new 0 0 327.9 357.8;" xml:space="preserve">
<style type="text/css">
	.st0{fill:#E95520;}
</style>
<g>
	<path class="st0" d="M167.1,24.2c5.3-7.7,15.1-15.7,25.6-18.6c37.6-10.2,88.2,37.2,115.2,112.5c27,75.2,19.1,146.9-17.5,160
		c-36.7,13.2-88.2-37.2-115.2-112.4l-8.4-21.8c0,0,15.1-43.3,23-65.1c5.6,12.9,12.9,30.1,22.1,53.2c22.8,57.1,36.9,85.2,55.6,81
		c11.1-2.5,14.5-43.6-7.3-97.6c-21.8-54-47.8-68.2-57.6-63.9c-8.3,3.6-12.2,9.6-13.2,12.7c-13.3,30.9-36.7,101.5-36.7,101.5
		c-27,75.2-78.5,125.6-115.2,112.4C0.9,265-7,193.4,20,118.1S97.6-4.5,135.2,5.7c10.6,2.9,18.6,9.5,24.4,19.1
		c0,0-13.3,19.6-21.1,39.4c-1-3.1-4.9-9.1-13.2-12.7c-9.8-4.3-35.8,9.9-57.6,63.9c-21.8,54-18.4,95.1-7.3,97.6
		c18.7,4.2,32.7-23.9,55.6-81c22.8-57.1,33.2-78.4,37.9-86.7C162.6,29.9,167.1,24.2,167.1,24.2z"/>
	<polygon class="st0" points="322.6,306 302.4,306 292,318 281.6,306 261.5,306 282,329.7 261.5,353.4 281.6,353.4 292,341.3 
		302.4,353.4 322.6,353.4 302.1,329.7 	"/>
	<path class="st0" d="M173.3,304.2v-4.6h-17.2v41.1c0,0-0.3,6.1,3.5,9.5c3.8,3.4,8,3.2,8,3.2h1.8v0.1h29.9v-11.9h-24
		c0,0-1,0.2-1.5-0.4c-0.6-0.6-0.5-1.6-0.5-1.6v-19.2c0,0,0-0.8,0.5-1.4c0.5-0.5,1.3-0.4,1.3-0.4h24.2v-12.7h-24.2
		c0,0-1.1,0.1-1.5-0.3C173.3,305.1,173.3,304.2,173.3,304.2z"/>
	<path class="st0" d="M139.5,306h-2.4v-0.1H94v12.7h39.2c0,0,1,0.2,1.3,0.7c0.3,0.5,0.5,1.3,0.5,1.3v1.6c0,0,0,0.6-0.6,1.2
		c-0.5,0.5-1.2,0.8-1.2,0.8l-19.2,0l-6.2,0c-0.9,0-2.2,0-5,0c-6.2,0-10.9,7-10.9,15c0,7.9,4.4,14.2,10.8,14.2c4.9,0,8.6-0.1,10.3,0
		h22.2l-0.1,0h17.1v-35.6c0,0,0-4.5-4-8.4C144.6,305.8,139.5,306,139.5,306z M132,342.8h-18.3v0c-5.8,0-5.5-8.2,0-8.2
		c0.1,0,0.1,0,0.2,0h18c0,0,1.3,0.3,2,0.9c0.7,0.7,1.1,1.9,1.1,1.9v2.9c0,0-0.4,1.2-1,1.8C133.4,342.7,132,342.8,132,342.8z"/>
	<path class="st0" d="M77.7,306h-0.4H4.4v47.3h17.2v-33.2c0,0,0-0.7,0.5-1.1c0.5-0.5,1.1-0.4,1.1-0.4h13c0,0,1.1,0,1.6,0.4
		c0.5,0.5,0.4,1.5,0.4,1.5v32.8h17.1V320c0,0,0-0.7,0.3-1c0.3-0.4,1.1-0.4,1.1-0.4h13.3c0,0,0.9-0.1,1.4,0.4
		c0.4,0.4,0.3,1.1,0.3,1.1v33.3h17.1v-35.2c0,0,0.3-3.5-2.8-7.9C82.5,305.5,77.7,306,77.7,306z"/>
	<path class="st0" d="M220.1,336.1h22.3v0c1.9,0,1.8,0,7.6,0c5.2,0,10.6-5.7,10.6-15.3c0-9.3-5.4-14.9-10.5-14.9c-2.9,0-4.6,0-5.6,0
		v0h-26.3h-0.8h-1.3c0,0-7.4-0.5-11.2,3.4c-4.1,4.1-3.8,9.7-3.8,9.7v21.7c0,0-0.3,6.1,3.5,9.5c3.8,3.4,8,3.2,8,3.2h3.4v0.1h43.1
		v-12.7h-39.2c0,0-0.8-0.1-1.2-0.5c-0.5-0.4-0.5-1.2-0.5-1.2v-1.4c0,0,0.1-0.8,0.6-1.1C219.3,336.2,220.1,336.1,220.1,336.1z
		 M221.1,317.1h19c4.8,0.5,4.5,7.8-0.5,7.8l0,0h-18.4c0,0-1.2-0.1-2-0.6c-0.8-0.5-0.9-1.6-0.9-1.6v-3.3c0,0,0.1-1.4,1-2
		C220.1,317,221.1,317.1,221.1,317.1z"/>
</g>
</svg>
