<?xml version="1.0" encoding="utf-8"?>
<!-- Generator: Adobe Illustrator 27.5.0, SVG Export Plug-In . SVG Version: 6.00 Build 0)  -->
<svg version="1.1" id="レイヤー_1" xmlns="http://www.w3.org/2000/svg" xmlns:xlink="http://www.w3.org/1999/xlink" x="0px"
	 y="0px" viewBox="0 0 1102 2182" style="enable-background:new 0 0 1102 2182;" xml:space="preserve">
<style type="text/css">
	.st0{fill:#FFFFFF;}
	.st1{fill:#E95520;}
	.st2{fill:#AE9B33;}
	.st3{fill:#4D558B;}
	.st4{fill:#4D4D4D;}
	.st5{fill:#006837;}
</style>
<g>
	<g>
		<path class="st0" d="M202,63.9c0,5.5-4.5,10-10,10H12.5c-5.5,0-10-4.5-10-10V14.1c0-5.5,4.5-10,10-10H192c5.5,0,10,4.5,10,10V63.9
			z"/>
	</g>
	<path class="st1" d="M192,74.9H12.5c-6,0-11-4.9-11-11V14c0-6,4.9-11,11-11H192c6,0,11,4.9,11,11v49.9
		C203,69.9,198.1,74.9,192,74.9z M12.5,5.1c-4.9,0-9,4-9,9v49.9c0,4.9,4,9,9,9H192c4.9,0,9-4,9-9V14c0-4.9-4-9-9-9H12.5z"/>
</g>
<g>
	<path class="st1" d="M81.7,50.3h-2.7v-8.1c-1.3,1.2-2.3,1.9-3,2.5c-0.5-1.1-1.1-1.7-1.8-2.2c3-1.8,6.5-5.3,7.8-8.1h-6.8v-2.5h3.9
		v-5.2l2.6,0.1c0.3,0,0.6,0.2,0.6,0.4c0,0.2-0.3,0.3-0.5,0.4v4.3h2.8l1.2,1.1c-1.5,3.1-2,3.8-2.9,5c1.5,1.6,3.2,2.7,4.2,3.4
		c-0.6,0.5-1.3,1.4-1.7,2.1c-0.6-0.4-2-1.4-3.6-3.1V50.3z M85.6,37.1v-2.6h4.8v-7.9l3,0.2c0.2,0,0.4,0.1,0.4,0.3
		c0,0.2-0.2,0.3-0.6,0.4v7h5v2.6h-5v9.6h5.5v2.5H84.4v-2.5h6v-9.6H85.6z"/>
	<path class="st1" d="M103.8,47.5c2.1-0.2,3.1-0.3,4-0.5v-6.1h-4.7v-2.3h5.1V27.1h16.3v2.2H111V31h12.2v2H111v1.7h12.2v2.1H111v1.7
		h16v2.3H123l1.4,1c0.2,0.2,0.3,0.3,0.3,0.4c0,0.3-0.2,0.3-0.3,0.3c-0.2,0-0.3,0-0.4-0.1c-1.1,1-2,1.6-3.4,2.6
		c0.5,0.4,3.1,2.2,6.1,3c-0.6,0.5-1.3,1.1-1.9,2.2c-2.2-0.8-5.8-2.9-7.9-5.2c-0.2,0.6-0.4,1.7-0.4,2.3c-3.9,1-6.9,1.6-11,2.3
		c-0.1,0.3-0.2,0.5-0.4,0.5c-0.2,0-0.4-0.2-0.5-0.6L103.8,47.5z M110.5,46.5c3.3-0.6,5.9-1.3,6.3-1.4c-1.2-1.3-2.2-2.7-3-4.3h-3.3
		V46.5z M116.6,40.8c0.6,1,1.3,1.9,2.2,2.8c0.8-0.6,2.2-1.7,3.2-2.8H116.6z"/>
</g>
<g>
	<g>
		<g>
			<path class="st0" d="M600.9,213.4c0,5.5-4.5,10-10,10H311.7c-5.5,0-10-4.5-10-10v-49.8c0-5.5,4.5-10,10-10h279.2
				c5.5,0,10,4.5,10,10V213.4z"/>
		</g>
		<path class="st2" d="M590.9,224.4H311.7c-6,0-11-4.9-11-11v-49.9c0-6,4.9-11,11-11h279.2c6,0,11,4.9,11,11v49.9
			C601.9,219.5,596.9,224.4,590.9,224.4z M311.7,154.6c-4.9,0-9,4-9,9v49.9c0,4.9,4,9,9,9h279.2c4.9,0,9-4,9-9v-49.9c0-4.9-4-9-9-9
			H311.7z"/>
	</g>
	<g>
		<path class="st2" d="M412.8,196.9V191h17.5v5.9h3v2.2h-23.6v-2.2H412.8z M420.8,180.6v3.3c1.7-1.9,3.1-5,3.8-7.8l2.5,0.8
			c0.2,0.1,0.5,0.2,0.5,0.4c0,0.4-0.5,0.4-0.9,0.4c-0.2,0.7-0.4,1.1-0.7,1.9h7.4v2.4h-8.5c-0.9,1.8-1.4,2.5-1.7,3
			c-1-0.7-1.5-0.9-2.4-1.1v2.3h-3v1.6h4.2v2h-11.2V177H422v1.9h-4.2v1.6H420.8z M415.6,180.6v-1.6h-2.5v1.6H415.6z M413.1,182.3v2
			h5.4v-2H413.1z M413.1,186.2v1.6h2.5v-1.6H413.1z M418,196.9v-3.8h-2.6v3.8H418z M422.9,196.9v-3.8h-2.6v3.8H422.9z M432.2,188.6
			H424v-2.4h8.2V188.6z M427.9,196.9v-3.8h-2.7v3.8H427.9z"/>
		<path class="st2" d="M451.3,186h-2.5v-4c-1.2,1.1-4.2,4.1-9.2,6.3c-0.5-0.8-0.9-1.2-1.9-2c4.6-1.8,7.7-3.9,9.6-5.6h-9.2v-2.2h10.6
			v-2.6l2.5,0.2c0.3,0,0.6,0.2,0.6,0.3c0,0.3-0.3,0.4-0.6,0.5v1.6h10.8v2.2h-9.3c0.5,0.4,4,3.5,9.7,5.5c-0.3,0.3-0.9,0.8-1.7,2.1
			c-1.7-0.7-6-2.5-9.4-6.2V186z M462,197.1v2.1h-23.9v-2.1h4.8v-10.5h14.3v10.5H462z M454.6,190.3v-1.5h-9v1.5H454.6z M454.6,193.7
			v-1.6h-9v1.6H454.6z M454.6,197.1v-1.6h-9v1.6H454.6z"/>
		<path class="st2" d="M474.3,183.7h-0.2c-0.5,0.9-0.6,1.1-1.9,2.9c0.6,0.2,0.8,0.3,0.8,0.5c0,0.1-0.2,0.3-0.5,0.4v12.4h-2.7v-10.4
			c-1.2,1.4-1.6,1.7-2,2.1c-0.6-0.8-1.3-1.4-2.1-1.9c1.5-1.1,4.3-3.6,6.6-8l2.3,1.2c0.2,0.1,0.3,0.3,0.3,0.4
			C474.8,183.6,474.6,183.7,474.3,183.7z M473.6,177.8c-1.3,1.9-3.2,4.1-5.4,5.7c-0.3-0.3-1-1.1-1.9-1.7c2.4-1.8,4-3.4,5.7-5.9
			l2.1,1.2c0.2,0.1,0.3,0.2,0.3,0.4C474.3,177.7,474,177.8,473.6,177.8z M486.6,186c-2.3,0-3.7-0.3-3.7-2.6v-4.1h-3.3
			c-0.2,3.2-0.3,5.1-2.9,7.9h10.4l1.1,1.1c-1.1,2.6-2.9,5.1-4.6,6.7c0.5,0.3,3.4,2.1,6.7,2.5c-1.1,1.3-1.3,1.9-1.5,2.4
			c-2.6-0.5-4.6-1.5-7.2-3.2c-2.3,1.7-4.5,2.6-6.6,3.2c-0.5-1.2-1.1-1.8-1.5-2.2c2.6-0.5,5.1-1.9,6.1-2.6c-0.7-0.6-1.4-1.3-3.4-4.1
			l2.2-1.4h-3.4v-2.4h1.7c-0.8-0.8-1.6-1.2-2.2-1.5c2.2-2.2,2.5-3.4,2.4-8.9h8.7v5.9c0,0.4,0.1,0.7,1.2,0.7c0.9,0,1.2,0,1.5-2.4
			c0.3,0.3,1,1,2.2,1.1C489.9,185.9,488.7,186,486.6,186z M478.4,189.7c1.1,1.8,2,2.9,3.3,3.9c1.4-1.3,2.1-2.2,3-3.9H478.4z"/>
	</g>
</g>
<g>
	<g>
		<g>
			<path class="st0" d="M600.9,353c0,5.5-4.5,10-10,10H311.7c-5.5,0-10-4.5-10-10v-49.8c0-5.5,4.5-10,10-10h279.2
				c5.5,0,10,4.5,10,10V353z"/>
		</g>
		<path class="st2" d="M590.9,364H311.7c-6,0-11-4.9-11-11v-49.9c0-6,4.9-11,11-11h279.2c6,0,11,4.9,11,11v49.9
			C601.9,359.1,596.9,364,590.9,364z M311.7,294.2c-4.9,0-9,4-9,9v49.9c0,4.9,4,9,9,9h279.2c4.9,0,9-4,9-9v-49.9c0-4.9-4-9-9-9
			H311.7z"/>
	</g>
	<g>
		<path class="st2" d="M404.7,319.9v2.5h-2.8v4.5c1.2-0.4,1.6-0.6,2.7-1.1c0,0.3-0.1,0.6-0.1,1.1c0,0.8,0.1,1,0.1,1.3
			c-1.1,0.5-2.5,1.1-2.8,1.2v7.2c0,2.1-0.4,3.1-4.7,3c-0.1-0.5-0.2-1.7-0.9-2.8c0.7,0.1,1.1,0.2,1.6,0.2c1.2,0,1.2-0.2,1.2-1.5v-5.1
			c-1,0.4-1.7,0.6-2.7,0.9c0,0.2-0.1,0.7-0.5,0.7c-0.2,0-0.3-0.3-0.3-0.5l-0.5-2.6c2-0.5,2.5-0.7,4-1.2v-5.4h-3.7v-2.5h3.7v-4.3
			l2.8,0.2c0.4,0,0.5,0.2,0.5,0.4c0,0.3-0.3,0.5-0.7,0.6v3.2H404.7z M416.8,325.3l1.1,1.1c-1,3.4-3.3,6.4-4.6,7.8
			c1.5,1.2,3.5,2.4,6.5,3.2c-1.2,1.2-1.5,1.7-1.7,2.3c-2.6-0.8-5.2-2.4-6.7-3.7c-1.3,1.1-3.7,2.8-6.6,3.8c-0.6-1.2-1.1-1.8-1.6-2.4
			c1-0.3,3.2-0.9,6.5-3.2c-1.9-2.3-2.5-3.4-3.1-4.6l2.1-1.4c0.4,0.8,1.2,2.5,2.9,4.3c0.6-0.6,2.4-2.6,3.1-4.8h-8.8v-2.4h4.6v-3.1
			h-4.9v-2.5h4.9v-4l2.9,0.2c0.1,0,0.4,0.1,0.4,0.3c0,0.3-0.3,0.4-0.6,0.5v3h6.1v2.5H413v3.1H416.8z"/>
		<path class="st2" d="M431,321.1h3.6v-5.3l2.3,0.1c0.6,0,0.6,0.2,0.6,0.3c0,0.2-0.1,0.3-0.5,0.5v4.5h3.4v1.8h7.5v2.4h-1.9v11.5
			c0,2.9-2.2,2.9-3.8,2.9c-0.3,0-0.9,0-1.2-0.1c-0.1-1.1-0.3-1.7-0.9-2.7c0.4,0.1,1,0.2,1.9,0.2c1.1,0,1.3-0.2,1.3-1v-10.8H440v-1.8
			h-3v16.1h-2.5v-16.1H431v-0.8c-0.2,0.4-0.5,1.2-1.5,2.7c0.5,0.2,0.5,0.2,0.5,0.4c0,0.2-0.2,0.3-0.5,0.4v13.3h-2.6v-10.8
			c-0.8,0.9-1.1,1.2-1.5,1.6c-0.8-0.8-1.1-1.1-2.1-1.6c2.2-1.6,4.5-4.8,6-7.7l1.7,0.9V321.1z M431,317.1c0.1,0.1,0.3,0.2,0.3,0.4
			c0,0.3-0.2,0.3-0.8,0.3c-2.1,2.4-4.2,3.9-5,4.5c-0.6-0.9-1-1.2-2-1.7c0.9-0.5,3.2-1.9,5.5-4.7L431,317.1z M433.6,326
			c0.2,0,0.7,0.1,0.7,0.4c0,0.2-0.1,0.3-0.6,0.4c-0.2,2.9-0.5,5.4-1.5,8.3c-0.8-0.4-1.2-0.5-2.2-0.6c1.1-3.2,1.4-5.2,1.5-8.6
			L433.6,326z M439.1,316.4c0.7,1.6,0.9,2.2,1.2,3.4c-0.6,0.2-1.3,0.4-2,0.8c-0.3-1.6-0.5-2.2-1.1-3.4L439.1,316.4z M440,325.6
			c0.2,0.8,1.2,4.6,1.3,8.2c-0.8,0.1-1.5,0.4-2.2,0.7c-0.2-2.6-0.5-5.4-1.2-8.5L440,325.6z M447.5,319.6h-6.8v-2.4h6.8V319.6z"/>
		<path class="st2" d="M464.5,327.9v1.7h-2.4v1.3h1.8v1.5h-1.8v1.3h1.8v1.4h-1.8v1.4h2.5v1c1.8-1.5,2.8-2.7,3.1-3.2h-2.6v-13.3h3
			c0.1-0.4,0.5-1.4,0.8-2.4h-4.1v-2.2h11.4v2.2h-4.8c-0.3,0.8-0.6,1.7-0.9,2.4h4.8v13.3h-2.6c1.4,1.7,2.6,2.6,4.2,3.8
			c-0.7,0.5-1.1,0.9-1.8,1.7c-1.2-0.9-2.8-2.3-4.4-4.3l1.4-1.2H468l1.7,1.3c0.2,0.1,0.3,0.2,0.3,0.4c0,0.2-0.2,0.3-0.3,0.3
			c-0.1,0-0.3,0-0.4-0.1c-1.5,2-3.2,3.2-3.8,3.7c-0.3-0.4-0.9-1.1-1.8-1.6h-5v1.3h-2v-7.9c-0.1,0.1-0.1,0.2-0.3,0.5
			c-0.2-0.3-0.3-0.3-0.5-0.5c-0.1,2.4-0.8,5.4-1.8,7.6c-0.8-0.6-1.4-1-2.1-1.2c1.7-3.1,1.8-5.9,1.8-9v-9.4h10.5v5.8h-2.5l1.5,0.8
			c0.2,0.1,0.5,0.2,0.5,0.4s-0.3,0.3-0.6,0.3c-0.2,0.3-0.4,0.7-0.7,1.1H464.5z M464.1,316.3v2h-11.6v-2H464.1z M455.8,321.4v2h6v-2
			H455.8z M460.2,327.9c0.9-1.5,1.2-2.2,1.3-2.6h-5.8v4.3c0.9-1.2,1.5-2.4,2.2-4.1l1.7,0.7c0.2,0.1,0.3,0.2,0.3,0.3
			c0,0.3-0.3,0.4-0.6,0.4c-0.1,0.2-0.4,0.8-0.6,1.1H460.2z M458.6,330.9h1.7v-1.3h-1.7V330.9z M458.6,333.6h1.7v-1.3h-1.7V333.6z
			 M458.6,336.4h1.7v-1.4h-1.7V336.4z M473,324.6v-1.8h-5.5v1.8H473z M467.5,326.6v1.8h5.5v-1.8H467.5z M467.5,330.2v1.9h5.5v-1.9
			H467.5z"/>
		<path class="st2" d="M491.4,316.3v9.2h-6.9v14h-2.7v-23.2H491.4z M489,320v-1.7h-4.4v1.7H489z M484.6,321.8v1.8h4.4v-1.8H484.6z
			 M490.3,337.1h-2.6v-9.7h9.8v7.6h-7.2V337.1z M494.9,332.9v-3.3h-4.6v3.3H494.9z M503.4,316.3v20.2c0,2.8-2,3-3.8,3
			c-0.3,0-0.5,0-0.8-0.1c-0.1-1-0.4-1.9-1.1-3c0.6,0.2,1.2,0.2,1.8,0.2c1.1,0,1.2-0.2,1.2-1.1v-10.1h-6.9v-9.2H503.4z M500.7,320
			v-1.8h-4.5v1.8H500.7z M496.3,321.8v1.7h4.5v-1.7H496.3z"/>
	</g>
</g>
<g>
	<g>
		<g>
			<path class="st0" d="M600.9,492.7c0,5.5-4.5,10-10,10H311.7c-5.5,0-10-4.5-10-10v-49.8c0-5.5,4.5-10,10-10h279.2
				c5.5,0,10,4.5,10,10V492.7z"/>
		</g>
		<path class="st3" d="M590.9,503.7H311.7c-6,0-11-4.9-11-11v-49.9c0-6,4.9-11,11-11h279.2c6,0,11,4.9,11,11v49.9
			C601.9,498.7,596.9,503.7,590.9,503.7z M311.7,433.9c-4.9,0-9,4-9,9v49.9c0,4.9,4,9,9,9h279.2c4.9,0,9-4,9-9v-49.9c0-4.9-4-9-9-9
			H311.7z"/>
	</g>
	<g>
		<path class="st3" d="M356.7,477.6v1.6h-2.7v-11.7h9.9v11.1h-2.6v-1H356.7z M361.3,475.3V470h-4.6v5.3H361.3z M371.8,456.1v9.4
			h-13.2v-9.4H371.8z M361.3,458.5v4.7h7.8v-4.7H361.3z M368.8,477.6v1.6h-2.7v-11.7h10.1v11.7h-2.6v-1.6H368.8z M373.7,475.3V470
			h-4.8v5.3H373.7z"/>
		<path class="st3" d="M390.3,464.3h-2.4v-3h-2.1c-0.3,1.6-1,3.1-2.4,4.6c-0.5-0.5-1.1-0.9-2.3-1.2c2-1.8,2.4-4.1,2.4-6.4v-2.2
			l1.5,0.3c1.7,0.1,4.6-0.6,5.9-1.1l1.1,1.8c0.1,0.1,0.1,0.3,0.1,0.3c0,0.1-0.1,0.2-0.2,0.2c-0.2,0-0.3-0.1-0.6-0.3
			c-2.2,0.5-3.4,0.7-5.3,0.9c0,0.8,0,0.8,0,1.2h6.8v1.9h-2.5V464.3z M401.3,465v10h-3c1.2,0.7,3,1.7,6,2.3c-0.5,0.5-1.3,1.6-1.6,2.2
			c-1.6-0.4-4.6-1.5-7.6-3.5l1-0.9h-6.8l1.1,0.9c0.2,0.2,0.3,0.3,0.3,0.4c0,0.3-0.3,0.3-0.4,0.3c-0.2,0-0.2,0-0.5-0.1
			c-1.9,1-4,2.1-6.7,2.9c-0.2-0.4-0.5-1.1-1.5-2.1c0.5-0.1,3.4-0.8,5.9-2.3h-2.7v-10h8.9c-0.4-0.5-1.4-1.1-2.1-1.3
			c1.7-1.4,2.4-2.6,2.4-5.9v-1.6l1.2,0.2c2,0,4.8-0.5,6.6-1.1l1.3,1.8c0,0.1,0.2,0.3,0.2,0.4c0,0.1-0.1,0.2-0.3,0.2
			c-0.2,0-0.5-0.1-0.6-0.2c-2.1,0.4-4.4,0.7-6.1,0.8c0,0.4,0,1,0,1.3h8.3v1.9h-3.9v3h-2.5v-3h-2.4c-0.4,1.3-1.2,2.7-2.2,3.6H401.3z
			 M387.4,467.9h11.3v-1.1h-11.3V467.9z M398.7,469.3h-11.3v1.1h11.3V469.3z M398.7,471.8h-11.3v1.2h11.3V471.8z"/>
		<path class="st3" d="M424.3,459.2c-0.6,1.1-1,1.5-1.3,1.9c0.3,0,0.7,0,0.7,0.3c0,0.3-0.3,0.3-0.5,0.4v0.8h10v5.1h-2.5v-3.2h-17.8
			v3.2h-2.5v-5.1h9.9V461l2.1,0.1c-0.8-0.5-1.6-0.8-2-0.9c0.4-0.4,0.6-0.7,0.8-1h-3.3c0.2,0.5,0.5,1.6,0.7,2.7
			c-0.7,0-2.1,0.2-2.7,0.3c-0.2-1.1-0.4-2.2-0.7-3h-1.5c-1.2,1.7-1.8,2.3-2.2,2.7c-0.5-0.4-1.2-0.8-2.2-1.2c1.6-1.6,3-3.4,3.9-5.5
			l2.4,0.7c0.2,0.1,0.4,0.1,0.4,0.3c0,0.3-0.5,0.4-0.8,0.4c-0.2,0.4-0.2,0.5-0.4,0.7h6.5v1.7c0.9-1.2,1.5-2.3,2.1-3.9l2.6,0.7
			c0.2,0.1,0.4,0.1,0.4,0.4c0,0.3-0.4,0.3-0.8,0.3c-0.2,0.4-0.2,0.5-0.4,0.8h8.2v2h-5.2c0.5,1.5,0.6,1.9,0.7,2.6
			c-1.2,0-1.9,0.1-2.8,0.3c-0.1-0.6-0.2-1.5-0.6-2.9H424.3z M417.1,478.2v0.9h-2.6v-13.4h15v5.4h-12.4v1.4h13.8v6.6h-2.5v-0.9H417.1
			z M427.1,467.6h-10v1.7h10V467.6z M428.3,476.1v-1.8h-11.2v1.8H428.3z"/>
		<path class="st3" d="M444.1,465h2.6v2.3h-2.6v5.6c2.3-0.7,2.5-0.8,3.2-1.1c-0.2,0.8-0.2,1.1-0.2,2.5c-1.5,0.6-5.1,1.8-7.9,2.7
			c-0.2,0.5-0.3,0.6-0.5,0.6c-0.2,0-0.4-0.1-0.5-0.6l-0.6-2.3c1.7-0.3,3.4-0.8,3.7-0.9v-6.4h-2.6V465h2.6v-5.8h-3.2v-2.3h9v2.3h-3.1
			V465z M462.2,476.1v2.3h-15.4v-2.3h6.5v-2.9h-4.7V471h4.7v-2.8h-5v-11.8h12.8v11.8h-5.2v2.8h5.1v2.3h-5.1v2.9H462.2z M453.4,461.2
			v-2.7h-2.6v2.7H453.4z M450.7,463.3v2.8h2.6v-2.8H450.7z M458.7,461.2v-2.7h-2.8v2.7H458.7z M455.9,463.3v2.8h2.8v-2.8H455.9z"/>
		<path class="st3" d="M488.4,456.9v1.8h-8.8v1.2h7.1v1.6h-7.1v1.3h10.4v1.8h-23.5v-1.8h10.3v-1.3h-6.9v-1.6h6.9v-1.2H468v-1.8h8.8
			v-1.7l2.9,0.1c0.3,0,0.6,0,0.6,0.3c0,0.3-0.3,0.4-0.7,0.5v0.7H488.4z M480.7,475h-4.6l0.8,0.6c0.2,0.2,0.3,0.3,0.3,0.4
			c0,0.2-0.2,0.3-0.4,0.3c-0.1,0-0.3,0-0.5-0.1c-2,1.2-5.2,2.6-7.1,3c-0.3-0.6-0.6-1.2-1.8-2.4c1.7-0.3,3.3-0.5,6-1.9h-3.1v-9.4
			h16.1v9.4h-3.9c2.1,1.1,4.9,1.8,6.5,2c-0.9,0.8-1.4,1.8-1.6,2.2c-2.4-0.5-5.1-1.3-7.6-3.1L480.7,475z M483.8,468.3v-1.1h-10.9v1.1
			H483.8z M472.9,469.6v1.1h10.9v-1.1H472.9z M472.9,472.1v1.2h10.9v-1.2H472.9z"/>
		<path class="st3" d="M500.5,479.1h-2.7v-13.5c-1.1,1.7-1.6,2.3-1.9,2.7c-0.7-0.8-1.7-1.5-2.2-1.7c1.9-2.1,4.8-6.6,6.1-11.5
			l2.5,0.7c0.4,0.1,0.6,0.2,0.6,0.5c0,0.3-0.4,0.4-0.7,0.3c-0.9,2.4-1.3,3.4-1.9,4.6c0.4,0.1,0.8,0.3,0.8,0.5c0,0.2-0.3,0.4-0.6,0.5
			V479.1z M517.6,457.2c0.2,0.2,0.3,0.3,0.3,0.5c0,0.2-0.1,0.3-0.3,0.3c-0.2,0-0.4-0.1-0.6-0.2c-0.9,0.4-2.8,1.1-5.2,1.6v6.3h6.8
			v2.4h-6.8v7.6h6.2v2.5h-15.2v-2.5h6.2v-7.6h-7.1v-2.4h7.1v-5.8c-2,0.2-3.3,0.4-5.7,0.4c-0.2-0.9-0.5-1.6-1.2-2.5
			c0.4,0,0.8,0.1,1.4,0.1c0.9,0,6.7,0,12.2-2.6L517.6,457.2z"/>
		<path class="st3" d="M544.3,456.8c0.2,0.1,0.4,0.2,0.4,0.4c0,0.2-0.1,0.3-0.4,0.3c-0.1,0-0.3,0-0.5-0.1c-0.6,1-2,3.1-4,5.3h6.8
			v2.3h-9.1c-1,1-2.3,1.9-3,2.4h9.2v11.6h-2.6v-1.2h-10v1.2h-2.6v-8.2c-2.5,1.1-3.8,1.5-4.6,1.7c-0.2-0.4-0.6-1.5-1.5-2.5
			c4.5-1,8.6-3.1,11.2-5H523v-2.3h9.6v-2.5h-7.3V458h7.3v-2.6l2.8,0.1c0.3,0,0.5,0.2,0.5,0.3c0,0.2-0.2,0.3-0.6,0.4v1.8h3.9v1.7
			c1.7-2.1,2.4-3.5,2.7-4.1L544.3,456.8z M541.1,471.6v-2h-10v2H541.1z M541.1,475.8v-2.1h-10v2.1H541.1z M536.3,462.7
			c1.3-1.3,1.9-2,2.4-2.5h-3.4v2.5H536.3z"/>
	</g>
</g>
<g>
	<line class="st0" x1="102.3" y1="73.9" x2="102.3" y2="2143"/>
	<rect x="101.3" y="73.9" class="st4" width="2" height="2069.2"/>
</g>
<g>
	<line class="st0" x1="301.7" y1="467.8" x2="102.3" y2="467.8"/>
	<g>
		<rect x="298.2" y="466.8" class="st4" width="3.5" height="2"/>
		<path class="st4" d="M291.1,468.8h-7.1v-2h7.1V468.8z M276.8,468.8h-7.1v-2h7.1V468.8z M262.5,468.8h-7.1v-2h7.1V468.8z
			 M248.3,468.8h-7.1v-2h7.1V468.8z M234,468.8h-7.1v-2h7.1V468.8z M219.8,468.8h-7.1v-2h7.1V468.8z M205.5,468.8h-7.1v-2h7.1V468.8
			z M191.3,468.8h-7.1v-2h7.1V468.8z M177,468.8h-7.1v-2h7.1V468.8z M162.8,468.8h-7.1v-2h7.1V468.8z M148.5,468.8h-7.1v-2h7.1
			V468.8z M134.3,468.8h-7.1v-2h7.1V468.8z M120,468.8h-7.1v-2h7.1V468.8z"/>
		<rect x="102.3" y="466.8" class="st4" width="3.5" height="2"/>
	</g>
</g>
<g>
	<g>
		<g>
			<path class="st0" d="M600.9,911.5c0,5.5-4.5,10-10,10H311.7c-5.5,0-10-4.5-10-10v-49.8c0-5.5,4.5-10,10-10h279.2
				c5.5,0,10,4.5,10,10V911.5z"/>
		</g>
		<path class="st5" d="M590.9,922.5H311.7c-6,0-11-4.9-11-11v-49.9c0-6,4.9-11,11-11h279.2c6,0,11,4.9,11,11v49.9
			C601.9,917.6,596.9,922.5,590.9,922.5z M311.7,852.7c-4.9,0-9,4-9,9v49.9c0,4.9,4,9,9,9h279.2c4.9,0,9-4,9-9v-49.9c0-4.9-4-9-9-9
			H311.7z"/>
	</g>
	<g>
		<path class="st5" d="M412.6,889.3c0.2,0,0.4,0.2,0.4,0.4c0,0.2-0.2,0.3-0.5,0.4c-0.3,1.9-0.6,3.8-1.4,5.9
			c-0.7-0.3-1.3-0.5-2.1-0.6c0.7-1.5,1.3-4.5,1.5-6.4L412.6,889.3z M418.2,877.7c0.2,0.1,0.5,0.2,0.5,0.4c0,0.2-0.3,0.3-0.7,0.3
			c-0.5,0.9-2.1,3.7-4.2,6.8c2.2-0.1,2.4-0.1,2.7-0.2c-0.1-0.3-0.5-1.7-0.6-2l1.8-0.8c0.5,1.1,1.3,3.5,1.6,4.9
			c-0.6,0.2-1.3,0.4-2.1,0.8c-0.1-0.3-0.1-0.4-0.2-1c-0.2,0-1.1,0.2-1.3,0.2V898h-2.5v-10.5c-1.3,0.2-2,0.2-2.7,0.3
			c-0.2,0.5-0.2,0.7-0.5,0.7c-0.3,0-0.4-0.3-0.4-0.6l-0.3-2.4c0.5,0,0.9,0,1.9,0c0.4-0.5,0.7-1,1.6-2.5c-1.1-1.2-2.4-2.2-3.7-3.2
			l1.5-2.1c0.3,0.2,0.5,0.4,1,0.8c0.1-0.2,1.4-2.6,2.1-4.4l2.2,0.8c0.2,0.1,0.3,0.2,0.3,0.4c0,0.2-0.3,0.3-0.7,0.3
			c-0.9,1.8-1,2.1-2.3,4.3c0.6,0.5,0.8,0.7,1,0.9c1.5-2.6,1.7-2.9,2-3.8L418.2,877.7z M418.4,888.2c0.2,1.7,0.6,3.6,0.8,4.4
			c0.6-1.6,0.8-2.5,0.8-3l1.6,0.5c0.6,0.2,0.8,0.2,0.8,0.5c0,0.3-0.4,0.3-0.6,0.4c-0.4,1.9-1,3.8-1.8,5.5c-0.8-0.5-1-0.6-2-1
			c0.2-0.4,0.5-0.9,1.1-2.3c-0.6,0.2-1,0.4-1.6,0.6c-0.7-2.7-0.9-4.4-1-5.2L418.4,888.2z M424.7,875.3c0.3,0.1,0.5,0.3,0.5,0.5
			c0,0.2-0.2,0.2-0.8,0.3c-1.3,2.4-2.4,4.1-3.9,5.9c-0.8-0.6-1.1-0.8-2-1.3c1-1.2,3-3.8,3.9-6.3L424.7,875.3z M428.9,880.9
			c1.6,1.8,3,4.1,3.9,5.8c-0.9,0.4-1.3,0.7-2.2,1.3c-0.2-0.4-0.4-1-1.1-2.1c-1.3,0.2-7.3,0.8-8.5,0.9c-0.1,0.1-0.2,0.5-0.6,0.5
			c-0.2,0-0.3-0.1-0.4-0.4l-0.6-2.5c0.4,0,2.2-0.1,2.5-0.1c0.1-0.1,1.8-3.5,2.5-6.5l2.5,0.9c0.3,0.1,0.4,0.2,0.4,0.3
			c0,0.3-0.1,0.3-0.8,0.5c-0.4,0.7-1.9,4-2.3,4.6c2.1-0.2,2.4-0.2,3.8-0.3c-0.7-1.1-1-1.5-1.4-1.9L428.9,880.9z M424.8,889.3
			c0.4,0.1,0.9,0.1,0.9,0.5c0,0.2-0.1,0.3-0.7,0.4v4.4c0,0.8,0.3,0.8,1.2,0.8c1.4,0,1.5-0.3,1.8-2.4c0.8,0.7,1.2,0.9,2.3,1
			c-0.8,3.5-1.8,3.6-3.6,3.6c-2.8,0-4.3,0-4.3-2.4V889L424.8,889.3z M426.2,886.7c0.9,0.9,2.2,2.4,2.6,3c-1,0.8-1.2,1-1.7,1.6
			c-0.7-1.1-1.7-2.2-2.5-3.1L426.2,886.7z M429.1,874.3c0.9,1.7,2.3,3.8,4.3,5.5c-0.8,0.3-1.6,0.9-2.1,1.4c-1.6-1.5-3.1-3.7-4.2-5.8
			L429.1,874.3z M431.1,889.4c0.3,0.5,1.7,3,2.3,5.3c-0.6,0.2-1.8,0.9-2.1,1.1c-0.9-2.8-1.6-4.3-2.3-5.4L431.1,889.4z"/>
		<path class="st5" d="M460.8,887.2c-2.7-0.7-4.5-1.9-5.7-2.7c-0.6,0.5-1.2,1-1.9,1.4l2.6,0.4c0.3,0,0.5,0.1,0.5,0.4
			c0,0.3-0.3,0.4-0.6,0.5c-0.1,0.5-0.1,0.7-0.2,1.2h5.6c0,1.6-0.4,6.5-1.3,8.2c-0.8,1.4-2.4,1.5-4.4,1.5c-0.1-0.8-0.4-1.8-0.9-2.6
			c0.3,0.1,0.9,0.2,1.7,0.2c1,0,1.5-0.2,1.8-1.3c0.1-0.4,0.4-1.8,0.4-3.7h-3.3c-1.3,4.4-4.4,6.6-6,7.5c-0.5-0.8-1.1-1.5-2-1.9
			c2.7-1.3,4.5-3.2,5.3-5.6h-3.8v-2.3h4.3c0.1-0.4,0.2-1.1,0.2-2.1v-0.3c-0.8,0.5-1.6,0.8-2.7,1.3c-0.4-0.8-1-1.6-1.5-2
			c-0.6,1.5-1.4,3-1.6,3.4c-0.2-0.2-1.3-1-2.1-1c1-1.3,1.5-2.6,1.6-3.1h-1.8v10.3c0,2-0.2,3.3-4.4,3.2c-0.2-1.1-0.6-2.2-0.9-2.7
			c0.8,0.2,1.5,0.2,1.8,0.2c1,0,1-0.5,1-1v-6.3c-0.9,2.2-2.3,3.9-3.1,5c-0.7-0.6-1.3-1.1-2-1.4c1.1-1.1,3.1-3.6,4.4-7.3H438v-2.2
			h5.3c-2.1-1.8-3.6-2.5-4.2-2.8l1.3-1.8c0.8,0.3,1.6,0.7,2.7,1.4c0.6-0.5,0.8-0.8,1.7-1.9h-6.3v-2h9.2l0.8,1
			c-1.2,1.6-2.3,2.8-3.7,4.1c0.6,0.5,1,0.8,1.3,1c-0.2,0.3-0.6,0.7-0.9,1.1h3.3l1.1,0.9c-0.1,0.5-0.5,1.4-0.7,1.9
			c1.7-0.3,3.3-1.2,4.7-2.3c-0.6-0.7-1.5-1.8-2.1-3.2c-0.5,0.7-0.9,1.2-1.7,2c-0.5-0.5-1-0.8-2-1.2c2-1.7,3.8-4.7,4.4-6.5l2.3,0.6
			c0.2,0,0.5,0.1,0.5,0.3c0,0.3-0.5,0.4-0.8,0.4c-0.1,0.1-0.5,0.8-0.7,1.2h8.1v2.1h-2c-0.9,1.8-1.7,3-2.7,4.1c2,1.4,4.1,2,5.4,2.3
			C461.6,885.7,461.2,886.2,460.8,887.2z M453.2,878.6c0.4,0.8,0.9,1.7,1.9,2.7c0.6-0.6,1.3-1.6,1.9-2.7H453.2z"/>
		<path class="st5" d="M473.9,883.9c0.3-0.5,1.2-2.5,1.7-4.8l2.5,1.1c0.2,0.1,0.3,0.2,0.3,0.4c0,0.3-0.4,0.3-0.6,0.3
			c-0.4,1.2-0.7,1.8-1.4,3.1h3.3v2.2h-13.2v-2.2h3.3c-0.5-1.8-1.4-3.3-1.6-3.8l2.2-1c0.9,1.6,1.3,2.5,1.8,4l-2,0.8H473.9z
			 M479.2,876.9v2.1h-11.9v-2.1h4.5v-2.8l2.9,0.1c0.2,0,0.5,0.1,0.5,0.4c0,0.3-0.2,0.3-0.6,0.5v1.8H479.2z M478.3,897.9h-2.7v-1.4
			h-4.8v1.4h-2.7v-10.4h10.2V897.9z M470.8,889.9v4.4h4.8v-4.4H470.8z M490.4,876.6c-0.8,2-1.7,3.8-3.3,7.1c1.2,1.2,3.4,3.4,3.4,6.8
			c0,3.7-2.1,4.9-5.5,5c-0.3-1.5-0.9-2.2-1.6-2.9c1,0.1,1.4,0.1,1.9,0.1c1.9,0,2.6-0.8,2.6-2.2c0-2.8-2.6-5.4-3.7-6.4
			c1.2-2,2.5-5,2.9-6.4h-3.7v20.2h-2.6v-22.6h8.4L490.4,876.6z"/>
	</g>
</g>
<g>
	<g>
		<g>
			<path class="st0" d="M600.9,772.5c0,5.5-4.5,10-10,10H311.7c-5.5,0-10-4.5-10-10v-49.8c0-5.5,4.5-10,10-10h279.2
				c5.5,0,10,4.5,10,10V772.5z"/>
		</g>
		<path class="st5" d="M590.9,783.5H311.7c-6,0-11-4.9-11-11v-49.9c0-6,4.9-11,11-11h279.2c6,0,11,4.9,11,11v49.9
			C601.9,778.6,596.9,783.5,590.9,783.5z M311.7,713.7c-4.9,0-9,4-9,9v49.9c0,4.9,4,9,9,9h279.2c4.9,0,9-4,9-9v-49.9c0-4.9-4-9-9-9
			H311.7z"/>
	</g>
	<g>
		<path class="st5" d="M384.9,757.4v1.6h-2.7v-11.7h9.9v11.1h-2.6v-1H384.9z M389.5,755.1v-5.3h-4.6v5.3H389.5z M400,735.9v9.4
			h-13.2v-9.4H400z M389.5,738.3v4.7h7.8v-4.7H389.5z M397,757.4v1.6h-2.7v-11.7h10.1V759h-2.6v-1.6H397z M401.8,755.1v-5.3H397v5.3
			H401.8z"/>
		<path class="st5" d="M418.5,744.2h-2.4v-3H414c-0.3,1.6-1,3.1-2.4,4.6c-0.5-0.5-1.1-0.9-2.3-1.2c2-1.8,2.4-4.1,2.4-6.4v-2.2
			l1.5,0.3c1.7,0.1,4.6-0.6,5.9-1.1l1.1,1.8c0.1,0.1,0.1,0.3,0.1,0.3c0,0.1-0.1,0.2-0.2,0.2c-0.2,0-0.3-0.1-0.6-0.3
			c-2.2,0.5-3.4,0.7-5.3,0.9c0,0.8,0,0.8,0,1.2h6.8v1.9h-2.5V744.2z M429.5,744.8v10h-3c1.2,0.7,3,1.7,6,2.3
			c-0.5,0.5-1.3,1.6-1.6,2.2c-1.6-0.4-4.6-1.5-7.6-3.5l1-0.9h-6.8l1.1,0.9c0.2,0.2,0.3,0.3,0.3,0.4c0,0.3-0.3,0.3-0.4,0.3
			c-0.2,0-0.2,0-0.5-0.1c-1.9,1-4,2.1-6.7,2.9c-0.2-0.4-0.5-1.1-1.5-2.1c0.5-0.1,3.4-0.8,5.9-2.3h-2.7v-10h8.9
			c-0.4-0.5-1.4-1.1-2.1-1.3c1.7-1.4,2.4-2.6,2.4-5.9v-1.6l1.2,0.2c2,0,4.8-0.5,6.6-1.1l1.3,1.8c0,0.1,0.2,0.3,0.2,0.4
			c0,0.1-0.1,0.2-0.3,0.2c-0.2,0-0.5-0.1-0.6-0.2c-2.1,0.4-4.4,0.7-6.1,0.8c0,0.4,0,1,0,1.3h8.3v1.9H429v3h-2.5v-3h-2.4
			c-0.4,1.3-1.2,2.7-2.2,3.6H429.5z M415.6,747.7h11.3v-1.1h-11.3V747.7z M426.9,749.1h-11.3v1.1h11.3V749.1z M426.9,751.7h-11.3
			v1.2h11.3V751.7z"/>
		<path class="st5" d="M452.4,739c-0.6,1.1-1,1.5-1.3,1.9c0.3,0,0.7,0,0.7,0.3c0,0.3-0.3,0.3-0.5,0.4v0.8h10v5.1h-2.5v-3.2H441v3.2
			h-2.5v-5.1h9.9v-1.7l2.1,0.1c-0.8-0.5-1.6-0.8-2-0.9c0.4-0.4,0.6-0.7,0.8-1H446c0.2,0.5,0.5,1.6,0.7,2.7c-0.7,0-2.1,0.2-2.7,0.3
			c-0.2-1.1-0.4-2.2-0.7-3h-1.5c-1.2,1.7-1.8,2.3-2.2,2.7c-0.5-0.4-1.2-0.8-2.2-1.2c1.6-1.6,3-3.4,3.9-5.5l2.4,0.7
			c0.2,0.1,0.4,0.1,0.4,0.3c0,0.3-0.5,0.4-0.8,0.4c-0.2,0.4-0.2,0.5-0.4,0.7h6.5v1.7c0.9-1.2,1.5-2.3,2.1-3.9l2.6,0.7
			c0.2,0.1,0.4,0.1,0.4,0.4c0,0.3-0.4,0.3-0.8,0.3c-0.2,0.4-0.2,0.5-0.4,0.8h8.2v2h-5.2c0.5,1.5,0.6,1.9,0.7,2.6
			c-1.2,0-1.9,0.1-2.8,0.3c-0.1-0.6-0.2-1.5-0.6-2.9H452.4z M445.3,758v0.9h-2.6v-13.4h15v5.4h-12.4v1.4h13.8v6.6h-2.5V758H445.3z
			 M455.2,747.4h-10v1.7h10V747.4z M456.5,756v-1.8h-11.2v1.8H456.5z"/>
		<path class="st5" d="M472.3,744.8h2.6v2.3h-2.6v5.6c2.3-0.7,2.5-0.8,3.2-1.1c-0.2,0.8-0.2,1.1-0.2,2.5c-1.5,0.6-5.1,1.8-7.9,2.7
			c-0.2,0.5-0.3,0.6-0.5,0.6c-0.2,0-0.4-0.1-0.5-0.6l-0.6-2.3c1.7-0.3,3.4-0.8,3.7-0.9v-6.4H467v-2.3h2.6v-5.8h-3.2v-2.3h9v2.3h-3.1
			V744.8z M490.4,755.9v2.3H475v-2.3h6.5v-2.9h-4.7v-2.3h4.7V748h-5v-11.8h12.8V748h-5.2v2.8h5.1v2.3h-5.1v2.9H490.4z M481.6,741
			v-2.7h-2.6v2.7H481.6z M478.9,743.1v2.8h2.6v-2.8H478.9z M486.9,741v-2.7h-2.8v2.7H486.9z M484.1,743.1v2.8h2.8v-2.8H484.1z"/>
		<path class="st5" d="M501.9,744.9c0.3-0.5,1.2-2.5,1.7-4.8l2.5,1.1c0.2,0.1,0.3,0.2,0.3,0.4c0,0.3-0.4,0.3-0.6,0.3
			c-0.4,1.2-0.7,1.8-1.4,3.1h3.3v2.2h-13.2v-2.2h3.3c-0.5-1.8-1.4-3.3-1.6-3.8l2.2-1c0.9,1.6,1.3,2.5,1.8,4l-2,0.8H501.9z
			 M507.2,737.9v2.1h-11.9v-2.1h4.5v-2.8l2.9,0.1c0.2,0,0.5,0.1,0.5,0.4c0,0.3-0.2,0.3-0.6,0.5v1.8H507.2z M506.2,758.9h-2.7v-1.4
			h-4.8v1.4h-2.7v-10.4h10.2V758.9z M498.7,750.9v4.4h4.8v-4.4H498.7z M518.4,737.6c-0.8,2-1.7,3.8-3.3,7.1c1.2,1.2,3.4,3.4,3.4,6.8
			c0,3.7-2.1,4.9-5.5,5c-0.3-1.5-0.9-2.2-1.6-2.9c1,0.1,1.4,0.1,1.9,0.1c1.9,0,2.6-0.8,2.6-2.2c0-2.8-2.6-5.4-3.7-6.4
			c1.2-2,2.5-5,2.9-6.4h-3.7v20.2h-2.6v-22.6h8.4L518.4,737.6z"/>
	</g>
</g>
<g>
	<g>
		<g>
			<path class="st0" d="M600.9,1051.1c0,5.5-4.5,10-10,10H311.7c-5.5,0-10-4.5-10-10v-49.8c0-5.5,4.5-10,10-10h279.2
				c5.5,0,10,4.5,10,10V1051.1z"/>
		</g>
		<path class="st4" d="M590.9,1062.1H311.7c-6,0-11-4.9-11-11v-49.9c0-6,4.9-11,11-11h279.2c6,0,11,4.9,11,11v49.9
			C601.9,1057.2,596.9,1062.1,590.9,1062.1z M311.7,992.3c-4.9,0-9,4-9,9v49.9c0,4.9,4,9,9,9h279.2c4.9,0,9-4,9-9v-49.9
			c0-4.9-4-9-9-9H311.7z"/>
	</g>
	<g>
		<path d="M395,1030.9h4.3v2.5H395v4.2h-2.6v-4.2h-4.1v-2.5h4.1v-6.9c-2.8,5.7-6.3,9-8.6,11c-0.3-0.4-0.8-1-2.5-1.9
			c6.3-4.5,9.4-10.4,10.1-11.7h-9.5v-2.3h10.5v-5.2l2.5,0.2c0.3,0,0.7,0.1,0.7,0.4c0,0.2-0.2,0.4-0.6,0.5v4.1h10.6v2.3h-9.6
			c2,3.9,5.3,8,10.1,11.4c-1,0.8-1.5,1.1-2.1,2.1c-3.8-2.9-6.9-6.7-9-11V1030.9z"/>
		<path d="M416.9,1037.5h-2.7v-8.1c-1.3,1.2-2.3,1.9-3,2.5c-0.5-1.1-1.1-1.7-1.8-2.2c3-1.8,6.5-5.3,7.8-8.1h-6.8v-2.5h3.9v-5.2
			l2.6,0.1c0.3,0,0.6,0.2,0.6,0.4c0,0.2-0.3,0.3-0.5,0.4v4.3h2.8l1.2,1.1c-1.5,3.1-2,3.8-2.9,5c1.5,1.6,3.2,2.7,4.2,3.4
			c-0.6,0.5-1.3,1.4-1.7,2.1c-0.6-0.4-2-1.4-3.6-3.1V1037.5z M420.8,1024.4v-2.6h4.8v-7.9l3,0.2c0.2,0,0.4,0.1,0.4,0.3
			c0,0.2-0.2,0.3-0.6,0.4v7h5v2.6h-5v9.6h5.5v2.5h-14.3v-2.5h6v-9.6H420.8z"/>
		<path d="M448.8,1018c-0.4-0.8-1.4-2.3-2.3-3.3l2.2-1.2c0.6,0.8,1.8,2.3,2.5,3.5c-1.3,0.6-1.5,0.8-1.8,1h3.3c1.7-1.9,2.5-3.3,3-4.1
			l2.2,1.2c0.1,0.1,0.3,0.2,0.3,0.4c0,0.3-0.1,0.3-0.8,0.3c-0.7,1.1-1.1,1.5-1.7,2.2h5.6v5.8h-2.8v-3.6h-17.1v3.6h-2.7v-5.8h4.4
			c-0.3-0.6-1.3-2.1-2.1-2.8l2.2-1.1c0.6,0.7,1.8,2.3,2.4,3.2c-0.7,0.4-0.8,0.4-1.3,0.8H448.8z M458.9,1029.8v7.7h-2.7v-0.9h-12.5
			v0.9H441v-7.7h6.5c0.1-0.1,0.8-1.5,0.9-1.8h-5.1v-6.5h13.2v6.5h-5.2c-0.4,0.8-0.6,1.2-0.9,1.8H458.9z M456.3,1034.5v-2.6h-12.5
			v2.6H456.3z M446,1023.6v2.4h7.9v-2.4H446z"/>
		<path d="M479.4,1037.6h-2.5v-5.6c-2.6,2.4-6.2,4.6-8.2,5.4c-0.9-1.2-1.5-1.6-2-1.9c3.7-1.3,7.1-3.5,8.9-5h-9.3v-2.1h10.5v-1.3
			h-7.5v-2h7.5v-1.2h-9.2v-2.1h6c-0.1-0.2-0.5-1.1-1-1.9l1.4-0.4h-7.7v-2.1h4.3c-0.6-1-1.2-1.8-1.5-2.2l2.1-1.3
			c0.5,0.8,1.3,1.8,1.9,2.9c-0.2,0.1-0.7,0.2-1.3,0.5h2.5v-3.6l2.5,0.1c0.2,0,0.5,0.1,0.5,0.3c0,0.3-0.2,0.3-0.5,0.4v2.6h2.3v-3.5
			l2.5,0.1c0.2,0,0.5,0.1,0.5,0.3c0,0.3-0.4,0.4-0.5,0.5v2.6h2.6c-0.5-0.3-0.9-0.4-1.5-0.5c1-1.5,1.3-1.9,1.7-2.9l2.6,1
			c0.1,0.1,0.2,0.2,0.2,0.3c0,0.3-0.3,0.4-0.8,0.3c-0.4,0.6-0.8,1.2-1.3,1.9h4.6v2.1h-5.7c0.1,0.1,0.2,0.2,0.2,0.3
			c0,0.2-0.1,0.4-0.8,0.4c-0.3,0.6-0.6,1.2-0.8,1.7h5.5v2.1h-8.9v1.2h7.3v2h-7.3v1.3h10.5v2.1h-9.1c1.7,1.6,4.5,3.4,8.9,4.8
			c-1.1,0.9-1.5,1.3-1.8,2c-2-0.7-5.9-2.7-8.5-5.4V1037.6z M475.1,1019.5c0.4,0.7,0.8,1.3,1,2c-0.2,0-0.8,0.2-1.6,0.4h5.5
			c0.4-0.7,0.8-1.5,1.1-2.4H475.1z"/>
		<path d="M501.5,1023.6c0.3-0.5,1.2-2.5,1.7-4.8l2.5,1.1c0.2,0.1,0.3,0.2,0.3,0.4c0,0.3-0.4,0.3-0.6,0.3c-0.4,1.2-0.7,1.8-1.4,3.1
			h3.3v2.2h-13.2v-2.2h3.3c-0.5-1.8-1.4-3.3-1.6-3.8l2.2-1c0.9,1.6,1.3,2.5,1.8,4l-2,0.8H501.5z M506.8,1016.5v2.1h-11.9v-2.1h4.5
			v-2.8l2.9,0.1c0.2,0,0.5,0.1,0.5,0.4c0,0.3-0.2,0.3-0.6,0.5v1.8H506.8z M505.9,1037.5h-2.7v-1.4h-4.8v1.4h-2.7v-10.4h10.2V1037.5z
			 M498.4,1029.5v4.4h4.8v-4.4H498.4z M518,1016.2c-0.8,2-1.7,3.8-3.3,7.1c1.2,1.2,3.4,3.4,3.4,6.8c0,3.7-2.1,4.9-5.5,5
			c-0.3-1.5-0.9-2.2-1.6-2.9c1,0.1,1.4,0.1,1.9,0.1c1.9,0,2.6-0.8,2.6-2.2c0-2.8-2.6-5.4-3.7-6.4c1.2-2,2.5-5,2.9-6.4h-3.7v20.2
			h-2.6V1015h8.4L518,1016.2z"/>
	</g>
</g>
<g>
	<g>
		<g>
			<path class="st0" d="M1099.5,1051.1c0,5.5-4.5,10-10,10H810.3c-5.5,0-10-4.5-10-10v-49.8c0-5.5,4.5-10,10-10h279.2
				c5.5,0,10,4.5,10,10V1051.1z"/>
		</g>
		<path class="st4" d="M1089.5,1062.1H810.3c-6,0-11-4.9-11-11v-49.9c0-6,4.9-11,11-11h279.2c6,0,11,4.9,11,11v49.9
			C1100.5,1057.2,1095.5,1062.1,1089.5,1062.1z M810.3,992.3c-4.9,0-9,4-9,9v49.9c0,4.9,4,9,9,9h279.2c4.9,0,9-4,9-9v-49.9
			c0-4.9-4-9-9-9H810.3z"/>
	</g>
	<g>
		<path d="M881,1018c-0.4-0.8-1.4-2.3-2.3-3.3l2.2-1.2c0.6,0.8,1.8,2.3,2.5,3.5c-1.3,0.6-1.5,0.8-1.8,1h3.3c1.7-1.9,2.5-3.3,3-4.1
			l2.2,1.2c0.1,0.1,0.3,0.2,0.3,0.4c0,0.3-0.1,0.3-0.8,0.3c-0.7,1.1-1.1,1.5-1.7,2.2h5.6v5.8h-2.8v-3.6h-17.1v3.6h-2.7v-5.8h4.4
			c-0.3-0.6-1.3-2.1-2.1-2.8l2.2-1.1c0.6,0.7,1.8,2.3,2.4,3.2c-0.7,0.4-0.8,0.4-1.3,0.8H881z M891.1,1029.8v7.7h-2.7v-0.9h-12.5v0.9
			h-2.7v-7.7h6.5c0.1-0.1,0.8-1.5,0.9-1.8h-5.1v-6.5h13.2v6.5h-5.2c-0.4,0.8-0.6,1.2-0.9,1.8H891.1z M888.5,1034.5v-2.6h-12.5v2.6
			H888.5z M878.2,1023.6v2.4h7.9v-2.4H878.2z"/>
		<path d="M911.6,1037.6h-2.5v-5.6c-2.6,2.4-6.2,4.6-8.2,5.4c-0.9-1.2-1.5-1.6-2-1.9c3.7-1.3,7.1-3.5,8.9-5h-9.3v-2.1h10.5v-1.3
			h-7.5v-2h7.5v-1.2h-9.2v-2.1h6c-0.1-0.2-0.5-1.1-1-1.9l1.4-0.4h-7.7v-2.1h4.3c-0.6-1-1.2-1.8-1.5-2.2l2.1-1.3
			c0.5,0.8,1.3,1.8,1.9,2.9c-0.2,0.1-0.7,0.2-1.3,0.5h2.5v-3.6l2.5,0.1c0.2,0,0.5,0.1,0.5,0.3c0,0.3-0.2,0.3-0.5,0.4v2.6h2.3v-3.5
			l2.5,0.1c0.2,0,0.5,0.1,0.5,0.3c0,0.3-0.4,0.4-0.5,0.5v2.6h2.6c-0.5-0.3-0.9-0.4-1.5-0.5c1-1.5,1.3-1.9,1.7-2.9l2.6,1
			c0.1,0.1,0.2,0.2,0.2,0.3c0,0.3-0.3,0.4-0.8,0.3c-0.4,0.6-0.8,1.2-1.3,1.9h4.6v2.1h-5.7c0.1,0.1,0.2,0.2,0.2,0.3
			c0,0.2-0.1,0.4-0.8,0.4c-0.3,0.6-0.6,1.2-0.8,1.7h5.5v2.1h-8.9v1.2h7.3v2h-7.3v1.3h10.5v2.1H913c1.7,1.6,4.5,3.4,8.9,4.8
			c-1.1,0.9-1.5,1.3-1.8,2c-2-0.7-5.9-2.7-8.5-5.4V1037.6z M907.3,1019.5c0.4,0.7,0.8,1.3,1,2c-0.2,0-0.8,0.2-1.6,0.4h5.5
			c0.4-0.7,0.8-1.5,1.1-2.4H907.3z"/>
		<path d="M943.9,1018.2c0.8,0,1.3-0.2,1.8-0.4l1.5,1.4c-0.4,0.6-0.5,0.9-0.8,1.6c-2.2,5-3.6,8.3-7.1,11.8c-3.2,3.3-6.4,4.6-7.7,5.2
			c-0.6-0.8-1-1.1-2.1-2c8-3.2,11.5-8.4,13.8-15.1h-8.1c-1.8,2.6-3.6,4.8-6.4,7.2c-1.1-1.1-1.1-1.2-2.1-1.9c3.8-3,7.1-7.2,8.9-11.9
			l2.5,1.1c0.1,0.1,0.4,0.2,0.4,0.4c0,0.3-0.4,0.3-0.6,0.3c-0.3,0.5-0.4,0.9-1.1,2.2H943.9z M942.7,1013.3c0.6,0.6,1.7,1.7,2.4,2.5
			c-0.3,0.2-1,0.6-1.6,1.1c-1.1-1.4-1.8-2.1-2.3-2.5L942.7,1013.3z M946.7,1013c0.8,0.8,1.9,2,2.4,2.7c-0.4,0.3-0.5,0.3-1.6,1.1
			c-0.2-0.3-1.2-1.7-2.3-2.6L946.7,1013z"/>
		<path d="M959.2,1015.9c0.3,0,0.6,0,0.6,0.3c0,0.3-0.3,0.4-0.5,0.5v6.4c0,5.2-1.5,8.7-6.5,12.2c-0.5-0.7-0.9-1-2.2-1.9
			c5.2-3,5.9-6.2,5.9-10v-7.6L959.2,1015.9z M965.4,1015.7c0.3,0,0.5,0,0.5,0.3c0,0.2-0.3,0.3-0.5,0.5v14.8c3.2-1.9,6.3-4.9,8.3-7.8
			c0.7,1.5,0.8,1.7,1.4,2.4c-3,4.2-7.3,7.2-9.2,8.5c-0.9,0.6-1,0.7-1.5,1.1l-1.9-1.3c0.1-0.5,0.1-1.3,0.1-2v-16.7L965.4,1015.7z"/>
		<path d="M1002.2,1024.3v2.8H980v-2.8H1002.2z"/>
		<path d="M1021,1017.3c1.1,0,1.5-0.1,1.8-0.2l2,1.7c-0.4,0.7-0.5,0.9-0.7,1.5c-3.1,8.3-6.4,12.7-14.8,16.8c-0.6-1.1-1.7-1.9-2-2.1
			c3.8-1.6,10.5-4.5,14-15.1h-17v-2.5H1021z M1027.8,1015.2c0,1.3-1,2.4-2.4,2.4c-1.3,0-2.4-1-2.4-2.4c0-1.3,1.1-2.3,2.4-2.3
			C1026.8,1012.9,1027.8,1013.9,1027.8,1015.2z M1024.2,1015.2c0,0.7,0.6,1.3,1.3,1.3s1.3-0.6,1.3-1.3c0-0.7-0.6-1.3-1.3-1.3
			S1024.2,1014.5,1024.2,1015.2z"/>
	</g>
</g>
<g>
	<line class="st0" x1="301.7" y1="1026.2" x2="102.3" y2="1026.2"/>
	<rect x="102.3" y="1025.2" class="st4" width="199.4" height="2"/>
</g>
<g>
	<line class="st0" x1="800.3" y1="1026.2" x2="600.9" y2="1026.2"/>
	<rect x="600.9" y="1025.2" class="st4" width="199.4" height="2"/>
</g>
<g>
	<g>
		<g>
			<path class="st0" d="M1099.5,1469.9c0,5.5-4.5,10-10,10H810.3c-5.5,0-10-4.5-10-10v-49.8c0-5.5,4.5-10,10-10h279.2
				c5.5,0,10,4.5,10,10V1469.9z"/>
		</g>
		<path class="st4" d="M1089.5,1480.9H810.3c-6,0-11-4.9-11-11v-49.9c0-6,4.9-11,11-11h279.2c6,0,11,4.9,11,11v49.9
			C1100.5,1476,1095.5,1480.9,1089.5,1480.9z M810.3,1411.1c-4.9,0-9,4-9,9v49.9c0,4.9,4,9,9,9h279.2c4.9,0,9-4,9-9v-49.9
			c0-4.9-4-9-9-9H810.3z"/>
	</g>
	<g>
		<path d="M881,1436.8c-0.4-0.8-1.4-2.3-2.3-3.3l2.2-1.2c0.6,0.8,1.8,2.3,2.5,3.5c-1.3,0.6-1.5,0.8-1.8,1h3.3c1.7-1.9,2.5-3.3,3-4.1
			l2.2,1.2c0.1,0.1,0.3,0.2,0.3,0.4c0,0.3-0.1,0.3-0.8,0.3c-0.7,1.1-1.1,1.5-1.7,2.2h5.6v5.8h-2.8v-3.6h-17.1v3.6h-2.7v-5.8h4.4
			c-0.3-0.6-1.3-2.1-2.1-2.8l2.2-1.1c0.6,0.7,1.8,2.3,2.4,3.2c-0.7,0.4-0.8,0.4-1.3,0.8H881z M891.1,1448.6v7.7h-2.7v-0.9h-12.5v0.9
			h-2.7v-7.7h6.5c0.1-0.1,0.8-1.5,0.9-1.8h-5.1v-6.5h13.2v6.5h-5.2c-0.4,0.8-0.6,1.2-0.9,1.8H891.1z M888.5,1453.3v-2.6h-12.5v2.6
			H888.5z M878.2,1442.4v2.4h7.9v-2.4H878.2z"/>
		<path d="M911.6,1456.4h-2.5v-5.6c-2.6,2.4-6.2,4.6-8.2,5.4c-0.9-1.2-1.5-1.6-2-1.9c3.7-1.3,7.1-3.5,8.9-5h-9.3v-2.1h10.5v-1.3
			h-7.5v-2h7.5v-1.2h-9.2v-2.1h6c-0.1-0.2-0.5-1.1-1-1.9l1.4-0.4h-7.7v-2.1h4.3c-0.6-1-1.2-1.8-1.5-2.2l2.1-1.3
			c0.5,0.8,1.3,1.8,1.9,2.9c-0.2,0.1-0.7,0.2-1.3,0.5h2.5v-3.6l2.5,0.1c0.2,0,0.5,0.1,0.5,0.3c0,0.3-0.2,0.3-0.5,0.4v2.6h2.3v-3.5
			l2.5,0.1c0.2,0,0.5,0.1,0.5,0.3c0,0.3-0.4,0.4-0.5,0.5v2.6h2.6c-0.5-0.3-0.9-0.4-1.5-0.5c1-1.5,1.3-1.9,1.7-2.9l2.6,1
			c0.1,0.1,0.2,0.2,0.2,0.3c0,0.3-0.3,0.4-0.8,0.3c-0.4,0.6-0.8,1.2-1.3,1.9h4.6v2.1h-5.7c0.1,0.1,0.2,0.2,0.2,0.3
			c0,0.2-0.1,0.4-0.8,0.4c-0.3,0.6-0.6,1.2-0.8,1.7h5.5v2.1h-8.9v1.2h7.3v2h-7.3v1.3h10.5v2.1H913c1.7,1.6,4.5,3.4,8.9,4.8
			c-1.1,0.9-1.5,1.3-1.8,2c-2-0.7-5.9-2.7-8.5-5.4V1456.4z M907.3,1438.3c0.4,0.7,0.8,1.3,1,2c-0.2,0-0.8,0.2-1.6,0.4h5.5
			c0.4-0.7,0.8-1.5,1.1-2.4H907.3z"/>
		<path d="M943.9,1437c0.8,0,1.3-0.2,1.8-0.4l1.5,1.4c-0.4,0.6-0.5,0.9-0.8,1.6c-2.2,5-3.6,8.3-7.1,11.8c-3.2,3.3-6.4,4.6-7.7,5.2
			c-0.6-0.8-1-1.1-2.1-2c8-3.2,11.5-8.4,13.8-15.1h-8.1c-1.8,2.6-3.6,4.8-6.4,7.2c-1.1-1.1-1.1-1.2-2.1-1.9c3.8-3,7.1-7.2,8.9-11.9
			l2.5,1.1c0.1,0.1,0.4,0.2,0.4,0.4c0,0.3-0.4,0.3-0.6,0.3c-0.3,0.5-0.4,0.9-1.1,2.2H943.9z M942.7,1432.1c0.6,0.6,1.7,1.7,2.4,2.5
			c-0.3,0.2-1,0.6-1.6,1.1c-1.1-1.4-1.8-2.1-2.3-2.5L942.7,1432.1z M946.7,1431.8c0.8,0.8,1.9,2,2.4,2.7c-0.4,0.3-0.5,0.3-1.6,1.1
			c-0.2-0.3-1.2-1.7-2.3-2.6L946.7,1431.8z"/>
		<path d="M959.2,1434.7c0.3,0,0.6,0,0.6,0.3c0,0.3-0.3,0.4-0.5,0.5v6.4c0,5.2-1.5,8.7-6.5,12.2c-0.5-0.7-0.9-1-2.2-1.9
			c5.2-3,5.9-6.2,5.9-10v-7.6L959.2,1434.7z M965.4,1434.5c0.3,0,0.5,0,0.5,0.3c0,0.2-0.3,0.3-0.5,0.5v14.8c3.2-1.9,6.3-4.9,8.3-7.8
			c0.7,1.5,0.8,1.7,1.4,2.4c-3,4.2-7.3,7.2-9.2,8.5c-0.9,0.6-1,0.7-1.5,1.1l-1.9-1.3c0.1-0.5,0.1-1.3,0.1-2v-16.7L965.4,1434.5z"/>
		<path d="M1002.2,1443.1v2.8H980v-2.8H1002.2z"/>
		<path d="M1021,1436.1c1.1,0,1.5-0.1,1.8-0.2l2,1.7c-0.4,0.7-0.5,0.9-0.7,1.5c-3.1,8.3-6.4,12.7-14.8,16.8c-0.6-1.1-1.7-1.9-2-2.1
			c3.8-1.6,10.5-4.5,14-15.1h-17v-2.5H1021z M1027.8,1434c0,1.3-1,2.4-2.4,2.4c-1.3,0-2.4-1-2.4-2.4c0-1.3,1.1-2.3,2.4-2.3
			C1026.8,1431.7,1027.8,1432.8,1027.8,1434z M1024.2,1434c0,0.7,0.6,1.3,1.3,1.3s1.3-0.6,1.3-1.3c0-0.7-0.6-1.3-1.3-1.3
			S1024.2,1433.3,1024.2,1434z"/>
	</g>
</g>
<g>
	<line class="st0" x1="800.3" y1="1445" x2="600.9" y2="1445"/>
	<rect x="600.9" y="1444" class="st4" width="199.4" height="2"/>
</g>
<rect x="102.3" y="885.6" class="st4" width="199.4" height="2"/>
<rect x="102.3" y="746" class="st4" width="199.4" height="2"/>
<g>
	<g>
		<g>
			<path class="st0" d="M600.9,1190.7c0,5.5-4.5,10-10,10H311.7c-5.5,0-10-4.5-10-10v-49.8c0-5.5,4.5-10,10-10h279.2
				c5.5,0,10,4.5,10,10V1190.7z"/>
		</g>
		<path class="st4" d="M590.9,1201.7H311.7c-6,0-11-4.9-11-11v-49.9c0-6,4.9-11,11-11h279.2c6,0,11,4.9,11,11v49.9
			C601.9,1196.8,596.9,1201.7,590.9,1201.7z M311.7,1131.9c-4.9,0-9,4-9,9v49.9c0,4.9,4,9,9,9h279.2c4.9,0,9-4,9-9v-49.9
			c0-4.9-4-9-9-9H311.7z"/>
	</g>
	<g>
		<path d="M387.6,1177.2h-2.3v-10.3c-0.6,2-0.8,3-2,5.5c-0.9-0.8-1.3-1-2.4-1.6c1.9-2.6,3.6-7.3,4.2-10h-3.6v-2.2h3.7v-5.2l2.4,0.2
			c0.3,0,0.6,0.1,0.6,0.4c0,0.3-0.3,0.4-0.6,0.5v4.2h3.6v2.2h-3.5c0.7,1.9,1.9,4.2,3.5,6.4c-0.6,0.4-1.5,1.3-1.9,1.8
			c-1-2.3-1.1-2.6-1.6-4.2V1177.2z M404.6,1165.3c0,6.2-0.7,8.9-1,9.7c-0.4,1.4-1.1,2.2-3.7,2.2c-0.5,0-0.9,0-1.3-0.1
			c0-0.8-0.2-1.8-0.7-2.8c0.7,0.2,1.3,0.3,2,0.3c0.7,0,1.1-0.1,1.4-1c0.3-1.1,0.5-2.3,0.7-5.8h-2.9c-0.3,2.1-1,6.2-5,9.4
			c-0.5-0.6-1.3-1.4-1.8-1.8c4.5-3.7,4.5-7.2,4.6-13.4h-2.4v0.9c0,3.7-0.3,9.7-3.9,14.2c-0.3-0.3-0.8-0.8-2.2-1.3
			c2.6-3.6,3.6-6.9,3.6-13.1v-7.9l2.1,0.3c2.9,0,6.9-0.7,9.7-1.7l1.6,2.2c0.1,0.1,0.1,0.2,0.1,0.3c0,0.2-0.2,0.3-0.4,0.3
			c-0.2,0-0.3-0.1-0.7-0.3c-3.2,0.8-6.6,1.2-10,1.4v2.3h10.9v2.4h-5.9c0,1.6-0.1,2.5-0.1,3.3H404.6z"/>
		<path d="M423.3,1177.2h-2.7v-12.8c-2,4.2-5.1,7.7-9,10.3c-0.6-1-1.1-1.5-2-2.2c4.2-2.2,7.9-6.4,10.2-10.7h-9.7v-2.4h10.5v-6
			l2.6,0.1c0.4,0,0.6,0.1,0.6,0.4c0,0.2-0.3,0.3-0.6,0.4v5h10.6v2.4h-9.6c2.6,4.8,6.8,8.4,10,10.6c-0.8,0.5-1.1,0.9-2.1,2.2
			c-5.1-3.9-7.5-7.5-8.8-10.2V1177.2z"/>
		<path d="M449,1157.6c-0.4-0.8-1.4-2.3-2.3-3.3l2.2-1.2c0.6,0.8,1.8,2.3,2.5,3.5c-1.3,0.6-1.5,0.8-1.8,1h3.3c1.7-1.9,2.5-3.3,3-4.1
			l2.2,1.2c0.1,0.1,0.3,0.2,0.3,0.4c0,0.3-0.1,0.3-0.8,0.3c-0.7,1.1-1.1,1.5-1.7,2.2h5.6v5.8h-2.8v-3.6h-17.1v3.6h-2.7v-5.8h4.4
			c-0.3-0.6-1.3-2.1-2.1-2.8l2.2-1.1c0.6,0.7,1.8,2.3,2.4,3.2c-0.7,0.4-0.8,0.4-1.3,0.8H449z M459.1,1169.4v7.7h-2.7v-0.9h-12.5v0.9
			h-2.7v-7.7h6.5c0.1-0.1,0.8-1.5,0.9-1.8h-5.1v-6.5h13.2v6.5h-5.2c-0.4,0.8-0.6,1.2-0.9,1.8H459.1z M456.4,1174.1v-2.6h-12.5v2.6
			H456.4z M446.2,1163.2v2.4h7.9v-2.4H446.2z"/>
		<path d="M479.5,1177.2h-2.5v-5.6c-2.6,2.4-6.2,4.6-8.2,5.4c-0.9-1.2-1.5-1.6-2-1.9c3.7-1.3,7.1-3.5,8.9-5h-9.3v-2.1h10.5v-1.3
			h-7.5v-2h7.5v-1.2h-9.2v-2.1h6c-0.1-0.2-0.5-1.1-1-1.9l1.4-0.4h-7.7v-2.1h4.3c-0.6-1-1.2-1.8-1.5-2.2l2.1-1.3
			c0.5,0.8,1.3,1.8,1.9,2.9c-0.2,0.1-0.7,0.2-1.3,0.5h2.5v-3.6l2.5,0.1c0.2,0,0.5,0.1,0.5,0.3c0,0.3-0.2,0.3-0.5,0.4v2.6h2.3v-3.5
			l2.5,0.1c0.2,0,0.5,0.1,0.5,0.3c0,0.3-0.4,0.4-0.5,0.5v2.6h2.6c-0.5-0.3-0.9-0.4-1.5-0.5c1-1.5,1.3-1.9,1.7-2.9l2.6,1
			c0.1,0.1,0.2,0.2,0.2,0.3c0,0.3-0.3,0.4-0.8,0.3c-0.4,0.6-0.8,1.2-1.3,1.9h4.6v2.1h-5.7c0.1,0.1,0.2,0.2,0.2,0.3
			c0,0.2-0.1,0.4-0.8,0.4c-0.3,0.6-0.6,1.2-0.8,1.7h5.5v2.1h-8.9v1.2h7.3v2h-7.3v1.3h10.5v2.1h-9.1c1.7,1.6,4.5,3.4,8.9,4.8
			c-1.1,0.9-1.5,1.3-1.8,2c-2-0.7-5.9-2.7-8.5-5.4V1177.2z M475.3,1159.1c0.4,0.7,0.8,1.3,1,2c-0.2,0-0.8,0.2-1.6,0.4h5.5
			c0.4-0.7,0.8-1.5,1.1-2.4H475.3z"/>
		<path d="M505.9,1159.2v8.5H499c-0.1,1.8-0.2,6.1-2.1,9.5c-0.9-0.5-1.6-0.7-2.7-0.9c1.8-2.7,2.2-5.8,2.2-9.4v-7.8H505.9z
			 M506.7,1154.6v2.3h-11.6v-2.3H506.7z M499,1161.6v3.9h4.3v-3.9H499z M515.7,1177.1h-2.6v-13.3h-2.9c0,2.9-0.1,8.8-5.6,13.6
			c-0.8-0.8-0.9-0.8-2.3-1.6c1.7-1.1,3-2.7,3.9-4.5c0.9-1.7,1.4-3.5,1.4-7v-9.4l2,0.2c1,0,4.6-0.8,6.9-1.9l1.7,2.3
			c0.1,0.1,0.1,0.2,0.1,0.3c0,0.2-0.1,0.3-0.3,0.3c-0.2,0-0.4-0.1-0.7-0.3c-2.4,0.9-4.7,1.4-7.2,1.7v3.8h8.3v2.5h-2.8V1177.1z"/>
	</g>
</g>
<g>
	<g>
		<g>
			<path class="st0" d="M600.9,1330.3c0,5.5-4.5,10-10,10H311.7c-5.5,0-10-4.5-10-10v-49.8c0-5.5,4.5-10,10-10h279.2
				c5.5,0,10,4.5,10,10V1330.3z"/>
		</g>
		<path class="st4" d="M590.9,1341.3H311.7c-6,0-11-4.9-11-11v-49.9c0-6,4.9-11,11-11h279.2c6,0,11,4.9,11,11v49.9
			C601.9,1336.4,596.9,1341.3,590.9,1341.3z M311.7,1271.5c-4.9,0-9,4-9,9v49.9c0,4.9,4,9,9,9h279.2c4.9,0,9-4,9-9v-49.9
			c0-4.9-4-9-9-9H311.7z"/>
	</g>
	<g>
		<path d="M401.5,1316.8h-2.3v-10.3c-0.6,2-0.8,3-2,5.5c-0.9-0.8-1.3-1-2.4-1.6c1.9-2.6,3.6-7.3,4.2-10h-3.6v-2.2h3.7v-5.2l2.4,0.2
			c0.3,0,0.6,0.1,0.6,0.4c0,0.3-0.3,0.4-0.6,0.5v4.2h3.6v2.2h-3.5c0.7,1.9,1.9,4.2,3.5,6.4c-0.6,0.4-1.5,1.3-1.9,1.8
			c-1-2.3-1.1-2.6-1.6-4.2V1316.8z M418.5,1304.9c0,6.2-0.7,8.9-1,9.7c-0.4,1.4-1.1,2.2-3.7,2.2c-0.5,0-0.9,0-1.3-0.1
			c0-0.8-0.2-1.8-0.7-2.8c0.7,0.2,1.3,0.3,2,0.3c0.7,0,1.1-0.1,1.4-1c0.3-1.1,0.5-2.3,0.7-5.8H413c-0.3,2.1-1,6.2-5,9.4
			c-0.5-0.6-1.3-1.4-1.8-1.8c4.5-3.7,4.5-7.2,4.6-13.4h-2.4v0.9c0,3.7-0.3,9.7-3.9,14.2c-0.3-0.3-0.8-0.8-2.2-1.3
			c2.6-3.6,3.6-6.9,3.6-13.1v-7.9l2.1,0.3c2.9,0,6.9-0.7,9.7-1.7l1.6,2.2c0.1,0.1,0.1,0.2,0.1,0.3c0,0.2-0.2,0.3-0.4,0.3
			c-0.2,0-0.3-0.1-0.7-0.3c-3.2,0.8-6.6,1.2-10,1.4v2.3h10.9v2.4h-5.9c0,1.6-0.1,2.5-0.1,3.3H418.5z"/>
		<path d="M437.2,1316.8h-2.7V1304c-2,4.2-5.1,7.7-9,10.3c-0.6-1-1.1-1.5-2-2.2c4.2-2.2,7.9-6.4,10.2-10.7H424v-2.4h10.5v-6l2.6,0.1
			c0.4,0,0.6,0.1,0.6,0.4c0,0.2-0.3,0.3-0.6,0.4v5h10.6v2.4h-9.6c2.6,4.8,6.8,8.4,10,10.6c-0.8,0.5-1.1,0.9-2.1,2.2
			c-5.1-3.9-7.5-7.5-8.8-10.2V1316.8z"/>
		<path d="M465.9,1312.3h10.4v2.6h-23.7v-2.6h10.4v-14.6h-8.7v-2.6h20.2v2.6h-8.7V1312.3z"/>
		<path d="M489.6,1298.8v2.4h-3v6.1c2-0.8,2.2-0.8,3.1-1.2c-0.2,0.6-0.3,1.3-0.3,1.9c0,0.3,0,0.4,0.1,0.6c-2.2,1-6.6,2.6-7.4,2.9
			c0,0.3-0.1,0.7-0.4,0.7c-0.2,0-0.3-0.3-0.4-0.6l-0.6-2.5c1.1-0.2,2.2-0.5,3.3-0.9v-6.9h-3.1v-2.4h3.1v-5.7l2.7,0.2
			c0.2,0,0.5,0.1,0.5,0.3c0,0.2-0.2,0.3-0.6,0.5v4.7H489.6z M492.1,1309c-1.6,2-3,3-3.6,3.4c-0.8-0.9-1.3-1.2-1.8-1.4
			c3-2,4.1-3.6,5.2-5.4h-3v-2h15.6v2h-10.2c-0.2,0.4-0.5,0.9-0.8,1.2h10.4c0,3.3-0.5,6.4-0.9,7.7c-0.4,1.2-1,2.2-3.9,2.2
			c-0.3,0-0.5,0-0.9-0.1c-0.1-0.4-0.1-1.1-0.9-2.7c1,0.2,1.9,0.2,2,0.2c0.6,0,1.1,0,1.4-1.3c0.3-1,0.5-2.4,0.6-3.9h-1.2
			c-2.1,4.5-5,7-6.2,8c-0.4-0.4-0.8-0.7-2-1.3c0.6-0.4,3.6-2.4,5.8-6.7h-1.6c-1.1,1.8-2.7,3.7-3.9,4.8c-1,0.9-1.9,1.6-3.3,2.4
			c-0.6-0.7-0.9-1-1.8-1.6c2.7-1.2,4.9-3.2,6.6-5.6H492.1z M502.3,1302.6h-11.4v-8.9h11.4V1302.6z M499.9,1297.2v-1.5h-6.4v1.5
			H499.9z M493.5,1299v1.6h6.4v-1.6H493.5z"/>
	</g>
</g>
<rect x="102.3" y="1304.4" class="st4" width="199.4" height="2"/>
<rect x="102.3" y="1164.8" class="st4" width="199.4" height="2"/>
<polygon class="st4" points="800.3,1306.4 699.6,1306.4 699.6,1165.8 701.6,1165.8 701.6,1304.4 800.3,1304.4 "/>
<g>
	<g>
		<g>
			<path class="st0" d="M600.9,1469.9c0,5.5-4.5,10-10,10H311.7c-5.5,0-10-4.5-10-10v-49.8c0-5.5,4.5-10,10-10h279.2
				c5.5,0,10,4.5,10,10V1469.9z"/>
		</g>
		<path class="st4" d="M590.9,1480.9H311.7c-6,0-11-4.9-11-11v-49.9c0-6,4.9-11,11-11h279.2c6,0,11,4.9,11,11v49.9
			C601.9,1476,596.9,1480.9,590.9,1480.9z M311.7,1411.1c-4.9,0-9,4-9,9v49.9c0,4.9,4,9,9,9h279.2c4.9,0,9-4,9-9v-49.9
			c0-4.9-4-9-9-9H311.7z"/>
	</g>
	<g>
		<path d="M393.6,1446.3v9.9h-2.4v-1h-3.4v1.2h-2.4v-6c-0.7,0.9-1.2,1.5-1.7,2c-0.9-1.1-1.6-1.5-2-1.7c1-0.8,3.1-2.5,4.2-6.1h-2.6
			v-2.2h3c0.2-1.2,0.2-1.8,0.2-2.2h-4v-2.2h4v-2.1h-3.1v-2.2h10.2v4.3h1.1v2.2h-1.1v4.4h-5.3c-0.3,1-0.5,1.5-0.6,1.9H393.6z
			 M387.8,1448.6v4.2h3.4v-4.2H387.8z M388.9,1440.1c-0.1,1.2-0.1,1.7-0.2,2.2h2.5v-2.2H388.9z M389,1435.8c0,0.5,0,1,0,2.1h2.3
			v-2.1H389z M401.9,1442.9h3.6v2.4h-3.6v3.4h4.5v2.4h-4.5v5.2h-2.6v-5.2h-4.6v-2.4h4.6v-3.4h-3.6v-2.4h3.6v-3.5h-3.9v-2.3h2.3
			c-0.7-1.5-1.2-2.2-2.2-3.6l2.1-1.2c0.9,0.9,2,2.8,2.5,3.8c-0.9,0.4-1.5,0.9-1.7,1h2.3c1.4-2.1,2-3.6,2.5-4.7l2.6,1
			c0.1,0.1,0.3,0.2,0.3,0.3c0,0.3-0.4,0.3-0.7,0.3c-0.3,0.5-1.5,2.7-1.7,3.1h2.3v2.3h-4V1442.9z"/>
		<path d="M415,1449.8c0.3,0.1,0.7,0.2,0.7,0.5c0,0.3-0.4,0.3-0.7,0.4c-0.8,2.7-2.1,4.7-2.6,5.4c-0.8-0.5-1.5-0.8-2.5-1.1
			c1.5-1.9,2.6-4.1,3-5.9L415,1449.8z M430.7,1437.4v2.1H424v1.8h6.6v2.2H424v2h9.4c-0.1,1.2-0.2,6.1-1.6,8.9
			c-0.3,0.7-1,1.9-4.4,1.9c-0.3,0-0.6,0-0.9,0c-0.1-1.1-0.6-2.2-0.9-2.7c0.7,0.1,1.6,0.2,2.3,0.2c0.6,0,1.3,0,1.7-1
			c0.5-1.1,0.9-3.3,1-5.1h-15v1.1H413v-15.3h19.5v2.2H424v1.8H430.7z M421.3,1437.4v-1.8h-5.7v1.8H421.3z M421.3,1441.3v-1.8h-5.7
			v1.8H421.3z M421.3,1445.5v-2h-5.7v2H421.3z M418.5,1449.4c0.7,2.3,1,4.1,1.1,5.2c-0.3,0-1.6,0.2-2.7,0.5
			c-0.1-1.9-0.3-3.3-0.8-5.3L418.5,1449.4z M422.9,1448.9c0.5,1.2,1.2,3.3,1.5,4.7c-1.3,0.2-2.1,0.4-2.5,0.6
			c-0.4-2.3-0.8-3.6-1.3-4.7L422.9,1448.9z M427.1,1448.3c0.5,0.8,1.4,2.7,1.8,4c-0.9,0.2-1.9,0.6-2.3,0.8c-0.5-1.7-0.9-2.7-1.6-4.1
			L427.1,1448.3z"/>
		<path d="M448,1436.8c-0.4-0.8-1.4-2.3-2.3-3.3l2.2-1.2c0.6,0.8,1.8,2.3,2.5,3.5c-1.3,0.6-1.5,0.8-1.8,1h3.3c1.7-1.9,2.5-3.3,3-4.1
			l2.2,1.2c0.1,0.1,0.3,0.2,0.3,0.4c0,0.3-0.1,0.3-0.8,0.3c-0.7,1.1-1.1,1.5-1.7,2.2h5.6v5.8h-2.8v-3.6h-17.1v3.6h-2.7v-5.8h4.4
			c-0.3-0.6-1.3-2.1-2.1-2.8l2.2-1.1c0.6,0.7,1.8,2.3,2.4,3.2c-0.7,0.4-0.8,0.4-1.3,0.8H448z M458.2,1448.6v7.7h-2.7v-0.9H443v0.9
			h-2.7v-7.7h6.5c0.1-0.1,0.8-1.5,0.9-1.8h-5.1v-6.5h13.2v6.5h-5.2c-0.4,0.8-0.6,1.2-0.9,1.8H458.2z M455.5,1453.3v-2.6H443v2.6
			H455.5z M445.3,1442.4v2.4h7.9v-2.4H445.3z"/>
		<path d="M478.6,1456.4h-2.5v-5.6c-2.6,2.4-6.2,4.6-8.2,5.4c-0.9-1.2-1.5-1.6-2-1.9c3.7-1.3,7.1-3.5,8.9-5h-9.3v-2.1h10.5v-1.3
			h-7.5v-2h7.5v-1.2h-9.2v-2.1h6c-0.1-0.2-0.5-1.1-1-1.9l1.4-0.4h-7.7v-2.1h4.3c-0.6-1-1.2-1.8-1.5-2.2l2.1-1.3
			c0.5,0.8,1.3,1.8,1.9,2.9c-0.2,0.1-0.7,0.2-1.3,0.5h2.5v-3.6l2.5,0.1c0.2,0,0.5,0.1,0.5,0.3c0,0.3-0.2,0.3-0.5,0.4v2.6h2.3v-3.5
			l2.5,0.1c0.2,0,0.5,0.1,0.5,0.3c0,0.3-0.4,0.4-0.5,0.5v2.6h2.6c-0.5-0.3-0.9-0.4-1.5-0.5c1-1.5,1.3-1.9,1.7-2.9l2.6,1
			c0.1,0.1,0.2,0.2,0.2,0.3c0,0.3-0.3,0.4-0.8,0.3c-0.4,0.6-0.8,1.2-1.3,1.9h4.6v2.1h-5.7c0.1,0.1,0.2,0.2,0.2,0.3
			c0,0.2-0.1,0.4-0.8,0.4c-0.3,0.6-0.6,1.2-0.8,1.7h5.5v2.1h-8.9v1.2h7.3v2h-7.3v1.3h10.5v2.1H480c1.7,1.6,4.5,3.4,8.9,4.8
			c-1.1,0.9-1.5,1.3-1.8,2c-2-0.7-5.9-2.7-8.5-5.4V1456.4z M474.3,1438.3c0.4,0.7,0.8,1.3,1,2c-0.2,0-0.8,0.2-1.6,0.4h5.5
			c0.4-0.7,0.8-1.5,1.1-2.4H474.3z"/>
		<path d="M505,1438.5v8.5h-6.9c-0.1,1.8-0.2,6.1-2.1,9.5c-0.9-0.5-1.6-0.7-2.7-0.9c1.8-2.7,2.2-5.8,2.2-9.4v-7.8H505z
			 M505.7,1433.8v2.3h-11.6v-2.3H505.7z M498.1,1440.8v3.9h4.3v-3.9H498.1z M514.7,1456.3h-2.6V1443h-2.9c0,2.9-0.1,8.8-5.6,13.6
			c-0.8-0.8-0.9-0.8-2.3-1.6c1.7-1.1,3-2.7,3.9-4.5c0.9-1.7,1.4-3.5,1.4-7v-9.4l2,0.2c1,0,4.6-0.8,6.9-1.9l1.7,2.3
			c0.1,0.1,0.1,0.2,0.1,0.3c0,0.2-0.1,0.3-0.3,0.3c-0.2,0-0.4-0.1-0.7-0.3c-2.4,0.9-4.7,1.4-7.2,1.7v3.8h8.3v2.5h-2.8V1456.3z"/>
	</g>
</g>
<g>
	<g>
		<g>
			<path class="st0" d="M1099.5,1190.7c0,5.5-4.5,10-10,10H810.3c-5.5,0-10-4.5-10-10v-49.8c0-5.5,4.5-10,10-10h279.2
				c5.5,0,10,4.5,10,10V1190.7z"/>
		</g>
		<path class="st4" d="M1089.5,1201.7H810.3c-6,0-11-4.9-11-11v-49.9c0-6,4.9-11,11-11h279.2c6,0,11,4.9,11,11v49.9
			C1100.5,1196.8,1095.5,1201.7,1089.5,1201.7z M810.3,1131.9c-4.9,0-9,4-9,9v49.9c0,4.9,4,9,9,9h279.2c4.9,0,9-4,9-9v-49.9
			c0-4.9-4-9-9-9H810.3z"/>
	</g>
	<g>
		<path d="M881,1157.6c-0.4-0.8-1.4-2.3-2.3-3.3l2.2-1.2c0.6,0.8,1.8,2.3,2.5,3.5c-1.3,0.6-1.5,0.8-1.8,1h3.3c1.7-1.9,2.5-3.3,3-4.1
			l2.2,1.2c0.1,0.1,0.3,0.2,0.3,0.4c0,0.3-0.1,0.3-0.8,0.3c-0.7,1.1-1.1,1.5-1.7,2.2h5.6v5.8h-2.8v-3.6h-17.1v3.6h-2.7v-5.8h4.4
			c-0.3-0.6-1.3-2.1-2.1-2.8l2.2-1.1c0.6,0.7,1.8,2.3,2.4,3.2c-0.7,0.4-0.8,0.4-1.3,0.8H881z M891.1,1169.4v7.7h-2.7v-0.9h-12.5v0.9
			h-2.7v-7.7h6.5c0.1-0.1,0.8-1.5,0.9-1.8h-5.1v-6.5h13.2v6.5h-5.2c-0.4,0.8-0.6,1.2-0.9,1.8H891.1z M888.5,1174.1v-2.6h-12.5v2.6
			H888.5z M878.2,1163.2v2.4h7.9v-2.4H878.2z"/>
		<path d="M911.6,1177.2h-2.5v-5.6c-2.6,2.4-6.2,4.6-8.2,5.4c-0.9-1.2-1.5-1.6-2-1.9c3.7-1.3,7.1-3.5,8.9-5h-9.3v-2.1h10.5v-1.3
			h-7.5v-2h7.5v-1.2h-9.2v-2.1h6c-0.1-0.2-0.5-1.1-1-1.9l1.4-0.4h-7.7v-2.1h4.3c-0.6-1-1.2-1.8-1.5-2.2l2.1-1.3
			c0.5,0.8,1.3,1.8,1.9,2.9c-0.2,0.1-0.7,0.2-1.3,0.5h2.5v-3.6l2.5,0.1c0.2,0,0.5,0.1,0.5,0.3c0,0.3-0.2,0.3-0.5,0.4v2.6h2.3v-3.5
			l2.5,0.1c0.2,0,0.5,0.1,0.5,0.3c0,0.3-0.4,0.4-0.5,0.5v2.6h2.6c-0.5-0.3-0.9-0.4-1.5-0.5c1-1.5,1.3-1.9,1.7-2.9l2.6,1
			c0.1,0.1,0.2,0.2,0.2,0.3c0,0.3-0.3,0.4-0.8,0.3c-0.4,0.6-0.8,1.2-1.3,1.9h4.6v2.1h-5.7c0.1,0.1,0.2,0.2,0.2,0.3
			c0,0.2-0.1,0.4-0.8,0.4c-0.3,0.6-0.6,1.2-0.8,1.7h5.5v2.1h-8.9v1.2h7.3v2h-7.3v1.3h10.5v2.1H913c1.7,1.6,4.5,3.4,8.9,4.8
			c-1.1,0.9-1.5,1.3-1.8,2c-2-0.7-5.9-2.7-8.5-5.4V1177.2z M907.3,1159.1c0.4,0.7,0.8,1.3,1,2c-0.2,0-0.8,0.2-1.6,0.4h5.5
			c0.4-0.7,0.8-1.5,1.1-2.4H907.3z"/>
		<path d="M943.9,1157.8c0.8,0,1.3-0.2,1.8-0.4l1.5,1.4c-0.4,0.6-0.5,0.9-0.8,1.6c-2.2,5-3.6,8.3-7.1,11.8c-3.2,3.3-6.4,4.6-7.7,5.2
			c-0.6-0.8-1-1.1-2.1-2c8-3.2,11.5-8.4,13.8-15.1h-8.1c-1.8,2.6-3.6,4.8-6.4,7.2c-1.1-1.1-1.1-1.2-2.1-1.9c3.8-3,7.1-7.2,8.9-11.9
			l2.5,1.1c0.1,0.1,0.4,0.2,0.4,0.4c0,0.3-0.4,0.3-0.6,0.3c-0.3,0.5-0.4,0.9-1.1,2.2H943.9z M942.7,1152.9c0.6,0.6,1.7,1.7,2.4,2.5
			c-0.3,0.2-1,0.6-1.6,1.1c-1.1-1.4-1.8-2.1-2.3-2.5L942.7,1152.9z M946.7,1152.6c0.8,0.8,1.9,2,2.4,2.7c-0.4,0.3-0.5,0.3-1.6,1.1
			c-0.2-0.3-1.2-1.7-2.3-2.6L946.7,1152.6z"/>
		<path d="M959.2,1155.5c0.3,0,0.6,0,0.6,0.3c0,0.3-0.3,0.4-0.5,0.5v6.4c0,5.2-1.5,8.7-6.5,12.2c-0.5-0.7-0.9-1-2.2-1.9
			c5.2-3,5.9-6.2,5.9-10v-7.6L959.2,1155.5z M965.4,1155.3c0.3,0,0.5,0,0.5,0.3c0,0.2-0.3,0.3-0.5,0.5v14.8c3.2-1.9,6.3-4.9,8.3-7.8
			c0.7,1.5,0.8,1.7,1.4,2.4c-3,4.2-7.3,7.2-9.2,8.5c-0.9,0.6-1,0.7-1.5,1.1l-1.9-1.3c0.1-0.5,0.1-1.3,0.1-2v-16.7L965.4,1155.3z"/>
		<path d="M1002.2,1163.9v2.8H980v-2.8H1002.2z"/>
		<path d="M1021,1156.9c1.1,0,1.5-0.1,1.8-0.2l2,1.7c-0.4,0.7-0.5,0.9-0.7,1.5c-3.1,8.3-6.4,12.7-14.8,16.8c-0.6-1.1-1.7-1.9-2-2.1
			c3.8-1.6,10.5-4.5,14-15.1h-17v-2.5H1021z M1027.8,1154.8c0,1.3-1,2.4-2.4,2.4c-1.3,0-2.4-1-2.4-2.4c0-1.3,1.1-2.3,2.4-2.3
			C1026.8,1152.5,1027.8,1153.5,1027.8,1154.8z M1024.2,1154.8c0,0.7,0.6,1.3,1.3,1.3s1.3-0.6,1.3-1.3c0-0.7-0.6-1.3-1.3-1.3
			S1024.2,1154.1,1024.2,1154.8z"/>
	</g>
</g>
<g>
	<g>
		<g>
			<path class="st0" d="M1099.5,1330.3c0,5.5-4.5,10-10,10H810.3c-5.5,0-10-4.5-10-10v-49.8c0-5.5,4.5-10,10-10h279.2
				c5.5,0,10,4.5,10,10V1330.3z"/>
		</g>
		<path class="st4" d="M1089.5,1341.3H810.3c-6,0-11-4.9-11-11v-49.9c0-6,4.9-11,11-11h279.2c6,0,11,4.9,11,11v49.9
			C1100.5,1336.4,1095.5,1341.3,1089.5,1341.3z M810.3,1271.5c-4.9,0-9,4-9,9v49.9c0,4.9,4,9,9,9h279.2c4.9,0,9-4,9-9v-49.9
			c0-4.9-4-9-9-9H810.3z"/>
	</g>
	<g>
		<path d="M872.9,1308.2c0.2,0,0.4,0.2,0.4,0.4c0,0.2-0.2,0.3-0.5,0.4c-0.3,1.9-0.6,3.8-1.4,5.9c-0.7-0.3-1.3-0.5-2.1-0.6
			c0.7-1.5,1.3-4.5,1.5-6.4L872.9,1308.2z M878.5,1296.5c0.2,0.1,0.5,0.2,0.5,0.4c0,0.2-0.3,0.3-0.7,0.3c-0.5,0.9-2.1,3.7-4.2,6.8
			c2.2-0.1,2.4-0.1,2.7-0.2c-0.1-0.3-0.5-1.7-0.6-2l1.8-0.8c0.5,1.1,1.3,3.5,1.6,4.9c-0.6,0.2-1.3,0.4-2.1,0.8
			c-0.1-0.3-0.1-0.4-0.2-1c-0.2,0-1.1,0.2-1.3,0.2v10.8h-2.5v-10.5c-1.3,0.2-2,0.2-2.7,0.3c-0.2,0.5-0.2,0.7-0.5,0.7
			c-0.3,0-0.4-0.3-0.4-0.6l-0.3-2.4c0.5,0,0.9,0,1.9,0c0.4-0.5,0.7-1,1.6-2.5c-1.1-1.2-2.4-2.2-3.7-3.2l1.5-2.1
			c0.3,0.2,0.5,0.4,1,0.8c0.1-0.2,1.4-2.6,2.1-4.4l2.2,0.8c0.2,0.1,0.3,0.2,0.3,0.4c0,0.2-0.3,0.3-0.7,0.3c-0.9,1.8-1,2.1-2.3,4.3
			c0.6,0.5,0.8,0.7,1,0.9c1.5-2.6,1.7-2.9,2-3.8L878.5,1296.5z M878.6,1307.1c0.2,1.7,0.6,3.6,0.8,4.4c0.6-1.6,0.8-2.5,0.8-3
			l1.6,0.5c0.6,0.2,0.8,0.2,0.8,0.5c0,0.3-0.4,0.3-0.6,0.4c-0.4,1.9-1,3.8-1.8,5.5c-0.8-0.5-1-0.6-2-1c0.2-0.4,0.5-0.9,1.1-2.3
			c-0.6,0.2-1,0.4-1.6,0.6c-0.7-2.7-0.9-4.4-1-5.2L878.6,1307.1z M884.9,1294.1c0.3,0.1,0.5,0.3,0.5,0.5c0,0.2-0.2,0.2-0.8,0.3
			c-1.3,2.4-2.4,4.1-3.9,5.9c-0.8-0.6-1.1-0.8-2-1.3c1-1.2,3-3.8,3.9-6.3L884.9,1294.1z M889.2,1299.8c1.6,1.8,3,4.1,3.9,5.8
			c-0.9,0.4-1.3,0.7-2.2,1.3c-0.2-0.4-0.4-1-1.1-2.1c-1.3,0.2-7.3,0.8-8.5,0.9c-0.1,0.1-0.2,0.5-0.6,0.5c-0.2,0-0.3-0.1-0.4-0.4
			l-0.6-2.5c0.4,0,2.2-0.1,2.5-0.1c0.1-0.1,1.8-3.5,2.5-6.5l2.5,0.9c0.3,0.1,0.4,0.2,0.4,0.3c0,0.3-0.1,0.3-0.8,0.5
			c-0.4,0.7-1.9,4-2.3,4.6c2.1-0.2,2.4-0.2,3.8-0.3c-0.7-1.1-1-1.5-1.4-1.9L889.2,1299.8z M885,1308.1c0.4,0.1,0.9,0.1,0.9,0.5
			c0,0.2-0.1,0.3-0.7,0.4v4.4c0,0.8,0.3,0.8,1.2,0.8c1.4,0,1.5-0.3,1.8-2.4c0.8,0.7,1.2,0.9,2.3,1c-0.8,3.5-1.8,3.6-3.6,3.6
			c-2.8,0-4.3,0-4.3-2.4v-6.3L885,1308.1z M886.5,1305.5c0.9,0.9,2.2,2.4,2.6,3c-1,0.8-1.2,1-1.7,1.6c-0.7-1.1-1.7-2.2-2.5-3.1
			L886.5,1305.5z M889.3,1293.1c0.9,1.7,2.3,3.8,4.3,5.5c-0.8,0.3-1.6,0.9-2.1,1.4c-1.6-1.5-3.1-3.7-4.2-5.8L889.3,1293.1z
			 M891.4,1308.2c0.3,0.5,1.7,3,2.3,5.3c-0.6,0.2-1.8,0.9-2.1,1.1c-0.9-2.8-1.6-4.3-2.3-5.4L891.4,1308.2z"/>
		<path d="M921,1306c-2.7-0.7-4.5-1.9-5.7-2.7c-0.6,0.5-1.2,1-1.9,1.4l2.6,0.4c0.3,0,0.5,0.1,0.5,0.4c0,0.3-0.3,0.4-0.6,0.5
			c-0.1,0.5-0.1,0.7-0.2,1.2h5.6c0,1.6-0.4,6.5-1.3,8.2c-0.8,1.4-2.4,1.5-4.4,1.5c-0.1-0.8-0.4-1.8-0.9-2.6c0.3,0.1,0.9,0.2,1.7,0.2
			c1,0,1.5-0.2,1.8-1.3c0.1-0.4,0.4-1.8,0.4-3.7h-3.3c-1.3,4.4-4.4,6.6-6,7.5c-0.5-0.8-1.1-1.5-2-1.9c2.7-1.3,4.5-3.2,5.3-5.6h-3.8
			v-2.3h4.3c0.1-0.4,0.2-1.1,0.2-2.1v-0.3c-0.8,0.5-1.6,0.8-2.7,1.3c-0.4-0.8-1-1.6-1.5-2c-0.6,1.5-1.4,3-1.6,3.4
			c-0.2-0.2-1.3-1-2.1-1c1-1.3,1.5-2.6,1.6-3.1h-1.8v10.3c0,2-0.2,3.3-4.4,3.2c-0.2-1.1-0.6-2.2-0.9-2.7c0.8,0.2,1.5,0.2,1.8,0.2
			c1,0,1-0.5,1-1v-6.3c-0.9,2.2-2.3,3.9-3.1,5c-0.7-0.6-1.3-1.1-2-1.4c1.1-1.1,3.1-3.6,4.4-7.3h-3.7v-2.2h5.3
			c-2.1-1.8-3.6-2.5-4.2-2.8l1.3-1.8c0.8,0.3,1.6,0.7,2.7,1.4c0.6-0.5,0.8-0.8,1.7-1.9h-6.3v-2h9.2l0.8,1c-1.2,1.6-2.3,2.8-3.7,4.1
			c0.6,0.5,1,0.8,1.3,1c-0.2,0.3-0.6,0.7-0.9,1.1h3.3l1.1,0.9c-0.1,0.5-0.5,1.4-0.7,1.9c1.7-0.3,3.3-1.2,4.7-2.3
			c-0.6-0.7-1.5-1.8-2.1-3.2c-0.5,0.7-0.9,1.2-1.7,2c-0.5-0.5-1-0.8-2-1.2c2-1.7,3.8-4.7,4.4-6.5l2.3,0.6c0.2,0,0.5,0.1,0.5,0.3
			c0,0.3-0.5,0.4-0.8,0.4c-0.1,0.1-0.5,0.8-0.7,1.2h8.1v2.1h-2c-0.9,1.8-1.7,3-2.7,4.1c2,1.4,4.1,2,5.4,2.3
			C921.8,1304.5,921.4,1305,921,1306z M913.4,1297.4c0.4,0.8,0.9,1.7,1.9,2.7c0.6-0.6,1.3-1.6,1.9-2.7H913.4z"/>
		<path d="M944.6,1297.4c0.8,0,1.3-0.2,1.8-0.4l1.5,1.4c-0.4,0.6-0.5,0.9-0.8,1.6c-2.2,5-3.6,8.3-7.1,11.8c-3.2,3.3-6.4,4.6-7.7,5.2
			c-0.6-0.8-1-1.1-2.1-2c8-3.2,11.5-8.4,13.8-15.1h-8.1c-1.8,2.6-3.6,4.8-6.4,7.2c-1.1-1.1-1.1-1.2-2.1-1.9c3.8-3,7.1-7.2,8.9-11.9
			l2.5,1.1c0.1,0.1,0.4,0.2,0.4,0.4c0,0.3-0.4,0.3-0.6,0.3c-0.3,0.5-0.4,0.9-1.1,2.2H944.6z M943.4,1292.5c0.6,0.6,1.7,1.7,2.4,2.5
			c-0.3,0.2-1,0.6-1.6,1.1c-1.1-1.4-1.8-2.1-2.3-2.5L943.4,1292.5z M947.3,1292.2c0.8,0.8,1.9,2,2.4,2.7c-0.4,0.3-0.5,0.3-1.6,1.1
			c-0.2-0.3-1.2-1.7-2.3-2.6L947.3,1292.2z"/>
		<path d="M959.9,1295.1c0.3,0,0.6,0,0.6,0.3c0,0.3-0.3,0.4-0.5,0.5v6.4c0,5.2-1.5,8.7-6.5,12.2c-0.5-0.7-0.9-1-2.2-1.9
			c5.2-3,5.9-6.2,5.9-10v-7.6L959.9,1295.1z M966.1,1294.9c0.3,0,0.5,0,0.5,0.3c0,0.2-0.3,0.3-0.5,0.5v14.8c3.2-1.9,6.3-4.9,8.3-7.8
			c0.7,1.5,0.8,1.7,1.4,2.4c-3,4.2-7.3,7.2-9.2,8.5c-0.9,0.6-1,0.7-1.5,1.1l-1.9-1.3c0.1-0.5,0.1-1.3,0.1-2v-16.7L966.1,1294.9z"/>
		<path d="M1002.9,1303.5v2.8h-22.2v-2.8H1002.9z"/>
		<path d="M1021.6,1296.5c1.1,0,1.5-0.1,1.8-0.2l2,1.7c-0.4,0.7-0.5,0.9-0.7,1.5c-3.1,8.3-6.4,12.7-14.8,16.8
			c-0.6-1.1-1.7-1.9-2-2.1c3.8-1.6,10.5-4.5,14-15.1h-17v-2.5H1021.6z M1028.5,1294.4c0,1.3-1,2.4-2.4,2.4c-1.3,0-2.4-1-2.4-2.4
			c0-1.3,1.1-2.3,2.4-2.3C1027.4,1292.1,1028.5,1293.1,1028.5,1294.4z M1024.8,1294.4c0,0.7,0.6,1.3,1.3,1.3s1.3-0.6,1.3-1.3
			c0-0.7-0.6-1.3-1.3-1.3S1024.8,1293.7,1024.8,1294.4z"/>
	</g>
</g>
<g>
	<line class="st0" x1="800.3" y1="1165.8" x2="600.9" y2="1165.8"/>
	<rect x="600.9" y="1164.8" class="st4" width="199.4" height="2"/>
</g>
<g>
	<g>
		<g>
			<path class="st0" d="M1099.5,1749.1c0,5.5-4.5,10-10,10H810.3c-5.5,0-10-4.5-10-10v-49.8c0-5.5,4.5-10,10-10h279.2
				c5.5,0,10,4.5,10,10V1749.1z"/>
		</g>
		<path class="st4" d="M1089.5,1760.1H810.3c-6,0-11-4.9-11-11v-49.9c0-6,4.9-11,11-11h279.2c6,0,11,4.9,11,11v49.9
			C1100.5,1755.2,1095.5,1760.1,1089.5,1760.1z M810.3,1690.3c-4.9,0-9,4-9,9v49.9c0,4.9,4,9,9,9h279.2c4.9,0,9-4,9-9v-49.9
			c0-4.9-4-9-9-9H810.3z"/>
	</g>
	<g>
		<path d="M881,1716c-0.4-0.8-1.4-2.3-2.3-3.3l2.2-1.2c0.6,0.8,1.8,2.3,2.5,3.5c-1.3,0.6-1.5,0.8-1.8,1h3.3c1.7-1.9,2.5-3.3,3-4.1
			l2.2,1.2c0.1,0.1,0.3,0.2,0.3,0.4c0,0.3-0.1,0.3-0.8,0.3c-0.7,1.1-1.1,1.5-1.7,2.2h5.6v5.8h-2.8v-3.6h-17.1v3.6h-2.7v-5.8h4.4
			c-0.3-0.6-1.3-2.1-2.1-2.8l2.2-1.1c0.6,0.7,1.8,2.3,2.4,3.2c-0.7,0.4-0.8,0.4-1.3,0.8H881z M891.1,1727.9v7.7h-2.7v-0.9h-12.5v0.9
			h-2.7v-7.7h6.5c0.1-0.1,0.8-1.5,0.9-1.8h-5.1v-6.5h13.2v6.5h-5.2c-0.4,0.8-0.6,1.2-0.9,1.8H891.1z M888.5,1732.6v-2.6h-12.5v2.6
			H888.5z M878.2,1721.6v2.4h7.9v-2.4H878.2z"/>
		<path d="M911.6,1735.6h-2.5v-5.6c-2.6,2.4-6.2,4.6-8.2,5.4c-0.9-1.2-1.5-1.6-2-1.9c3.7-1.3,7.1-3.5,8.9-5h-9.3v-2.1h10.5v-1.3
			h-7.5v-2h7.5v-1.2h-9.2v-2.1h6c-0.1-0.2-0.5-1.1-1-1.9l1.4-0.4h-7.7v-2.1h4.3c-0.6-1-1.2-1.8-1.5-2.2l2.1-1.3
			c0.5,0.8,1.3,1.8,1.9,2.9c-0.2,0.1-0.7,0.2-1.3,0.5h2.5v-3.6l2.5,0.1c0.2,0,0.5,0.1,0.5,0.3c0,0.3-0.2,0.3-0.5,0.4v2.6h2.3v-3.5
			l2.5,0.1c0.2,0,0.5,0.1,0.5,0.3c0,0.3-0.4,0.4-0.5,0.5v2.6h2.6c-0.5-0.3-0.9-0.4-1.5-0.5c1-1.5,1.3-1.9,1.7-2.9l2.6,1
			c0.1,0.1,0.2,0.2,0.2,0.3c0,0.3-0.3,0.4-0.8,0.3c-0.4,0.6-0.8,1.2-1.3,1.9h4.6v2.1h-5.7c0.1,0.1,0.2,0.2,0.2,0.3
			c0,0.2-0.1,0.4-0.8,0.4c-0.3,0.6-0.6,1.2-0.8,1.7h5.5v2.1h-8.9v1.2h7.3v2h-7.3v1.3h10.5v2.1H913c1.7,1.6,4.5,3.4,8.9,4.8
			c-1.1,0.9-1.5,1.3-1.8,2c-2-0.7-5.9-2.7-8.5-5.4V1735.6z M907.3,1717.5c0.4,0.7,0.8,1.3,1,2c-0.2,0-0.8,0.2-1.6,0.4h5.5
			c0.4-0.7,0.8-1.5,1.1-2.4H907.3z"/>
		<path d="M943.9,1716.2c0.8,0,1.3-0.2,1.8-0.4l1.5,1.4c-0.4,0.6-0.5,0.9-0.8,1.6c-2.2,5-3.6,8.3-7.1,11.8c-3.2,3.3-6.4,4.6-7.7,5.2
			c-0.6-0.8-1-1.1-2.1-2c8-3.2,11.5-8.4,13.8-15.1h-8.1c-1.8,2.6-3.6,4.8-6.4,7.2c-1.1-1.1-1.1-1.2-2.1-1.9c3.8-3,7.1-7.2,8.9-11.9
			l2.5,1.1c0.1,0.1,0.4,0.2,0.4,0.4c0,0.3-0.4,0.3-0.6,0.3c-0.3,0.5-0.4,0.9-1.1,2.2H943.9z M942.7,1711.3c0.6,0.6,1.7,1.7,2.4,2.5
			c-0.3,0.2-1,0.6-1.6,1.1c-1.1-1.4-1.8-2.1-2.3-2.5L942.7,1711.3z M946.7,1711c0.8,0.8,1.9,2,2.4,2.7c-0.4,0.3-0.5,0.3-1.6,1.1
			c-0.2-0.3-1.2-1.7-2.3-2.6L946.7,1711z"/>
		<path d="M959.2,1714c0.3,0,0.6,0,0.6,0.3c0,0.3-0.3,0.4-0.5,0.5v6.4c0,5.2-1.5,8.7-6.5,12.2c-0.5-0.7-0.9-1-2.2-1.9
			c5.2-3,5.9-6.2,5.9-10v-7.6L959.2,1714z M965.4,1713.7c0.3,0,0.5,0,0.5,0.3c0,0.2-0.3,0.3-0.5,0.5v14.8c3.2-1.9,6.3-4.9,8.3-7.8
			c0.7,1.5,0.8,1.7,1.4,2.4c-3,4.2-7.3,7.2-9.2,8.5c-0.9,0.6-1,0.7-1.5,1.1l-1.9-1.3c0.1-0.5,0.1-1.3,0.1-2v-16.7L965.4,1713.7z"/>
		<path d="M1002.2,1722.4v2.8H980v-2.8H1002.2z"/>
		<path d="M1021,1715.3c1.1,0,1.5-0.1,1.8-0.2l2,1.7c-0.4,0.7-0.5,0.9-0.7,1.5c-3.1,8.3-6.4,12.7-14.8,16.8c-0.6-1.1-1.7-1.9-2-2.1
			c3.8-1.6,10.5-4.5,14-15.1h-17v-2.5H1021z M1027.8,1713.3c0,1.3-1,2.4-2.4,2.4c-1.3,0-2.4-1-2.4-2.4c0-1.3,1.1-2.3,2.4-2.3
			C1026.8,1710.9,1027.8,1712,1027.8,1713.3z M1024.2,1713.3c0,0.7,0.6,1.3,1.3,1.3s1.3-0.6,1.3-1.3c0-0.7-0.6-1.3-1.3-1.3
			S1024.2,1712.6,1024.2,1713.3z"/>
	</g>
</g>
<g>
	<line class="st0" x1="800.3" y1="1724.2" x2="600.9" y2="1724.2"/>
	<rect x="600.9" y="1723.2" class="st4" width="199.4" height="2"/>
</g>
<g>
	<g>
		<g>
			<path class="st0" d="M1099.5,2028.3c0,5.5-4.5,10-10,10H810.3c-5.5,0-10-4.5-10-10v-49.8c0-5.5,4.5-10,10-10h279.2
				c5.5,0,10,4.5,10,10V2028.3z"/>
		</g>
		<path class="st4" d="M1089.5,2039.3H810.3c-6,0-11-4.9-11-11v-49.9c0-6,4.9-11,11-11h279.2c6,0,11,4.9,11,11v49.9
			C1100.5,2034.4,1095.5,2039.3,1089.5,2039.3z M810.3,1969.5c-4.9,0-9,4-9,9v49.9c0,4.9,4,9,9,9h279.2c4.9,0,9-4,9-9v-49.9
			c0-4.9-4-9-9-9H810.3z"/>
	</g>
	<g>
		<path d="M881,1995.3c-0.4-0.8-1.4-2.3-2.3-3.3l2.2-1.2c0.6,0.8,1.8,2.3,2.5,3.5c-1.3,0.6-1.5,0.8-1.8,1h3.3c1.7-1.9,2.5-3.3,3-4.1
			l2.2,1.2c0.1,0.1,0.3,0.2,0.3,0.4c0,0.3-0.1,0.3-0.8,0.3c-0.7,1.1-1.1,1.5-1.7,2.2h5.6v5.8h-2.8v-3.6h-17.1v3.6h-2.7v-5.8h4.4
			c-0.3-0.6-1.3-2.1-2.1-2.8l2.2-1.1c0.6,0.7,1.8,2.3,2.4,3.2c-0.7,0.4-0.8,0.4-1.3,0.8H881z M891.1,2007.1v7.7h-2.7v-0.9h-12.5v0.9
			h-2.7v-7.7h6.5c0.1-0.1,0.8-1.5,0.9-1.8h-5.1v-6.5h13.2v6.5h-5.2c-0.4,0.8-0.6,1.2-0.9,1.8H891.1z M888.5,2011.8v-2.6h-12.5v2.6
			H888.5z M878.2,2000.9v2.4h7.9v-2.4H878.2z"/>
		<path d="M911.6,2014.9h-2.5v-5.6c-2.6,2.4-6.2,4.6-8.2,5.4c-0.9-1.2-1.5-1.6-2-1.9c3.7-1.3,7.1-3.5,8.9-5h-9.3v-2.1h10.5v-1.3
			h-7.5v-2h7.5v-1.2h-9.2v-2.1h6c-0.1-0.2-0.5-1.1-1-1.9l1.4-0.4h-7.7v-2.1h4.3c-0.6-1-1.2-1.8-1.5-2.2l2.1-1.3
			c0.5,0.8,1.3,1.8,1.9,2.9c-0.2,0.1-0.7,0.2-1.3,0.5h2.5v-3.6l2.5,0.1c0.2,0,0.5,0.1,0.5,0.3c0,0.3-0.2,0.3-0.5,0.4v2.6h2.3v-3.5
			l2.5,0.1c0.2,0,0.5,0.1,0.5,0.3c0,0.3-0.4,0.4-0.5,0.5v2.6h2.6c-0.5-0.3-0.9-0.4-1.5-0.5c1-1.5,1.3-1.9,1.7-2.9l2.6,1
			c0.1,0.1,0.2,0.2,0.2,0.3c0,0.3-0.3,0.4-0.8,0.3c-0.4,0.6-0.8,1.2-1.3,1.9h4.6v2.1h-5.7c0.1,0.1,0.2,0.2,0.2,0.3
			c0,0.2-0.1,0.4-0.8,0.4c-0.3,0.6-0.6,1.2-0.8,1.7h5.5v2.1h-8.9v1.2h7.3v2h-7.3v1.3h10.5v2.1H913c1.7,1.6,4.5,3.4,8.9,4.8
			c-1.1,0.9-1.5,1.3-1.8,2c-2-0.7-5.9-2.7-8.5-5.4V2014.9z M907.3,1996.7c0.4,0.7,0.8,1.3,1,2c-0.2,0-0.8,0.2-1.6,0.4h5.5
			c0.4-0.7,0.8-1.5,1.1-2.4H907.3z"/>
		<path d="M943.9,1995.4c0.8,0,1.3-0.2,1.8-0.4l1.5,1.4c-0.4,0.6-0.5,0.9-0.8,1.6c-2.2,5-3.6,8.3-7.1,11.8c-3.2,3.3-6.4,4.6-7.7,5.2
			c-0.6-0.8-1-1.1-2.1-2c8-3.2,11.5-8.4,13.8-15.1h-8.1c-1.8,2.6-3.6,4.8-6.4,7.2c-1.1-1.1-1.1-1.2-2.1-1.9c3.8-3,7.1-7.2,8.9-11.9
			l2.5,1.1c0.1,0.1,0.4,0.2,0.4,0.4c0,0.3-0.4,0.3-0.6,0.3c-0.3,0.5-0.4,0.9-1.1,2.2H943.9z M942.7,1990.5c0.6,0.6,1.7,1.7,2.4,2.5
			c-0.3,0.2-1,0.6-1.6,1.1c-1.1-1.4-1.8-2.1-2.3-2.5L942.7,1990.5z M946.7,1990.2c0.8,0.8,1.9,2,2.4,2.7c-0.4,0.3-0.5,0.3-1.6,1.1
			c-0.2-0.3-1.2-1.7-2.3-2.6L946.7,1990.2z"/>
		<path d="M959.2,1993.2c0.3,0,0.6,0,0.6,0.3c0,0.3-0.3,0.4-0.5,0.5v6.4c0,5.2-1.5,8.7-6.5,12.2c-0.5-0.7-0.9-1-2.2-1.9
			c5.2-3,5.9-6.2,5.9-10v-7.6L959.2,1993.2z M965.4,1992.9c0.3,0,0.5,0,0.5,0.3c0,0.2-0.3,0.3-0.5,0.5v14.8c3.2-1.9,6.3-4.9,8.3-7.8
			c0.7,1.5,0.8,1.7,1.4,2.4c-3,4.2-7.3,7.2-9.2,8.5c-0.9,0.6-1,0.7-1.5,1.1l-1.9-1.3c0.1-0.5,0.1-1.3,0.1-2v-16.7L965.4,1992.9z"/>
		<path d="M1002.2,2001.6v2.8H980v-2.8H1002.2z"/>
		<path d="M1021,1994.5c1.1,0,1.5-0.1,1.8-0.2l2,1.7c-0.4,0.7-0.5,0.9-0.7,1.5c-3.1,8.3-6.4,12.7-14.8,16.8c-0.6-1.1-1.7-1.9-2-2.1
			c3.8-1.6,10.5-4.5,14-15.1h-17v-2.5H1021z M1027.8,1992.5c0,1.3-1,2.4-2.4,2.4c-1.3,0-2.4-1-2.4-2.4c0-1.3,1.1-2.3,2.4-2.3
			C1026.8,1990.1,1027.8,1991.2,1027.8,1992.5z M1024.2,1992.5c0,0.7,0.6,1.3,1.3,1.3s1.3-0.6,1.3-1.3c0-0.7-0.6-1.3-1.3-1.3
			S1024.2,1991.8,1024.2,1992.5z"/>
	</g>
</g>
<g>
	<line class="st0" x1="800.3" y1="2003.4" x2="600.9" y2="2003.4"/>
	<rect x="600.9" y="2002.4" class="st4" width="199.4" height="2"/>
</g>
<g>
	<g>
		<g>
			<path class="st0" d="M600.9,1609.5c0,5.5-4.5,10-10,10H311.7c-5.5,0-10-4.5-10-10v-49.8c0-5.5,4.5-10,10-10h279.2
				c5.5,0,10,4.5,10,10V1609.5z"/>
		</g>
		<path class="st4" d="M590.9,1620.5H311.7c-6,0-11-4.9-11-11v-49.9c0-6,4.9-11,11-11h279.2c6,0,11,4.9,11,11v49.9
			C601.9,1615.6,596.9,1620.5,590.9,1620.5z M311.7,1550.7c-4.9,0-9,4-9,9v49.9c0,4.9,4,9,9,9h279.2c4.9,0,9-4,9-9v-49.9
			c0-4.9-4-9-9-9H311.7z"/>
	</g>
	<g>
		<path d="M407.4,1585.9v9.9h-2.4v-1h-3.4v1.2h-2.4v-6c-0.7,0.9-1.2,1.5-1.7,2c-0.9-1.1-1.6-1.5-2-1.7c1-0.8,3.1-2.5,4.2-6.1H397
			v-2.2h3c0.2-1.2,0.2-1.8,0.2-2.2h-4v-2.2h4v-2.1h-3.1v-2.2h10.2v4.3h1.1v2.2h-1.1v4.4H402c-0.3,1-0.5,1.5-0.6,1.9H407.4z
			 M401.6,1588.3v4.2h3.4v-4.2H401.6z M402.6,1579.7c-0.1,1.2-0.1,1.7-0.2,2.2h2.5v-2.2H402.6z M402.7,1575.4c0,0.5,0,1,0,2.1h2.3
			v-2.1H402.7z M415.6,1582.5h3.6v2.4h-3.6v3.4h4.5v2.4h-4.5v5.2H413v-5.2h-4.6v-2.4h4.6v-3.4h-3.6v-2.4h3.6v-3.5h-3.9v-2.3h2.3
			c-0.7-1.5-1.2-2.2-2.2-3.6l2.1-1.2c0.9,0.9,2,2.8,2.5,3.8c-0.9,0.4-1.5,0.9-1.7,1h2.3c1.4-2.1,2-3.6,2.5-4.7l2.6,1
			c0.1,0.1,0.3,0.2,0.3,0.3c0,0.3-0.4,0.3-0.7,0.3c-0.3,0.5-1.5,2.7-1.7,3.1h2.3v2.3h-4V1582.5z"/>
		<path d="M428.8,1589.4c0.3,0.1,0.7,0.2,0.7,0.5c0,0.3-0.4,0.3-0.7,0.4c-0.8,2.7-2.1,4.7-2.6,5.4c-0.8-0.5-1.5-0.8-2.5-1.1
			c1.5-1.9,2.6-4.1,3-5.9L428.8,1589.4z M444.4,1577v2.1h-6.6v1.8h6.6v2.2h-6.6v2h9.4c-0.1,1.2-0.2,6.1-1.6,8.9
			c-0.3,0.7-1,1.9-4.4,1.9c-0.3,0-0.6,0-0.9,0c-0.1-1.1-0.6-2.2-0.9-2.7c0.7,0.1,1.6,0.2,2.3,0.2c0.6,0,1.3,0,1.7-1
			c0.5-1.1,0.9-3.3,1-5.1h-15v1.1h-2.6V1573h19.5v2.2h-8.5v1.8H444.4z M435.1,1577v-1.8h-5.7v1.8H435.1z M435.1,1580.9v-1.8h-5.7
			v1.8H435.1z M435.1,1585.1v-2h-5.7v2H435.1z M432.3,1589c0.7,2.3,1,4.1,1.1,5.2c-0.3,0-1.6,0.2-2.7,0.5c-0.1-1.9-0.3-3.3-0.8-5.3
			L432.3,1589z M436.7,1588.5c0.5,1.2,1.2,3.3,1.5,4.7c-1.3,0.2-2.1,0.4-2.5,0.6c-0.4-2.3-0.8-3.6-1.3-4.7L436.7,1588.5z
			 M440.9,1587.9c0.5,0.8,1.4,2.7,1.8,4c-0.9,0.2-1.9,0.6-2.3,0.8c-0.5-1.7-0.9-2.7-1.6-4.1L440.9,1587.9z"/>
		<path d="M465.1,1591.5h10.4v2.6h-23.7v-2.6h10.4V1577h-8.7v-2.6h20.2v2.6h-8.7V1591.5z"/>
		<path d="M488.8,1578.1v2.4h-3v6.1c2-0.8,2.2-0.8,3.1-1.2c-0.2,0.6-0.3,1.3-0.3,1.9c0,0.3,0,0.4,0.1,0.6c-2.2,1-6.6,2.6-7.4,2.9
			c0,0.3-0.1,0.7-0.4,0.7c-0.2,0-0.3-0.3-0.4-0.6l-0.6-2.5c1.1-0.2,2.2-0.5,3.3-0.9v-6.9h-3.1v-2.4h3.1v-5.7l2.7,0.2
			c0.2,0,0.5,0.1,0.5,0.3c0,0.2-0.2,0.3-0.6,0.5v4.7H488.8z M491.2,1588.2c-1.6,2-3,3-3.6,3.4c-0.8-0.9-1.3-1.2-1.8-1.4
			c3-2,4.1-3.6,5.2-5.4h-3v-2h15.6v2h-10.2c-0.2,0.4-0.5,0.9-0.8,1.2h10.4c0,3.3-0.5,6.4-0.9,7.7c-0.4,1.2-1,2.2-3.9,2.2
			c-0.3,0-0.5,0-0.9-0.1c-0.1-0.4-0.1-1.1-0.9-2.7c1,0.2,1.9,0.2,2,0.2c0.6,0,1.1,0,1.4-1.3c0.3-1,0.5-2.4,0.6-3.9h-1.2
			c-2.1,4.5-5,7-6.2,8c-0.4-0.4-0.8-0.7-2-1.3c0.6-0.4,3.6-2.4,5.8-6.7h-1.6c-1.1,1.8-2.7,3.7-3.9,4.8c-1,0.9-1.9,1.6-3.3,2.4
			c-0.6-0.7-0.9-1-1.8-1.6c2.7-1.2,4.9-3.2,6.6-5.6H491.2z M501.5,1581.8h-11.4v-8.9h11.4V1581.8z M499,1576.4v-1.5h-6.4v1.5H499z
			 M492.7,1578.2v1.6h6.4v-1.6H492.7z"/>
	</g>
</g>
<rect x="102.3" y="1583.6" class="st4" width="199.4" height="2"/>
<rect x="102.3" y="1444" class="st4" width="199.4" height="2"/>
<g>
	<g>
		<g>
			<path class="st0" d="M600.9,1749.1c0,5.5-4.5,10-10,10H311.7c-5.5,0-10-4.5-10-10v-49.8c0-5.5,4.5-10,10-10h279.2
				c5.5,0,10,4.5,10,10V1749.1z"/>
		</g>
		<path class="st4" d="M590.9,1760.1H311.7c-6,0-11-4.9-11-11v-49.9c0-6,4.9-11,11-11h279.2c6,0,11,4.9,11,11v49.9
			C601.9,1755.2,596.9,1760.1,590.9,1760.1z M311.7,1690.3c-4.9,0-9,4-9,9v49.9c0,4.9,4,9,9,9h279.2c4.9,0,9-4,9-9v-49.9
			c0-4.9-4-9-9-9H311.7z"/>
	</g>
	<g>
		<path d="M403.9,1724.3v8.5c0,1.2,0,3-4.6,2.8c-0.1-0.9-0.4-1.9-0.9-2.6c0.6,0.1,0.9,0.1,1.3,0.1c1.5,0,1.5-0.4,1.5-1.5v-7.3h-11.6
			v-2.2h3c-0.4-0.6-1.5-1.5-1.8-1.7v0.3H388v7.4c0.8-0.3,1.4-0.5,2.6-1c-0.1,0.8-0.1,1.1-0.1,1.4c0,0.5,0,0.8,0.1,1
			c-1.5,0.7-4.7,2-6.9,2.8c-0.1,0.3-0.2,0.6-0.4,0.6c-0.2,0-0.3-0.3-0.4-0.4l-0.4-2.7c0.8-0.2,1.4-0.3,3-0.9v-8.3h-2.9v-2.4h2.9v-6
			l2.9,0.3c0.2,0,0.4,0.1,0.4,0.3c0,0.2-0.1,0.3-0.6,0.6v4.8h3.1v2c1.1-0.5,3-1.4,4.2-3.4h-4.8v-2.2h5.7c0.3-1.3,0.3-2.5,0.2-2.9
			l2.9,0.2c0.2,0,0.5,0.1,0.5,0.3c0,0.3-0.1,0.4-0.6,0.6c-0.2,1.1-0.2,1.4-0.3,1.8h6.7v2.2h-5.1c1.3,1.6,2.4,2.5,4.7,3.4
			c-0.9,0.8-1.2,1.1-1.7,1.8h2.8v2.2H403.9z M394.3,1732.2v1.7h-2.5v-8.3h7.7v6.7H394.3z M397.8,1717.3c-1.5,2.8-3.7,4.1-5,4.8h9.8
			C400.6,1720.9,398.8,1719,397.8,1717.3z M397.2,1727.6h-2.9v2.6h2.9V1727.6z"/>
		<path d="M422.9,1721.9h7.8v2.5h-7.8v7.7h10.7v2.6h-23.8v-2.6h10.3v-7.7h-7.3v-2.5h7.3v-6.2h-8.8v-2.5h20.8v2.5h-9.2V1721.9z
			 M427.4,1724.8c1.5,1.5,3.1,3.7,4,5.1c-0.3,0.2-1.4,1-1.6,1.1c-0.4,0.3-0.6,0.5-0.8,0.7c-1.4-2.5-2-3.3-3.8-5.3L427.4,1724.8z"/>
		<path d="M448,1716c-0.4-0.8-1.4-2.3-2.3-3.3l2.2-1.2c0.6,0.8,1.8,2.3,2.5,3.5c-1.3,0.6-1.5,0.8-1.8,1h3.3c1.7-1.9,2.5-3.3,3-4.1
			l2.2,1.2c0.1,0.1,0.3,0.2,0.3,0.4c0,0.3-0.1,0.3-0.8,0.3c-0.7,1.1-1.1,1.5-1.7,2.2h5.6v5.8h-2.8v-3.6h-17.1v3.6h-2.7v-5.8h4.4
			c-0.3-0.6-1.3-2.1-2.1-2.8l2.2-1.1c0.6,0.7,1.8,2.3,2.4,3.2c-0.7,0.4-0.8,0.4-1.3,0.8H448z M458.1,1727.9v7.7h-2.7v-0.9h-12.5v0.9
			h-2.7v-7.7h6.5c0.1-0.1,0.8-1.5,0.9-1.8h-5.1v-6.5h13.2v6.5h-5.2c-0.4,0.8-0.6,1.2-0.9,1.8H458.1z M455.5,1732.6v-2.6h-12.5v2.6
			H455.5z M445.2,1721.6v2.4h7.9v-2.4H445.2z"/>
		<path d="M478.6,1735.6h-2.5v-5.6c-2.6,2.4-6.2,4.6-8.2,5.4c-0.9-1.2-1.5-1.6-2-1.9c3.7-1.3,7.1-3.5,8.9-5h-9.3v-2.1h10.5v-1.3
			h-7.5v-2h7.5v-1.2h-9.2v-2.1h6c-0.1-0.2-0.5-1.1-1-1.9l1.4-0.4h-7.7v-2.1h4.3c-0.6-1-1.2-1.8-1.5-2.2l2.1-1.3
			c0.5,0.8,1.3,1.8,1.9,2.9c-0.2,0.1-0.7,0.2-1.3,0.5h2.5v-3.6l2.5,0.1c0.2,0,0.5,0.1,0.5,0.3c0,0.3-0.2,0.3-0.5,0.4v2.6h2.3v-3.5
			l2.5,0.1c0.2,0,0.5,0.1,0.5,0.3c0,0.3-0.4,0.4-0.5,0.5v2.6h2.6c-0.5-0.3-0.9-0.4-1.5-0.5c1-1.5,1.3-1.9,1.7-2.9l2.6,1
			c0.1,0.1,0.2,0.2,0.2,0.3c0,0.3-0.3,0.4-0.8,0.3c-0.4,0.6-0.8,1.2-1.3,1.9h4.6v2.1h-5.7c0.1,0.1,0.2,0.2,0.2,0.3
			c0,0.2-0.1,0.4-0.8,0.4c-0.3,0.6-0.6,1.2-0.8,1.7h5.5v2.1h-8.9v1.2h7.3v2h-7.3v1.3h10.5v2.1H480c1.7,1.6,4.5,3.4,8.9,4.8
			c-1.1,0.9-1.5,1.3-1.8,2c-2-0.7-5.9-2.7-8.5-5.4V1735.6z M474.3,1717.5c0.4,0.7,0.8,1.3,1,2c-0.2,0-0.8,0.2-1.6,0.4h5.5
			c0.4-0.7,0.8-1.5,1.1-2.4H474.3z"/>
		<path d="M504.9,1717.7v8.5H498c-0.1,1.8-0.2,6.1-2.1,9.5c-0.9-0.5-1.6-0.7-2.7-0.9c1.8-2.7,2.2-5.8,2.2-9.4v-7.8H504.9z
			 M505.7,1713v2.3h-11.6v-2.3H505.7z M498,1720v3.9h4.3v-3.9H498z M514.7,1735.5h-2.6v-13.3h-2.9c0,2.9-0.1,8.8-5.6,13.6
			c-0.8-0.8-0.9-0.8-2.3-1.6c1.7-1.1,3-2.7,3.9-4.5c0.9-1.7,1.4-3.5,1.4-7v-9.4l2,0.2c1,0,4.6-0.8,6.9-1.9l1.7,2.3
			c0.1,0.1,0.1,0.2,0.1,0.3c0,0.2-0.1,0.3-0.3,0.3c-0.2,0-0.4-0.1-0.7-0.3c-2.4,0.9-4.7,1.4-7.2,1.7v3.8h8.3v2.5h-2.8V1735.5z"/>
	</g>
</g>
<g>
	<g>
		<g>
			<path class="st0" d="M600.9,1888.7c0,5.5-4.5,10-10,10H311.7c-5.5,0-10-4.5-10-10v-49.8c0-5.5,4.5-10,10-10h279.2
				c5.5,0,10,4.5,10,10V1888.7z"/>
		</g>
		<path class="st4" d="M590.9,1899.7H311.7c-6,0-11-4.9-11-11v-49.9c0-6,4.9-11,11-11h279.2c6,0,11,4.9,11,11v49.9
			C601.9,1894.8,596.9,1899.7,590.9,1899.7z M311.7,1829.9c-4.9,0-9,4-9,9v49.9c0,4.9,4,9,9,9h279.2c4.9,0,9-4,9-9v-49.9
			c0-4.9-4-9-9-9H311.7z"/>
	</g>
	<g>
		<path d="M417.6,1863.9v8.5c0,1.2,0,3-4.6,2.8c-0.1-0.9-0.4-1.9-0.9-2.6c0.6,0.1,0.9,0.1,1.3,0.1c1.5,0,1.5-0.4,1.5-1.5v-7.3h-11.6
			v-2.2h3c-0.4-0.6-1.5-1.5-1.8-1.7v0.3h-3.1v7.4c0.8-0.3,1.4-0.5,2.6-1c-0.1,0.8-0.1,1.1-0.1,1.4c0,0.5,0,0.8,0.1,1
			c-1.5,0.7-4.7,2-6.9,2.8c-0.1,0.3-0.2,0.6-0.4,0.6c-0.2,0-0.3-0.3-0.4-0.4l-0.4-2.7c0.8-0.2,1.4-0.3,3-0.9v-8.3h-2.9v-2.4h2.9v-6
			l2.9,0.3c0.2,0,0.4,0.1,0.4,0.3c0,0.2-0.1,0.3-0.6,0.6v4.8h3.1v2c1.1-0.5,3-1.4,4.2-3.4H404v-2.2h5.7c0.3-1.3,0.3-2.5,0.2-2.9
			l2.9,0.2c0.2,0,0.5,0.1,0.5,0.3c0,0.3-0.1,0.4-0.6,0.6c-0.2,1.1-0.2,1.4-0.3,1.8h6.7v2.2h-5.1c1.3,1.6,2.4,2.5,4.7,3.4
			c-0.9,0.8-1.2,1.1-1.7,1.8h2.8v2.2H417.6z M407.9,1871.8v1.7h-2.5v-8.3h7.7v6.7H407.9z M411.4,1856.9c-1.5,2.8-3.7,4.1-5,4.8h9.8
			C414.2,1860.5,412.4,1858.6,411.4,1856.9z M410.8,1867.2h-2.9v2.6h2.9V1867.2z"/>
		<path d="M436.5,1861.5h7.8v2.5h-7.8v7.7h10.7v2.6h-23.8v-2.6h10.3v-7.7h-7.3v-2.5h7.3v-6.2h-8.8v-2.5h20.8v2.5h-9.2V1861.5z
			 M441,1864.4c1.5,1.5,3.1,3.7,4,5.1c-0.3,0.2-1.4,1-1.6,1.1c-0.4,0.3-0.6,0.5-0.8,0.7c-1.4-2.5-2-3.3-3.8-5.3L441,1864.4z"/>
		<path d="M465.2,1870.8h10.4v2.6H452v-2.6h10.4v-14.6h-8.7v-2.6h20.2v2.6h-8.7V1870.8z"/>
		<path d="M488.9,1857.3v2.4h-3v6.1c2-0.8,2.2-0.8,3.1-1.2c-0.2,0.6-0.3,1.3-0.3,1.9c0,0.3,0,0.4,0.1,0.6c-2.2,1-6.6,2.6-7.4,2.9
			c0,0.3-0.1,0.7-0.4,0.7c-0.2,0-0.3-0.3-0.4-0.6l-0.6-2.5c1.1-0.2,2.2-0.5,3.3-0.9v-6.9h-3.1v-2.4h3.1v-5.7l2.7,0.2
			c0.2,0,0.5,0.1,0.5,0.3c0,0.2-0.2,0.3-0.6,0.5v4.7H488.9z M491.4,1867.4c-1.6,2-3,3-3.6,3.4c-0.8-0.9-1.3-1.2-1.8-1.4
			c3-2,4.1-3.6,5.2-5.4h-3v-2h15.6v2h-10.2c-0.2,0.4-0.5,0.9-0.8,1.2h10.4c0,3.3-0.5,6.4-0.9,7.7c-0.4,1.2-1,2.2-3.9,2.2
			c-0.3,0-0.5,0-0.9-0.1c-0.1-0.4-0.1-1.1-0.9-2.7c1,0.2,1.9,0.2,2,0.2c0.6,0,1.1,0,1.4-1.3c0.3-1,0.5-2.4,0.6-3.9h-1.2
			c-2.1,4.5-5,7-6.2,8c-0.4-0.4-0.8-0.7-2-1.3c0.6-0.4,3.6-2.4,5.8-6.7h-1.6c-1.1,1.8-2.7,3.7-3.9,4.8c-1,0.9-1.9,1.6-3.3,2.4
			c-0.6-0.7-0.9-1-1.8-1.6c2.7-1.2,4.9-3.2,6.6-5.6H491.4z M501.6,1861h-11.4v-8.9h11.4V1861z M499.2,1855.6v-1.5h-6.4v1.5H499.2z
			 M492.8,1857.5v1.6h6.4v-1.6H492.8z"/>
	</g>
</g>
<rect x="102.3" y="1862.8" class="st4" width="199.4" height="2"/>
<rect x="102.3" y="1723.2" class="st4" width="199.4" height="2"/>
<g>
	<g>
		<g>
			<path class="st0" d="M600.9,2028.3c0,5.5-4.5,10-10,10H311.7c-5.5,0-10-4.5-10-10v-49.8c0-5.5,4.5-10,10-10h279.2
				c5.5,0,10,4.5,10,10V2028.3z"/>
		</g>
		<path class="st4" d="M590.9,2039.3H311.7c-6,0-11-4.9-11-11v-49.9c0-6,4.9-11,11-11h279.2c6,0,11,4.9,11,11v49.9
			C601.9,2034.4,596.9,2039.3,590.9,2039.3z M311.7,1969.5c-4.9,0-9,4-9,9v49.9c0,4.9,4,9,9,9h279.2c4.9,0,9-4,9-9v-49.9
			c0-4.9-4-9-9-9H311.7z"/>
	</g>
	<g>
		<path d="M392,2003.5h13.1v11.2h-2.4v-1.4h-8.2v1.4H392v-9.8c-0.2,0.2-1.1,1.3-1.6,2c-0.7-0.6-1.3-1.1-2.2-2.2v10h-2.6v-9.2
			c-1.3,1.3-2,1.8-2.5,2.1c-0.2-0.4-0.6-1.1-1.7-2c3.2-1.9,6-5.3,7.1-7.5h-6.2v-2.3h3.3v-4.8l2.6,0.1c0.4,0,0.4,0.2,0.4,0.3
			c0,0.2-0.1,0.2-0.5,0.5v3.9h2.6l1,1.2c-1,2-1.6,3-3,4.8c1.2,1.2,2,1.9,3.1,2.7V2003.5z M405.9,1992v2.2h-14.7v-2.2H405.9z
			 M404.1,2002.1h-10.9v-6.7h10.9V2002.1z M397.4,2007.5v-1.9h-2.9v1.9H397.4z M397.4,2011.3v-2h-2.9v2H397.4z M395.7,1997.4v2.6h6
			v-2.6H395.7z M402.7,2007.5v-1.9h-3v1.9H402.7z M399.7,2009.3v2h3v-2H399.7z"/>
		<path d="M413.2,2014h-2.6v-6.1l2.7,0.2c0.3,0,0.5,0.1,0.5,0.3c0,0.2-0.2,0.3-0.6,0.4v1.9h3.9v-3.1h-3.9v-14.4h4.6
			c0.2-0.5,0.6-1.4,0.9-2.4l3,0.3c0.2,0,0.5,0.1,0.5,0.3c0,0.3-0.4,0.4-0.8,0.5c-0.1,0.3-0.3,0.9-0.6,1.4h9v8.2H416v1.3h17.7v1.7
			H416v1.3h17c-0.1,0.9-0.2,5.7-1.5,7.6c-1,1.4-1.9,1.5-4.9,1.5c-0.1-0.4-0.2-1.2-0.5-2.1h-12.8V2014z M416,1996.5h11.1v-1.4H416
			V1996.5z M427.1,1998.2H416v1.5h11.1V1998.2z M423.6,2010.7v-2.6l2.6,0.2c0.5,0,0.8,0.1,0.8,0.4c0,0.3-0.5,0.4-0.8,0.4v2.9
			c0.5,0.1,1.3,0.2,1.7,0.2c1.1,0,1.3-0.4,1.6-0.9c0.1-0.3,0.5-1.5,0.6-3.7H420c0.4,0.1,0.6,0.2,0.6,0.3c0,0.3-0.5,0.4-0.7,0.4v2.4
			H423.6z"/>
		<path d="M448.3,1995.3c-0.4-0.8-1.4-2.3-2.3-3.3l2.2-1.2c0.6,0.8,1.8,2.3,2.5,3.5c-1.3,0.6-1.5,0.8-1.8,1h3.3
			c1.7-1.9,2.5-3.3,3-4.1l2.2,1.2c0.1,0.1,0.3,0.2,0.3,0.4c0,0.3-0.1,0.3-0.8,0.3c-0.7,1.1-1.1,1.5-1.7,2.2h5.6v5.8H458v-3.6h-17.1
			v3.6h-2.7v-5.8h4.4c-0.3-0.6-1.3-2.1-2.1-2.8l2.2-1.1c0.6,0.7,1.8,2.3,2.4,3.2c-0.7,0.4-0.8,0.4-1.3,0.8H448.3z M458.4,2007.1v7.7
			h-2.7v-0.9h-12.5v0.9h-2.7v-7.7h6.5c0.1-0.1,0.8-1.5,0.9-1.8h-5.1v-6.5H456v6.5h-5.2c-0.4,0.8-0.6,1.2-0.9,1.8H458.4z
			 M455.7,2011.8v-2.6h-12.5v2.6H455.7z M445.5,2000.9v2.4h7.9v-2.4H445.5z"/>
		<path d="M478.8,2014.9h-2.5v-5.6c-2.6,2.4-6.2,4.6-8.2,5.4c-0.9-1.2-1.5-1.6-2-1.9c3.7-1.3,7.1-3.5,8.9-5h-9.3v-2.1h10.5v-1.3
			h-7.5v-2h7.5v-1.2h-9.2v-2.1h6c-0.1-0.2-0.5-1.1-1-1.9l1.4-0.4h-7.7v-2.1h4.3c-0.6-1-1.2-1.8-1.5-2.2l2.1-1.3
			c0.5,0.8,1.3,1.8,1.9,2.9c-0.2,0.1-0.7,0.2-1.3,0.5h2.5v-3.6l2.5,0.1c0.2,0,0.5,0.1,0.5,0.3c0,0.3-0.2,0.3-0.5,0.4v2.6h2.3v-3.5
			l2.5,0.1c0.2,0,0.5,0.1,0.5,0.3c0,0.3-0.4,0.4-0.5,0.5v2.6h2.6c-0.5-0.3-0.9-0.4-1.5-0.5c1-1.5,1.3-1.9,1.7-2.9l2.6,1
			c0.1,0.1,0.2,0.2,0.2,0.3c0,0.3-0.3,0.4-0.8,0.3c-0.4,0.6-0.8,1.2-1.3,1.9h4.6v2.1h-5.7c0.1,0.1,0.2,0.2,0.2,0.3
			c0,0.2-0.1,0.4-0.8,0.4c-0.3,0.6-0.6,1.2-0.8,1.7h5.5v2.1h-8.9v1.2h7.3v2h-7.3v1.3h10.5v2.1h-9.1c1.7,1.6,4.5,3.4,8.9,4.8
			c-1.1,0.9-1.5,1.3-1.8,2c-2-0.7-5.9-2.7-8.5-5.4V2014.9z M474.6,1996.7c0.4,0.7,0.8,1.3,1,2c-0.2,0-0.8,0.2-1.6,0.4h5.5
			c0.4-0.7,0.8-1.5,1.1-2.4H474.6z"/>
		<path d="M505.2,1996.9v8.5h-6.9c-0.1,1.8-0.2,6.1-2.1,9.5c-0.9-0.5-1.6-0.7-2.7-0.9c1.8-2.7,2.2-5.8,2.2-9.4v-7.8H505.2z
			 M505.9,1992.2v2.3h-11.6v-2.3H505.9z M498.3,1999.2v3.9h4.3v-3.9H498.3z M515,2014.7h-2.6v-13.3h-2.9c0,2.9-0.1,8.8-5.6,13.6
			c-0.8-0.8-0.9-0.8-2.3-1.6c1.7-1.1,3-2.7,3.9-4.5c0.9-1.7,1.4-3.5,1.4-7v-9.4l2,0.2c1,0,4.6-0.8,6.9-1.9l1.7,2.3
			c0.1,0.1,0.1,0.2,0.1,0.3c0,0.2-0.1,0.3-0.3,0.3c-0.2,0-0.4-0.1-0.7-0.3c-2.4,0.9-4.7,1.4-7.2,1.7v3.8h8.3v2.5H515V2014.7z"/>
	</g>
</g>
<g>
	<g>
		<g>
			<path class="st0" d="M600.9,2167.9c0,5.5-4.5,10-10,10H311.7c-5.5,0-10-4.5-10-10v-49.8c0-5.5,4.5-10,10-10h279.2
				c5.5,0,10,4.5,10,10V2167.9z"/>
		</g>
		<path class="st4" d="M590.9,2178.9H311.7c-6,0-11-4.9-11-11v-49.9c0-6,4.9-11,11-11h279.2c6,0,11,4.9,11,11v49.9
			C601.9,2174,596.9,2178.9,590.9,2178.9z M311.7,2109.1c-4.9,0-9,4-9,9v49.9c0,4.9,4,9,9,9h279.2c4.9,0,9-4,9-9v-49.9
			c0-4.9-4-9-9-9H311.7z"/>
	</g>
	<g>
		<path d="M406,2143.1h13.1v11.2h-2.4v-1.4h-8.2v1.4H406v-9.8c-0.2,0.2-1.1,1.3-1.6,2c-0.7-0.6-1.3-1.1-2.2-2.2v10h-2.6v-9.2
			c-1.3,1.3-2,1.8-2.5,2.1c-0.2-0.4-0.6-1.1-1.7-2c3.2-1.9,6-5.3,7.1-7.5h-6.2v-2.3h3.3v-4.8l2.6,0.1c0.4,0,0.4,0.2,0.4,0.3
			c0,0.2-0.1,0.2-0.5,0.5v3.9h2.6l1,1.2c-1,2-1.6,3-3,4.8c1.2,1.2,2,1.9,3.1,2.7V2143.1z M419.9,2131.6v2.2h-14.7v-2.2H419.9z
			 M418.1,2141.7h-10.9v-6.7h10.9V2141.7z M411.4,2147.1v-1.9h-2.9v1.9H411.4z M411.4,2150.9v-2h-2.9v2H411.4z M409.7,2137v2.6h6
			v-2.6H409.7z M416.7,2147.1v-1.9h-3v1.9H416.7z M413.7,2148.9v2h3v-2H413.7z"/>
		<path d="M427.2,2153.7h-2.6v-6.1l2.7,0.2c0.3,0,0.5,0.1,0.5,0.3c0,0.2-0.2,0.3-0.6,0.4v1.9h3.9v-3.1h-3.9v-14.4h4.6
			c0.2-0.5,0.6-1.4,0.9-2.4l3,0.3c0.2,0,0.5,0.1,0.5,0.3c0,0.3-0.4,0.4-0.8,0.5c-0.1,0.3-0.3,0.9-0.6,1.4h9v8.2H430v1.3h17.7v1.7
			H430v1.3h17c-0.1,0.9-0.2,5.7-1.5,7.6c-1,1.4-1.9,1.5-4.9,1.5c-0.1-0.4-0.2-1.2-0.5-2.1h-12.8V2153.7z M430,2136.1h11.1v-1.4H430
			V2136.1z M441.1,2137.8H430v1.5h11.1V2137.8z M437.6,2150.3v-2.6l2.6,0.2c0.5,0,0.8,0.1,0.8,0.4c0,0.3-0.5,0.4-0.8,0.4v2.9
			c0.5,0.1,1.3,0.2,1.7,0.2c1.1,0,1.3-0.4,1.6-0.9c0.1-0.3,0.5-1.5,0.6-3.7H434c0.4,0.1,0.6,0.2,0.6,0.3c0,0.3-0.5,0.4-0.7,0.4v2.4
			H437.6z"/>
		<path d="M465.1,2150h10.4v2.6h-23.7v-2.6h10.4v-14.6h-8.7v-2.6h20.2v2.6h-8.7V2150z"/>
		<path d="M488.8,2136.5v2.4h-3v6.1c2-0.8,2.2-0.8,3.1-1.2c-0.2,0.6-0.3,1.3-0.3,1.9c0,0.3,0,0.4,0.1,0.6c-2.2,1-6.6,2.6-7.4,2.9
			c0,0.3-0.1,0.7-0.4,0.7c-0.2,0-0.3-0.3-0.4-0.6l-0.6-2.5c1.1-0.2,2.2-0.5,3.3-0.9v-6.9h-3.1v-2.4h3.1v-5.7l2.7,0.2
			c0.2,0,0.5,0.1,0.5,0.3c0,0.2-0.2,0.3-0.6,0.5v4.7H488.8z M491.3,2146.6c-1.6,2-3,3-3.6,3.4c-0.8-0.9-1.3-1.2-1.8-1.4
			c3-2,4.1-3.6,5.2-5.4h-3v-2h15.6v2h-10.2c-0.2,0.4-0.5,0.9-0.8,1.2h10.4c0,3.3-0.5,6.4-0.9,7.7c-0.4,1.2-1,2.2-3.9,2.2
			c-0.3,0-0.5,0-0.9-0.1c-0.1-0.4-0.1-1.1-0.9-2.7c1,0.2,1.9,0.2,2,0.2c0.6,0,1.1,0,1.4-1.3c0.3-1,0.5-2.4,0.6-3.9h-1.2
			c-2.1,4.5-5,7-6.2,8c-0.4-0.4-0.8-0.7-2-1.3c0.6-0.4,3.6-2.4,5.8-6.7h-1.6c-1.1,1.8-2.7,3.7-3.9,4.8c-1,0.9-1.9,1.6-3.3,2.4
			c-0.6-0.7-0.9-1-1.8-1.6c2.7-1.2,4.9-3.2,6.6-5.6H491.3z M501.5,2140.2h-11.4v-8.9h11.4V2140.2z M499.1,2134.8v-1.5h-6.4v1.5
			H499.1z M492.7,2136.7v1.6h6.4v-1.6H492.7z"/>
	</g>
</g>
<rect x="102.3" y="2142" class="st4" width="199.4" height="2"/>
<rect x="102.3" y="2002.4" class="st4" width="199.4" height="2"/>
<g>
	<g>
		<g>
			<path class="st0" d="M600.9,632.3c0,5.5-4.5,10-10,10H311.7c-5.5,0-10-4.5-10-10v-49.8c0-5.5,4.5-10,10-10h279.2
				c5.5,0,10,4.5,10,10V632.3z"/>
		</g>
		<path class="st3" d="M590.9,643.3H311.7c-6,0-11-4.9-11-11v-49.9c0-6,4.9-11,11-11h279.2c6,0,11,4.9,11,11v49.9
			C601.9,638.3,596.9,643.3,590.9,643.3z M311.7,573.5c-4.9,0-9,4-9,9v49.9c0,4.9,4,9,9,9h279.2c4.9,0,9-4,9-9v-49.9c0-4.9-4-9-9-9
			H311.7z"/>
	</g>
	<g>
		<path class="st3" d="M327.4,610.1c0.2,0,0.4,0.2,0.4,0.4c0,0.2-0.2,0.3-0.5,0.4c-0.3,1.9-0.6,3.8-1.4,5.9
			c-0.7-0.3-1.3-0.5-2.1-0.6c0.7-1.5,1.3-4.5,1.5-6.4L327.4,610.1z M333,598.5c0.2,0.1,0.5,0.2,0.5,0.4c0,0.2-0.3,0.3-0.7,0.3
			c-0.5,0.9-2.1,3.7-4.2,6.8c2.2-0.1,2.4-0.1,2.7-0.2c-0.1-0.3-0.5-1.7-0.6-2l1.8-0.8c0.5,1.1,1.3,3.5,1.6,4.9
			c-0.6,0.2-1.3,0.4-2.1,0.8c-0.1-0.3-0.1-0.4-0.2-1c-0.2,0-1.1,0.2-1.3,0.2v10.8h-2.5v-10.5c-1.3,0.2-2,0.2-2.7,0.3
			c-0.2,0.5-0.2,0.7-0.5,0.7c-0.3,0-0.4-0.3-0.4-0.6l-0.3-2.4c0.5,0,0.9,0,1.9,0c0.4-0.5,0.7-1,1.6-2.5c-1.1-1.2-2.4-2.2-3.7-3.2
			l1.5-2.1c0.3,0.2,0.5,0.4,1,0.8c0.1-0.2,1.4-2.6,2.1-4.4l2.2,0.8c0.2,0.1,0.3,0.2,0.3,0.4c0,0.2-0.3,0.3-0.7,0.3
			c-0.9,1.8-1,2.1-2.3,4.3c0.6,0.5,0.8,0.7,1,0.9c1.5-2.6,1.7-2.9,2-3.8L333,598.5z M333.2,609c0.2,1.7,0.6,3.6,0.8,4.4
			c0.6-1.6,0.8-2.5,0.8-3l1.6,0.5c0.6,0.2,0.8,0.2,0.8,0.5c0,0.3-0.4,0.3-0.6,0.4c-0.4,1.9-1,3.8-1.8,5.5c-0.8-0.5-1-0.6-2-1
			c0.2-0.4,0.5-0.9,1.1-2.3c-0.6,0.2-1,0.4-1.6,0.6c-0.7-2.7-0.9-4.4-1-5.2L333.2,609z M339.5,596c0.3,0.1,0.5,0.3,0.5,0.5
			c0,0.2-0.2,0.2-0.8,0.3c-1.3,2.4-2.4,4.1-3.9,5.9c-0.8-0.6-1.1-0.8-2-1.3c1-1.2,3-3.8,3.9-6.3L339.5,596z M343.7,601.7
			c1.6,1.8,3,4.1,3.9,5.8c-0.9,0.4-1.3,0.7-2.2,1.3c-0.2-0.4-0.4-1-1.1-2.1c-1.3,0.2-7.3,0.8-8.5,0.9c-0.1,0.1-0.2,0.5-0.6,0.5
			c-0.2,0-0.3-0.1-0.4-0.4l-0.6-2.5c0.4,0,2.2-0.1,2.5-0.1c0.1-0.1,1.8-3.5,2.5-6.5l2.5,0.9c0.3,0.1,0.4,0.2,0.4,0.3
			c0,0.3-0.1,0.3-0.8,0.5c-0.4,0.7-1.9,4-2.3,4.6c2.1-0.2,2.4-0.2,3.8-0.3c-0.7-1.1-1-1.5-1.4-1.9L343.7,601.7z M339.6,610
			c0.4,0.1,0.9,0.1,0.9,0.5c0,0.2-0.1,0.3-0.7,0.4v4.4c0,0.8,0.3,0.8,1.2,0.8c1.4,0,1.5-0.3,1.8-2.4c0.8,0.7,1.2,0.9,2.3,1
			c-0.8,3.5-1.8,3.6-3.6,3.6c-2.8,0-4.3,0-4.3-2.4v-6.3L339.6,610z M341,607.5c0.9,0.9,2.2,2.4,2.6,3c-1,0.8-1.2,1-1.7,1.6
			c-0.7-1.1-1.7-2.2-2.5-3.1L341,607.5z M343.9,595.1c0.9,1.7,2.3,3.8,4.3,5.5c-0.8,0.3-1.6,0.9-2.1,1.4c-1.6-1.5-3.1-3.7-4.2-5.8
			L343.9,595.1z M345.9,610.2c0.3,0.5,1.7,3,2.3,5.3c-0.6,0.2-1.8,0.9-2.1,1.1c-0.9-2.8-1.6-4.3-2.3-5.4L345.9,610.2z"/>
		<path class="st3" d="M375.6,608c-2.7-0.7-4.5-1.9-5.7-2.7c-0.6,0.5-1.2,1-1.9,1.4l2.6,0.4c0.3,0,0.5,0.1,0.5,0.4
			c0,0.3-0.3,0.4-0.6,0.5c-0.1,0.5-0.1,0.7-0.2,1.2h5.6c0,1.6-0.4,6.5-1.3,8.2c-0.8,1.4-2.4,1.5-4.4,1.5c-0.1-0.8-0.4-1.8-0.9-2.6
			c0.3,0.1,0.9,0.2,1.7,0.2c1,0,1.5-0.2,1.8-1.3c0.1-0.4,0.4-1.8,0.4-3.7h-3.3c-1.3,4.4-4.4,6.6-6,7.5c-0.5-0.8-1.1-1.5-2-1.9
			c2.7-1.3,4.5-3.2,5.3-5.6h-3.8v-2.3h4.3c0.1-0.4,0.2-1.1,0.2-2.1v-0.3c-0.8,0.5-1.6,0.8-2.7,1.3c-0.4-0.8-1-1.6-1.5-2
			c-0.6,1.5-1.4,3-1.6,3.4c-0.2-0.2-1.3-1-2.1-1c1-1.3,1.5-2.6,1.6-3.1h-1.8v10.3c0,2-0.2,3.3-4.4,3.2c-0.2-1.1-0.6-2.2-0.9-2.7
			c0.8,0.2,1.5,0.2,1.8,0.2c1,0,1-0.5,1-1v-6.3c-0.9,2.2-2.3,3.9-3.1,5c-0.7-0.6-1.3-1.1-2-1.4c1.1-1.1,3.1-3.6,4.4-7.3h-3.7v-2.2
			h5.3c-2.1-1.8-3.6-2.5-4.2-2.8l1.3-1.8c0.8,0.3,1.6,0.7,2.7,1.4c0.6-0.5,0.8-0.8,1.7-1.9h-6.3v-2h9.2l0.8,1
			c-1.2,1.6-2.3,2.8-3.7,4.1c0.6,0.5,1,0.8,1.3,1c-0.2,0.3-0.6,0.7-0.9,1.1h3.3l1.1,0.9c-0.1,0.5-0.5,1.4-0.7,1.9
			c1.7-0.3,3.3-1.2,4.7-2.3c-0.6-0.7-1.5-1.8-2.1-3.2c-0.5,0.7-0.9,1.2-1.7,2c-0.5-0.5-1-0.8-2-1.2c2-1.7,3.8-4.7,4.4-6.5l2.3,0.6
			c0.2,0,0.5,0.1,0.5,0.3c0,0.3-0.5,0.4-0.8,0.4c-0.1,0.1-0.5,0.8-0.7,1.2h8.1v2.1h-2c-0.9,1.8-1.7,3-2.7,4.1c2,1.4,4.1,2,5.4,2.3
			C376.4,606.4,376,607,375.6,608z M368,599.4c0.4,0.8,0.9,1.7,1.9,2.7c0.6-0.6,1.3-1.6,1.9-2.7H368z"/>
		<path class="st3" d="M388.7,604.7c0.3-0.5,1.2-2.5,1.7-4.8l2.5,1.1c0.2,0.1,0.3,0.2,0.3,0.4c0,0.3-0.4,0.3-0.6,0.3
			c-0.4,1.2-0.7,1.8-1.4,3.1h3.3v2.2h-13.2v-2.2h3.3c-0.5-1.8-1.4-3.3-1.6-3.8l2.2-1c0.9,1.6,1.3,2.5,1.8,4l-2,0.8H388.7z
			 M394,597.7v2.1h-11.9v-2.1h4.5v-2.8l2.9,0.1c0.2,0,0.5,0.1,0.5,0.4c0,0.3-0.2,0.3-0.6,0.5v1.8H394z M393.1,618.7h-2.7v-1.4h-4.8
			v1.4h-2.7v-10.4h10.2V618.7z M385.6,610.7v4.4h4.8v-4.4H385.6z M405.2,597.4c-0.8,2-1.7,3.8-3.3,7.1c1.2,1.2,3.4,3.4,3.4,6.8
			c0,3.7-2.1,4.9-5.5,5c-0.3-1.5-0.9-2.2-1.6-2.9c1,0.1,1.4,0.1,1.9,0.1c1.9,0,2.6-0.8,2.6-2.2c0-2.8-2.6-5.4-3.7-6.4
			c1.2-2,2.5-5,2.9-6.4h-3.7v20.2h-2.6v-22.6h8.4L405.2,597.4z"/>
		<path class="st3" d="M424.3,606.9c0,1.3-1.1,2.3-2.3,2.3c-1.2,0-2.3-1-2.3-2.3c0-1.3,1.1-2.3,2.3-2.3
			C423.3,604.6,424.3,605.6,424.3,606.9z"/>
		<path class="st3" d="M447.7,598.6c0.2,0.1,0.4,0.3,0.4,0.4c0,0.3-0.5,0.3-0.7,0.3c-0.9,1.4-2.5,3.9-4.5,6.4
			c1.4-0.1,1.6-0.1,2.9-0.3c-0.2-0.8-0.4-1.4-0.6-1.9l1.9-0.6c0.5,1.4,1.2,3.4,1.6,4.9c-0.3,0.1-1,0.1-2.3,0.6
			c-0.1-0.5-0.1-0.8-0.2-1.2c-0.8,0.2-0.9,0.2-1.3,0.2v11.3h-2.4v-11c-0.4,0.1-2.4,0.3-2.8,0.4c-0.1,0.2-0.3,0.6-0.6,0.6
			c-0.2,0-0.3-0.4-0.3-0.5l-0.4-2.4c0.3,0,0.5,0,1.8-0.1c0.8-1.1,1.1-1.4,1.6-2.1c-2.2-2.1-3.1-2.6-3.8-3l1.5-2.1
			c0.5,0.3,0.7,0.5,1,0.7c0.3-0.4,1.6-2.3,2.6-4.7l2.3,1c0.2,0.1,0.3,0.2,0.3,0.4c0,0.3-0.5,0.3-0.7,0.3c-1.1,2-1.6,2.9-2.8,4.4
			c0.6,0.5,0.8,0.7,1.1,1c0.9-1.3,1.8-2.7,2.5-4.1L447.7,598.6z M441.7,609.6c0.2,0,0.4,0.2,0.4,0.4c0,0.2-0.3,0.3-0.5,0.4
			c-0.3,2-0.9,4.5-1.4,5.8c-0.3-0.2-0.9-0.4-2.2-0.6c0.8-1.8,1.4-4.3,1.7-6.2L441.7,609.6z M447.9,608.9c0.2,1.4,0.8,3.8,1.2,5
			c-1,0.2-1.8,0.5-2.3,0.7c-0.6-1.9-0.9-3.1-1.2-5.2L447.9,608.9z M456.6,615.6h6v2.4h-14.5v-2.4h5.9v-3.8h-4.4v-2.4h4.4v-2.7
			l2.6,0.2c0.3,0,0.5,0.2,0.5,0.4c0,0.2-0.2,0.3-0.5,0.4v1.7h4.6v2.4h-4.6V615.6z M452.4,598.1c0.4,0.6,1.3,2,2.7,3.3
			c1.6-1.5,2.3-2.7,2.8-3.4H449v-2.2h11.1l1.3,1.3c-0.5,0.9-1.8,3.3-4.5,5.8c2.1,1.4,4,2.1,5.9,2.6c-0.8,0.9-1.1,1.6-1.4,2.2
			c-2.2-0.7-4.6-1.9-6.3-3.2c-1.8,1.5-3.5,2.3-5.4,3c-0.4-1.1-0.7-1.5-1.5-2.2c1.5-0.4,3-1,5-2.3c-1.3-1.3-2.1-2.3-2.8-3.5
			L452.4,598.1z"/>
		<path class="st3" d="M473.1,604.6h2.6v2.3h-2.6v5.6c2.3-0.7,2.5-0.8,3.2-1.1c-0.2,0.8-0.2,1.1-0.2,2.5c-1.5,0.6-5.1,1.8-7.9,2.7
			c-0.2,0.5-0.3,0.6-0.5,0.6c-0.2,0-0.4-0.1-0.5-0.6l-0.6-2.3c1.7-0.3,3.4-0.8,3.7-0.9v-6.4h-2.6v-2.3h2.6v-5.8h-3.2v-2.3h9v2.3
			h-3.1V604.6z M491.3,615.7v2.3h-15.4v-2.3h6.5v-2.9h-4.7v-2.3h4.7v-2.8h-5v-11.8h12.8v11.8h-5.2v2.8h5.1v2.3h-5.1v2.9H491.3z
			 M482.4,600.8v-2.7h-2.6v2.7H482.4z M479.8,602.9v2.8h2.6v-2.8H479.8z M487.7,600.8v-2.7h-2.8v2.7H487.7z M484.9,602.9v2.8h2.8
			v-2.8H484.9z"/>
		<path class="st3" d="M517.5,596.5v1.8h-8.8v1.2h7.1v1.6h-7.1v1.3h10.4v1.8h-23.5v-1.8h10.3v-1.3h-6.9v-1.6h6.9v-1.2h-8.8v-1.8h8.8
			v-1.7l2.9,0.1c0.3,0,0.6,0,0.6,0.3c0,0.3-0.3,0.4-0.7,0.5v0.7H517.5z M509.7,614.6h-4.6l0.8,0.6c0.2,0.2,0.3,0.3,0.3,0.4
			c0,0.2-0.2,0.3-0.4,0.3c-0.1,0-0.3,0-0.5-0.1c-2,1.2-5.2,2.6-7.1,3c-0.3-0.6-0.6-1.2-1.8-2.4c1.7-0.3,3.3-0.5,6-1.9h-3.1v-9.4
			h16.1v9.4h-3.9c2.1,1.1,4.9,1.8,6.5,2c-0.9,0.8-1.4,1.8-1.6,2.2c-2.4-0.5-5.1-1.3-7.6-3.1L509.7,614.6z M512.8,607.9v-1.1h-10.9
			v1.1H512.8z M501.9,609.2v1.1h10.9v-1.1H501.9z M501.9,611.7v1.2h10.9v-1.2H501.9z"/>
		<path class="st3" d="M529.5,618.7h-2.7v-13.5c-1.1,1.7-1.6,2.3-1.9,2.7c-0.7-0.8-1.7-1.5-2.2-1.7c1.9-2.1,4.8-6.6,6.1-11.5
			l2.5,0.7c0.4,0.1,0.6,0.2,0.6,0.5c0,0.3-0.4,0.4-0.7,0.3c-0.9,2.4-1.3,3.4-1.9,4.6c0.4,0.1,0.8,0.3,0.8,0.5c0,0.2-0.3,0.4-0.6,0.5
			V618.7z M546.7,596.8c0.2,0.2,0.3,0.3,0.3,0.5c0,0.2-0.1,0.3-0.3,0.3c-0.2,0-0.4-0.1-0.6-0.2c-0.9,0.4-2.8,1.1-5.2,1.6v6.3h6.8
			v2.4h-6.8v7.6h6.2v2.5h-15.2v-2.5h6.2v-7.6H531v-2.4h7.1v-5.8c-2,0.2-3.3,0.4-5.7,0.4c-0.2-0.9-0.5-1.6-1.2-2.5
			c0.4,0,0.8,0.1,1.4,0.1c0.9,0,6.7,0,12.2-2.6L546.7,596.8z"/>
		<path class="st3" d="M573.4,596.4c0.2,0.1,0.4,0.2,0.4,0.4c0,0.2-0.1,0.3-0.4,0.3c-0.1,0-0.3,0-0.5-0.1c-0.6,1-2,3.1-4,5.3h6.8
			v2.3h-9.1c-1,1-2.3,1.9-3,2.4h9.2v11.6h-2.6v-1.2h-10v1.2h-2.6v-8.2c-2.5,1.1-3.8,1.5-4.6,1.7c-0.2-0.4-0.6-1.5-1.5-2.5
			c4.5-1,8.6-3.1,11.2-5H552v-2.3h9.6v-2.5h-7.3v-2.3h7.3V595l2.8,0.1c0.3,0,0.5,0.2,0.5,0.3c0,0.2-0.2,0.3-0.6,0.4v1.8h3.9v1.7
			c1.7-2.1,2.4-3.5,2.7-4.1L573.4,596.4z M570.1,611.2v-2h-10v2H570.1z M570.1,615.4v-2.1h-10v2.1H570.1z M565.4,602.3
			c1.3-1.3,1.9-2,2.4-2.5h-3.4v2.5H565.4z"/>
	</g>
</g>
<g>
	<line class="st0" x1="301.7" y1="607.4" x2="102.3" y2="607.4"/>
	<g>
		<rect x="298.2" y="606.4" class="st4" width="3.5" height="2"/>
		<path class="st4" d="M291.1,608.4h-7.1v-2h7.1V608.4z M276.8,608.4h-7.1v-2h7.1V608.4z M262.5,608.4h-7.1v-2h7.1V608.4z
			 M248.3,608.4h-7.1v-2h7.1V608.4z M234,608.4h-7.1v-2h7.1V608.4z M219.8,608.4h-7.1v-2h7.1V608.4z M205.5,608.4h-7.1v-2h7.1V608.4
			z M191.3,608.4h-7.1v-2h7.1V608.4z M177,608.4h-7.1v-2h7.1V608.4z M162.8,608.4h-7.1v-2h7.1V608.4z M148.5,608.4h-7.1v-2h7.1
			V608.4z M134.3,608.4h-7.1v-2h7.1V608.4z M120,608.4h-7.1v-2h7.1V608.4z"/>
		<rect x="102.3" y="606.4" class="st4" width="3.5" height="2"/>
	</g>
</g>
</svg>
