<?xml version="1.0" encoding="utf-8"?>
<!-- Generator: Adobe Illustrator 27.4.1, SVG Export Plug-In . SVG Version: 6.00 Build 0)  -->
<svg version="1.1" id="レイヤー_1" xmlns="http://www.w3.org/2000/svg" xmlns:xlink="http://www.w3.org/1999/xlink" x="0px"
	 y="0px" viewBox="0 0 1100 240" style="enable-background:new 0 0 1100 240;" xml:space="preserve">
<style type="text/css">
	.st0{fill:#E95520;}
	.st1{fill:#FFFFFF;}
	.st2{font-family:'HiraginoSansPr6N-W3-83pv-RKSJ-H';}
	.st3{font-size:18px;}
	.st4{letter-spacing:-9;}
	.st5{letter-spacing:4;}
	.st6{font-size:23px;}
	.st7{letter-spacing:-11.2;}
	.st8{font-size:24px;}
</style>
<g>
	<circle class="st0" cx="120" cy="120" r="120"/>
	<g>
		<text transform="matrix(1 0 0 1 56.9995 173.9095)"><tspan x="0" y="0" class="st1 st2 st3">鉄鋼メーカーの</tspan><tspan x="4.5" y="27" class="st1 st2 st3">母材（原材料</tspan><tspan x="112.5" y="27" class="st1 st2 st3 st4">）</tspan></text>
	</g>
</g>
<g>
	<circle class="st0" cx="406.7" cy="120" r="120"/>
	<text transform="matrix(1 0 0 1 316.6666 173.9098)"><tspan x="0" y="0" class="st1 st2 st3">ユーザーが求める形に</tspan><tspan x="40.8" y="27" class="st1 st2 st3">加</tspan><tspan x="58.8" y="27" class="st1 st2 st3 st5">工(</tspan><tspan x="92.2" y="27" class="st1 st2 st3">切</tspan><tspan x="110.2" y="27" class="st1 st2 st3 st5">断</tspan><tspan x="132.8" y="27" class="st1 st2 st3">)</tspan></text>
</g>
<g>
	<circle class="st0" cx="693.3" cy="120" r="120"/>
	<text transform="matrix(1 0 0 1 647.3333 171.9094)" class="st1 st2 st6">ユーザー</text>
	<text transform="matrix(0.8 0 0 0.8 596.9724 200.9094)" class="st1 st2 st6">（製品/部品メーカー</text>
	<text transform="matrix(0.8 0 0 0.8 771.2932 200.9094)" class="st1 st2 st6 st7">）</text>
</g>
<g>
	<circle class="st0" cx="980" cy="120" r="120"/>
	<text transform="matrix(1 0 0 1 932.7927 199.6159)" class="st1 st2 st8">最終製品</text>
</g>
<g>
	<rect x="244.5" y="108.7" class="st0" width="20.8" height="22.6"/>
	<polygon class="st0" points="262.2,140 262.2,100 282.2,120 	"/>
</g>
<g>
	<rect x="531.2" y="108.7" class="st0" width="20.8" height="22.6"/>
	<polygon class="st0" points="548.8,140 548.8,100 568.8,120 	"/>
</g>
<g>
	<rect x="817.8" y="108.7" class="st0" width="20.8" height="22.6"/>
	<polygon class="st0" points="835.5,140 835.5,100 855.5,120 	"/>
</g>
<g>
	<path class="st1" d="M407.7,32.2c1.8-2.6,5.2-5.4,8.8-6.4c12.9-3.5,30.3,12.8,39.6,38.7c9.3,25.9,6.6,50.5-6,55
		c-12.6,4.5-30.3-12.8-39.6-38.6l-2.9-7.5c0,0,5.2-14.9,7.9-22.4c1.9,4.4,4.4,10.3,7.6,18.3c7.9,19.6,12.7,29.3,19.1,27.8
		c3.8-0.9,5-15-2.5-33.5c-7.5-18.6-16.4-23.4-19.8-22c-2.9,1.2-4.2,3.3-4.5,4.4c-4.6,10.6-12.6,34.9-12.6,34.9
		c-9.3,25.9-27,43.2-39.6,38.6c-12.6-4.5-15.3-29.1-6-55s26.7-42.2,39.6-38.7c3.6,1,6.4,3.3,8.4,6.6c0,0-4.6,6.8-7.2,13.6
		c-0.4-1.1-1.7-3.1-4.5-4.4c-3.4-1.5-12.3,3.4-19.8,22c-7.5,18.6-6.3,32.7-2.5,33.5c6.4,1.4,11.2-8.2,19.1-27.8
		c7.9-19.6,11.4-27,13-29.8C406.2,34.2,407.7,32.2,407.7,32.2z"/>
	<polygon class="st1" points="461.2,129.1 454.3,129.1 450.7,133.2 447.1,129.1 440.2,129.1 447.2,137.2 440.2,145.3 447.1,145.3 
		450.7,141.2 454.3,145.3 461.2,145.3 454.1,137.2 	"/>
	<path class="st1" d="M409.9,128.4v-1.6H404V141c0,0-0.1,2.1,1.2,3.3c1.3,1.2,2.8,1.1,2.8,1.1h0.6v0h10.3v-4.1h-8.3
		c0,0-0.3,0.1-0.5-0.1c-0.2-0.2-0.2-0.5-0.2-0.5V134c0,0,0-0.3,0.2-0.5c0.2-0.2,0.4-0.1,0.4-0.1h8.3V129h-8.3c0,0-0.4,0-0.5-0.1
		C409.9,128.8,409.9,128.4,409.9,128.4z"/>
	<path class="st1" d="M398.3,129.1h-0.8v0h-14.8v4.4h13.5c0,0,0.4,0.1,0.5,0.2c0.1,0.2,0.2,0.4,0.2,0.4v0.5c0,0,0,0.2-0.2,0.4
		c-0.2,0.2-0.4,0.3-0.4,0.3l-6.6,0l-2.1,0c-0.3,0-0.7,0-1.7,0c-2.1,0-3.7,2.4-3.7,5.2c0,2.7,1.5,4.9,3.7,4.9c1.7,0,2.9,0,3.5,0h7.6
		l-0.1,0h5.9v-12.2c0,0,0-1.5-1.4-2.9C400,129,398.3,129.1,398.3,129.1z M395.7,141.7h-6.3v0c-2,0-1.9-2.8,0-2.8c0,0,0,0,0.1,0h6.2
		c0,0,0.5,0.1,0.7,0.3c0.3,0.2,0.4,0.7,0.4,0.7v1c0,0-0.1,0.4-0.3,0.6C396.2,141.7,395.7,141.7,395.7,141.7z"/>
	<path class="st1" d="M377,129.1h-0.1h-25v16.3h5.9v-11.4c0,0,0-0.2,0.2-0.4c0.2-0.2,0.4-0.1,0.4-0.1h4.5c0,0,0.4,0,0.5,0.1
		c0.2,0.2,0.1,0.5,0.1,0.5v11.3h5.9v-11.5c0,0,0-0.2,0.1-0.3c0.1-0.1,0.4-0.1,0.4-0.1h4.6c0,0,0.3,0,0.5,0.1
		c0.2,0.2,0.1,0.4,0.1,0.4v11.5h5.9v-12.1c0,0,0.1-1.2-1-2.7C378.7,128.9,377,129.1,377,129.1z"/>
	<path class="st1" d="M426,139.4h7.7v0c0.6,0,0.6,0,2.6,0c1.8,0,3.7-2,3.7-5.3c0-3.2-1.9-5.1-3.6-5.1c-1,0-1.6,0-1.9,0v0h-9h-0.3
		h-0.5c0,0-2.6-0.2-3.8,1.2c-1.4,1.4-1.3,3.3-1.3,3.3v7.5c0,0-0.1,2.1,1.2,3.3c1.3,1.2,2.8,1.1,2.8,1.1h1.2v0h14.8V141h-13.5
		c0,0-0.3,0-0.4-0.2c-0.2-0.1-0.2-0.4-0.2-0.4V140c0,0,0.1-0.3,0.2-0.4C425.7,139.4,426,139.4,426,139.4z M426.3,132.9h6.5
		c1.6,0.2,1.6,2.7-0.2,2.7l0,0h-6.3c0,0-0.4,0-0.7-0.2c-0.3-0.2-0.3-0.6-0.3-0.6v-1.1c0,0,0-0.5,0.3-0.7
		C426,132.8,426.3,132.9,426.3,132.9z"/>
</g>
<g>
	<path class="st1" d="M640,103.1c2.1-0.9,4.2-1.8,6.4-2.4c5.9-1.7,11.7-3.8,17.5-6c2.5-1,4.8-2.3,6.6-4.4c0.8-1,1.9-1.7,3.1-2.7
		c0,0,0,0,0,0c-0.5-0.4-1-0.8-1.4-1.3c-0.5-0.6-1.1-1.2-1.8-1.6c-1.2-0.6-1.5-1.6-1.4-2.8c0.1-0.8,0.2-1.6,0.5-2.3
		c0.9-1.8,1.5-3.6,1.9-5.6c0.1,0,0.1,0,0.2,0c-0.1-0.5-0.2-1-0.4-1.4c-0.8-0.5-1.7-0.8-2.2-1.4c-0.6-0.7-1-1.7-1.3-2.7
		c-0.7-2.2-1.3-4.4-2.3-6.4c-0.7-1.3-0.5-2.7-0.4-4.1c0.1-1.3,1.3-1.7,2.1-2.3c-0.9-3.3-1.6-6.6-1.7-10c0-0.6,0-1.1,0-1.7
		c-0.9-0.3-1.9-0.5-2.9-0.8c-2.1-0.5-4.4-0.4-6.5-1.1c-0.5-0.1-1,0-1.6,0.1c-1,0.1-2,0.4-3.1,0.4c-1.1,0-2.3,0.4-3,1.4
		c-0.3,0.5-0.8,0.6-1.3,0.8c-1.1,0.5-1.9,1.4-2.4,2.5c-0.3,0.7-0.8,1.4-1,2.1c-0.2,0.7-0.1,1.6-0.2,2.3c-0.3,1.6-0.4,3.2-0.3,4.7
		c0,2.3,0.6,4.5,1.1,6.7c-0.6,0.4-1.3,0.7-1.4,1.5c-0.1,0.9-0.2,1.9,0.3,2.7c0.7,1.4,1.1,2.8,1.5,4.3c0.2,0.6,0.4,1.3,0.9,1.8
		c0.3,0.4,0.9,0.6,1.5,0.9c0.4,1.6,0.8,3.2,1.7,4.6c0.5,0.8,0.6,1.6,0.4,2.5c-0.2,1-0.4,2.1-0.6,2.9c-0.8,0.7-1.5,1.1-2.1,1.8
		c-1.2,1.4-2.7,2.3-4.4,2.9c-3.8,1.5-7.7,2.9-11.6,4c-1.5,0.4-2.9,1-4.3,1.6c-2.3,1-4,2.7-4.8,5c-0.9,2.5-1.9,5.1-2.7,7.7
		c-0.5,1.6-0.9,3.3-0.9,5.1c0,0.9,0,1.7,0.2,2.6c0.2,1,0.9,1.6,2,1.7c0.5,0,1.1,0,1.6,0c3,0,5.9,0,8.9,0c0.7-2.1,1.5-4.2,2.3-6.2
		C634.1,107.1,636.6,104.6,640,103.1z"/>
	<path class="st1" d="M751.4,115.5c-0.5-2.1-1.3-4.2-2.4-6.1c-1.6-2.7-3.7-4.6-6.8-5.5c-1.7-0.5-3.4-1.1-5.1-1.8
		c-6.3-2.4-12.5-5.2-19-7.1c-2-0.6-3.5-1.7-4.8-3.3c-0.7-0.9-1.6-1.8-2.6-2.4c-1.8-1-2.3-2.4-2.1-4.2c0.1-1.2,0.2-2.4,0.8-3.5
		c1.3-2.7,2.3-5.4,2.9-8.4c1.1,0.2,2-0.1,2.4-0.9c0.6-1.1,1.1-2.3,1.5-3.6c0.8-2.8,1.4-5.6,2.1-8.4c0-0.2,0.1-0.4,0.1-0.6
		c0.2-1-0.2-1.8-1.1-2.2c-0.3-0.2-0.7-0.2-1.1-0.4c0.2-0.7,0.3-1.1,0.4-1.6c1.5-6.3,0.6-12.3-2.3-18c-2.3-4.7-5.9-7.9-10.9-9.5
		c-1.4-0.5-2.9-0.8-4.3-1.2c-3.2-0.8-6.5-0.6-9.7-1.6c-0.7-0.2-1.6,0-2.4,0.1c-1.6,0.1-3,0.6-4.7,0.7c-1.6,0-3.4,0.5-4.4,2.1
		c-0.5,0.7-1.2,0.9-2,1.2c-1.7,0.8-2.9,2-3.5,3.8c-0.4,1.1-1.2,2.1-1.5,3.2c-0.3,1.1-0.1,2.4-0.3,3.5c-0.5,2.4-0.5,4.7-0.5,7.1
		c0.1,3.4,0.8,6.7,1.7,10c-0.9,0.7-2,1-2.1,2.3c-0.1,1.4-0.3,2.8,0.4,4.1c1,2.1,1.6,4.3,2.3,6.4c0.3,0.9,0.7,1.9,1.3,2.7
		c0.5,0.6,1.4,0.9,2.2,1.4c0.5,2.4,1.3,4.8,2.6,6.9c0.7,1.1,0.9,2.4,0.6,3.7c-0.3,1.6-0.7,3.1-1,4.4c-1.2,1-2.3,1.7-3.1,2.7
		c-1.8,2.2-4.1,3.4-6.6,4.4c-5.7,2.3-11.5,4.3-17.5,6c-2.2,0.6-4.3,1.4-6.4,2.4c-3.4,1.5-5.9,4-7.2,7.5c-1.4,3.8-2.8,7.6-4.1,11.5
		c-0.8,2.5-1.3,5-1.4,7.6c0,1.3,0,2.6,0.3,3.8c0.3,1.5,1.4,2.4,3,2.5c0.8,0,1.6,0.1,2.4,0.1c37.3,0.1,74.6,0.2,111.9,0.2
		c0.6,0,1.2,0,1.8,0c2.2-0.1,3-0.9,3.3-3.1c0.3-2.1,0.1-4.2-0.3-6.2C753.3,124.2,752.4,119.8,751.4,115.5z"/>
	<path class="st1" d="M768.4,107.8c-0.6-2.9-0.7-3.6-1.3-6.5c-0.3-1.4-1.2-3.2-1.9-4.5c-1-1.7-2-2.4-4-3c-1.1-0.3-2.4-0.6-3.5-0.9
		c-4-1.1-1.5-0.3-5.7-1.6c-0.9-0.3-4.5-1.7-6.7-2.9c0.1-1.3-0.4-4.5-1.5-4.7c-0.6-0.2-1.7,0.2-2.7,0.6c-0.3-0.4-0.6-0.7-0.8-0.8
		c-1.2-0.6-1.1-3-0.9-4.2c0.1-0.8,1.5-1.7,1.9-2.4c0.1-0.2,0.7-1.5,0.8-1.7c3.8,5.1,8.1,5.7,8.1,5.7s-3.3-7.2-1.9-11.3c0,0,0,0,0,0
		c1.3-5.3,1.8-11.8-0.3-20.2c-2.5-9.8-10.7-8.3-12.5-8c0,0-8.2-3.1-14.7-0.1c1,3.9,1.1,8,0.1,12.1c-0.1,0.5-0.2,0.9-0.4,1.6
		c0.5,0.1,0.8,0.2,1.1,0.4c0.9,0.4,1.3,1.2,1.1,2.2c0,0.2-0.1,0.4-0.1,0.6c-0.7,2.8-1.4,5.6-2.1,8.4c-0.3,1.2-0.9,2.4-1.5,3.6
		c-0.4,0.9-1.3,1.2-2.4,0.9c-0.6,2.7-1.5,5.2-2.6,7.7c2.1-0.2,5-1.3,6.6-3.9c0.2,0.6,0.5,1.1,0.8,1.6c0.5,0.7,1.8,1.6,1.6,2.4
		c-0.2,1-0.4,2-0.6,2.9c-0.4,0.3-0.8,0.9-1.1,1.5c-1-0.4-2.3-0.9-2.9-0.7c-1.2,0.3-1.7,4.4-1.3,5.1c-0.2,0.2-0.5,0.3-0.7,0.5
		c0.5,0.4,0.9,0.9,1.2,1.3c1.3,1.6,2.9,2.7,4.8,3.3c6.5,2,12.7,4.7,19,7.1c1.7,0.6,3.3,1.3,5.1,1.8c3.1,0.9,5.2,2.8,6.8,5.5
		c1.1,1.9,2,3.9,2.4,6.1c0,0.2,0.1,0.3,0.1,0.5c3.1,0,6.3,0,9.6,0c0.4,0,0.8,0,1.2,0c1.4-0.1,1.9-0.6,2.2-2
		C768.8,110.5,768.7,109.2,768.4,107.8z"/>
</g>
<g>
	<path class="st1" d="M975,118.7c-1.1-1.6-2.3-3.2-3.4-4.8c-0.4-0.6-0.7-1.2-1-1.6c1.2-2.9,2.3-5.5,3.6-8.5c1.1-0.2,2.2-0.4,3.4-0.6
		c1.3-0.2,2.7-0.4,4-0.7c2.1-0.4,3.1-1.6,3.2-3.7c0.1-1.5,0.1-3.1,0-4.6c-0.1-1.8-1.1-3-2.9-3.4c-0.3-0.1-0.5-0.1-0.8-0.1
		c-2.3-0.4-4.6-0.8-7-1.2c-0.9-2.3-1.7-4.5-2.6-6.8c0.4-0.5,0.7-1.1,1.1-1.5c1-1.3,2-2.6,3.1-3.8c2.1-2.3,2-4.3-0.1-6.4
		c-0.6-0.6-1.1-1.2-1.6-1.8c-2.3-2.5-3.4-2.7-6.3-0.9c-1.9,1.2-3.8,2.4-5.8,3.6c-3.1-2.1-6.5-3.5-10-4.6c-0.2-1-0.4-1.8-0.5-2.7
		c-0.3-1.7-0.6-3.4-0.9-5.1c-0.3-1.8-1.5-2.9-3.3-3.1c-1.7-0.2-3.4-0.2-5.1,0c-1.8,0.2-3,1.2-3.3,3.1c-0.2,1-0.3,2-0.5,2.9
		c-0.4,1.6-0.3,3.4-1,4.7c-3,1.2-5.7,2.4-8.5,3.6c-0.5-0.3-1.1-0.7-1.7-1.1c-1.5-1-2.9-2.1-4.4-3.1c-1.8-1.2-3.3-1.1-4.9,0.4
		c-1.1,1-2.1,2-3.1,3.1c-1.5,1.6-1.6,3-0.4,4.9c0.9,1.4,2,2.8,3,4.2c0.5,0.7,1.2,1.3,1.3,2c-1.2,3-2.4,5.7-3.5,8.5
		c-0.4,0.1-0.9,0.2-1.3,0.3c-2.1,0.4-4.3,0.7-6.4,1.1c-1.8,0.4-2.9,1.5-3,3.3c-0.1,1.7-0.1,3.4,0,5.1c0.1,1.6,1,2.7,2.6,3.1
		c0.6,0.2,1.2,0.2,1.8,0.3c2.2,0.5,4.5,0.5,6.4,1.3c0.9,2.4,1.8,4.7,2.6,7c-0.7,0.9-1.5,1.8-2.2,2.8c-0.9,1.1-1.8,2.2-2.7,3.4
		c-1.1,1.5-1.1,3.1,0,4.5c1,1.3,2.1,2.5,3.2,3.6c1.4,1.4,2.7,1.5,4.4,0.6c0.7-0.4,1.4-0.8,2.1-1.3c1.6-1,3.2-2,4.7-2.9
		c1.7,0.9,3.3,1.8,4.9,2.5c1.6,0.7,3.3,1.3,5,1.9c0.1,0.7,0.3,1.4,0.4,2c0.3,1.9,0.6,3.9,1,5.8c0.4,1.9,1.4,2.8,3.4,2.9
		c1.7,0.1,3.4,0.1,5.1,0c1.5-0.1,2.5-0.9,3-2.3c0.2-0.8,0.3-1.6,0.5-2.4c0.5-2,0.4-4.1,1.1-5.9c2.9-1.2,5.6-2.3,8.5-3.5
		c0.8,0.5,1.6,1.1,2.4,1.6c1.3,0.9,2.6,1.9,4,2.8c1.9,1.2,3.2,1.2,4.9-0.3c1.1-1,2.1-2,3.1-3C976,122.1,976.1,120.5,975,118.7z
		 M944.5,119.8c-12.9,0-23.3-10.4-23.3-23.3c0-12.9,10.4-23.3,23.3-23.3c12.9,0,23.3,10.4,23.3,23.3
		C967.8,109.4,957.4,119.8,944.5,119.8z"/>
	<path class="st1" d="M944.5,81.6c-8.2,0-14.9,6.7-14.9,14.9c0,8.2,6.7,14.9,14.9,14.9s14.9-6.7,14.9-14.9
		C959.4,88.3,952.7,81.6,944.5,81.6z M944.5,105.7c-5,0-9.2-4.1-9.2-9.2c0-5,4.1-9.2,9.2-9.2s9.2,4.1,9.2,9.2
		C953.7,101.6,949.6,105.7,944.5,105.7z"/>
	<path class="st1" d="M1042.8,71c-0.3-1.5-1.2-2.3-2.7-2.4c-0.2,0-0.4,0-0.7,0c-1.9,0-3.8-0.1-5.8-0.1c-1-1.7-1.9-3.4-2.9-5.1
		c0.2-0.5,0.5-0.9,0.7-1.4c0.6-1.1,1.3-2.3,2-3.4c1.4-2.1,1.1-3.7-0.9-5.1c-0.5-0.4-1-0.8-1.5-1.3c-2.1-1.7-3.1-1.7-5.2,0.1
		c-1.4,1.2-2.8,2.4-4.2,3.7c-2.7-1.3-5.6-2-8.6-2.4c-0.3-0.8-0.5-1.4-0.8-2.1c-0.4-1.3-0.9-2.6-1.3-3.9c-0.5-1.4-1.6-2.1-3-2.1
		c-1.4,0.1-2.8,0.3-4.1,0.6c-1.4,0.4-2.2,1.3-2.2,2.9c0,0.8,0,1.6,0,2.4c-0.1,1.4,0.2,2.8-0.2,3.9c-2.2,1.4-4.3,2.6-6.4,3.9
		c-0.5-0.2-1-0.4-1.5-0.7c-1.3-0.6-2.6-1.3-3.9-1.9c-1.6-0.7-2.8-0.5-3.9,0.9c-0.7,0.9-1.4,1.9-2.1,2.8c-1,1.5-0.9,2.6,0.3,4
		c0.9,1,1.9,2,2.9,3c0.5,0.5,1.2,0.9,1.3,1.5c-0.6,2.5-1.2,4.9-1.8,7.2c-0.3,0.1-0.7,0.3-1,0.4c-1.7,0.6-3.3,1.1-5,1.7
		c-1.4,0.5-2.1,1.6-2,3c0.1,1.4,0.4,2.8,0.6,4.1c0.3,1.3,1.2,2,2.4,2.2c0.5,0.1,1,0,1.5,0c1.8,0.1,3.6-0.2,5.3,0.2
		c1,1.8,2,3.5,3,5.3c-0.5,0.8-0.9,1.7-1.4,2.5c-0.6,1-1.2,2-1.7,3c-0.7,1.3-0.5,2.6,0.6,3.6c1,0.9,2,1.7,3,2.5
		c1.3,0.9,2.4,0.9,3.6-0.1c0.5-0.4,1-0.8,1.5-1.3c1.2-1,2.3-2,3.4-3c1.5,0.5,2.9,1,4.3,1.4c1.4,0.4,2.8,0.6,4.2,0.9
		c0.2,0.6,0.4,1,0.6,1.5c0.5,1.5,1,3.1,1.6,4.6c0.6,1.5,1.5,2.1,3.1,1.9c1.4-0.2,2.8-0.4,4.1-0.7c1.2-0.2,1.9-1.1,2.1-2.3
		c0.1-0.6,0.1-1.3,0.1-2c0.1-1.7-0.2-3.3,0.1-4.9c2.2-1.3,4.2-2.6,6.4-3.9c0.7,0.3,1.4,0.7,2.1,1c1.2,0.6,2.3,1.2,3.5,1.7
		c1.7,0.8,2.7,0.5,3.9-0.9c0.7-0.9,1.4-1.9,2.1-2.8c0.9-1.4,0.9-2.7-0.3-4c-1.1-1.2-2.3-2.3-3.4-3.5c-0.4-0.4-0.7-0.9-1-1.2
		c0.6-2.5,1.2-4.7,1.8-7.3c0.8-0.3,1.7-0.6,2.6-0.9c1-0.3,2.1-0.6,3.1-1c1.6-0.6,2.3-1.7,2.1-3.4C1043.2,73.5,1043,72.2,1042.8,71z
		 M1013.8,96.6c-10.3,1.6-20-5.4-21.6-15.7c-1.6-10.3,5.4-20,15.7-21.6c10.3-1.6,20,5.4,21.6,15.7
		C1031.1,85.3,1024.1,95,1013.8,96.6z"/>
	<path class="st1" d="M1009,66c-6.6,1-11.1,7.2-10.1,13.8c1,6.6,7.2,11.1,13.8,10.1c6.6-1,11.1-7.2,10.1-13.8
		C1021.8,69.5,1015.6,64.9,1009,66z M1012,85.3c-4,0.6-7.9-2.1-8.5-6.2c-0.6-4,2.1-7.9,6.2-8.5c4-0.6,7.9,2.1,8.5,6.2
		C1018.8,80.8,1016,84.7,1012,85.3z"/>
	<path class="st1" d="M1022.1,130.6c-0.2-0.1-0.3-0.1-0.5-0.1c-1.4-0.3-2.8-0.7-4.3-1.1c-0.4-1.4-0.9-2.9-1.3-4.3
		c0.3-0.3,0.5-0.6,0.8-0.9c0.7-0.7,1.3-1.5,2.1-2.2c1.4-1.4,1.4-2.6,0.2-4c-0.3-0.4-0.6-0.8-0.9-1.2c-1.3-1.7-2-1.8-3.9-0.8
		c-1.2,0.6-2.5,1.3-3.8,2c-1.8-1.5-3.9-2.5-6-3.3c-0.1-0.6-0.2-1.2-0.2-1.7c-0.1-1.1-0.2-2.1-0.3-3.2c-0.1-1.2-0.8-1.9-1.9-2
		c-1-0.2-2.1-0.2-3.2-0.2c-1.1,0-1.9,0.6-2.2,1.8c-0.1,0.6-0.2,1.2-0.4,1.8c-0.3,1-0.3,2.1-0.8,2.9c-1.9,0.6-3.6,1.2-5.4,1.9
		c-0.3-0.2-0.7-0.5-1-0.8c-0.9-0.7-1.7-1.4-2.6-2.1c-1.1-0.8-2-0.8-3,0c-0.7,0.6-1.4,1.1-2,1.8c-1,0.9-1.1,1.8-0.4,3
		c0.5,0.9,1.1,1.8,1.7,2.7c0.3,0.5,0.7,0.9,0.7,1.3c-0.9,1.8-1.7,3.4-2.5,5.1c-0.3,0-0.5,0.1-0.8,0.1c-1.3,0.1-2.7,0.2-4,0.4
		c-1.2,0.1-1.9,0.8-2,1.9c-0.1,1.1-0.2,2.1-0.2,3.2c0,1,0.5,1.7,1.5,2c0.4,0.1,0.8,0.2,1.1,0.3c1.3,0.4,2.7,0.5,3.9,1.1
		c0.5,1.5,0.9,3,1.3,4.4c-0.5,0.5-1,1.1-1.5,1.6c-0.6,0.7-1.2,1.3-1.8,2c-0.7,0.9-0.8,1.9-0.2,2.8c0.6,0.8,1.2,1.6,1.9,2.4
		c0.8,0.9,1.6,1.1,2.7,0.6c0.5-0.2,0.9-0.5,1.3-0.7c1-0.5,2.1-1.1,3.1-1.6c1,0.6,2,1.2,2.9,1.8c1,0.5,2,0.9,3,1.4
		c0.1,0.5,0.1,0.8,0.2,1.2c0.1,1.2,0.2,2.4,0.4,3.7c0.2,1.2,0.8,1.8,2,1.9c1.1,0.1,2.1,0.2,3.2,0.2c0.9,0,1.6-0.5,1.9-1.3
		c0.2-0.5,0.3-1,0.4-1.5c0.4-1.2,0.4-2.5,0.9-3.6c1.9-0.6,3.6-1.2,5.4-1.8c0.4,0.4,0.9,0.7,1.4,1.1c0.8,0.6,1.5,1.3,2.3,1.9
		c1.1,0.9,2,0.9,3,0c0.7-0.6,1.4-1.1,2-1.8c0.9-0.9,1.1-1.9,0.4-3c-0.6-1.1-1.3-2.1-1.9-3.1c-0.2-0.4-0.4-0.8-0.5-1
		c0.9-1.7,1.7-3.3,2.6-5.1c0.7-0.1,1.4-0.2,2.1-0.2c0.8-0.1,1.7-0.1,2.5-0.2c1.3-0.2,2-0.9,2.1-2.2c0.1-0.9,0.2-1.9,0.2-2.8
		C1023.7,131.7,1023.2,131,1022.1,130.6z M1013.1,133.6c-0.5,8-7.4,14-15.4,13.5c-8-0.5-14-7.4-13.5-15.4c0.5-8,7.4-14,15.4-13.5
		C1007.6,118.8,1013.7,125.6,1013.1,133.6z"/>
	<path class="st1" d="M999.3,123.4c-5.1-0.3-9.5,3.5-9.9,8.6c-0.3,5.1,3.5,9.5,8.6,9.9c5.1,0.3,9.5-3.5,9.9-8.6
		C1008.3,128.2,1004.4,123.7,999.3,123.4z M998.3,138.3c-3.1-0.2-5.5-2.9-5.3-6.1c0.2-3.1,2.9-5.5,6.1-5.3c3.1,0.2,5.5,2.9,5.3,6.1
		C1004.2,136.2,1001.5,138.5,998.3,138.3z"/>
</g>
<g>
	<path class="st1" d="M199.1,39.4c0-0.2,0-0.5-0.2-0.7c0,0,0,0,0,0c0,0-0.1-0.1-0.1-0.1c-0.1-0.2-0.2-0.3-0.4-0.4c0,0,0-0.1-0.1-0.1
		c0,0-0.1,0-0.1,0c-0.2-0.1-0.3-0.1-0.5-0.2c-0.1,0-0.1,0-0.2,0c-0.2,0-0.5,0-0.7,0.2l-90.9,45.3h-2.6l85.1-42.5
		c0.8-0.4,1.1-1.3,0.7-2.1c-0.4-0.8-1.3-1.1-2.1-0.7L95.8,83.5c-0.1,0-0.1,0.1-0.2,0.1c-0.1,0.1-0.2,0.1-0.3,0.2
		c-0.1,0.1-0.1,0.2-0.2,0.2c-0.1,0.1-0.1,0.2-0.2,0.3c0,0.1-0.1,0.2-0.1,0.3c0,0.1,0,0.1,0,0.2v51.6c0,0.9,0.7,1.6,1.6,1.6h9.8
		c0.3,0,0.5-0.1,0.8-0.2l91.1-45.4c0.5-0.3,0.9-0.8,0.9-1.4L199.1,39.4C199.2,39.4,199.1,39.4,199.1,39.4z M98.1,86.5h1.2h5.3V135
		h-6.6V86.5z M196,90.1L108,134V85.9L196,42V90.1z"/>
	<path class="st1" d="M92.1,128.8L81.9,134V85.9L161,46.5l8.9-4.4v1.4c0,0.9,0.7,1.6,1.6,1.6c0.9,0,1.6-0.7,1.6-1.6v-4c0,0,0,0,0,0
		c0-0.2,0-0.5-0.2-0.7c0,0,0,0,0,0c0,0-0.1-0.1-0.1-0.1c-0.1-0.2-0.2-0.3-0.4-0.4c0,0,0-0.1-0.1-0.1c0,0-0.1,0-0.1,0
		c-0.2-0.1-0.3-0.1-0.5-0.2c-0.1,0-0.1,0-0.2,0c-0.2,0-0.5,0-0.7,0.2L79.9,83.4h-2.7l85.1-42.5c0.8-0.4,1.1-1.3,0.7-2.1
		c-0.4-0.8-1.4-1.1-2.1-0.7L69.7,83.5c-0.1,0-0.1,0.1-0.2,0.1c-0.1,0.1-0.2,0.1-0.3,0.2c-0.1,0.1-0.1,0.2-0.2,0.2
		c-0.1,0.1-0.1,0.2-0.2,0.3c0,0.1-0.1,0.2-0.1,0.3c0,0.1,0,0.1,0,0.2v51.6c0,0.9,0.7,1.6,1.6,1.6h9.8c0.2,0,0.5-0.1,0.7-0.2
		c0,0,0,0,0,0l12.6-6.3c0.8-0.4,1.1-1.4,0.7-2.1C93.9,128.8,92.9,128.5,92.1,128.8z M72.1,86.5h1.2h5.4V135h-6.7V86.5z"/>
	<path class="st1" d="M64.1,128.8L53.9,134V85.9L131.8,47l10.1-5v1.4c0,0.9,0.7,1.6,1.6,1.6s1.6-0.7,1.6-1.6v-4c0,0,0,0,0,0
		c0-0.2,0-0.5-0.2-0.7c0,0,0,0,0,0c0,0-0.1-0.1-0.1-0.1c-0.1-0.2-0.2-0.3-0.4-0.4c0,0,0-0.1-0.1-0.1c0,0-0.1,0-0.1,0
		c-0.2-0.1-0.3-0.1-0.5-0.2c-0.1,0-0.1,0-0.2,0c-0.2,0-0.5,0-0.7,0.2L51.9,83.4h-2.7l85.1-42.5c0.8-0.4,1.1-1.3,0.7-2.1
		c-0.4-0.8-1.4-1.1-2.1-0.7L41.7,83.5c-0.1,0-0.1,0.1-0.2,0.1c-0.1,0.1-0.2,0.1-0.3,0.2c-0.1,0.1-0.1,0.2-0.2,0.2
		c-0.1,0.1-0.1,0.2-0.2,0.3c0,0.1-0.1,0.2-0.1,0.3c0,0.1,0,0.1,0,0.2v51.6c0,0.9,0.7,1.6,1.6,1.6h9.8c0.2,0,0.5-0.1,0.7-0.2
		c0,0,0,0,0,0l12.6-6.3c0.8-0.4,1.1-1.4,0.7-2.1C65.9,128.8,64.9,128.5,64.1,128.8z M44,86.5h1.2h5.4V135H44V86.5z"/>
</g>
</svg>
