<?xml version="1.0" encoding="utf-8"?>
<!-- Generator: Adobe Illustrator 27.3.1, SVG Export Plug-In . SVG Version: 6.00 Build 0)  -->
<svg version="1.1" id="レイヤー_1" xmlns="http://www.w3.org/2000/svg" xmlns:xlink="http://www.w3.org/1999/xlink" x="0px"
	 y="0px" viewBox="0 0 400 500" style="enable-background:new 0 0 400 500;" xml:space="preserve">
<style type="text/css">
	.st0{fill:#E95520;}
	.st1{fill:#42AD95;}
	.st2{fill:#17399F;}
	.st3{fill:#FFFFFF;}
</style>
<g>
	<g>
		<path class="st0" d="M89.3,407.4c1.8-2.6,5.1-5.3,8.7-6.3c12.7-3.5,29.9,12.6,39,38.1c9.1,25.5,6.5,49.8-5.9,54.2
			c-12.4,4.5-29.9-12.6-39-38.1l-2.8-7.4c0,0,5.1-14.7,7.8-22.1c1.9,4.4,4.4,10.2,7.5,18c7.7,19.4,12.5,28.9,18.8,27.5
			c3.8-0.8,4.9-14.8-2.5-33.1c-7.4-18.3-16.2-23.1-19.5-21.6c-2.8,1.2-4.1,3.3-4.5,4.3c-4.5,10.5-12.4,34.4-12.4,34.4
			c-9.1,25.5-26.6,42.6-39,38.1c-12.4-4.5-15.1-28.7-5.9-54.2c9.1-25.5,26.3-41.6,39-38.1c3.6,1,6.3,3.2,8.3,6.5
			c0,0-4.5,6.7-7.1,13.4c-0.4-1.1-1.7-3.1-4.5-4.3c-3.3-1.5-12.1,3.3-19.5,21.6c-7.4,18.3-6.2,32.3-2.5,33.1
			c6.3,1.4,11.1-8.1,18.8-27.5c7.7-19.4,11.3-26.6,12.8-29.4C87.8,409.3,89.3,407.4,89.3,407.4z"/>
		<polygon class="st0" points="366,463.2 352.4,463.2 345.4,471.3 338.4,463.2 324.8,463.2 338.6,479.1 324.8,495.1 338.4,495.1 
			345.4,487 352.4,495.1 366,495.1 352.2,479.1 		"/>
		<path class="st0" d="M265.3,461.9v-3.1h-11.6v27.8c0,0-0.2,4.1,2.3,6.4c2.6,2.3,5.4,2.1,5.4,2.1h1.2v0h20.2v-8h-16.2
			c0,0-0.6,0.1-1-0.2c-0.4-0.4-0.3-1.1-0.3-1.1v-13c0,0,0-0.6,0.4-0.9c0.3-0.3,0.9-0.3,0.9-0.3h16.3v-8.6h-16.3c0,0-0.7,0.1-1-0.2
			C265.3,462.6,265.3,461.9,265.3,461.9z"/>
		<path class="st0" d="M242.5,463.2h-1.6v-0.1h-29.1v8.6h26.4c0,0,0.7,0.2,0.9,0.5c0.2,0.3,0.4,0.9,0.4,0.9v1.1c0,0,0,0.4-0.4,0.8
			c-0.3,0.3-0.8,0.5-0.8,0.5l-13,0l-4.2,0c-0.6,0-1.5,0-3.4,0c-4.2,0-7.3,4.7-7.3,10.1c0,5.4,3,9.6,7.3,9.6c3.3,0,5.8-0.1,6.9,0h15
			l-0.1,0H251v-24.1c0,0,0-3-2.7-5.6C245.9,463,242.5,463.2,242.5,463.2z M237.4,488h-12.4v0c-3.9,0-3.7-5.5,0-5.5c0,0,0.1,0,0.1,0
			h12.2c0,0,0.9,0.2,1.4,0.6c0.5,0.4,0.7,1.3,0.7,1.3v1.9c0,0-0.3,0.8-0.7,1.2C238.4,487.9,237.4,488,237.4,488z"/>
		<path class="st0" d="M200.7,463.2h-0.3v-0.1H155v0.1h-3.6v31.9h11.6v-22.4c0,0,0-0.5,0.3-0.8c0.3-0.3,0.7-0.3,0.7-0.3h8.7
			c0,0,0.7,0,1.1,0.3c0.3,0.3,0.2,1,0.2,1v22.2h11.6v-22.5c0,0,0-0.4,0.2-0.7c0.2-0.3,0.7-0.3,0.7-0.3h9c0,0,0.6-0.1,0.9,0.3
			c0.3,0.3,0.2,0.7,0.2,0.7v22.5h11.6v-23.8c0,0,0.2-2.4-1.9-5.3C204,462.8,200.7,463.2,200.7,463.2z"/>
		<path class="st0" d="M296.9,483.5h15v0c1.3,0,1.2,0,5.1,0c3.5,0,7.2-3.8,7.2-10.4c0-6.3-3.7-10.1-7.1-10.1c-1.9,0-3.1,0-3.7,0v0
			h-17.8h-0.6h-0.9c0,0-5-0.3-7.5,2.3c-2.7,2.8-2.6,6.6-2.6,6.6v14.7c0,0-0.2,4.1,2.3,6.4c2.6,2.3,5.4,2.1,5.4,2.1h2.3v0.1h29.1
			v-8.6h-26.5c0,0-0.5-0.1-0.8-0.3c-0.3-0.3-0.3-0.8-0.3-0.8v-1c0,0,0.1-0.5,0.4-0.8C296.3,483.5,296.9,483.5,296.9,483.5z
			 M297.5,470.6h12.8c3.2,0.3,3.1,5.3-0.3,5.3l0,0h-12.4c0,0-0.8,0-1.4-0.4c-0.5-0.4-0.6-1.1-0.6-1.1v-2.2c0,0,0.1-1,0.7-1.4
			C296.8,470.6,297.5,470.6,297.5,470.6z"/>
	</g>
	<g>
		<circle class="st1" cx="200" cy="201" r="196.2"/>
		<circle class="st2" cx="200" cy="201" r="181.1"/>
		<g>
			<path class="st3" d="M66,191.5v-68.8h29.4v9.3H75.9v20.9h17v9.3h-17v29.4H66z"/>
			<path class="st3" d="M94.8,191.5l15.4-68.8h8.2l15.4,68.8h-9.9l-2.9-14.8h-13.4l-2.9,14.8H94.8z M119.2,167.4l-4.8-24.9h-0.2
				l-4.8,24.9H119.2z"/>
			<path class="st3" d="M139.4,191.5v-68.8h9.9v68.8H139.4z"/>
			<path class="st3" d="M166,191.5V132h-11.4v-9.3h32.6v9.3h-11.4v59.5H166z"/>
			<path class="st3" d="M192.5,191.5v-68.8h9.9v29.5h12.2v-29.5h9.9v68.8h-9.9v-30.6h-12.2v30.6H192.5z"/>
			<path class="st3" d="M232.2,191.5v-68.8h29.4v9.3h-19.5v20.9h17v9.3h-17v29.4H232.2z"/>
			<path class="st3" d="M299.7,122.7V176c0,2.3-0.4,4.3-1.2,6.2c-0.8,1.9-1.9,3.6-3.4,5.1c-1.5,1.5-3.2,2.6-5.1,3.5
				c-1.9,0.8-4,1.3-6.2,1.3c-2.2,0-4.2-0.4-6.1-1.3c-1.9-0.8-3.6-2-5.1-3.5c-1.5-1.5-2.6-3.2-3.5-5.1c-0.8-1.9-1.3-4-1.3-6.2v-53.3
				h9.9V175c0,2.4,0.6,4.2,1.7,5.4c1.2,1.2,2.6,1.7,4.3,1.7c1.7,0,3.2-0.6,4.3-1.7c1.2-1.2,1.7-3,1.7-5.4v-52.3H299.7z"/>
			<path class="st3" d="M307.5,191.5v-68.8h9.9v58.9h19.5v9.9H307.5z"/>
			<path class="st3" d="M69.8,282v-68.8h14.8c2.7,0,5.1,0.4,7.1,1.1c2.1,0.7,3.9,2,5.6,3.8c1.7,1.8,2.8,3.9,3.5,6.3
				c0.6,2.4,1,5.7,1,9.8c0,3.1-0.2,5.7-0.5,7.8c-0.4,2.1-1.1,4.1-2.3,6c-1.4,2.3-3.2,4-5.4,5.3c-2.3,1.3-5.2,1.9-8.9,1.9h-5V282
				H69.8z M79.6,222.5v23.4h4.7c2,0,3.5-0.3,4.6-0.9c1.1-0.6,1.9-1.4,2.4-2.4c0.5-1,0.8-2.2,0.9-3.6c0.1-1.4,0.1-3,0.1-4.7
				c0-1.6,0-3.1-0.1-4.6c-0.1-1.4-0.4-2.7-0.9-3.8c-0.5-1.1-1.3-1.9-2.3-2.5c-1-0.6-2.5-0.9-4.4-0.9H79.6z"/>
			<path class="st3" d="M101.5,282l15.4-68.8h8.2l15.4,68.8h-9.9l-2.9-14.8h-13.4l-2.9,14.8H101.5z M125.9,258L121,233h-0.2L116,258
				H125.9z"/>
			<path class="st3" d="M145.9,282v-68.8h15.8c11.6,0,17.4,6.7,17.4,20.2c0,4.1-0.6,7.5-1.9,10.3c-1.3,2.8-3.5,5.1-6.6,6.9
				l10.6,31.4h-10.4l-9.2-29.4h-5.9V282H145.9z M155.8,222.5V244h5.6c1.7,0,3.1-0.2,4.2-0.7c1-0.5,1.8-1.2,2.4-2.1
				c0.5-0.9,0.9-2,1.1-3.3c0.2-1.3,0.3-2.8,0.3-4.6c0-1.7-0.1-3.3-0.3-4.6c-0.2-1.3-0.6-2.5-1.2-3.4c-1.2-1.8-3.5-2.7-7-2.7H155.8z"
				/>
			<path class="st3" d="M194.5,282v-59.5h-11.4v-9.3h32.6v9.3h-11.4V282H194.5z"/>
			<path class="st3" d="M220.8,282v-68.8h9.5l14.9,41.4h0.2v-41.4h9.9V282h-9.3l-15.1-41.3h-0.2V282H220.8z"/>
			<path class="st3" d="M262.8,282v-68.8h29.4v9.3h-19.5v20.2h17v9.3h-17v20.2h19.5v9.9H262.8z"/>
			<path class="st3" d="M298.4,282v-68.8h15.8c11.6,0,17.4,6.7,17.4,20.2c0,4.1-0.6,7.5-1.9,10.3c-1.3,2.8-3.5,5.1-6.6,6.9
				l10.6,31.4h-10.4l-9.2-29.4h-5.9V282H298.4z M308.2,222.5V244h5.6c1.7,0,3.1-0.2,4.2-0.7c1-0.5,1.8-1.2,2.4-2.1
				c0.5-0.9,0.9-2,1.1-3.3c0.2-1.3,0.3-2.8,0.3-4.6c0-1.7-0.1-3.3-0.3-4.6c-0.2-1.3-0.6-2.5-1.2-3.4c-1.2-1.8-3.5-2.7-7-2.7H308.2z"
				/>
		</g>
	</g>
</g>
</svg>
